M48
;GenerationSoftware,Autodesk,EAGLE,9.4.2*%
;CreationDate,2022-04-12T15:12:36Z*%
FMAT,2
ICI,OFF
METRIC,TZ,000.000
T5C0.305
T4C0.508
T3C0.650
T2C1.016
T1C3.302
%
G90
M71
T1
X20320Y2540
X2540Y2540
T2
X12700Y23622
X21590Y16510
X1270Y52070
X21590Y41910
X21590Y52070
X21590Y49530
X21590Y46990
X21590Y44450
X10160Y23622
X21590Y39370
X21590Y36830
X21590Y34290
X21590Y31750
X21590Y29210
X21590Y26670
X21590Y24130
X21590Y21590
X21590Y19050
X21590Y13970
X1270Y24130
X1270Y26670
X1270Y29210
X1270Y31750
X1270Y34290
X1270Y36830
X1270Y39370
X1270Y41910
X1270Y44450
X1270Y46990
X1270Y49530
T3
X8540Y4905
X14320Y4905
T4
X7747Y26670
X7747Y27940
X7747Y29210
X7747Y24130
X7747Y25400
X6477Y26670
X6477Y27940
X6477Y29210
X6477Y24130
X6477Y25400
T5
X3048Y55499
X3048Y54737
X3048Y53975
X3048Y53213
X3302Y52451
X4064Y52451
X4826Y52451
X5588Y52451
X6350Y52451
X7112Y52451
X7874Y52451
X8636Y52451
X9398Y52451
X10160Y52451
X10922Y52451
X11684Y52451
X12446Y52451
X13208Y52451
X13970Y52451
X14351Y53213
X14351Y53975
X14351Y54737
X14351Y55499
X14351Y56261
X14351Y57023
X14351Y57785
X1270Y55880
X1270Y53340
X15240Y57150
X16510Y55880
X15240Y54610
X17780Y54610
X16510Y53340
X18796Y53340
X19050Y50800
X15240Y49530
X12700Y49530
X10160Y49530
X7620Y49530
X6350Y45466
X7620Y43815
X13970Y43180
X15113Y41910
X5461Y37465
X10160Y31750
X12700Y34290
X17780Y31750
X16510Y30480
X17780Y29210
X17399Y24003
X1270Y20193
X2540Y19050
X3810Y17780
X1270Y17780
X2540Y16510
X3810Y12700
X2667Y11303
X3048Y7493
X14478Y27305
X2540Y5080
X5080Y5080
X17780Y2540
X17780Y5080
X20320Y5080
X21844Y9271
X20320Y10160
X19050Y11430
X8890Y10160
X7620Y11430
X12700Y13970
X10160Y13970
X7620Y13970
X14351Y25527
X18059Y22279
X18034Y26604
X18923Y12827
X3467Y40259
X11049Y19304
X16891Y17660
X16764Y47244
X10033Y8890
X16891Y46228
X10033Y7874
X19431Y38227
X20063Y39240
X18796Y37338
X16675Y41275
X8763Y45974
X14968Y34163
X5931Y41021
X5867Y30353
X5969Y42219
X4826Y35052
X11557Y17145
X4064Y35052
X11049Y16637
X5931Y44196
X7620Y35160
X6223Y43180
X5969Y48260
X3429Y47282
X5334Y33782
X17145Y6350
X11261Y5122
X12192Y5080
X13208Y9017
X11049Y12630
X8255Y1270
X16891Y34290
X16510Y38354
X14605Y50419
X8890Y40132
X11938Y37592
X9906Y41275
X10795Y37465
X12065Y41402
X12700Y31750
X19304Y49149
X14732Y44196
X6858Y46609
X7366Y42418
X8001Y37465
X17526Y21336
X9652Y15113
X12065Y16637
X6858Y13843
X3937Y9906
X19050Y8890
X8763Y49022
X17780Y33020
X5969Y49276
X10160Y48260
X11430Y46990
X12700Y48260
X12700Y45720
X3810Y6350
X10160Y45720
X8001Y38354
X9398Y39624
X8890Y33020
X10668Y34798
X10541Y29464
X18034Y27559
X7874Y15494
X4572Y17018
X11684Y22225
X13970Y22606
X3810Y11430
X12700Y20320
X8255Y6985
X13843Y8890
X11430Y7112
X11557Y12192
X18288Y13462
X16891Y4572
X5461Y3048
X15748Y7239
X3048Y57785
X3048Y57023
X3048Y56261
X13462Y40894
M30