G04 EAGLE Gerber RS-274X export*
G75*
%MOMM*%
%FSLAX34Y34*%
%LPD*%
%IN*%
%IPPOS*%
%AMOC8*
5,1,8,0,0,1.08239X$1,22.5*%
G01*
%ADD10C,0.203200*%
%ADD11C,0.000000*%
%ADD12C,0.010000*%
%ADD13C,0.254000*%


D10*
X25400Y584200D02*
X203200Y584200D01*
X203814Y584193D01*
X204427Y584170D01*
X205040Y584133D01*
X205651Y584081D01*
X206262Y584015D01*
X206870Y583933D01*
X207476Y583837D01*
X208080Y583727D01*
X208681Y583602D01*
X209279Y583462D01*
X209873Y583308D01*
X210463Y583139D01*
X211049Y582957D01*
X211630Y582760D01*
X212207Y582549D01*
X212778Y582325D01*
X213344Y582087D01*
X213904Y581835D01*
X214457Y581569D01*
X215004Y581291D01*
X215544Y580999D01*
X216077Y580694D01*
X216602Y580376D01*
X217120Y580046D01*
X217629Y579704D01*
X218130Y579349D01*
X218622Y578982D01*
X219105Y578604D01*
X219579Y578214D01*
X220043Y577812D01*
X220498Y577400D01*
X220942Y576976D01*
X221376Y576542D01*
X221800Y576098D01*
X222212Y575643D01*
X222614Y575179D01*
X223004Y574705D01*
X223382Y574222D01*
X223749Y573730D01*
X224104Y573229D01*
X224446Y572720D01*
X224776Y572202D01*
X225094Y571677D01*
X225399Y571144D01*
X225691Y570604D01*
X225969Y570057D01*
X226235Y569504D01*
X226487Y568944D01*
X226725Y568378D01*
X226949Y567807D01*
X227160Y567230D01*
X227357Y566649D01*
X227539Y566063D01*
X227708Y565473D01*
X227862Y564879D01*
X228002Y564281D01*
X228127Y563680D01*
X228237Y563076D01*
X228333Y562470D01*
X228415Y561862D01*
X228481Y561251D01*
X228533Y560640D01*
X228570Y560027D01*
X228593Y559414D01*
X228600Y558800D01*
X228600Y25400D01*
X228593Y24786D01*
X228570Y24173D01*
X228533Y23560D01*
X228481Y22949D01*
X228415Y22338D01*
X228333Y21730D01*
X228237Y21124D01*
X228127Y20520D01*
X228002Y19919D01*
X227862Y19321D01*
X227708Y18727D01*
X227539Y18137D01*
X227357Y17551D01*
X227160Y16970D01*
X226949Y16393D01*
X226725Y15822D01*
X226487Y15256D01*
X226235Y14696D01*
X225969Y14143D01*
X225691Y13596D01*
X225399Y13056D01*
X225094Y12523D01*
X224776Y11998D01*
X224446Y11480D01*
X224104Y10971D01*
X223749Y10470D01*
X223382Y9978D01*
X223004Y9495D01*
X222614Y9021D01*
X222212Y8557D01*
X221800Y8102D01*
X221376Y7658D01*
X220942Y7224D01*
X220498Y6800D01*
X220043Y6388D01*
X219579Y5986D01*
X219105Y5596D01*
X218622Y5218D01*
X218130Y4851D01*
X217629Y4496D01*
X217120Y4154D01*
X216602Y3824D01*
X216077Y3506D01*
X215544Y3201D01*
X215004Y2909D01*
X214457Y2631D01*
X213904Y2365D01*
X213344Y2113D01*
X212778Y1875D01*
X212207Y1651D01*
X211630Y1440D01*
X211049Y1243D01*
X210463Y1061D01*
X209873Y892D01*
X209279Y738D01*
X208681Y598D01*
X208080Y473D01*
X207476Y363D01*
X206870Y267D01*
X206262Y185D01*
X205651Y119D01*
X205040Y67D01*
X204427Y30D01*
X203814Y7D01*
X203200Y0D01*
X25400Y0D01*
X24786Y7D01*
X24173Y30D01*
X23560Y67D01*
X22949Y119D01*
X22338Y185D01*
X21730Y267D01*
X21124Y363D01*
X20520Y473D01*
X19919Y598D01*
X19321Y738D01*
X18727Y892D01*
X18137Y1061D01*
X17551Y1243D01*
X16970Y1440D01*
X16393Y1651D01*
X15822Y1875D01*
X15256Y2113D01*
X14696Y2365D01*
X14143Y2631D01*
X13596Y2909D01*
X13056Y3201D01*
X12523Y3506D01*
X11998Y3824D01*
X11480Y4154D01*
X10971Y4496D01*
X10470Y4851D01*
X9978Y5218D01*
X9495Y5596D01*
X9021Y5986D01*
X8557Y6388D01*
X8102Y6800D01*
X7658Y7224D01*
X7224Y7658D01*
X6800Y8102D01*
X6388Y8557D01*
X5986Y9021D01*
X5596Y9495D01*
X5218Y9978D01*
X4851Y10470D01*
X4496Y10971D01*
X4154Y11480D01*
X3824Y11998D01*
X3506Y12523D01*
X3201Y13056D01*
X2909Y13596D01*
X2631Y14143D01*
X2365Y14696D01*
X2113Y15256D01*
X1875Y15822D01*
X1651Y16393D01*
X1440Y16970D01*
X1243Y17551D01*
X1061Y18137D01*
X892Y18727D01*
X738Y19321D01*
X598Y19919D01*
X473Y20520D01*
X363Y21124D01*
X267Y21730D01*
X185Y22338D01*
X119Y22949D01*
X67Y23560D01*
X30Y24173D01*
X7Y24786D01*
X0Y25400D01*
X0Y558800D01*
X7Y559414D01*
X30Y560027D01*
X67Y560640D01*
X119Y561251D01*
X185Y561862D01*
X267Y562470D01*
X363Y563076D01*
X473Y563680D01*
X598Y564281D01*
X738Y564879D01*
X892Y565473D01*
X1061Y566063D01*
X1243Y566649D01*
X1440Y567230D01*
X1651Y567807D01*
X1875Y568378D01*
X2113Y568944D01*
X2365Y569504D01*
X2631Y570057D01*
X2909Y570604D01*
X3201Y571144D01*
X3506Y571677D01*
X3824Y572202D01*
X4154Y572720D01*
X4496Y573229D01*
X4851Y573730D01*
X5218Y574222D01*
X5596Y574705D01*
X5986Y575179D01*
X6388Y575643D01*
X6800Y576098D01*
X7224Y576542D01*
X7658Y576976D01*
X8102Y577400D01*
X8557Y577812D01*
X9021Y578214D01*
X9495Y578604D01*
X9978Y578982D01*
X10470Y579349D01*
X10971Y579704D01*
X11480Y580046D01*
X11998Y580376D01*
X12523Y580694D01*
X13056Y580999D01*
X13596Y581291D01*
X14143Y581569D01*
X14696Y581835D01*
X15256Y582087D01*
X15822Y582325D01*
X16393Y582549D01*
X16970Y582760D01*
X17551Y582957D01*
X18137Y583139D01*
X18727Y583308D01*
X19321Y583462D01*
X19919Y583602D01*
X20520Y583727D01*
X21124Y583837D01*
X21730Y583933D01*
X22338Y584015D01*
X22949Y584081D01*
X23560Y584133D01*
X24173Y584170D01*
X24786Y584193D01*
X25400Y584200D01*
D11*
X186690Y25400D02*
X186695Y25805D01*
X186710Y26210D01*
X186735Y26615D01*
X186770Y27018D01*
X186814Y27421D01*
X186869Y27823D01*
X186933Y28223D01*
X187007Y28621D01*
X187091Y29017D01*
X187185Y29412D01*
X187288Y29803D01*
X187401Y30193D01*
X187523Y30579D01*
X187655Y30962D01*
X187796Y31342D01*
X187947Y31718D01*
X188106Y32091D01*
X188275Y32459D01*
X188453Y32823D01*
X188639Y33183D01*
X188835Y33538D01*
X189039Y33888D01*
X189251Y34233D01*
X189472Y34572D01*
X189702Y34907D01*
X189939Y35235D01*
X190184Y35557D01*
X190438Y35874D01*
X190698Y36184D01*
X190967Y36487D01*
X191243Y36784D01*
X191526Y37074D01*
X191816Y37357D01*
X192113Y37633D01*
X192416Y37902D01*
X192726Y38162D01*
X193043Y38416D01*
X193365Y38661D01*
X193693Y38898D01*
X194028Y39128D01*
X194367Y39349D01*
X194712Y39561D01*
X195062Y39765D01*
X195417Y39961D01*
X195777Y40147D01*
X196141Y40325D01*
X196509Y40494D01*
X196882Y40653D01*
X197258Y40804D01*
X197638Y40945D01*
X198021Y41077D01*
X198407Y41199D01*
X198797Y41312D01*
X199188Y41415D01*
X199583Y41509D01*
X199979Y41593D01*
X200377Y41667D01*
X200777Y41731D01*
X201179Y41786D01*
X201582Y41830D01*
X201985Y41865D01*
X202390Y41890D01*
X202795Y41905D01*
X203200Y41910D01*
X203605Y41905D01*
X204010Y41890D01*
X204415Y41865D01*
X204818Y41830D01*
X205221Y41786D01*
X205623Y41731D01*
X206023Y41667D01*
X206421Y41593D01*
X206817Y41509D01*
X207212Y41415D01*
X207603Y41312D01*
X207993Y41199D01*
X208379Y41077D01*
X208762Y40945D01*
X209142Y40804D01*
X209518Y40653D01*
X209891Y40494D01*
X210259Y40325D01*
X210623Y40147D01*
X210983Y39961D01*
X211338Y39765D01*
X211688Y39561D01*
X212033Y39349D01*
X212372Y39128D01*
X212707Y38898D01*
X213035Y38661D01*
X213357Y38416D01*
X213674Y38162D01*
X213984Y37902D01*
X214287Y37633D01*
X214584Y37357D01*
X214874Y37074D01*
X215157Y36784D01*
X215433Y36487D01*
X215702Y36184D01*
X215962Y35874D01*
X216216Y35557D01*
X216461Y35235D01*
X216698Y34907D01*
X216928Y34572D01*
X217149Y34233D01*
X217361Y33888D01*
X217565Y33538D01*
X217761Y33183D01*
X217947Y32823D01*
X218125Y32459D01*
X218294Y32091D01*
X218453Y31718D01*
X218604Y31342D01*
X218745Y30962D01*
X218877Y30579D01*
X218999Y30193D01*
X219112Y29803D01*
X219215Y29412D01*
X219309Y29017D01*
X219393Y28621D01*
X219467Y28223D01*
X219531Y27823D01*
X219586Y27421D01*
X219630Y27018D01*
X219665Y26615D01*
X219690Y26210D01*
X219705Y25805D01*
X219710Y25400D01*
X219705Y24995D01*
X219690Y24590D01*
X219665Y24185D01*
X219630Y23782D01*
X219586Y23379D01*
X219531Y22977D01*
X219467Y22577D01*
X219393Y22179D01*
X219309Y21783D01*
X219215Y21388D01*
X219112Y20997D01*
X218999Y20607D01*
X218877Y20221D01*
X218745Y19838D01*
X218604Y19458D01*
X218453Y19082D01*
X218294Y18709D01*
X218125Y18341D01*
X217947Y17977D01*
X217761Y17617D01*
X217565Y17262D01*
X217361Y16912D01*
X217149Y16567D01*
X216928Y16228D01*
X216698Y15893D01*
X216461Y15565D01*
X216216Y15243D01*
X215962Y14926D01*
X215702Y14616D01*
X215433Y14313D01*
X215157Y14016D01*
X214874Y13726D01*
X214584Y13443D01*
X214287Y13167D01*
X213984Y12898D01*
X213674Y12638D01*
X213357Y12384D01*
X213035Y12139D01*
X212707Y11902D01*
X212372Y11672D01*
X212033Y11451D01*
X211688Y11239D01*
X211338Y11035D01*
X210983Y10839D01*
X210623Y10653D01*
X210259Y10475D01*
X209891Y10306D01*
X209518Y10147D01*
X209142Y9996D01*
X208762Y9855D01*
X208379Y9723D01*
X207993Y9601D01*
X207603Y9488D01*
X207212Y9385D01*
X206817Y9291D01*
X206421Y9207D01*
X206023Y9133D01*
X205623Y9069D01*
X205221Y9014D01*
X204818Y8970D01*
X204415Y8935D01*
X204010Y8910D01*
X203605Y8895D01*
X203200Y8890D01*
X202795Y8895D01*
X202390Y8910D01*
X201985Y8935D01*
X201582Y8970D01*
X201179Y9014D01*
X200777Y9069D01*
X200377Y9133D01*
X199979Y9207D01*
X199583Y9291D01*
X199188Y9385D01*
X198797Y9488D01*
X198407Y9601D01*
X198021Y9723D01*
X197638Y9855D01*
X197258Y9996D01*
X196882Y10147D01*
X196509Y10306D01*
X196141Y10475D01*
X195777Y10653D01*
X195417Y10839D01*
X195062Y11035D01*
X194712Y11239D01*
X194367Y11451D01*
X194028Y11672D01*
X193693Y11902D01*
X193365Y12139D01*
X193043Y12384D01*
X192726Y12638D01*
X192416Y12898D01*
X192113Y13167D01*
X191816Y13443D01*
X191526Y13726D01*
X191243Y14016D01*
X190967Y14313D01*
X190698Y14616D01*
X190438Y14926D01*
X190184Y15243D01*
X189939Y15565D01*
X189702Y15893D01*
X189472Y16228D01*
X189251Y16567D01*
X189039Y16912D01*
X188835Y17262D01*
X188639Y17617D01*
X188453Y17977D01*
X188275Y18341D01*
X188106Y18709D01*
X187947Y19082D01*
X187796Y19458D01*
X187655Y19838D01*
X187523Y20221D01*
X187401Y20607D01*
X187288Y20997D01*
X187185Y21388D01*
X187091Y21783D01*
X187007Y22179D01*
X186933Y22577D01*
X186869Y22977D01*
X186814Y23379D01*
X186770Y23782D01*
X186735Y24185D01*
X186710Y24590D01*
X186695Y24995D01*
X186690Y25400D01*
X8890Y25400D02*
X8895Y25805D01*
X8910Y26210D01*
X8935Y26615D01*
X8970Y27018D01*
X9014Y27421D01*
X9069Y27823D01*
X9133Y28223D01*
X9207Y28621D01*
X9291Y29017D01*
X9385Y29412D01*
X9488Y29803D01*
X9601Y30193D01*
X9723Y30579D01*
X9855Y30962D01*
X9996Y31342D01*
X10147Y31718D01*
X10306Y32091D01*
X10475Y32459D01*
X10653Y32823D01*
X10839Y33183D01*
X11035Y33538D01*
X11239Y33888D01*
X11451Y34233D01*
X11672Y34572D01*
X11902Y34907D01*
X12139Y35235D01*
X12384Y35557D01*
X12638Y35874D01*
X12898Y36184D01*
X13167Y36487D01*
X13443Y36784D01*
X13726Y37074D01*
X14016Y37357D01*
X14313Y37633D01*
X14616Y37902D01*
X14926Y38162D01*
X15243Y38416D01*
X15565Y38661D01*
X15893Y38898D01*
X16228Y39128D01*
X16567Y39349D01*
X16912Y39561D01*
X17262Y39765D01*
X17617Y39961D01*
X17977Y40147D01*
X18341Y40325D01*
X18709Y40494D01*
X19082Y40653D01*
X19458Y40804D01*
X19838Y40945D01*
X20221Y41077D01*
X20607Y41199D01*
X20997Y41312D01*
X21388Y41415D01*
X21783Y41509D01*
X22179Y41593D01*
X22577Y41667D01*
X22977Y41731D01*
X23379Y41786D01*
X23782Y41830D01*
X24185Y41865D01*
X24590Y41890D01*
X24995Y41905D01*
X25400Y41910D01*
X25805Y41905D01*
X26210Y41890D01*
X26615Y41865D01*
X27018Y41830D01*
X27421Y41786D01*
X27823Y41731D01*
X28223Y41667D01*
X28621Y41593D01*
X29017Y41509D01*
X29412Y41415D01*
X29803Y41312D01*
X30193Y41199D01*
X30579Y41077D01*
X30962Y40945D01*
X31342Y40804D01*
X31718Y40653D01*
X32091Y40494D01*
X32459Y40325D01*
X32823Y40147D01*
X33183Y39961D01*
X33538Y39765D01*
X33888Y39561D01*
X34233Y39349D01*
X34572Y39128D01*
X34907Y38898D01*
X35235Y38661D01*
X35557Y38416D01*
X35874Y38162D01*
X36184Y37902D01*
X36487Y37633D01*
X36784Y37357D01*
X37074Y37074D01*
X37357Y36784D01*
X37633Y36487D01*
X37902Y36184D01*
X38162Y35874D01*
X38416Y35557D01*
X38661Y35235D01*
X38898Y34907D01*
X39128Y34572D01*
X39349Y34233D01*
X39561Y33888D01*
X39765Y33538D01*
X39961Y33183D01*
X40147Y32823D01*
X40325Y32459D01*
X40494Y32091D01*
X40653Y31718D01*
X40804Y31342D01*
X40945Y30962D01*
X41077Y30579D01*
X41199Y30193D01*
X41312Y29803D01*
X41415Y29412D01*
X41509Y29017D01*
X41593Y28621D01*
X41667Y28223D01*
X41731Y27823D01*
X41786Y27421D01*
X41830Y27018D01*
X41865Y26615D01*
X41890Y26210D01*
X41905Y25805D01*
X41910Y25400D01*
X41905Y24995D01*
X41890Y24590D01*
X41865Y24185D01*
X41830Y23782D01*
X41786Y23379D01*
X41731Y22977D01*
X41667Y22577D01*
X41593Y22179D01*
X41509Y21783D01*
X41415Y21388D01*
X41312Y20997D01*
X41199Y20607D01*
X41077Y20221D01*
X40945Y19838D01*
X40804Y19458D01*
X40653Y19082D01*
X40494Y18709D01*
X40325Y18341D01*
X40147Y17977D01*
X39961Y17617D01*
X39765Y17262D01*
X39561Y16912D01*
X39349Y16567D01*
X39128Y16228D01*
X38898Y15893D01*
X38661Y15565D01*
X38416Y15243D01*
X38162Y14926D01*
X37902Y14616D01*
X37633Y14313D01*
X37357Y14016D01*
X37074Y13726D01*
X36784Y13443D01*
X36487Y13167D01*
X36184Y12898D01*
X35874Y12638D01*
X35557Y12384D01*
X35235Y12139D01*
X34907Y11902D01*
X34572Y11672D01*
X34233Y11451D01*
X33888Y11239D01*
X33538Y11035D01*
X33183Y10839D01*
X32823Y10653D01*
X32459Y10475D01*
X32091Y10306D01*
X31718Y10147D01*
X31342Y9996D01*
X30962Y9855D01*
X30579Y9723D01*
X30193Y9601D01*
X29803Y9488D01*
X29412Y9385D01*
X29017Y9291D01*
X28621Y9207D01*
X28223Y9133D01*
X27823Y9069D01*
X27421Y9014D01*
X27018Y8970D01*
X26615Y8935D01*
X26210Y8910D01*
X25805Y8895D01*
X25400Y8890D01*
X24995Y8895D01*
X24590Y8910D01*
X24185Y8935D01*
X23782Y8970D01*
X23379Y9014D01*
X22977Y9069D01*
X22577Y9133D01*
X22179Y9207D01*
X21783Y9291D01*
X21388Y9385D01*
X20997Y9488D01*
X20607Y9601D01*
X20221Y9723D01*
X19838Y9855D01*
X19458Y9996D01*
X19082Y10147D01*
X18709Y10306D01*
X18341Y10475D01*
X17977Y10653D01*
X17617Y10839D01*
X17262Y11035D01*
X16912Y11239D01*
X16567Y11451D01*
X16228Y11672D01*
X15893Y11902D01*
X15565Y12139D01*
X15243Y12384D01*
X14926Y12638D01*
X14616Y12898D01*
X14313Y13167D01*
X14016Y13443D01*
X13726Y13726D01*
X13443Y14016D01*
X13167Y14313D01*
X12898Y14616D01*
X12638Y14926D01*
X12384Y15243D01*
X12139Y15565D01*
X11902Y15893D01*
X11672Y16228D01*
X11451Y16567D01*
X11239Y16912D01*
X11035Y17262D01*
X10839Y17617D01*
X10653Y17977D01*
X10475Y18341D01*
X10306Y18709D01*
X10147Y19082D01*
X9996Y19458D01*
X9855Y19838D01*
X9723Y20221D01*
X9601Y20607D01*
X9488Y20997D01*
X9385Y21388D01*
X9291Y21783D01*
X9207Y22179D01*
X9133Y22577D01*
X9069Y22977D01*
X9014Y23379D01*
X8970Y23782D01*
X8935Y24185D01*
X8910Y24590D01*
X8895Y24995D01*
X8890Y25400D01*
X82150Y49050D02*
X82152Y49163D01*
X82158Y49277D01*
X82168Y49390D01*
X82182Y49502D01*
X82199Y49614D01*
X82221Y49726D01*
X82247Y49836D01*
X82276Y49946D01*
X82309Y50054D01*
X82346Y50162D01*
X82387Y50267D01*
X82431Y50372D01*
X82479Y50475D01*
X82530Y50576D01*
X82585Y50675D01*
X82644Y50772D01*
X82706Y50867D01*
X82771Y50960D01*
X82839Y51051D01*
X82910Y51139D01*
X82985Y51225D01*
X83062Y51308D01*
X83142Y51388D01*
X83225Y51465D01*
X83311Y51540D01*
X83399Y51611D01*
X83490Y51679D01*
X83583Y51744D01*
X83678Y51806D01*
X83775Y51865D01*
X83874Y51920D01*
X83975Y51971D01*
X84078Y52019D01*
X84183Y52063D01*
X84288Y52104D01*
X84396Y52141D01*
X84504Y52174D01*
X84614Y52203D01*
X84724Y52229D01*
X84836Y52251D01*
X84948Y52268D01*
X85060Y52282D01*
X85173Y52292D01*
X85287Y52298D01*
X85400Y52300D01*
X85513Y52298D01*
X85627Y52292D01*
X85740Y52282D01*
X85852Y52268D01*
X85964Y52251D01*
X86076Y52229D01*
X86186Y52203D01*
X86296Y52174D01*
X86404Y52141D01*
X86512Y52104D01*
X86617Y52063D01*
X86722Y52019D01*
X86825Y51971D01*
X86926Y51920D01*
X87025Y51865D01*
X87122Y51806D01*
X87217Y51744D01*
X87310Y51679D01*
X87401Y51611D01*
X87489Y51540D01*
X87575Y51465D01*
X87658Y51388D01*
X87738Y51308D01*
X87815Y51225D01*
X87890Y51139D01*
X87961Y51051D01*
X88029Y50960D01*
X88094Y50867D01*
X88156Y50772D01*
X88215Y50675D01*
X88270Y50576D01*
X88321Y50475D01*
X88369Y50372D01*
X88413Y50267D01*
X88454Y50162D01*
X88491Y50054D01*
X88524Y49946D01*
X88553Y49836D01*
X88579Y49726D01*
X88601Y49614D01*
X88618Y49502D01*
X88632Y49390D01*
X88642Y49277D01*
X88648Y49163D01*
X88650Y49050D01*
X88648Y48937D01*
X88642Y48823D01*
X88632Y48710D01*
X88618Y48598D01*
X88601Y48486D01*
X88579Y48374D01*
X88553Y48264D01*
X88524Y48154D01*
X88491Y48046D01*
X88454Y47938D01*
X88413Y47833D01*
X88369Y47728D01*
X88321Y47625D01*
X88270Y47524D01*
X88215Y47425D01*
X88156Y47328D01*
X88094Y47233D01*
X88029Y47140D01*
X87961Y47049D01*
X87890Y46961D01*
X87815Y46875D01*
X87738Y46792D01*
X87658Y46712D01*
X87575Y46635D01*
X87489Y46560D01*
X87401Y46489D01*
X87310Y46421D01*
X87217Y46356D01*
X87122Y46294D01*
X87025Y46235D01*
X86926Y46180D01*
X86825Y46129D01*
X86722Y46081D01*
X86617Y46037D01*
X86512Y45996D01*
X86404Y45959D01*
X86296Y45926D01*
X86186Y45897D01*
X86076Y45871D01*
X85964Y45849D01*
X85852Y45832D01*
X85740Y45818D01*
X85627Y45808D01*
X85513Y45802D01*
X85400Y45800D01*
X85287Y45802D01*
X85173Y45808D01*
X85060Y45818D01*
X84948Y45832D01*
X84836Y45849D01*
X84724Y45871D01*
X84614Y45897D01*
X84504Y45926D01*
X84396Y45959D01*
X84288Y45996D01*
X84183Y46037D01*
X84078Y46081D01*
X83975Y46129D01*
X83874Y46180D01*
X83775Y46235D01*
X83678Y46294D01*
X83583Y46356D01*
X83490Y46421D01*
X83399Y46489D01*
X83311Y46560D01*
X83225Y46635D01*
X83142Y46712D01*
X83062Y46792D01*
X82985Y46875D01*
X82910Y46961D01*
X82839Y47049D01*
X82771Y47140D01*
X82706Y47233D01*
X82644Y47328D01*
X82585Y47425D01*
X82530Y47524D01*
X82479Y47625D01*
X82431Y47728D01*
X82387Y47833D01*
X82346Y47938D01*
X82309Y48046D01*
X82276Y48154D01*
X82247Y48264D01*
X82221Y48374D01*
X82199Y48486D01*
X82182Y48598D01*
X82168Y48710D01*
X82158Y48823D01*
X82152Y48937D01*
X82150Y49050D01*
X139950Y49050D02*
X139952Y49163D01*
X139958Y49277D01*
X139968Y49390D01*
X139982Y49502D01*
X139999Y49614D01*
X140021Y49726D01*
X140047Y49836D01*
X140076Y49946D01*
X140109Y50054D01*
X140146Y50162D01*
X140187Y50267D01*
X140231Y50372D01*
X140279Y50475D01*
X140330Y50576D01*
X140385Y50675D01*
X140444Y50772D01*
X140506Y50867D01*
X140571Y50960D01*
X140639Y51051D01*
X140710Y51139D01*
X140785Y51225D01*
X140862Y51308D01*
X140942Y51388D01*
X141025Y51465D01*
X141111Y51540D01*
X141199Y51611D01*
X141290Y51679D01*
X141383Y51744D01*
X141478Y51806D01*
X141575Y51865D01*
X141674Y51920D01*
X141775Y51971D01*
X141878Y52019D01*
X141983Y52063D01*
X142088Y52104D01*
X142196Y52141D01*
X142304Y52174D01*
X142414Y52203D01*
X142524Y52229D01*
X142636Y52251D01*
X142748Y52268D01*
X142860Y52282D01*
X142973Y52292D01*
X143087Y52298D01*
X143200Y52300D01*
X143313Y52298D01*
X143427Y52292D01*
X143540Y52282D01*
X143652Y52268D01*
X143764Y52251D01*
X143876Y52229D01*
X143986Y52203D01*
X144096Y52174D01*
X144204Y52141D01*
X144312Y52104D01*
X144417Y52063D01*
X144522Y52019D01*
X144625Y51971D01*
X144726Y51920D01*
X144825Y51865D01*
X144922Y51806D01*
X145017Y51744D01*
X145110Y51679D01*
X145201Y51611D01*
X145289Y51540D01*
X145375Y51465D01*
X145458Y51388D01*
X145538Y51308D01*
X145615Y51225D01*
X145690Y51139D01*
X145761Y51051D01*
X145829Y50960D01*
X145894Y50867D01*
X145956Y50772D01*
X146015Y50675D01*
X146070Y50576D01*
X146121Y50475D01*
X146169Y50372D01*
X146213Y50267D01*
X146254Y50162D01*
X146291Y50054D01*
X146324Y49946D01*
X146353Y49836D01*
X146379Y49726D01*
X146401Y49614D01*
X146418Y49502D01*
X146432Y49390D01*
X146442Y49277D01*
X146448Y49163D01*
X146450Y49050D01*
X146448Y48937D01*
X146442Y48823D01*
X146432Y48710D01*
X146418Y48598D01*
X146401Y48486D01*
X146379Y48374D01*
X146353Y48264D01*
X146324Y48154D01*
X146291Y48046D01*
X146254Y47938D01*
X146213Y47833D01*
X146169Y47728D01*
X146121Y47625D01*
X146070Y47524D01*
X146015Y47425D01*
X145956Y47328D01*
X145894Y47233D01*
X145829Y47140D01*
X145761Y47049D01*
X145690Y46961D01*
X145615Y46875D01*
X145538Y46792D01*
X145458Y46712D01*
X145375Y46635D01*
X145289Y46560D01*
X145201Y46489D01*
X145110Y46421D01*
X145017Y46356D01*
X144922Y46294D01*
X144825Y46235D01*
X144726Y46180D01*
X144625Y46129D01*
X144522Y46081D01*
X144417Y46037D01*
X144312Y45996D01*
X144204Y45959D01*
X144096Y45926D01*
X143986Y45897D01*
X143876Y45871D01*
X143764Y45849D01*
X143652Y45832D01*
X143540Y45818D01*
X143427Y45808D01*
X143313Y45802D01*
X143200Y45800D01*
X143087Y45802D01*
X142973Y45808D01*
X142860Y45818D01*
X142748Y45832D01*
X142636Y45849D01*
X142524Y45871D01*
X142414Y45897D01*
X142304Y45926D01*
X142196Y45959D01*
X142088Y45996D01*
X141983Y46037D01*
X141878Y46081D01*
X141775Y46129D01*
X141674Y46180D01*
X141575Y46235D01*
X141478Y46294D01*
X141383Y46356D01*
X141290Y46421D01*
X141199Y46489D01*
X141111Y46560D01*
X141025Y46635D01*
X140942Y46712D01*
X140862Y46792D01*
X140785Y46875D01*
X140710Y46961D01*
X140639Y47049D01*
X140571Y47140D01*
X140506Y47233D01*
X140444Y47328D01*
X140385Y47425D01*
X140330Y47524D01*
X140279Y47625D01*
X140231Y47728D01*
X140187Y47833D01*
X140146Y47938D01*
X140109Y48046D01*
X140076Y48154D01*
X140047Y48264D01*
X140021Y48374D01*
X139999Y48486D01*
X139982Y48598D01*
X139968Y48710D01*
X139958Y48823D01*
X139952Y48937D01*
X139950Y49050D01*
D12*
X68100Y15700D02*
X68100Y9500D01*
X74100Y9500D02*
X74100Y15700D01*
X74098Y15808D01*
X74092Y15916D01*
X74082Y16024D01*
X74069Y16132D01*
X74051Y16239D01*
X74030Y16345D01*
X74005Y16450D01*
X73976Y16555D01*
X73943Y16658D01*
X73907Y16760D01*
X73866Y16861D01*
X73823Y16960D01*
X73775Y17057D01*
X73725Y17153D01*
X73671Y17247D01*
X73613Y17338D01*
X73552Y17428D01*
X73488Y17516D01*
X73421Y17601D01*
X73351Y17683D01*
X73278Y17763D01*
X73202Y17840D01*
X73123Y17915D01*
X73042Y17986D01*
X72958Y18055D01*
X72872Y18121D01*
X72784Y18183D01*
X72693Y18242D01*
X72600Y18298D01*
X72505Y18351D01*
X72409Y18400D01*
X72310Y18445D01*
X72210Y18487D01*
X72109Y18525D01*
X72006Y18560D01*
X71903Y18591D01*
X71798Y18618D01*
X71692Y18641D01*
X71585Y18660D01*
X71478Y18676D01*
X71370Y18688D01*
X71262Y18696D01*
X71154Y18700D01*
X71046Y18700D01*
X70938Y18696D01*
X70830Y18688D01*
X70722Y18676D01*
X70615Y18660D01*
X70508Y18641D01*
X70402Y18618D01*
X70297Y18591D01*
X70194Y18560D01*
X70091Y18525D01*
X69990Y18487D01*
X69890Y18445D01*
X69791Y18400D01*
X69695Y18351D01*
X69600Y18298D01*
X69507Y18242D01*
X69416Y18183D01*
X69328Y18121D01*
X69242Y18055D01*
X69158Y17986D01*
X69077Y17915D01*
X68998Y17840D01*
X68922Y17763D01*
X68849Y17683D01*
X68779Y17601D01*
X68712Y17516D01*
X68648Y17428D01*
X68587Y17338D01*
X68529Y17247D01*
X68475Y17153D01*
X68425Y17057D01*
X68377Y16960D01*
X68334Y16861D01*
X68293Y16760D01*
X68257Y16658D01*
X68224Y16555D01*
X68195Y16450D01*
X68170Y16345D01*
X68149Y16239D01*
X68131Y16132D01*
X68118Y16024D01*
X68108Y15916D01*
X68102Y15808D01*
X68100Y15700D01*
X68100Y9500D02*
X68102Y9392D01*
X68108Y9284D01*
X68118Y9176D01*
X68131Y9068D01*
X68149Y8961D01*
X68170Y8855D01*
X68195Y8750D01*
X68224Y8645D01*
X68257Y8542D01*
X68293Y8440D01*
X68334Y8339D01*
X68377Y8240D01*
X68425Y8143D01*
X68475Y8047D01*
X68529Y7953D01*
X68587Y7862D01*
X68648Y7772D01*
X68712Y7684D01*
X68779Y7599D01*
X68849Y7517D01*
X68922Y7437D01*
X68998Y7360D01*
X69077Y7285D01*
X69158Y7214D01*
X69242Y7145D01*
X69328Y7079D01*
X69416Y7017D01*
X69507Y6958D01*
X69600Y6902D01*
X69695Y6849D01*
X69791Y6800D01*
X69890Y6755D01*
X69990Y6713D01*
X70091Y6675D01*
X70194Y6640D01*
X70297Y6609D01*
X70402Y6582D01*
X70508Y6559D01*
X70615Y6540D01*
X70722Y6524D01*
X70830Y6512D01*
X70938Y6504D01*
X71046Y6500D01*
X71154Y6500D01*
X71262Y6504D01*
X71370Y6512D01*
X71478Y6524D01*
X71585Y6540D01*
X71692Y6559D01*
X71798Y6582D01*
X71903Y6609D01*
X72006Y6640D01*
X72109Y6675D01*
X72210Y6713D01*
X72310Y6755D01*
X72409Y6800D01*
X72505Y6849D01*
X72600Y6902D01*
X72693Y6958D01*
X72784Y7017D01*
X72872Y7079D01*
X72958Y7145D01*
X73042Y7214D01*
X73123Y7285D01*
X73202Y7360D01*
X73278Y7437D01*
X73351Y7517D01*
X73421Y7599D01*
X73488Y7684D01*
X73552Y7772D01*
X73613Y7862D01*
X73671Y7953D01*
X73725Y8047D01*
X73775Y8143D01*
X73823Y8240D01*
X73866Y8339D01*
X73907Y8440D01*
X73943Y8542D01*
X73976Y8645D01*
X74005Y8750D01*
X74030Y8855D01*
X74051Y8961D01*
X74069Y9068D01*
X74082Y9176D01*
X74092Y9284D01*
X74098Y9392D01*
X74100Y9500D01*
X68100Y48850D02*
X68100Y59850D01*
X74100Y59850D02*
X74100Y48850D01*
X74098Y48742D01*
X74092Y48634D01*
X74082Y48526D01*
X74069Y48418D01*
X74051Y48311D01*
X74030Y48205D01*
X74005Y48100D01*
X73976Y47995D01*
X73943Y47892D01*
X73907Y47790D01*
X73866Y47689D01*
X73823Y47590D01*
X73775Y47493D01*
X73725Y47397D01*
X73671Y47303D01*
X73613Y47212D01*
X73552Y47122D01*
X73488Y47034D01*
X73421Y46949D01*
X73351Y46867D01*
X73278Y46787D01*
X73202Y46710D01*
X73123Y46635D01*
X73042Y46564D01*
X72958Y46495D01*
X72872Y46429D01*
X72784Y46367D01*
X72693Y46308D01*
X72600Y46252D01*
X72505Y46199D01*
X72409Y46150D01*
X72310Y46105D01*
X72210Y46063D01*
X72109Y46025D01*
X72006Y45990D01*
X71903Y45959D01*
X71798Y45932D01*
X71692Y45909D01*
X71585Y45890D01*
X71478Y45874D01*
X71370Y45862D01*
X71262Y45854D01*
X71154Y45850D01*
X71046Y45850D01*
X70938Y45854D01*
X70830Y45862D01*
X70722Y45874D01*
X70615Y45890D01*
X70508Y45909D01*
X70402Y45932D01*
X70297Y45959D01*
X70194Y45990D01*
X70091Y46025D01*
X69990Y46063D01*
X69890Y46105D01*
X69791Y46150D01*
X69695Y46199D01*
X69600Y46252D01*
X69507Y46308D01*
X69416Y46367D01*
X69328Y46429D01*
X69242Y46495D01*
X69158Y46564D01*
X69077Y46635D01*
X68998Y46710D01*
X68922Y46787D01*
X68849Y46867D01*
X68779Y46949D01*
X68712Y47034D01*
X68648Y47122D01*
X68587Y47212D01*
X68529Y47303D01*
X68475Y47397D01*
X68425Y47493D01*
X68377Y47590D01*
X68334Y47689D01*
X68293Y47790D01*
X68257Y47892D01*
X68224Y47995D01*
X68195Y48100D01*
X68170Y48205D01*
X68149Y48311D01*
X68131Y48418D01*
X68118Y48526D01*
X68108Y48634D01*
X68102Y48742D01*
X68100Y48850D01*
X68100Y59850D02*
X68102Y59958D01*
X68108Y60066D01*
X68118Y60174D01*
X68131Y60282D01*
X68149Y60389D01*
X68170Y60495D01*
X68195Y60600D01*
X68224Y60705D01*
X68257Y60808D01*
X68293Y60910D01*
X68334Y61011D01*
X68377Y61110D01*
X68425Y61207D01*
X68475Y61303D01*
X68529Y61397D01*
X68587Y61488D01*
X68648Y61578D01*
X68712Y61666D01*
X68779Y61751D01*
X68849Y61833D01*
X68922Y61913D01*
X68998Y61990D01*
X69077Y62065D01*
X69158Y62136D01*
X69242Y62205D01*
X69328Y62271D01*
X69416Y62333D01*
X69507Y62392D01*
X69600Y62448D01*
X69695Y62501D01*
X69791Y62550D01*
X69890Y62595D01*
X69990Y62637D01*
X70091Y62675D01*
X70194Y62710D01*
X70297Y62741D01*
X70402Y62768D01*
X70508Y62791D01*
X70615Y62810D01*
X70722Y62826D01*
X70830Y62838D01*
X70938Y62846D01*
X71046Y62850D01*
X71154Y62850D01*
X71262Y62846D01*
X71370Y62838D01*
X71478Y62826D01*
X71585Y62810D01*
X71692Y62791D01*
X71798Y62768D01*
X71903Y62741D01*
X72006Y62710D01*
X72109Y62675D01*
X72210Y62637D01*
X72310Y62595D01*
X72409Y62550D01*
X72505Y62501D01*
X72600Y62448D01*
X72693Y62392D01*
X72784Y62333D01*
X72872Y62271D01*
X72958Y62205D01*
X73042Y62136D01*
X73123Y62065D01*
X73202Y61990D01*
X73278Y61913D01*
X73351Y61833D01*
X73421Y61751D01*
X73488Y61666D01*
X73552Y61578D01*
X73613Y61488D01*
X73671Y61397D01*
X73725Y61303D01*
X73775Y61207D01*
X73823Y61110D01*
X73866Y61011D01*
X73907Y60910D01*
X73943Y60808D01*
X73976Y60705D01*
X74005Y60600D01*
X74030Y60495D01*
X74051Y60389D01*
X74069Y60282D01*
X74082Y60174D01*
X74092Y60066D01*
X74098Y59958D01*
X74100Y59850D01*
X154500Y15700D02*
X154500Y9500D01*
X160500Y9500D02*
X160500Y15700D01*
X160498Y15808D01*
X160492Y15916D01*
X160482Y16024D01*
X160469Y16132D01*
X160451Y16239D01*
X160430Y16345D01*
X160405Y16450D01*
X160376Y16555D01*
X160343Y16658D01*
X160307Y16760D01*
X160266Y16861D01*
X160223Y16960D01*
X160175Y17057D01*
X160125Y17153D01*
X160071Y17247D01*
X160013Y17338D01*
X159952Y17428D01*
X159888Y17516D01*
X159821Y17601D01*
X159751Y17683D01*
X159678Y17763D01*
X159602Y17840D01*
X159523Y17915D01*
X159442Y17986D01*
X159358Y18055D01*
X159272Y18121D01*
X159184Y18183D01*
X159093Y18242D01*
X159000Y18298D01*
X158905Y18351D01*
X158809Y18400D01*
X158710Y18445D01*
X158610Y18487D01*
X158509Y18525D01*
X158406Y18560D01*
X158303Y18591D01*
X158198Y18618D01*
X158092Y18641D01*
X157985Y18660D01*
X157878Y18676D01*
X157770Y18688D01*
X157662Y18696D01*
X157554Y18700D01*
X157446Y18700D01*
X157338Y18696D01*
X157230Y18688D01*
X157122Y18676D01*
X157015Y18660D01*
X156908Y18641D01*
X156802Y18618D01*
X156697Y18591D01*
X156594Y18560D01*
X156491Y18525D01*
X156390Y18487D01*
X156290Y18445D01*
X156191Y18400D01*
X156095Y18351D01*
X156000Y18298D01*
X155907Y18242D01*
X155816Y18183D01*
X155728Y18121D01*
X155642Y18055D01*
X155558Y17986D01*
X155477Y17915D01*
X155398Y17840D01*
X155322Y17763D01*
X155249Y17683D01*
X155179Y17601D01*
X155112Y17516D01*
X155048Y17428D01*
X154987Y17338D01*
X154929Y17247D01*
X154875Y17153D01*
X154825Y17057D01*
X154777Y16960D01*
X154734Y16861D01*
X154693Y16760D01*
X154657Y16658D01*
X154624Y16555D01*
X154595Y16450D01*
X154570Y16345D01*
X154549Y16239D01*
X154531Y16132D01*
X154518Y16024D01*
X154508Y15916D01*
X154502Y15808D01*
X154500Y15700D01*
X154500Y9500D02*
X154502Y9392D01*
X154508Y9284D01*
X154518Y9176D01*
X154531Y9068D01*
X154549Y8961D01*
X154570Y8855D01*
X154595Y8750D01*
X154624Y8645D01*
X154657Y8542D01*
X154693Y8440D01*
X154734Y8339D01*
X154777Y8240D01*
X154825Y8143D01*
X154875Y8047D01*
X154929Y7953D01*
X154987Y7862D01*
X155048Y7772D01*
X155112Y7684D01*
X155179Y7599D01*
X155249Y7517D01*
X155322Y7437D01*
X155398Y7360D01*
X155477Y7285D01*
X155558Y7214D01*
X155642Y7145D01*
X155728Y7079D01*
X155816Y7017D01*
X155907Y6958D01*
X156000Y6902D01*
X156095Y6849D01*
X156191Y6800D01*
X156290Y6755D01*
X156390Y6713D01*
X156491Y6675D01*
X156594Y6640D01*
X156697Y6609D01*
X156802Y6582D01*
X156908Y6559D01*
X157015Y6540D01*
X157122Y6524D01*
X157230Y6512D01*
X157338Y6504D01*
X157446Y6500D01*
X157554Y6500D01*
X157662Y6504D01*
X157770Y6512D01*
X157878Y6524D01*
X157985Y6540D01*
X158092Y6559D01*
X158198Y6582D01*
X158303Y6609D01*
X158406Y6640D01*
X158509Y6675D01*
X158610Y6713D01*
X158710Y6755D01*
X158809Y6800D01*
X158905Y6849D01*
X159000Y6902D01*
X159093Y6958D01*
X159184Y7017D01*
X159272Y7079D01*
X159358Y7145D01*
X159442Y7214D01*
X159523Y7285D01*
X159602Y7360D01*
X159678Y7437D01*
X159751Y7517D01*
X159821Y7599D01*
X159888Y7684D01*
X159952Y7772D01*
X160013Y7862D01*
X160071Y7953D01*
X160125Y8047D01*
X160175Y8143D01*
X160223Y8240D01*
X160266Y8339D01*
X160307Y8440D01*
X160343Y8542D01*
X160376Y8645D01*
X160405Y8750D01*
X160430Y8855D01*
X160451Y8961D01*
X160469Y9068D01*
X160482Y9176D01*
X160492Y9284D01*
X160498Y9392D01*
X160500Y9500D01*
X154500Y48850D02*
X154500Y59850D01*
X160500Y59850D02*
X160500Y48850D01*
X160498Y48742D01*
X160492Y48634D01*
X160482Y48526D01*
X160469Y48418D01*
X160451Y48311D01*
X160430Y48205D01*
X160405Y48100D01*
X160376Y47995D01*
X160343Y47892D01*
X160307Y47790D01*
X160266Y47689D01*
X160223Y47590D01*
X160175Y47493D01*
X160125Y47397D01*
X160071Y47303D01*
X160013Y47212D01*
X159952Y47122D01*
X159888Y47034D01*
X159821Y46949D01*
X159751Y46867D01*
X159678Y46787D01*
X159602Y46710D01*
X159523Y46635D01*
X159442Y46564D01*
X159358Y46495D01*
X159272Y46429D01*
X159184Y46367D01*
X159093Y46308D01*
X159000Y46252D01*
X158905Y46199D01*
X158809Y46150D01*
X158710Y46105D01*
X158610Y46063D01*
X158509Y46025D01*
X158406Y45990D01*
X158303Y45959D01*
X158198Y45932D01*
X158092Y45909D01*
X157985Y45890D01*
X157878Y45874D01*
X157770Y45862D01*
X157662Y45854D01*
X157554Y45850D01*
X157446Y45850D01*
X157338Y45854D01*
X157230Y45862D01*
X157122Y45874D01*
X157015Y45890D01*
X156908Y45909D01*
X156802Y45932D01*
X156697Y45959D01*
X156594Y45990D01*
X156491Y46025D01*
X156390Y46063D01*
X156290Y46105D01*
X156191Y46150D01*
X156095Y46199D01*
X156000Y46252D01*
X155907Y46308D01*
X155816Y46367D01*
X155728Y46429D01*
X155642Y46495D01*
X155558Y46564D01*
X155477Y46635D01*
X155398Y46710D01*
X155322Y46787D01*
X155249Y46867D01*
X155179Y46949D01*
X155112Y47034D01*
X155048Y47122D01*
X154987Y47212D01*
X154929Y47303D01*
X154875Y47397D01*
X154825Y47493D01*
X154777Y47590D01*
X154734Y47689D01*
X154693Y47790D01*
X154657Y47892D01*
X154624Y47995D01*
X154595Y48100D01*
X154570Y48205D01*
X154549Y48311D01*
X154531Y48418D01*
X154518Y48526D01*
X154508Y48634D01*
X154502Y48742D01*
X154500Y48850D01*
X154500Y59850D02*
X154502Y59958D01*
X154508Y60066D01*
X154518Y60174D01*
X154531Y60282D01*
X154549Y60389D01*
X154570Y60495D01*
X154595Y60600D01*
X154624Y60705D01*
X154657Y60808D01*
X154693Y60910D01*
X154734Y61011D01*
X154777Y61110D01*
X154825Y61207D01*
X154875Y61303D01*
X154929Y61397D01*
X154987Y61488D01*
X155048Y61578D01*
X155112Y61666D01*
X155179Y61751D01*
X155249Y61833D01*
X155322Y61913D01*
X155398Y61990D01*
X155477Y62065D01*
X155558Y62136D01*
X155642Y62205D01*
X155728Y62271D01*
X155816Y62333D01*
X155907Y62392D01*
X156000Y62448D01*
X156095Y62501D01*
X156191Y62550D01*
X156290Y62595D01*
X156390Y62637D01*
X156491Y62675D01*
X156594Y62710D01*
X156697Y62741D01*
X156802Y62768D01*
X156908Y62791D01*
X157015Y62810D01*
X157122Y62826D01*
X157230Y62838D01*
X157338Y62846D01*
X157446Y62850D01*
X157554Y62850D01*
X157662Y62846D01*
X157770Y62838D01*
X157878Y62826D01*
X157985Y62810D01*
X158092Y62791D01*
X158198Y62768D01*
X158303Y62741D01*
X158406Y62710D01*
X158509Y62675D01*
X158610Y62637D01*
X158710Y62595D01*
X158809Y62550D01*
X158905Y62501D01*
X159000Y62448D01*
X159093Y62392D01*
X159184Y62333D01*
X159272Y62271D01*
X159358Y62205D01*
X159442Y62136D01*
X159523Y62065D01*
X159602Y61990D01*
X159678Y61913D01*
X159751Y61833D01*
X159821Y61751D01*
X159888Y61666D01*
X159952Y61578D01*
X160013Y61488D01*
X160071Y61397D01*
X160125Y61303D01*
X160175Y61207D01*
X160223Y61110D01*
X160266Y61011D01*
X160307Y60910D01*
X160343Y60808D01*
X160376Y60705D01*
X160405Y60600D01*
X160430Y60495D01*
X160451Y60389D01*
X160469Y60282D01*
X160482Y60174D01*
X160492Y60066D01*
X160498Y59958D01*
X160500Y59850D01*
D13*
X0Y25400D02*
X97Y23186D01*
X386Y20989D01*
X865Y18826D01*
X1532Y16713D01*
X2380Y14666D01*
X3403Y12700D01*
X4594Y10831D01*
X5942Y9073D01*
X7440Y7440D01*
X9073Y5942D01*
X10831Y4594D01*
X12700Y3403D01*
X14666Y2380D01*
X16713Y1532D01*
X18826Y865D01*
X20989Y386D01*
X23186Y97D01*
X25400Y0D01*
X203200Y0D01*
X205414Y97D01*
X207611Y386D01*
X209774Y865D01*
X211887Y1532D01*
X213935Y2380D01*
X215900Y3403D01*
X217769Y4594D01*
X219527Y5942D01*
X221161Y7440D01*
X222658Y9073D01*
X224006Y10831D01*
X225197Y12700D01*
X226220Y14666D01*
X227068Y16713D01*
X227735Y18826D01*
X228214Y20989D01*
X228503Y23186D01*
X228600Y25400D01*
X228600Y558800D01*
X228503Y561014D01*
X228214Y563211D01*
X227735Y565374D01*
X227068Y567487D01*
X226220Y569535D01*
X225197Y571500D01*
X224006Y573369D01*
X222658Y575127D01*
X221161Y576761D01*
X219527Y578258D01*
X217769Y579606D01*
X215900Y580797D01*
X213935Y581820D01*
X211887Y582668D01*
X209774Y583335D01*
X207611Y583814D01*
X205414Y584103D01*
X203200Y584200D01*
X25400Y584200D01*
X23186Y584103D01*
X20989Y583814D01*
X18826Y583335D01*
X16713Y582668D01*
X14666Y581820D01*
X12700Y580797D01*
X10831Y579606D01*
X9073Y578258D01*
X7440Y576761D01*
X5942Y575127D01*
X4594Y573369D01*
X3403Y571500D01*
X2380Y569535D01*
X1532Y567487D01*
X865Y565374D01*
X386Y563211D01*
X97Y561014D01*
X0Y558800D01*
X0Y25400D01*
X154500Y48850D02*
X154511Y48589D01*
X154546Y48329D01*
X154602Y48074D01*
X154681Y47824D01*
X154781Y47582D01*
X154902Y47350D01*
X155043Y47129D01*
X155202Y46922D01*
X155379Y46729D01*
X155572Y46552D01*
X155779Y46393D01*
X156000Y46252D01*
X156232Y46131D01*
X156474Y46031D01*
X156724Y45952D01*
X156979Y45896D01*
X157239Y45861D01*
X157500Y45850D01*
X157761Y45861D01*
X158021Y45896D01*
X158276Y45952D01*
X158526Y46031D01*
X158768Y46131D01*
X159000Y46252D01*
X159221Y46393D01*
X159428Y46552D01*
X159621Y46729D01*
X159798Y46922D01*
X159957Y47129D01*
X160098Y47350D01*
X160219Y47582D01*
X160319Y47824D01*
X160398Y48074D01*
X160454Y48329D01*
X160489Y48589D01*
X160500Y48850D01*
X160500Y59850D01*
X160489Y60111D01*
X160454Y60371D01*
X160398Y60626D01*
X160319Y60876D01*
X160219Y61118D01*
X160098Y61350D01*
X159957Y61571D01*
X159798Y61778D01*
X159621Y61971D01*
X159428Y62148D01*
X159221Y62307D01*
X159000Y62448D01*
X158768Y62569D01*
X158526Y62669D01*
X158276Y62748D01*
X158021Y62804D01*
X157761Y62839D01*
X157500Y62850D01*
X157239Y62839D01*
X156979Y62804D01*
X156724Y62748D01*
X156474Y62669D01*
X156232Y62569D01*
X156000Y62448D01*
X155779Y62307D01*
X155572Y62148D01*
X155379Y61971D01*
X155202Y61778D01*
X155043Y61571D01*
X154902Y61350D01*
X154781Y61118D01*
X154681Y60876D01*
X154602Y60626D01*
X154546Y60371D01*
X154511Y60111D01*
X154500Y59850D01*
X154500Y48850D01*
X154500Y9500D02*
X154511Y9239D01*
X154546Y8979D01*
X154602Y8724D01*
X154681Y8474D01*
X154781Y8232D01*
X154902Y8000D01*
X155043Y7779D01*
X155202Y7572D01*
X155379Y7379D01*
X155572Y7202D01*
X155779Y7043D01*
X156000Y6902D01*
X156232Y6781D01*
X156474Y6681D01*
X156724Y6602D01*
X156979Y6546D01*
X157239Y6511D01*
X157500Y6500D01*
X157761Y6511D01*
X158021Y6546D01*
X158276Y6602D01*
X158526Y6681D01*
X158768Y6781D01*
X159000Y6902D01*
X159221Y7043D01*
X159428Y7202D01*
X159621Y7379D01*
X159798Y7572D01*
X159957Y7779D01*
X160098Y8000D01*
X160219Y8232D01*
X160319Y8474D01*
X160398Y8724D01*
X160454Y8979D01*
X160489Y9239D01*
X160500Y9500D01*
X160500Y15700D01*
X160489Y15961D01*
X160454Y16221D01*
X160398Y16476D01*
X160319Y16726D01*
X160219Y16968D01*
X160098Y17200D01*
X159957Y17421D01*
X159798Y17628D01*
X159621Y17821D01*
X159428Y17998D01*
X159221Y18157D01*
X159000Y18298D01*
X158768Y18419D01*
X158526Y18519D01*
X158276Y18598D01*
X158021Y18654D01*
X157761Y18689D01*
X157500Y18700D01*
X157239Y18689D01*
X156979Y18654D01*
X156724Y18598D01*
X156474Y18519D01*
X156232Y18419D01*
X156000Y18298D01*
X155779Y18157D01*
X155572Y17998D01*
X155379Y17821D01*
X155202Y17628D01*
X155043Y17421D01*
X154902Y17200D01*
X154781Y16968D01*
X154681Y16726D01*
X154602Y16476D01*
X154546Y16221D01*
X154511Y15961D01*
X154500Y15700D01*
X154500Y9500D01*
X68100Y9500D02*
X68111Y9239D01*
X68146Y8979D01*
X68202Y8724D01*
X68281Y8474D01*
X68381Y8232D01*
X68502Y8000D01*
X68643Y7779D01*
X68802Y7572D01*
X68979Y7379D01*
X69172Y7202D01*
X69379Y7043D01*
X69600Y6902D01*
X69832Y6781D01*
X70074Y6681D01*
X70324Y6602D01*
X70579Y6546D01*
X70839Y6511D01*
X71100Y6500D01*
X71361Y6511D01*
X71621Y6546D01*
X71876Y6602D01*
X72126Y6681D01*
X72368Y6781D01*
X72600Y6902D01*
X72821Y7043D01*
X73028Y7202D01*
X73221Y7379D01*
X73398Y7572D01*
X73557Y7779D01*
X73698Y8000D01*
X73819Y8232D01*
X73919Y8474D01*
X73998Y8724D01*
X74054Y8979D01*
X74089Y9239D01*
X74100Y9500D01*
X74100Y15700D01*
X74089Y15961D01*
X74054Y16221D01*
X73998Y16476D01*
X73919Y16726D01*
X73819Y16968D01*
X73698Y17200D01*
X73557Y17421D01*
X73398Y17628D01*
X73221Y17821D01*
X73028Y17998D01*
X72821Y18157D01*
X72600Y18298D01*
X72368Y18419D01*
X72126Y18519D01*
X71876Y18598D01*
X71621Y18654D01*
X71361Y18689D01*
X71100Y18700D01*
X70839Y18689D01*
X70579Y18654D01*
X70324Y18598D01*
X70074Y18519D01*
X69832Y18419D01*
X69600Y18298D01*
X69379Y18157D01*
X69172Y17998D01*
X68979Y17821D01*
X68802Y17628D01*
X68643Y17421D01*
X68502Y17200D01*
X68381Y16968D01*
X68281Y16726D01*
X68202Y16476D01*
X68146Y16221D01*
X68111Y15961D01*
X68100Y15700D01*
X68100Y9500D01*
X68100Y48850D02*
X68111Y48589D01*
X68146Y48329D01*
X68202Y48074D01*
X68281Y47824D01*
X68381Y47582D01*
X68502Y47350D01*
X68643Y47129D01*
X68802Y46922D01*
X68979Y46729D01*
X69172Y46552D01*
X69379Y46393D01*
X69600Y46252D01*
X69832Y46131D01*
X70074Y46031D01*
X70324Y45952D01*
X70579Y45896D01*
X70839Y45861D01*
X71100Y45850D01*
X71361Y45861D01*
X71621Y45896D01*
X71876Y45952D01*
X72126Y46031D01*
X72368Y46131D01*
X72600Y46252D01*
X72821Y46393D01*
X73028Y46552D01*
X73221Y46729D01*
X73398Y46922D01*
X73557Y47129D01*
X73698Y47350D01*
X73819Y47582D01*
X73919Y47824D01*
X73998Y48074D01*
X74054Y48329D01*
X74089Y48589D01*
X74100Y48850D01*
X74100Y59850D01*
X74089Y60111D01*
X74054Y60371D01*
X73998Y60626D01*
X73919Y60876D01*
X73819Y61118D01*
X73698Y61350D01*
X73557Y61571D01*
X73398Y61778D01*
X73221Y61971D01*
X73028Y62148D01*
X72821Y62307D01*
X72600Y62448D01*
X72368Y62569D01*
X72126Y62669D01*
X71876Y62748D01*
X71621Y62804D01*
X71361Y62839D01*
X71100Y62850D01*
X70839Y62839D01*
X70579Y62804D01*
X70324Y62748D01*
X70074Y62669D01*
X69832Y62569D01*
X69600Y62448D01*
X69379Y62307D01*
X69172Y62148D01*
X68979Y61971D01*
X68802Y61778D01*
X68643Y61571D01*
X68502Y61350D01*
X68381Y61118D01*
X68281Y60876D01*
X68202Y60626D01*
X68146Y60371D01*
X68111Y60111D01*
X68100Y59850D01*
X68100Y48850D01*
X219710Y24860D02*
X219639Y23781D01*
X219498Y22709D01*
X219287Y21649D01*
X219008Y20605D01*
X218660Y19581D01*
X218246Y18583D01*
X217768Y17613D01*
X217228Y16677D01*
X216627Y15778D01*
X215969Y14921D01*
X215257Y14108D01*
X214492Y13344D01*
X213679Y12631D01*
X212822Y11973D01*
X211923Y11372D01*
X210987Y10832D01*
X210017Y10354D01*
X209019Y9940D01*
X207995Y9592D01*
X206951Y9313D01*
X205891Y9102D01*
X204819Y8961D01*
X203740Y8890D01*
X202660Y8890D01*
X201581Y8961D01*
X200509Y9102D01*
X199449Y9313D01*
X198405Y9592D01*
X197381Y9940D01*
X196383Y10354D01*
X195413Y10832D01*
X194477Y11372D01*
X193578Y11973D01*
X192721Y12631D01*
X191908Y13344D01*
X191144Y14108D01*
X190431Y14921D01*
X189773Y15778D01*
X189172Y16677D01*
X188632Y17613D01*
X188154Y18583D01*
X187740Y19581D01*
X187392Y20605D01*
X187113Y21649D01*
X186902Y22709D01*
X186761Y23781D01*
X186690Y24860D01*
X186690Y25940D01*
X186761Y27019D01*
X186902Y28091D01*
X187113Y29151D01*
X187392Y30195D01*
X187740Y31219D01*
X188154Y32217D01*
X188632Y33187D01*
X189172Y34123D01*
X189773Y35022D01*
X190431Y35879D01*
X191144Y36692D01*
X191908Y37457D01*
X192721Y38169D01*
X193578Y38827D01*
X194477Y39428D01*
X195413Y39968D01*
X196383Y40446D01*
X197381Y40860D01*
X198405Y41208D01*
X199449Y41487D01*
X200509Y41698D01*
X201581Y41839D01*
X202660Y41910D01*
X203740Y41910D01*
X204819Y41839D01*
X205891Y41698D01*
X206951Y41487D01*
X207995Y41208D01*
X209019Y40860D01*
X210017Y40446D01*
X210987Y39968D01*
X211923Y39428D01*
X212822Y38827D01*
X213679Y38169D01*
X214492Y37457D01*
X215257Y36692D01*
X215969Y35879D01*
X216627Y35022D01*
X217228Y34123D01*
X217768Y33187D01*
X218246Y32217D01*
X218660Y31219D01*
X219008Y30195D01*
X219287Y29151D01*
X219498Y28091D01*
X219639Y27019D01*
X219710Y25940D01*
X219710Y24860D01*
X41910Y24860D02*
X41839Y23781D01*
X41698Y22709D01*
X41487Y21649D01*
X41208Y20605D01*
X40860Y19581D01*
X40446Y18583D01*
X39968Y17613D01*
X39428Y16677D01*
X38827Y15778D01*
X38169Y14921D01*
X37457Y14108D01*
X36692Y13344D01*
X35879Y12631D01*
X35022Y11973D01*
X34123Y11372D01*
X33187Y10832D01*
X32217Y10354D01*
X31219Y9940D01*
X30195Y9592D01*
X29151Y9313D01*
X28091Y9102D01*
X27019Y8961D01*
X25940Y8890D01*
X24860Y8890D01*
X23781Y8961D01*
X22709Y9102D01*
X21649Y9313D01*
X20605Y9592D01*
X19581Y9940D01*
X18583Y10354D01*
X17613Y10832D01*
X16677Y11372D01*
X15778Y11973D01*
X14921Y12631D01*
X14108Y13344D01*
X13344Y14108D01*
X12631Y14921D01*
X11973Y15778D01*
X11372Y16677D01*
X10832Y17613D01*
X10354Y18583D01*
X9940Y19581D01*
X9592Y20605D01*
X9313Y21649D01*
X9102Y22709D01*
X8961Y23781D01*
X8890Y24860D01*
X8890Y25940D01*
X8961Y27019D01*
X9102Y28091D01*
X9313Y29151D01*
X9592Y30195D01*
X9940Y31219D01*
X10354Y32217D01*
X10832Y33187D01*
X11372Y34123D01*
X11973Y35022D01*
X12631Y35879D01*
X13344Y36692D01*
X14108Y37457D01*
X14921Y38169D01*
X15778Y38827D01*
X16677Y39428D01*
X17613Y39968D01*
X18583Y40446D01*
X19581Y40860D01*
X20605Y41208D01*
X21649Y41487D01*
X22709Y41698D01*
X23781Y41839D01*
X24860Y41910D01*
X25940Y41910D01*
X27019Y41839D01*
X28091Y41698D01*
X29151Y41487D01*
X30195Y41208D01*
X31219Y40860D01*
X32217Y40446D01*
X33187Y39968D01*
X34123Y39428D01*
X35022Y38827D01*
X35879Y38169D01*
X36692Y37457D01*
X37457Y36692D01*
X38169Y35879D01*
X38827Y35022D01*
X39428Y34123D01*
X39968Y33187D01*
X40446Y32217D01*
X40860Y31219D01*
X41208Y30195D01*
X41487Y29151D01*
X41698Y28091D01*
X41839Y27019D01*
X41910Y25940D01*
X41910Y24860D01*
X88650Y48837D02*
X88594Y48415D01*
X88484Y48003D01*
X88321Y47609D01*
X88108Y47241D01*
X87849Y46903D01*
X87547Y46601D01*
X87209Y46342D01*
X86841Y46129D01*
X86447Y45966D01*
X86035Y45856D01*
X85613Y45800D01*
X85187Y45800D01*
X84765Y45856D01*
X84353Y45966D01*
X83959Y46129D01*
X83591Y46342D01*
X83253Y46601D01*
X82951Y46903D01*
X82692Y47241D01*
X82479Y47609D01*
X82316Y48003D01*
X82206Y48415D01*
X82150Y48837D01*
X82150Y49263D01*
X82206Y49685D01*
X82316Y50097D01*
X82479Y50491D01*
X82692Y50859D01*
X82951Y51197D01*
X83253Y51499D01*
X83591Y51758D01*
X83959Y51971D01*
X84353Y52134D01*
X84765Y52244D01*
X85187Y52300D01*
X85613Y52300D01*
X86035Y52244D01*
X86447Y52134D01*
X86841Y51971D01*
X87209Y51758D01*
X87547Y51499D01*
X87849Y51197D01*
X88108Y50859D01*
X88321Y50491D01*
X88484Y50097D01*
X88594Y49685D01*
X88650Y49263D01*
X88650Y48837D01*
X146450Y48837D02*
X146394Y48415D01*
X146284Y48003D01*
X146121Y47609D01*
X145908Y47241D01*
X145649Y46903D01*
X145347Y46601D01*
X145009Y46342D01*
X144641Y46129D01*
X144247Y45966D01*
X143835Y45856D01*
X143413Y45800D01*
X142987Y45800D01*
X142565Y45856D01*
X142153Y45966D01*
X141759Y46129D01*
X141391Y46342D01*
X141053Y46601D01*
X140751Y46903D01*
X140492Y47241D01*
X140279Y47609D01*
X140116Y48003D01*
X140006Y48415D01*
X139950Y48837D01*
X139950Y49263D01*
X140006Y49685D01*
X140116Y50097D01*
X140279Y50491D01*
X140492Y50859D01*
X140751Y51197D01*
X141053Y51499D01*
X141391Y51758D01*
X141759Y51971D01*
X142153Y52134D01*
X142565Y52244D01*
X142987Y52300D01*
X143413Y52300D01*
X143835Y52244D01*
X144247Y52134D01*
X144641Y51971D01*
X145009Y51758D01*
X145347Y51499D01*
X145649Y51197D01*
X145908Y50859D01*
X146121Y50491D01*
X146284Y50097D01*
X146394Y49685D01*
X146450Y49263D01*
X146450Y48837D01*
M02*
