G04 EAGLE Gerber RS-274X export*
G75*
%MOMM*%
%FSLAX34Y34*%
%LPD*%
%INInner Layer 15*%
%IPPOS*%
%AMOC8*
5,1,8,0,0,1.08239X$1,22.5*%
G01*
%ADD10C,0.279400*%
%ADD11C,1.524000*%
%ADD12C,0.762000*%
%ADD13C,0.457200*%
%ADD14C,0.177800*%

G36*
X65386Y4080D02*
X65386Y4080D01*
X65488Y4088D01*
X65516Y4100D01*
X65547Y4105D01*
X65639Y4149D01*
X65735Y4187D01*
X65758Y4207D01*
X65786Y4220D01*
X65861Y4290D01*
X65941Y4355D01*
X65958Y4381D01*
X65980Y4402D01*
X66031Y4491D01*
X66088Y4576D01*
X66094Y4600D01*
X66112Y4632D01*
X66170Y4892D01*
X66167Y4930D01*
X66172Y4953D01*
X66172Y20553D01*
X66247Y20628D01*
X76353Y20628D01*
X76428Y20553D01*
X76428Y16267D01*
X76435Y16216D01*
X76434Y16164D01*
X76455Y16085D01*
X76468Y16004D01*
X76490Y15957D01*
X76504Y15908D01*
X76548Y15838D01*
X76583Y15764D01*
X76618Y15727D01*
X76646Y15683D01*
X76709Y15630D01*
X76765Y15570D01*
X76809Y15545D01*
X76849Y15511D01*
X76924Y15479D01*
X76995Y15438D01*
X77046Y15427D01*
X77093Y15407D01*
X77175Y15398D01*
X77255Y15380D01*
X77306Y15385D01*
X77358Y15379D01*
X77438Y15395D01*
X77520Y15402D01*
X77568Y15421D01*
X77618Y15431D01*
X77662Y15459D01*
X77767Y15501D01*
X77906Y15614D01*
X77944Y15639D01*
X79528Y17223D01*
X81489Y18035D01*
X83611Y18035D01*
X85572Y17223D01*
X87073Y15722D01*
X87885Y13761D01*
X87885Y11639D01*
X87073Y9678D01*
X85572Y8177D01*
X83611Y7365D01*
X81489Y7365D01*
X79528Y8177D01*
X77944Y9761D01*
X77903Y9792D01*
X77867Y9830D01*
X77796Y9871D01*
X77730Y9919D01*
X77681Y9936D01*
X77637Y9962D01*
X77557Y9980D01*
X77479Y10007D01*
X77427Y10008D01*
X77377Y10020D01*
X77295Y10013D01*
X77213Y10016D01*
X77164Y10002D01*
X77112Y9998D01*
X77036Y9967D01*
X76957Y9946D01*
X76913Y9918D01*
X76865Y9899D01*
X76802Y9847D01*
X76733Y9803D01*
X76699Y9764D01*
X76659Y9731D01*
X76614Y9663D01*
X76561Y9601D01*
X76540Y9553D01*
X76512Y9510D01*
X76500Y9460D01*
X76456Y9356D01*
X76438Y9178D01*
X76428Y9133D01*
X76428Y4953D01*
X76443Y4851D01*
X76451Y4749D01*
X76463Y4721D01*
X76468Y4690D01*
X76512Y4598D01*
X76550Y4502D01*
X76570Y4479D01*
X76583Y4451D01*
X76653Y4376D01*
X76718Y4296D01*
X76744Y4279D01*
X76765Y4257D01*
X76854Y4206D01*
X76939Y4149D01*
X76963Y4143D01*
X76995Y4125D01*
X77255Y4067D01*
X77293Y4070D01*
X77316Y4065D01*
X151284Y4065D01*
X151386Y4080D01*
X151488Y4088D01*
X151516Y4100D01*
X151547Y4105D01*
X151639Y4149D01*
X151735Y4187D01*
X151758Y4207D01*
X151786Y4220D01*
X151861Y4290D01*
X151941Y4355D01*
X151958Y4381D01*
X151980Y4402D01*
X152031Y4491D01*
X152088Y4576D01*
X152094Y4600D01*
X152112Y4632D01*
X152170Y4892D01*
X152167Y4930D01*
X152172Y4953D01*
X152172Y20553D01*
X152247Y20628D01*
X162353Y20628D01*
X162428Y20553D01*
X162428Y4953D01*
X162443Y4851D01*
X162451Y4749D01*
X162463Y4721D01*
X162468Y4690D01*
X162512Y4598D01*
X162550Y4502D01*
X162570Y4479D01*
X162583Y4451D01*
X162653Y4376D01*
X162718Y4296D01*
X162744Y4279D01*
X162765Y4257D01*
X162854Y4206D01*
X162939Y4149D01*
X162963Y4143D01*
X162995Y4125D01*
X163255Y4067D01*
X163293Y4070D01*
X163316Y4065D01*
X203200Y4065D01*
X203201Y4065D01*
X203226Y4069D01*
X203242Y4066D01*
X203243Y4066D01*
X203353Y4088D01*
X203464Y4105D01*
X203483Y4114D01*
X203504Y4118D01*
X203602Y4171D01*
X203703Y4220D01*
X203718Y4235D01*
X203737Y4245D01*
X203815Y4325D01*
X203897Y4402D01*
X203908Y4420D01*
X203923Y4435D01*
X203974Y4535D01*
X204029Y4632D01*
X204034Y4653D01*
X204043Y4672D01*
X204063Y4783D01*
X204087Y4892D01*
X204085Y4913D01*
X204089Y4934D01*
X204074Y5045D01*
X204065Y5157D01*
X204057Y5177D01*
X204055Y5198D01*
X204008Y5300D01*
X203966Y5404D01*
X203953Y5420D01*
X203944Y5439D01*
X203869Y5523D01*
X203799Y5610D01*
X203781Y5622D01*
X203767Y5638D01*
X203671Y5695D01*
X203578Y5757D01*
X203561Y5761D01*
X203539Y5774D01*
X203369Y5804D01*
X203201Y5841D01*
X199309Y5841D01*
X192121Y8819D01*
X186619Y14321D01*
X183641Y21509D01*
X183641Y21552D01*
X183634Y21603D01*
X183635Y21655D01*
X183614Y21734D01*
X183601Y21815D01*
X183579Y21862D01*
X183565Y21911D01*
X183521Y21981D01*
X183486Y22055D01*
X183451Y22092D01*
X183423Y22136D01*
X183360Y22189D01*
X183304Y22249D01*
X183260Y22274D01*
X183220Y22308D01*
X183145Y22340D01*
X183074Y22381D01*
X183023Y22392D01*
X182976Y22412D01*
X182894Y22421D01*
X182814Y22439D01*
X182763Y22434D01*
X182711Y22440D01*
X182631Y22424D01*
X182549Y22417D01*
X182501Y22398D01*
X182451Y22388D01*
X182407Y22360D01*
X182302Y22318D01*
X182163Y22205D01*
X182125Y22180D01*
X180822Y20877D01*
X178861Y20065D01*
X176739Y20065D01*
X174778Y20877D01*
X173277Y22378D01*
X172465Y24339D01*
X172465Y26461D01*
X173277Y28422D01*
X174778Y29923D01*
X176739Y30735D01*
X178861Y30735D01*
X180822Y29923D01*
X182125Y28620D01*
X182166Y28589D01*
X182202Y28551D01*
X182273Y28510D01*
X182339Y28462D01*
X182388Y28445D01*
X182432Y28419D01*
X182512Y28401D01*
X182590Y28374D01*
X182642Y28373D01*
X182692Y28361D01*
X182774Y28368D01*
X182856Y28365D01*
X182905Y28379D01*
X182957Y28383D01*
X183033Y28414D01*
X183112Y28435D01*
X183156Y28463D01*
X183204Y28482D01*
X183267Y28534D01*
X183336Y28578D01*
X183370Y28617D01*
X183410Y28650D01*
X183455Y28718D01*
X183508Y28780D01*
X183529Y28828D01*
X183557Y28871D01*
X183569Y28921D01*
X183613Y29025D01*
X183631Y29203D01*
X183641Y29248D01*
X183641Y29291D01*
X186619Y36479D01*
X192121Y41981D01*
X199309Y44959D01*
X199352Y44959D01*
X199403Y44966D01*
X199455Y44965D01*
X199534Y44986D01*
X199615Y44999D01*
X199662Y45021D01*
X199711Y45035D01*
X199781Y45079D01*
X199855Y45114D01*
X199892Y45149D01*
X199936Y45177D01*
X199989Y45240D01*
X200049Y45296D01*
X200074Y45340D01*
X200108Y45380D01*
X200140Y45455D01*
X200181Y45526D01*
X200192Y45577D01*
X200212Y45624D01*
X200221Y45706D01*
X200239Y45786D01*
X200234Y45837D01*
X200240Y45889D01*
X200224Y45969D01*
X200217Y46051D01*
X200198Y46099D01*
X200188Y46149D01*
X200160Y46193D01*
X200118Y46298D01*
X200005Y46437D01*
X199980Y46475D01*
X198677Y47778D01*
X197865Y49739D01*
X197865Y51861D01*
X198677Y53822D01*
X200178Y55323D01*
X202139Y56135D01*
X204261Y56135D01*
X206222Y55323D01*
X207723Y53822D01*
X208535Y51861D01*
X208535Y49739D01*
X207723Y47778D01*
X206420Y46475D01*
X206389Y46434D01*
X206351Y46398D01*
X206310Y46327D01*
X206262Y46261D01*
X206245Y46212D01*
X206219Y46168D01*
X206201Y46088D01*
X206174Y46010D01*
X206173Y45958D01*
X206161Y45908D01*
X206168Y45826D01*
X206165Y45744D01*
X206179Y45695D01*
X206183Y45643D01*
X206214Y45567D01*
X206235Y45488D01*
X206263Y45444D01*
X206282Y45396D01*
X206334Y45333D01*
X206378Y45264D01*
X206417Y45230D01*
X206450Y45190D01*
X206518Y45145D01*
X206580Y45092D01*
X206628Y45071D01*
X206671Y45043D01*
X206721Y45031D01*
X206825Y44987D01*
X207003Y44969D01*
X207048Y44959D01*
X207091Y44959D01*
X214279Y41981D01*
X219781Y36479D01*
X222759Y29291D01*
X222759Y25399D01*
X222776Y25288D01*
X222787Y25175D01*
X222795Y25157D01*
X222799Y25136D01*
X222848Y25035D01*
X222892Y24931D01*
X222905Y24916D01*
X222914Y24897D01*
X222992Y24814D01*
X223065Y24729D01*
X223082Y24718D01*
X223096Y24703D01*
X223194Y24647D01*
X223289Y24586D01*
X223309Y24581D01*
X223326Y24571D01*
X223437Y24546D01*
X223546Y24517D01*
X223566Y24518D01*
X223586Y24513D01*
X223698Y24522D01*
X223811Y24526D01*
X223831Y24533D01*
X223851Y24535D01*
X223956Y24577D01*
X224062Y24614D01*
X224079Y24626D01*
X224098Y24634D01*
X224185Y24705D01*
X224276Y24772D01*
X224288Y24789D01*
X224304Y24801D01*
X224367Y24895D01*
X224433Y24986D01*
X224438Y25002D01*
X224451Y25022D01*
X224489Y25192D01*
X224534Y25359D01*
X224534Y25360D01*
X224532Y25384D01*
X224535Y25399D01*
X224535Y25400D01*
X224535Y89116D01*
X224528Y89167D01*
X224529Y89219D01*
X224508Y89298D01*
X224495Y89379D01*
X224473Y89426D01*
X224459Y89475D01*
X224415Y89545D01*
X224380Y89619D01*
X224345Y89656D01*
X224317Y89700D01*
X224254Y89753D01*
X224198Y89813D01*
X224154Y89838D01*
X224114Y89872D01*
X224039Y89904D01*
X223968Y89945D01*
X223917Y89956D01*
X223870Y89976D01*
X223788Y89985D01*
X223708Y90003D01*
X223657Y89998D01*
X223605Y90004D01*
X223525Y89988D01*
X223443Y89981D01*
X223395Y89962D01*
X223345Y89952D01*
X223301Y89924D01*
X223196Y89882D01*
X223057Y89769D01*
X223019Y89744D01*
X221462Y88187D01*
X219501Y87375D01*
X217379Y87375D01*
X215418Y88187D01*
X213917Y89688D01*
X213105Y91649D01*
X213105Y93771D01*
X213917Y95732D01*
X215418Y97233D01*
X217379Y98045D01*
X219501Y98045D01*
X221462Y97233D01*
X223019Y95676D01*
X223060Y95645D01*
X223096Y95607D01*
X223167Y95566D01*
X223233Y95518D01*
X223282Y95501D01*
X223326Y95475D01*
X223406Y95457D01*
X223484Y95430D01*
X223536Y95429D01*
X223586Y95417D01*
X223668Y95424D01*
X223750Y95421D01*
X223799Y95435D01*
X223851Y95439D01*
X223927Y95470D01*
X224006Y95491D01*
X224050Y95519D01*
X224098Y95538D01*
X224161Y95590D01*
X224230Y95634D01*
X224264Y95673D01*
X224304Y95706D01*
X224349Y95774D01*
X224402Y95836D01*
X224423Y95884D01*
X224451Y95927D01*
X224463Y95977D01*
X224507Y96081D01*
X224525Y96259D01*
X224535Y96304D01*
X224535Y131103D01*
X224528Y131154D01*
X224529Y131206D01*
X224514Y131263D01*
X224512Y131288D01*
X224505Y131306D01*
X224495Y131366D01*
X224473Y131412D01*
X224459Y131462D01*
X224415Y131531D01*
X224380Y131605D01*
X224345Y131643D01*
X224317Y131686D01*
X224254Y131739D01*
X224198Y131799D01*
X224154Y131825D01*
X224114Y131858D01*
X224039Y131891D01*
X223968Y131931D01*
X223917Y131943D01*
X223870Y131963D01*
X223788Y131971D01*
X223708Y131989D01*
X223657Y131985D01*
X223605Y131990D01*
X223525Y131974D01*
X223443Y131968D01*
X223395Y131948D01*
X223345Y131938D01*
X223301Y131911D01*
X223196Y131869D01*
X223143Y131825D01*
X223126Y131817D01*
X223080Y131774D01*
X223057Y131756D01*
X223019Y131731D01*
X221943Y130655D01*
X218022Y129031D01*
X213778Y129031D01*
X209857Y130655D01*
X206855Y133657D01*
X205231Y137578D01*
X205231Y141822D01*
X206855Y145743D01*
X209857Y148745D01*
X213778Y150369D01*
X218022Y150369D01*
X221943Y148745D01*
X223019Y147669D01*
X223060Y147638D01*
X223096Y147601D01*
X223167Y147560D01*
X223233Y147511D01*
X223282Y147494D01*
X223326Y147469D01*
X223406Y147451D01*
X223484Y147424D01*
X223536Y147422D01*
X223586Y147411D01*
X223668Y147418D01*
X223750Y147415D01*
X223799Y147428D01*
X223851Y147432D01*
X223927Y147463D01*
X224006Y147485D01*
X224050Y147512D01*
X224098Y147531D01*
X224161Y147583D01*
X224230Y147627D01*
X224264Y147666D01*
X224304Y147699D01*
X224349Y147767D01*
X224402Y147830D01*
X224423Y147877D01*
X224451Y147920D01*
X224463Y147971D01*
X224507Y148074D01*
X224525Y148253D01*
X224535Y148297D01*
X224535Y157221D01*
X224528Y157272D01*
X224529Y157324D01*
X224508Y157403D01*
X224495Y157484D01*
X224473Y157531D01*
X224459Y157581D01*
X224415Y157650D01*
X224380Y157724D01*
X224344Y157761D01*
X224317Y157805D01*
X224254Y157858D01*
X224198Y157918D01*
X224153Y157944D01*
X224114Y157977D01*
X224039Y158009D01*
X223968Y158050D01*
X223917Y158061D01*
X223870Y158081D01*
X223788Y158090D01*
X223708Y158108D01*
X223657Y158103D01*
X223605Y158109D01*
X223525Y158093D01*
X223443Y158086D01*
X223395Y158067D01*
X223345Y158057D01*
X223301Y158029D01*
X223196Y157987D01*
X223057Y157874D01*
X223019Y157849D01*
X222519Y157350D01*
X221225Y156410D01*
X219800Y155684D01*
X218279Y155189D01*
X217677Y155094D01*
X217677Y164211D01*
X217662Y164312D01*
X217653Y164415D01*
X217642Y164443D01*
X217637Y164474D01*
X217593Y164566D01*
X217554Y164661D01*
X217535Y164685D01*
X217522Y164713D01*
X217452Y164788D01*
X217387Y164868D01*
X217361Y164885D01*
X217340Y164907D01*
X217251Y164958D01*
X217166Y165015D01*
X217142Y165020D01*
X217110Y165039D01*
X216850Y165097D01*
X216812Y165094D01*
X216789Y165099D01*
X215899Y165099D01*
X215899Y165101D01*
X216789Y165101D01*
X216890Y165116D01*
X216993Y165125D01*
X217021Y165136D01*
X217052Y165141D01*
X217144Y165185D01*
X217239Y165224D01*
X217263Y165243D01*
X217291Y165256D01*
X217366Y165326D01*
X217446Y165391D01*
X217463Y165417D01*
X217485Y165438D01*
X217536Y165527D01*
X217593Y165612D01*
X217599Y165636D01*
X217617Y165669D01*
X217675Y165928D01*
X217672Y165966D01*
X217677Y165989D01*
X217677Y175106D01*
X218279Y175011D01*
X219800Y174516D01*
X221225Y173790D01*
X222519Y172850D01*
X223019Y172351D01*
X223060Y172320D01*
X223096Y172282D01*
X223167Y172241D01*
X223233Y172193D01*
X223282Y172176D01*
X223326Y172150D01*
X223406Y172132D01*
X223484Y172105D01*
X223536Y172104D01*
X223586Y172092D01*
X223668Y172099D01*
X223750Y172096D01*
X223799Y172110D01*
X223851Y172114D01*
X223927Y172145D01*
X224006Y172166D01*
X224050Y172194D01*
X224098Y172213D01*
X224161Y172265D01*
X224230Y172309D01*
X224264Y172348D01*
X224304Y172381D01*
X224349Y172449D01*
X224402Y172511D01*
X224423Y172559D01*
X224451Y172602D01*
X224463Y172652D01*
X224507Y172756D01*
X224525Y172934D01*
X224535Y172979D01*
X224535Y181903D01*
X224528Y181954D01*
X224529Y182006D01*
X224508Y182085D01*
X224495Y182166D01*
X224473Y182212D01*
X224459Y182262D01*
X224415Y182331D01*
X224380Y182405D01*
X224345Y182443D01*
X224317Y182486D01*
X224254Y182539D01*
X224198Y182599D01*
X224154Y182625D01*
X224114Y182658D01*
X224039Y182691D01*
X223968Y182731D01*
X223917Y182743D01*
X223870Y182763D01*
X223788Y182771D01*
X223708Y182789D01*
X223657Y182785D01*
X223605Y182790D01*
X223525Y182774D01*
X223443Y182768D01*
X223395Y182748D01*
X223345Y182738D01*
X223301Y182711D01*
X223196Y182669D01*
X223057Y182556D01*
X223019Y182531D01*
X221943Y181455D01*
X218022Y179831D01*
X213778Y179831D01*
X209857Y181455D01*
X206855Y184457D01*
X205231Y188378D01*
X205231Y192622D01*
X206855Y196543D01*
X209857Y199545D01*
X213778Y201169D01*
X218022Y201169D01*
X221943Y199545D01*
X223019Y198469D01*
X223060Y198438D01*
X223096Y198401D01*
X223167Y198360D01*
X223233Y198311D01*
X223282Y198294D01*
X223326Y198269D01*
X223406Y198251D01*
X223484Y198224D01*
X223536Y198222D01*
X223586Y198211D01*
X223668Y198218D01*
X223750Y198215D01*
X223799Y198228D01*
X223851Y198232D01*
X223927Y198263D01*
X224006Y198285D01*
X224050Y198312D01*
X224098Y198331D01*
X224161Y198383D01*
X224230Y198427D01*
X224264Y198466D01*
X224304Y198499D01*
X224349Y198567D01*
X224402Y198630D01*
X224423Y198677D01*
X224451Y198720D01*
X224463Y198771D01*
X224507Y198874D01*
X224525Y199053D01*
X224535Y199097D01*
X224535Y207303D01*
X224528Y207354D01*
X224529Y207406D01*
X224508Y207485D01*
X224495Y207566D01*
X224473Y207612D01*
X224459Y207662D01*
X224415Y207731D01*
X224380Y207805D01*
X224345Y207843D01*
X224317Y207886D01*
X224254Y207939D01*
X224198Y207999D01*
X224154Y208025D01*
X224114Y208058D01*
X224039Y208091D01*
X223968Y208131D01*
X223917Y208143D01*
X223870Y208163D01*
X223788Y208171D01*
X223708Y208189D01*
X223657Y208185D01*
X223605Y208190D01*
X223525Y208174D01*
X223443Y208168D01*
X223395Y208148D01*
X223345Y208138D01*
X223301Y208111D01*
X223196Y208069D01*
X223057Y207956D01*
X223019Y207931D01*
X221943Y206855D01*
X218022Y205231D01*
X213778Y205231D01*
X209857Y206855D01*
X206855Y209857D01*
X205231Y213778D01*
X205231Y218022D01*
X206855Y221943D01*
X209857Y224945D01*
X213778Y226569D01*
X218022Y226569D01*
X221943Y224945D01*
X223019Y223869D01*
X223060Y223838D01*
X223096Y223801D01*
X223167Y223760D01*
X223233Y223711D01*
X223282Y223694D01*
X223326Y223669D01*
X223406Y223651D01*
X223484Y223624D01*
X223536Y223622D01*
X223586Y223611D01*
X223668Y223618D01*
X223750Y223615D01*
X223799Y223628D01*
X223851Y223632D01*
X223927Y223663D01*
X224006Y223685D01*
X224050Y223712D01*
X224098Y223731D01*
X224161Y223783D01*
X224230Y223827D01*
X224264Y223866D01*
X224304Y223899D01*
X224349Y223967D01*
X224402Y224030D01*
X224423Y224077D01*
X224451Y224120D01*
X224463Y224171D01*
X224507Y224274D01*
X224525Y224453D01*
X224535Y224497D01*
X224535Y232703D01*
X224528Y232754D01*
X224529Y232806D01*
X224508Y232885D01*
X224495Y232966D01*
X224473Y233012D01*
X224459Y233062D01*
X224415Y233131D01*
X224380Y233205D01*
X224345Y233243D01*
X224317Y233286D01*
X224254Y233339D01*
X224198Y233399D01*
X224154Y233425D01*
X224114Y233458D01*
X224039Y233491D01*
X223968Y233531D01*
X223917Y233543D01*
X223870Y233563D01*
X223788Y233571D01*
X223708Y233589D01*
X223657Y233585D01*
X223605Y233590D01*
X223525Y233574D01*
X223443Y233568D01*
X223395Y233548D01*
X223345Y233538D01*
X223301Y233511D01*
X223196Y233469D01*
X223057Y233356D01*
X223019Y233331D01*
X221943Y232255D01*
X218022Y230631D01*
X213778Y230631D01*
X209857Y232255D01*
X206855Y235257D01*
X205231Y239178D01*
X205231Y243422D01*
X206855Y247343D01*
X209857Y250345D01*
X213778Y251969D01*
X218022Y251969D01*
X221943Y250345D01*
X223019Y249269D01*
X223060Y249238D01*
X223096Y249201D01*
X223167Y249160D01*
X223233Y249111D01*
X223282Y249094D01*
X223326Y249069D01*
X223406Y249051D01*
X223484Y249024D01*
X223536Y249022D01*
X223586Y249011D01*
X223668Y249018D01*
X223750Y249015D01*
X223799Y249028D01*
X223851Y249032D01*
X223927Y249063D01*
X224006Y249085D01*
X224050Y249112D01*
X224098Y249131D01*
X224161Y249183D01*
X224230Y249227D01*
X224264Y249266D01*
X224304Y249299D01*
X224349Y249367D01*
X224402Y249430D01*
X224423Y249477D01*
X224451Y249520D01*
X224463Y249571D01*
X224507Y249674D01*
X224525Y249853D01*
X224535Y249897D01*
X224535Y258103D01*
X224528Y258154D01*
X224529Y258206D01*
X224508Y258285D01*
X224495Y258366D01*
X224473Y258412D01*
X224459Y258462D01*
X224415Y258531D01*
X224380Y258605D01*
X224345Y258643D01*
X224317Y258686D01*
X224254Y258739D01*
X224198Y258799D01*
X224154Y258825D01*
X224114Y258858D01*
X224039Y258891D01*
X223968Y258931D01*
X223917Y258943D01*
X223870Y258963D01*
X223788Y258971D01*
X223708Y258989D01*
X223657Y258985D01*
X223605Y258990D01*
X223525Y258974D01*
X223443Y258968D01*
X223395Y258948D01*
X223345Y258938D01*
X223301Y258911D01*
X223196Y258869D01*
X223057Y258756D01*
X223019Y258731D01*
X221943Y257655D01*
X218022Y256031D01*
X213778Y256031D01*
X209857Y257655D01*
X206855Y260657D01*
X205231Y264578D01*
X205231Y268822D01*
X206855Y272743D01*
X209857Y275745D01*
X213778Y277369D01*
X218022Y277369D01*
X221943Y275745D01*
X223019Y274669D01*
X223060Y274638D01*
X223096Y274601D01*
X223167Y274560D01*
X223233Y274511D01*
X223282Y274494D01*
X223326Y274469D01*
X223406Y274451D01*
X223484Y274424D01*
X223536Y274422D01*
X223586Y274411D01*
X223668Y274418D01*
X223750Y274415D01*
X223799Y274428D01*
X223851Y274432D01*
X223927Y274463D01*
X224006Y274485D01*
X224050Y274512D01*
X224098Y274531D01*
X224161Y274583D01*
X224230Y274627D01*
X224264Y274666D01*
X224304Y274699D01*
X224349Y274767D01*
X224402Y274830D01*
X224423Y274877D01*
X224451Y274920D01*
X224463Y274971D01*
X224507Y275074D01*
X224525Y275253D01*
X224535Y275297D01*
X224535Y283503D01*
X224528Y283554D01*
X224529Y283606D01*
X224508Y283685D01*
X224495Y283766D01*
X224473Y283812D01*
X224459Y283862D01*
X224415Y283931D01*
X224380Y284005D01*
X224345Y284043D01*
X224317Y284086D01*
X224254Y284139D01*
X224198Y284199D01*
X224154Y284225D01*
X224114Y284258D01*
X224039Y284291D01*
X223968Y284331D01*
X223917Y284343D01*
X223870Y284363D01*
X223788Y284371D01*
X223708Y284389D01*
X223657Y284385D01*
X223605Y284390D01*
X223525Y284374D01*
X223443Y284368D01*
X223395Y284348D01*
X223345Y284338D01*
X223301Y284311D01*
X223196Y284269D01*
X223057Y284156D01*
X223019Y284131D01*
X221943Y283055D01*
X218022Y281431D01*
X213778Y281431D01*
X209857Y283055D01*
X206855Y286057D01*
X205231Y289978D01*
X205231Y294222D01*
X206855Y298143D01*
X209857Y301145D01*
X213778Y302769D01*
X218022Y302769D01*
X221943Y301145D01*
X223019Y300069D01*
X223060Y300038D01*
X223096Y300001D01*
X223167Y299960D01*
X223233Y299911D01*
X223282Y299894D01*
X223326Y299869D01*
X223406Y299851D01*
X223484Y299824D01*
X223536Y299822D01*
X223586Y299811D01*
X223668Y299818D01*
X223750Y299815D01*
X223799Y299828D01*
X223851Y299832D01*
X223927Y299863D01*
X224006Y299885D01*
X224050Y299912D01*
X224098Y299931D01*
X224161Y299983D01*
X224230Y300027D01*
X224264Y300066D01*
X224304Y300099D01*
X224349Y300167D01*
X224402Y300230D01*
X224423Y300277D01*
X224451Y300320D01*
X224463Y300371D01*
X224507Y300474D01*
X224524Y300637D01*
X224533Y300679D01*
X224533Y300685D01*
X224535Y300697D01*
X224535Y308903D01*
X224528Y308954D01*
X224529Y309006D01*
X224508Y309085D01*
X224495Y309166D01*
X224473Y309212D01*
X224459Y309262D01*
X224415Y309331D01*
X224380Y309405D01*
X224345Y309443D01*
X224317Y309486D01*
X224254Y309539D01*
X224198Y309599D01*
X224154Y309625D01*
X224114Y309658D01*
X224039Y309691D01*
X223968Y309731D01*
X223917Y309743D01*
X223870Y309763D01*
X223788Y309771D01*
X223708Y309789D01*
X223657Y309785D01*
X223605Y309790D01*
X223525Y309774D01*
X223443Y309768D01*
X223395Y309748D01*
X223345Y309738D01*
X223301Y309711D01*
X223196Y309669D01*
X223057Y309556D01*
X223019Y309531D01*
X221943Y308455D01*
X218022Y306831D01*
X213778Y306831D01*
X209857Y308455D01*
X206855Y311457D01*
X205231Y315378D01*
X205231Y319622D01*
X206855Y323543D01*
X209857Y326545D01*
X213778Y328169D01*
X218022Y328169D01*
X221943Y326545D01*
X223019Y325469D01*
X223060Y325438D01*
X223096Y325401D01*
X223167Y325360D01*
X223233Y325311D01*
X223282Y325294D01*
X223326Y325269D01*
X223406Y325251D01*
X223484Y325224D01*
X223536Y325222D01*
X223586Y325211D01*
X223668Y325218D01*
X223750Y325215D01*
X223799Y325228D01*
X223851Y325232D01*
X223927Y325263D01*
X224006Y325285D01*
X224050Y325312D01*
X224098Y325331D01*
X224161Y325383D01*
X224230Y325427D01*
X224264Y325466D01*
X224304Y325499D01*
X224349Y325567D01*
X224402Y325630D01*
X224423Y325677D01*
X224451Y325720D01*
X224463Y325771D01*
X224507Y325874D01*
X224525Y326053D01*
X224535Y326097D01*
X224535Y334303D01*
X224528Y334354D01*
X224529Y334406D01*
X224508Y334485D01*
X224495Y334566D01*
X224473Y334612D01*
X224459Y334662D01*
X224415Y334731D01*
X224380Y334805D01*
X224345Y334843D01*
X224317Y334886D01*
X224254Y334939D01*
X224198Y334999D01*
X224154Y335025D01*
X224114Y335058D01*
X224039Y335091D01*
X223968Y335131D01*
X223917Y335143D01*
X223870Y335163D01*
X223788Y335171D01*
X223708Y335189D01*
X223657Y335185D01*
X223605Y335190D01*
X223525Y335174D01*
X223443Y335168D01*
X223395Y335148D01*
X223345Y335138D01*
X223301Y335111D01*
X223196Y335069D01*
X223057Y334956D01*
X223019Y334931D01*
X221943Y333855D01*
X218022Y332231D01*
X213778Y332231D01*
X209857Y333855D01*
X206855Y336857D01*
X205231Y340778D01*
X205231Y345022D01*
X206855Y348943D01*
X209857Y351945D01*
X213778Y353569D01*
X218022Y353569D01*
X221943Y351945D01*
X223019Y350869D01*
X223060Y350838D01*
X223096Y350801D01*
X223167Y350760D01*
X223233Y350711D01*
X223282Y350694D01*
X223326Y350669D01*
X223406Y350651D01*
X223484Y350624D01*
X223536Y350622D01*
X223586Y350611D01*
X223668Y350618D01*
X223750Y350615D01*
X223799Y350628D01*
X223851Y350632D01*
X223927Y350663D01*
X224006Y350685D01*
X224050Y350712D01*
X224098Y350731D01*
X224161Y350783D01*
X224230Y350827D01*
X224264Y350866D01*
X224304Y350899D01*
X224349Y350967D01*
X224402Y351030D01*
X224423Y351077D01*
X224451Y351120D01*
X224463Y351171D01*
X224507Y351274D01*
X224525Y351453D01*
X224535Y351497D01*
X224535Y359703D01*
X224528Y359754D01*
X224529Y359806D01*
X224508Y359885D01*
X224495Y359966D01*
X224473Y360012D01*
X224459Y360062D01*
X224415Y360131D01*
X224380Y360205D01*
X224345Y360243D01*
X224317Y360286D01*
X224254Y360339D01*
X224198Y360399D01*
X224154Y360425D01*
X224114Y360458D01*
X224039Y360491D01*
X223968Y360531D01*
X223917Y360543D01*
X223870Y360563D01*
X223788Y360571D01*
X223708Y360589D01*
X223657Y360585D01*
X223605Y360590D01*
X223525Y360574D01*
X223443Y360568D01*
X223395Y360548D01*
X223345Y360538D01*
X223301Y360511D01*
X223196Y360469D01*
X223057Y360356D01*
X223019Y360331D01*
X221943Y359255D01*
X218022Y357631D01*
X213778Y357631D01*
X209857Y359255D01*
X206855Y362257D01*
X205231Y366178D01*
X205231Y370422D01*
X206855Y374343D01*
X209857Y377345D01*
X213778Y378969D01*
X218022Y378969D01*
X221943Y377345D01*
X223019Y376269D01*
X223060Y376238D01*
X223096Y376201D01*
X223167Y376160D01*
X223233Y376111D01*
X223282Y376094D01*
X223326Y376069D01*
X223406Y376051D01*
X223484Y376024D01*
X223536Y376022D01*
X223586Y376011D01*
X223668Y376018D01*
X223750Y376015D01*
X223799Y376028D01*
X223851Y376032D01*
X223927Y376063D01*
X224006Y376085D01*
X224050Y376112D01*
X224098Y376131D01*
X224161Y376183D01*
X224230Y376227D01*
X224264Y376266D01*
X224304Y376299D01*
X224349Y376367D01*
X224402Y376430D01*
X224423Y376477D01*
X224451Y376520D01*
X224463Y376571D01*
X224507Y376674D01*
X224525Y376853D01*
X224535Y376897D01*
X224535Y385103D01*
X224528Y385154D01*
X224529Y385206D01*
X224508Y385285D01*
X224495Y385366D01*
X224473Y385412D01*
X224459Y385462D01*
X224415Y385531D01*
X224380Y385605D01*
X224345Y385643D01*
X224317Y385686D01*
X224254Y385739D01*
X224198Y385799D01*
X224154Y385825D01*
X224114Y385858D01*
X224039Y385891D01*
X223968Y385931D01*
X223917Y385943D01*
X223870Y385963D01*
X223788Y385971D01*
X223708Y385989D01*
X223657Y385985D01*
X223605Y385990D01*
X223525Y385974D01*
X223443Y385968D01*
X223395Y385948D01*
X223345Y385938D01*
X223301Y385911D01*
X223196Y385869D01*
X223057Y385756D01*
X223019Y385731D01*
X221943Y384655D01*
X218022Y383031D01*
X213778Y383031D01*
X209857Y384655D01*
X206855Y387657D01*
X206361Y388850D01*
X206356Y388859D01*
X206353Y388869D01*
X206287Y388973D01*
X206224Y389077D01*
X206216Y389084D01*
X206210Y389093D01*
X206117Y389173D01*
X206025Y389254D01*
X206016Y389259D01*
X206008Y389265D01*
X205895Y389314D01*
X205783Y389364D01*
X205773Y389366D01*
X205763Y389370D01*
X205641Y389383D01*
X205520Y389398D01*
X205509Y389396D01*
X205499Y389397D01*
X205379Y389373D01*
X205258Y389352D01*
X205249Y389347D01*
X205238Y389345D01*
X205212Y389328D01*
X205021Y389231D01*
X204953Y389164D01*
X204913Y389138D01*
X203652Y387877D01*
X201691Y387065D01*
X199569Y387065D01*
X199410Y387131D01*
X199320Y387153D01*
X199233Y387184D01*
X199192Y387185D01*
X199152Y387195D01*
X199060Y387189D01*
X198968Y387193D01*
X198928Y387182D01*
X198887Y387179D01*
X198800Y387147D01*
X198711Y387123D01*
X198676Y387101D01*
X198638Y387086D01*
X198565Y387030D01*
X198487Y386980D01*
X198460Y386949D01*
X198428Y386924D01*
X198374Y386848D01*
X198315Y386778D01*
X198299Y386740D01*
X198275Y386706D01*
X198247Y386618D01*
X198210Y386533D01*
X198206Y386492D01*
X198194Y386453D01*
X198193Y386361D01*
X198183Y386269D01*
X198191Y386228D01*
X198191Y386187D01*
X198217Y386099D01*
X198235Y386008D01*
X198252Y385982D01*
X198266Y385932D01*
X198414Y385711D01*
X198431Y385700D01*
X198442Y385682D01*
X198833Y385292D01*
X199645Y383331D01*
X199645Y381209D01*
X198833Y379248D01*
X197332Y377747D01*
X195371Y376935D01*
X193591Y376935D01*
X193581Y376934D01*
X193570Y376935D01*
X193450Y376914D01*
X193328Y376895D01*
X193319Y376891D01*
X193308Y376889D01*
X193200Y376833D01*
X193089Y376780D01*
X193081Y376773D01*
X193072Y376768D01*
X192984Y376682D01*
X192895Y376598D01*
X192889Y376589D01*
X192882Y376582D01*
X192823Y376474D01*
X192763Y376368D01*
X192760Y376357D01*
X192755Y376348D01*
X192731Y376227D01*
X192705Y376108D01*
X192706Y376098D01*
X192704Y376087D01*
X192709Y376057D01*
X192726Y375843D01*
X192762Y375755D01*
X192770Y375707D01*
X193295Y374441D01*
X193295Y372319D01*
X192483Y370358D01*
X190982Y368857D01*
X189021Y368045D01*
X186899Y368045D01*
X184938Y368857D01*
X183437Y370358D01*
X182625Y372319D01*
X182625Y374441D01*
X183437Y376402D01*
X184938Y377903D01*
X186899Y378715D01*
X188679Y378715D01*
X188689Y378716D01*
X188700Y378715D01*
X188820Y378736D01*
X188942Y378755D01*
X188951Y378759D01*
X188962Y378761D01*
X189070Y378817D01*
X189181Y378870D01*
X189189Y378877D01*
X189198Y378882D01*
X189285Y378967D01*
X189375Y379052D01*
X189381Y379061D01*
X189388Y379068D01*
X189447Y379176D01*
X189507Y379282D01*
X189510Y379293D01*
X189515Y379302D01*
X189539Y379422D01*
X189565Y379542D01*
X189564Y379552D01*
X189566Y379563D01*
X189561Y379593D01*
X189544Y379807D01*
X189508Y379895D01*
X189500Y379943D01*
X188975Y381209D01*
X188975Y383331D01*
X189787Y385292D01*
X191288Y386793D01*
X193249Y387605D01*
X195371Y387605D01*
X195530Y387539D01*
X195620Y387517D01*
X195707Y387486D01*
X195748Y387485D01*
X195788Y387475D01*
X195880Y387481D01*
X195972Y387477D01*
X196012Y387488D01*
X196053Y387491D01*
X196140Y387523D01*
X196229Y387547D01*
X196264Y387569D01*
X196302Y387584D01*
X196375Y387640D01*
X196453Y387690D01*
X196480Y387721D01*
X196512Y387746D01*
X196566Y387822D01*
X196625Y387892D01*
X196641Y387930D01*
X196665Y387964D01*
X196693Y388052D01*
X196730Y388137D01*
X196734Y388178D01*
X196746Y388217D01*
X196747Y388309D01*
X196757Y388401D01*
X196749Y388442D01*
X196749Y388483D01*
X196723Y388571D01*
X196705Y388662D01*
X196688Y388688D01*
X196674Y388738D01*
X196526Y388959D01*
X196509Y388970D01*
X196498Y388988D01*
X196107Y389378D01*
X195295Y391339D01*
X195295Y393461D01*
X196107Y395422D01*
X197608Y396923D01*
X199569Y397735D01*
X201691Y397735D01*
X203652Y396923D01*
X204151Y396423D01*
X204159Y396417D01*
X204166Y396409D01*
X204267Y396338D01*
X204365Y396266D01*
X204375Y396262D01*
X204384Y396256D01*
X204500Y396219D01*
X204616Y396178D01*
X204627Y396178D01*
X204637Y396175D01*
X204759Y396173D01*
X204882Y396169D01*
X204892Y396172D01*
X204902Y396172D01*
X205020Y396207D01*
X205138Y396239D01*
X205147Y396245D01*
X205157Y396248D01*
X205259Y396316D01*
X205362Y396382D01*
X205369Y396390D01*
X205378Y396396D01*
X205396Y396421D01*
X205535Y396584D01*
X205572Y396672D01*
X205600Y396712D01*
X206855Y399743D01*
X209857Y402745D01*
X213778Y404369D01*
X218022Y404369D01*
X221943Y402745D01*
X223019Y401669D01*
X223060Y401638D01*
X223096Y401601D01*
X223167Y401560D01*
X223233Y401511D01*
X223282Y401494D01*
X223326Y401469D01*
X223406Y401451D01*
X223484Y401424D01*
X223536Y401422D01*
X223586Y401411D01*
X223668Y401418D01*
X223750Y401415D01*
X223799Y401428D01*
X223851Y401432D01*
X223927Y401463D01*
X224006Y401485D01*
X224050Y401512D01*
X224098Y401531D01*
X224161Y401583D01*
X224230Y401627D01*
X224264Y401666D01*
X224304Y401699D01*
X224349Y401767D01*
X224402Y401830D01*
X224423Y401877D01*
X224451Y401920D01*
X224463Y401971D01*
X224507Y402074D01*
X224525Y402253D01*
X224535Y402297D01*
X224535Y410503D01*
X224528Y410554D01*
X224529Y410606D01*
X224508Y410685D01*
X224495Y410766D01*
X224473Y410812D01*
X224459Y410862D01*
X224415Y410931D01*
X224380Y411005D01*
X224345Y411043D01*
X224317Y411086D01*
X224254Y411139D01*
X224198Y411199D01*
X224154Y411225D01*
X224114Y411258D01*
X224039Y411291D01*
X223968Y411331D01*
X223917Y411343D01*
X223870Y411363D01*
X223788Y411371D01*
X223708Y411389D01*
X223657Y411385D01*
X223605Y411390D01*
X223525Y411374D01*
X223443Y411368D01*
X223395Y411348D01*
X223345Y411338D01*
X223301Y411311D01*
X223196Y411269D01*
X223057Y411156D01*
X223019Y411131D01*
X221943Y410055D01*
X218022Y408431D01*
X213778Y408431D01*
X209857Y410055D01*
X206855Y413057D01*
X205231Y416978D01*
X205231Y421222D01*
X206855Y425143D01*
X209857Y428145D01*
X213778Y429769D01*
X218022Y429769D01*
X221943Y428145D01*
X223019Y427069D01*
X223060Y427038D01*
X223096Y427001D01*
X223167Y426960D01*
X223233Y426911D01*
X223282Y426894D01*
X223326Y426869D01*
X223406Y426851D01*
X223484Y426824D01*
X223536Y426822D01*
X223586Y426811D01*
X223668Y426818D01*
X223750Y426815D01*
X223799Y426828D01*
X223851Y426832D01*
X223927Y426863D01*
X224006Y426885D01*
X224050Y426912D01*
X224098Y426931D01*
X224161Y426983D01*
X224230Y427027D01*
X224264Y427066D01*
X224304Y427099D01*
X224349Y427167D01*
X224402Y427230D01*
X224423Y427277D01*
X224451Y427320D01*
X224463Y427371D01*
X224507Y427474D01*
X224525Y427653D01*
X224535Y427697D01*
X224535Y435903D01*
X224528Y435954D01*
X224529Y436006D01*
X224508Y436085D01*
X224495Y436166D01*
X224473Y436212D01*
X224459Y436262D01*
X224415Y436331D01*
X224380Y436405D01*
X224345Y436443D01*
X224317Y436486D01*
X224254Y436539D01*
X224198Y436599D01*
X224154Y436625D01*
X224114Y436658D01*
X224039Y436691D01*
X223968Y436731D01*
X223917Y436743D01*
X223870Y436763D01*
X223788Y436771D01*
X223708Y436789D01*
X223657Y436785D01*
X223605Y436790D01*
X223525Y436774D01*
X223443Y436768D01*
X223395Y436748D01*
X223345Y436738D01*
X223301Y436711D01*
X223196Y436669D01*
X223057Y436556D01*
X223019Y436531D01*
X221943Y435455D01*
X218022Y433831D01*
X213778Y433831D01*
X209857Y435455D01*
X206855Y438457D01*
X205231Y442378D01*
X205231Y446622D01*
X206855Y450543D01*
X209857Y453545D01*
X213778Y455169D01*
X218022Y455169D01*
X221943Y453545D01*
X223019Y452469D01*
X223060Y452438D01*
X223096Y452401D01*
X223167Y452360D01*
X223233Y452311D01*
X223282Y452294D01*
X223326Y452269D01*
X223406Y452251D01*
X223484Y452224D01*
X223536Y452222D01*
X223586Y452211D01*
X223668Y452218D01*
X223750Y452215D01*
X223799Y452228D01*
X223851Y452232D01*
X223927Y452263D01*
X224006Y452285D01*
X224050Y452312D01*
X224098Y452331D01*
X224161Y452383D01*
X224230Y452427D01*
X224264Y452466D01*
X224304Y452499D01*
X224349Y452567D01*
X224402Y452630D01*
X224423Y452677D01*
X224451Y452720D01*
X224463Y452771D01*
X224507Y452874D01*
X224525Y453053D01*
X224535Y453097D01*
X224535Y461303D01*
X224528Y461354D01*
X224529Y461406D01*
X224508Y461485D01*
X224495Y461566D01*
X224473Y461612D01*
X224459Y461662D01*
X224415Y461731D01*
X224380Y461805D01*
X224345Y461843D01*
X224317Y461886D01*
X224254Y461939D01*
X224198Y461999D01*
X224154Y462025D01*
X224114Y462058D01*
X224039Y462091D01*
X223968Y462131D01*
X223917Y462143D01*
X223870Y462163D01*
X223788Y462171D01*
X223708Y462189D01*
X223657Y462185D01*
X223605Y462190D01*
X223525Y462174D01*
X223443Y462168D01*
X223395Y462148D01*
X223345Y462138D01*
X223301Y462111D01*
X223196Y462069D01*
X223057Y461956D01*
X223019Y461931D01*
X221943Y460855D01*
X218022Y459231D01*
X213778Y459231D01*
X209857Y460855D01*
X206855Y463857D01*
X205231Y467778D01*
X205231Y472022D01*
X206855Y475943D01*
X209857Y478945D01*
X213778Y480569D01*
X218022Y480569D01*
X221943Y478945D01*
X223019Y477869D01*
X223060Y477838D01*
X223096Y477801D01*
X223167Y477760D01*
X223233Y477711D01*
X223282Y477694D01*
X223326Y477669D01*
X223406Y477651D01*
X223484Y477624D01*
X223536Y477622D01*
X223586Y477611D01*
X223668Y477618D01*
X223750Y477615D01*
X223799Y477628D01*
X223851Y477632D01*
X223927Y477663D01*
X224006Y477685D01*
X224050Y477712D01*
X224098Y477731D01*
X224161Y477783D01*
X224230Y477827D01*
X224264Y477866D01*
X224304Y477899D01*
X224349Y477967D01*
X224402Y478030D01*
X224423Y478077D01*
X224451Y478120D01*
X224463Y478171D01*
X224507Y478274D01*
X224525Y478453D01*
X224535Y478497D01*
X224535Y486703D01*
X224528Y486754D01*
X224529Y486806D01*
X224508Y486885D01*
X224495Y486966D01*
X224473Y487012D01*
X224459Y487062D01*
X224415Y487131D01*
X224380Y487205D01*
X224345Y487243D01*
X224317Y487286D01*
X224254Y487339D01*
X224198Y487399D01*
X224154Y487425D01*
X224114Y487458D01*
X224039Y487491D01*
X223968Y487531D01*
X223917Y487543D01*
X223870Y487563D01*
X223788Y487571D01*
X223708Y487589D01*
X223657Y487585D01*
X223605Y487590D01*
X223525Y487574D01*
X223443Y487568D01*
X223395Y487548D01*
X223345Y487538D01*
X223301Y487511D01*
X223196Y487469D01*
X223057Y487356D01*
X223019Y487331D01*
X221943Y486255D01*
X218022Y484631D01*
X213778Y484631D01*
X209857Y486255D01*
X206855Y489257D01*
X205231Y493178D01*
X205231Y497422D01*
X206855Y501343D01*
X209857Y504345D01*
X213778Y505969D01*
X218022Y505969D01*
X221943Y504345D01*
X223019Y503269D01*
X223060Y503238D01*
X223096Y503201D01*
X223167Y503160D01*
X223233Y503111D01*
X223282Y503094D01*
X223326Y503069D01*
X223406Y503051D01*
X223484Y503024D01*
X223536Y503022D01*
X223586Y503011D01*
X223668Y503018D01*
X223750Y503015D01*
X223799Y503028D01*
X223851Y503032D01*
X223927Y503063D01*
X224006Y503085D01*
X224050Y503112D01*
X224098Y503131D01*
X224161Y503183D01*
X224230Y503227D01*
X224264Y503266D01*
X224304Y503299D01*
X224349Y503367D01*
X224402Y503430D01*
X224423Y503477D01*
X224451Y503520D01*
X224463Y503571D01*
X224507Y503674D01*
X224525Y503853D01*
X224535Y503897D01*
X224535Y512103D01*
X224528Y512154D01*
X224529Y512206D01*
X224508Y512285D01*
X224495Y512366D01*
X224473Y512412D01*
X224459Y512462D01*
X224415Y512531D01*
X224380Y512605D01*
X224345Y512643D01*
X224317Y512686D01*
X224254Y512739D01*
X224198Y512799D01*
X224154Y512825D01*
X224114Y512858D01*
X224039Y512891D01*
X223968Y512931D01*
X223917Y512943D01*
X223870Y512963D01*
X223788Y512971D01*
X223708Y512989D01*
X223657Y512985D01*
X223605Y512990D01*
X223525Y512974D01*
X223443Y512968D01*
X223395Y512948D01*
X223345Y512938D01*
X223301Y512911D01*
X223196Y512869D01*
X223057Y512756D01*
X223019Y512731D01*
X221943Y511655D01*
X218022Y510031D01*
X213778Y510031D01*
X209857Y511655D01*
X206855Y514657D01*
X205231Y518578D01*
X205231Y522822D01*
X206855Y526743D01*
X209857Y529745D01*
X213778Y531369D01*
X218022Y531369D01*
X221943Y529745D01*
X223019Y528669D01*
X223060Y528638D01*
X223096Y528601D01*
X223167Y528560D01*
X223233Y528511D01*
X223282Y528494D01*
X223326Y528469D01*
X223406Y528451D01*
X223484Y528424D01*
X223536Y528422D01*
X223586Y528411D01*
X223668Y528418D01*
X223750Y528415D01*
X223799Y528428D01*
X223851Y528432D01*
X223927Y528463D01*
X224006Y528485D01*
X224050Y528512D01*
X224098Y528531D01*
X224161Y528583D01*
X224230Y528627D01*
X224264Y528666D01*
X224304Y528699D01*
X224349Y528767D01*
X224402Y528830D01*
X224423Y528877D01*
X224451Y528920D01*
X224463Y528971D01*
X224507Y529074D01*
X224525Y529253D01*
X224535Y529297D01*
X224535Y558800D01*
X224529Y558843D01*
X224533Y558870D01*
X224281Y562068D01*
X224245Y562222D01*
X224240Y562273D01*
X222263Y568357D01*
X222186Y568511D01*
X222169Y568554D01*
X222158Y568568D01*
X222144Y568595D01*
X222139Y568600D01*
X222137Y568605D01*
X218377Y573780D01*
X218190Y573970D01*
X218184Y573973D01*
X218180Y573977D01*
X213005Y577737D01*
X212912Y577785D01*
X212904Y577790D01*
X212900Y577791D01*
X212769Y577859D01*
X212762Y577861D01*
X212757Y577863D01*
X206673Y579840D01*
X206517Y579866D01*
X206468Y579881D01*
X203270Y580133D01*
X203226Y580129D01*
X203200Y580135D01*
X149667Y580135D01*
X149657Y580134D01*
X149646Y580135D01*
X149525Y580114D01*
X149404Y580095D01*
X149395Y580091D01*
X149384Y580089D01*
X149275Y580033D01*
X149165Y579980D01*
X149157Y579972D01*
X149148Y579968D01*
X149060Y579882D01*
X148971Y579798D01*
X148965Y579789D01*
X148958Y579782D01*
X148899Y579674D01*
X148839Y579568D01*
X148836Y579557D01*
X148831Y579548D01*
X148808Y579428D01*
X148781Y579308D01*
X148782Y579298D01*
X148780Y579287D01*
X148785Y579256D01*
X148802Y579043D01*
X148838Y578954D01*
X148845Y578917D01*
X148845Y577131D01*
X148846Y577121D01*
X148845Y577110D01*
X148866Y576990D01*
X148885Y576868D01*
X148889Y576859D01*
X148891Y576848D01*
X148947Y576740D01*
X149000Y576629D01*
X149007Y576621D01*
X149012Y576612D01*
X149098Y576524D01*
X149182Y576435D01*
X149191Y576429D01*
X149198Y576422D01*
X149306Y576363D01*
X149412Y576303D01*
X149423Y576300D01*
X149432Y576295D01*
X149552Y576271D01*
X149672Y576245D01*
X149682Y576246D01*
X149693Y576244D01*
X149723Y576249D01*
X149937Y576266D01*
X150025Y576302D01*
X150073Y576310D01*
X151339Y576835D01*
X153461Y576835D01*
X155422Y576023D01*
X156923Y574522D01*
X157735Y572561D01*
X157735Y570439D01*
X156923Y568478D01*
X155422Y566977D01*
X153461Y566165D01*
X151339Y566165D01*
X149378Y566977D01*
X149218Y567137D01*
X149135Y567199D01*
X149057Y567265D01*
X149029Y567277D01*
X149004Y567295D01*
X148907Y567329D01*
X148813Y567369D01*
X148782Y567372D01*
X148753Y567383D01*
X148650Y567386D01*
X148548Y567397D01*
X148518Y567391D01*
X148487Y567392D01*
X148388Y567365D01*
X148287Y567345D01*
X148267Y567332D01*
X148231Y567322D01*
X148007Y567179D01*
X147982Y567150D01*
X147962Y567137D01*
X147872Y567048D01*
X147812Y566966D01*
X147745Y566887D01*
X147733Y566859D01*
X147715Y566834D01*
X147681Y566737D01*
X147641Y566643D01*
X147638Y566612D01*
X147627Y566583D01*
X147624Y566480D01*
X147613Y566378D01*
X147619Y566348D01*
X147618Y566317D01*
X147645Y566218D01*
X147665Y566118D01*
X147678Y566097D01*
X147688Y566061D01*
X147831Y565836D01*
X147860Y565812D01*
X147873Y565792D01*
X148033Y565632D01*
X148845Y563671D01*
X148845Y561549D01*
X148033Y559588D01*
X147873Y559428D01*
X147812Y559345D01*
X147745Y559267D01*
X147733Y559239D01*
X147715Y559214D01*
X147681Y559117D01*
X147641Y559023D01*
X147638Y558992D01*
X147627Y558963D01*
X147624Y558860D01*
X147613Y558758D01*
X147619Y558728D01*
X147618Y558697D01*
X147645Y558598D01*
X147665Y558498D01*
X147678Y558478D01*
X147688Y558441D01*
X147831Y558217D01*
X147860Y558192D01*
X147873Y558172D01*
X148033Y558012D01*
X148845Y556051D01*
X148845Y553929D01*
X148033Y551968D01*
X147873Y551808D01*
X147812Y551725D01*
X147745Y551647D01*
X147733Y551619D01*
X147715Y551594D01*
X147681Y551497D01*
X147641Y551403D01*
X147638Y551372D01*
X147627Y551343D01*
X147624Y551241D01*
X147613Y551138D01*
X147619Y551108D01*
X147618Y551077D01*
X147645Y550978D01*
X147665Y550878D01*
X147678Y550857D01*
X147688Y550821D01*
X147831Y550597D01*
X147860Y550572D01*
X147873Y550552D01*
X147962Y550463D01*
X148045Y550402D01*
X148123Y550335D01*
X148151Y550323D01*
X148176Y550305D01*
X148273Y550271D01*
X148367Y550231D01*
X148398Y550228D01*
X148427Y550217D01*
X148529Y550214D01*
X148632Y550203D01*
X148662Y550209D01*
X148693Y550208D01*
X148792Y550235D01*
X148892Y550255D01*
X148912Y550268D01*
X148949Y550278D01*
X149173Y550421D01*
X149198Y550450D01*
X149218Y550463D01*
X149378Y550623D01*
X151339Y551435D01*
X153461Y551435D01*
X155422Y550623D01*
X156923Y549122D01*
X157735Y547161D01*
X157735Y545039D01*
X156923Y543078D01*
X155422Y541577D01*
X153461Y540765D01*
X151339Y540765D01*
X150073Y541290D01*
X150063Y541292D01*
X150054Y541297D01*
X149934Y541324D01*
X149815Y541353D01*
X149804Y541353D01*
X149794Y541355D01*
X149672Y541345D01*
X149549Y541338D01*
X149540Y541334D01*
X149529Y541334D01*
X149415Y541288D01*
X149301Y541245D01*
X149292Y541238D01*
X149282Y541235D01*
X149187Y541157D01*
X149090Y541082D01*
X149084Y541074D01*
X149076Y541067D01*
X149008Y540965D01*
X148938Y540865D01*
X148934Y540855D01*
X148929Y540846D01*
X148922Y540815D01*
X148856Y540612D01*
X148855Y540516D01*
X148845Y540469D01*
X148845Y538689D01*
X148033Y536728D01*
X147873Y536568D01*
X147812Y536485D01*
X147745Y536407D01*
X147733Y536379D01*
X147715Y536354D01*
X147681Y536257D01*
X147641Y536163D01*
X147638Y536132D01*
X147627Y536103D01*
X147624Y536000D01*
X147613Y535898D01*
X147619Y535868D01*
X147618Y535837D01*
X147645Y535738D01*
X147665Y535638D01*
X147678Y535618D01*
X147688Y535581D01*
X147831Y535357D01*
X147860Y535332D01*
X147873Y535312D01*
X148033Y535152D01*
X148845Y533191D01*
X148845Y531069D01*
X148033Y529108D01*
X146532Y527607D01*
X145355Y527120D01*
X145267Y527067D01*
X145175Y527020D01*
X145153Y526998D01*
X145127Y526982D01*
X145059Y526906D01*
X144985Y526834D01*
X144971Y526807D01*
X144950Y526784D01*
X144908Y526691D01*
X144859Y526600D01*
X144853Y526570D01*
X144840Y526542D01*
X144827Y526440D01*
X144807Y526339D01*
X144811Y526316D01*
X144807Y526278D01*
X144853Y526017D01*
X144870Y525983D01*
X144874Y525959D01*
X145035Y525571D01*
X145035Y523449D01*
X144223Y521488D01*
X142722Y519987D01*
X140761Y519175D01*
X138639Y519175D01*
X136678Y519987D01*
X136518Y520147D01*
X136435Y520208D01*
X136357Y520275D01*
X136329Y520287D01*
X136304Y520305D01*
X136207Y520339D01*
X136113Y520379D01*
X136082Y520382D01*
X136053Y520393D01*
X135950Y520396D01*
X135848Y520407D01*
X135818Y520401D01*
X135787Y520402D01*
X135688Y520375D01*
X135588Y520355D01*
X135568Y520342D01*
X135531Y520332D01*
X135307Y520189D01*
X135282Y520160D01*
X135262Y520147D01*
X135102Y519987D01*
X133141Y519175D01*
X131019Y519175D01*
X129058Y519987D01*
X128898Y520147D01*
X128815Y520208D01*
X128737Y520275D01*
X128709Y520287D01*
X128684Y520305D01*
X128587Y520339D01*
X128493Y520379D01*
X128462Y520382D01*
X128433Y520393D01*
X128330Y520396D01*
X128228Y520407D01*
X128198Y520401D01*
X128167Y520402D01*
X128068Y520375D01*
X127968Y520355D01*
X127948Y520342D01*
X127911Y520332D01*
X127687Y520189D01*
X127662Y520160D01*
X127642Y520147D01*
X127482Y519987D01*
X125521Y519175D01*
X123399Y519175D01*
X121438Y519987D01*
X121278Y520147D01*
X121195Y520208D01*
X121117Y520275D01*
X121089Y520287D01*
X121064Y520305D01*
X120967Y520339D01*
X120873Y520379D01*
X120842Y520382D01*
X120813Y520393D01*
X120710Y520396D01*
X120608Y520407D01*
X120578Y520401D01*
X120547Y520402D01*
X120448Y520375D01*
X120348Y520355D01*
X120328Y520342D01*
X120291Y520332D01*
X120067Y520189D01*
X120042Y520160D01*
X120022Y520147D01*
X119862Y519987D01*
X117901Y519175D01*
X115779Y519175D01*
X113818Y519987D01*
X113658Y520147D01*
X113575Y520208D01*
X113497Y520275D01*
X113469Y520287D01*
X113444Y520305D01*
X113347Y520339D01*
X113253Y520379D01*
X113222Y520382D01*
X113193Y520393D01*
X113090Y520396D01*
X112988Y520407D01*
X112958Y520401D01*
X112927Y520402D01*
X112828Y520375D01*
X112728Y520355D01*
X112708Y520342D01*
X112671Y520332D01*
X112447Y520189D01*
X112422Y520160D01*
X112402Y520147D01*
X112242Y519987D01*
X110281Y519175D01*
X108159Y519175D01*
X106198Y519987D01*
X106038Y520147D01*
X105955Y520208D01*
X105877Y520275D01*
X105849Y520287D01*
X105824Y520305D01*
X105727Y520339D01*
X105633Y520379D01*
X105602Y520382D01*
X105573Y520393D01*
X105470Y520396D01*
X105368Y520407D01*
X105338Y520401D01*
X105307Y520402D01*
X105208Y520375D01*
X105108Y520355D01*
X105088Y520342D01*
X105051Y520332D01*
X104827Y520189D01*
X104802Y520160D01*
X104782Y520147D01*
X104622Y519987D01*
X102661Y519175D01*
X100539Y519175D01*
X98578Y519987D01*
X98418Y520147D01*
X98335Y520208D01*
X98257Y520275D01*
X98229Y520287D01*
X98204Y520305D01*
X98107Y520339D01*
X98013Y520379D01*
X97982Y520382D01*
X97953Y520393D01*
X97850Y520396D01*
X97748Y520407D01*
X97718Y520401D01*
X97687Y520402D01*
X97588Y520375D01*
X97488Y520355D01*
X97468Y520342D01*
X97431Y520332D01*
X97207Y520189D01*
X97182Y520160D01*
X97162Y520147D01*
X97002Y519987D01*
X95041Y519175D01*
X92919Y519175D01*
X90958Y519987D01*
X90798Y520147D01*
X90715Y520208D01*
X90637Y520275D01*
X90609Y520287D01*
X90584Y520305D01*
X90487Y520339D01*
X90393Y520379D01*
X90362Y520382D01*
X90333Y520393D01*
X90230Y520396D01*
X90128Y520407D01*
X90098Y520401D01*
X90067Y520402D01*
X89968Y520375D01*
X89868Y520355D01*
X89848Y520342D01*
X89811Y520332D01*
X89587Y520189D01*
X89562Y520160D01*
X89542Y520147D01*
X89382Y519987D01*
X87421Y519175D01*
X85299Y519175D01*
X83338Y519987D01*
X83178Y520147D01*
X83095Y520208D01*
X83017Y520275D01*
X82989Y520287D01*
X82964Y520305D01*
X82867Y520339D01*
X82773Y520379D01*
X82742Y520382D01*
X82713Y520393D01*
X82610Y520396D01*
X82508Y520407D01*
X82478Y520401D01*
X82447Y520402D01*
X82348Y520375D01*
X82248Y520355D01*
X82228Y520342D01*
X82191Y520332D01*
X81967Y520189D01*
X81942Y520160D01*
X81922Y520147D01*
X81762Y519987D01*
X79801Y519175D01*
X77679Y519175D01*
X75718Y519987D01*
X75558Y520147D01*
X75475Y520208D01*
X75397Y520275D01*
X75369Y520287D01*
X75344Y520305D01*
X75247Y520339D01*
X75153Y520379D01*
X75122Y520382D01*
X75093Y520393D01*
X74990Y520396D01*
X74888Y520407D01*
X74858Y520401D01*
X74827Y520402D01*
X74728Y520375D01*
X74628Y520355D01*
X74608Y520342D01*
X74571Y520332D01*
X74347Y520189D01*
X74322Y520160D01*
X74302Y520147D01*
X74142Y519987D01*
X72181Y519175D01*
X70059Y519175D01*
X68098Y519987D01*
X67938Y520147D01*
X67855Y520208D01*
X67777Y520275D01*
X67749Y520287D01*
X67724Y520305D01*
X67627Y520339D01*
X67533Y520379D01*
X67502Y520382D01*
X67473Y520393D01*
X67370Y520396D01*
X67268Y520407D01*
X67238Y520401D01*
X67207Y520402D01*
X67108Y520375D01*
X67008Y520355D01*
X66988Y520342D01*
X66951Y520332D01*
X66727Y520189D01*
X66702Y520160D01*
X66682Y520147D01*
X66522Y519987D01*
X64561Y519175D01*
X62439Y519175D01*
X60478Y519987D01*
X60318Y520147D01*
X60235Y520208D01*
X60157Y520275D01*
X60129Y520287D01*
X60104Y520305D01*
X60007Y520339D01*
X59913Y520379D01*
X59882Y520382D01*
X59853Y520393D01*
X59750Y520396D01*
X59648Y520407D01*
X59618Y520401D01*
X59587Y520402D01*
X59488Y520375D01*
X59388Y520355D01*
X59368Y520342D01*
X59331Y520332D01*
X59107Y520189D01*
X59082Y520160D01*
X59062Y520147D01*
X58902Y519987D01*
X56941Y519175D01*
X54819Y519175D01*
X52858Y519987D01*
X52698Y520147D01*
X52615Y520208D01*
X52537Y520275D01*
X52509Y520287D01*
X52484Y520305D01*
X52387Y520339D01*
X52293Y520379D01*
X52262Y520382D01*
X52233Y520393D01*
X52130Y520396D01*
X52028Y520407D01*
X51998Y520401D01*
X51967Y520402D01*
X51868Y520375D01*
X51768Y520355D01*
X51748Y520342D01*
X51711Y520332D01*
X51487Y520189D01*
X51462Y520160D01*
X51442Y520147D01*
X51282Y519987D01*
X49321Y519175D01*
X47199Y519175D01*
X45238Y519987D01*
X45078Y520147D01*
X44995Y520208D01*
X44917Y520275D01*
X44889Y520287D01*
X44864Y520305D01*
X44767Y520339D01*
X44673Y520379D01*
X44642Y520382D01*
X44613Y520393D01*
X44510Y520396D01*
X44408Y520407D01*
X44378Y520401D01*
X44347Y520402D01*
X44248Y520375D01*
X44148Y520355D01*
X44128Y520342D01*
X44091Y520332D01*
X43867Y520189D01*
X43842Y520160D01*
X43822Y520147D01*
X43662Y519987D01*
X41701Y519175D01*
X39579Y519175D01*
X37618Y519987D01*
X37458Y520147D01*
X37375Y520208D01*
X37297Y520275D01*
X37269Y520287D01*
X37244Y520305D01*
X37147Y520339D01*
X37053Y520379D01*
X37022Y520382D01*
X36993Y520393D01*
X36890Y520396D01*
X36788Y520407D01*
X36758Y520401D01*
X36727Y520402D01*
X36628Y520375D01*
X36528Y520355D01*
X36508Y520342D01*
X36471Y520332D01*
X36247Y520189D01*
X36222Y520160D01*
X36202Y520147D01*
X36042Y519987D01*
X34081Y519175D01*
X31959Y519175D01*
X29998Y519987D01*
X28497Y521488D01*
X27685Y523449D01*
X27685Y525571D01*
X28032Y526408D01*
X28057Y526508D01*
X28088Y526606D01*
X28088Y526636D01*
X28096Y526666D01*
X28090Y526769D01*
X28091Y526872D01*
X28082Y526901D01*
X28080Y526932D01*
X28044Y527028D01*
X28015Y527126D01*
X27998Y527152D01*
X27987Y527181D01*
X27924Y527262D01*
X27867Y527347D01*
X27848Y527361D01*
X27825Y527391D01*
X27607Y527544D01*
X27571Y527555D01*
X27551Y527569D01*
X27458Y527607D01*
X25957Y529108D01*
X25145Y531069D01*
X25145Y533191D01*
X25957Y535152D01*
X26117Y535312D01*
X26178Y535395D01*
X26245Y535473D01*
X26257Y535501D01*
X26275Y535526D01*
X26309Y535623D01*
X26349Y535717D01*
X26352Y535748D01*
X26363Y535777D01*
X26366Y535880D01*
X26377Y535982D01*
X26371Y536012D01*
X26372Y536043D01*
X26345Y536142D01*
X26325Y536242D01*
X26312Y536262D01*
X26302Y536299D01*
X26159Y536523D01*
X26130Y536548D01*
X26117Y536568D01*
X25957Y536728D01*
X25145Y538689D01*
X25145Y540811D01*
X25957Y542772D01*
X26117Y542932D01*
X26178Y543015D01*
X26245Y543093D01*
X26257Y543121D01*
X26275Y543146D01*
X26309Y543243D01*
X26349Y543337D01*
X26352Y543368D01*
X26363Y543397D01*
X26366Y543500D01*
X26377Y543602D01*
X26371Y543632D01*
X26372Y543663D01*
X26345Y543762D01*
X26325Y543862D01*
X26312Y543882D01*
X26302Y543919D01*
X26159Y544143D01*
X26130Y544168D01*
X26117Y544188D01*
X25957Y544348D01*
X25145Y546309D01*
X25145Y548431D01*
X25957Y550392D01*
X26117Y550552D01*
X26178Y550635D01*
X26245Y550713D01*
X26257Y550741D01*
X26275Y550766D01*
X26309Y550863D01*
X26349Y550957D01*
X26352Y550988D01*
X26363Y551017D01*
X26366Y551120D01*
X26377Y551222D01*
X26371Y551252D01*
X26372Y551283D01*
X26345Y551382D01*
X26325Y551482D01*
X26312Y551502D01*
X26302Y551539D01*
X26159Y551763D01*
X26130Y551788D01*
X26117Y551808D01*
X25957Y551968D01*
X25145Y553929D01*
X25145Y556051D01*
X25957Y558012D01*
X26117Y558172D01*
X26178Y558254D01*
X26245Y558333D01*
X26257Y558361D01*
X26275Y558386D01*
X26309Y558483D01*
X26349Y558577D01*
X26352Y558608D01*
X26363Y558637D01*
X26366Y558739D01*
X26377Y558842D01*
X26371Y558872D01*
X26372Y558903D01*
X26345Y559002D01*
X26325Y559102D01*
X26312Y559122D01*
X26302Y559159D01*
X26159Y559383D01*
X26130Y559408D01*
X26117Y559428D01*
X25957Y559588D01*
X25145Y561549D01*
X25145Y563671D01*
X25957Y565632D01*
X26117Y565792D01*
X26178Y565875D01*
X26245Y565953D01*
X26257Y565981D01*
X26275Y566006D01*
X26309Y566103D01*
X26349Y566197D01*
X26352Y566228D01*
X26363Y566257D01*
X26366Y566360D01*
X26377Y566462D01*
X26371Y566492D01*
X26372Y566523D01*
X26345Y566622D01*
X26325Y566722D01*
X26312Y566742D01*
X26302Y566779D01*
X26159Y567003D01*
X26130Y567028D01*
X26117Y567048D01*
X25957Y567208D01*
X25145Y569169D01*
X25145Y571291D01*
X25957Y573252D01*
X26117Y573412D01*
X26178Y573495D01*
X26245Y573573D01*
X26257Y573601D01*
X26275Y573626D01*
X26309Y573723D01*
X26349Y573817D01*
X26352Y573848D01*
X26363Y573877D01*
X26366Y573980D01*
X26377Y574082D01*
X26371Y574112D01*
X26372Y574143D01*
X26345Y574242D01*
X26325Y574342D01*
X26312Y574362D01*
X26302Y574399D01*
X26159Y574623D01*
X26130Y574648D01*
X26117Y574668D01*
X25957Y574828D01*
X25145Y576789D01*
X25145Y578959D01*
X25150Y578992D01*
X25171Y579077D01*
X25169Y579123D01*
X25175Y579168D01*
X25161Y579255D01*
X25156Y579343D01*
X25140Y579385D01*
X25133Y579430D01*
X25093Y579509D01*
X25063Y579592D01*
X25035Y579628D01*
X25014Y579669D01*
X24954Y579732D01*
X24900Y579802D01*
X24863Y579828D01*
X24831Y579861D01*
X24754Y579904D01*
X24682Y579955D01*
X24639Y579969D01*
X24599Y579991D01*
X24547Y579998D01*
X24429Y580036D01*
X24266Y580038D01*
X24217Y580045D01*
X22132Y579881D01*
X21977Y579845D01*
X21927Y579840D01*
X15843Y577863D01*
X15605Y577744D01*
X15600Y577739D01*
X15595Y577737D01*
X10420Y573977D01*
X10230Y573790D01*
X10227Y573784D01*
X10223Y573780D01*
X6463Y568605D01*
X6379Y568443D01*
X6368Y568424D01*
X6367Y568421D01*
X6341Y568369D01*
X6339Y568362D01*
X6337Y568357D01*
X4360Y562273D01*
X4334Y562117D01*
X4319Y562068D01*
X4067Y558870D01*
X4071Y558826D01*
X4065Y558800D01*
X4065Y529297D01*
X4072Y529246D01*
X4071Y529194D01*
X4092Y529115D01*
X4105Y529034D01*
X4127Y528988D01*
X4141Y528938D01*
X4185Y528869D01*
X4220Y528795D01*
X4255Y528757D01*
X4283Y528714D01*
X4346Y528661D01*
X4402Y528601D01*
X4446Y528575D01*
X4486Y528542D01*
X4561Y528509D01*
X4632Y528469D01*
X4683Y528457D01*
X4730Y528437D01*
X4812Y528429D01*
X4892Y528411D01*
X4943Y528415D01*
X4995Y528410D01*
X5075Y528426D01*
X5157Y528432D01*
X5205Y528452D01*
X5255Y528462D01*
X5299Y528489D01*
X5404Y528531D01*
X5543Y528644D01*
X5581Y528669D01*
X6657Y529745D01*
X7358Y530035D01*
X7446Y530088D01*
X7537Y530135D01*
X7559Y530156D01*
X7586Y530172D01*
X7654Y530249D01*
X7727Y530321D01*
X7742Y530348D01*
X7762Y530371D01*
X7805Y530464D01*
X7854Y530555D01*
X7860Y530585D01*
X7873Y530613D01*
X7886Y530714D01*
X7906Y530815D01*
X7901Y530839D01*
X7906Y530877D01*
X7860Y531138D01*
X7843Y531172D01*
X7839Y531196D01*
X7365Y532339D01*
X7365Y534461D01*
X8177Y536422D01*
X9678Y537923D01*
X11639Y538735D01*
X13761Y538735D01*
X15722Y537923D01*
X17223Y536422D01*
X18035Y534461D01*
X18035Y532339D01*
X17561Y531196D01*
X17537Y531096D01*
X17505Y530998D01*
X17505Y530967D01*
X17497Y530938D01*
X17503Y530835D01*
X17502Y530732D01*
X17511Y530703D01*
X17513Y530672D01*
X17549Y530576D01*
X17578Y530478D01*
X17595Y530452D01*
X17606Y530423D01*
X17669Y530342D01*
X17726Y530257D01*
X17745Y530243D01*
X17769Y530213D01*
X17986Y530060D01*
X18022Y530049D01*
X18042Y530035D01*
X18743Y529745D01*
X21745Y526743D01*
X23369Y522822D01*
X23369Y518578D01*
X21745Y514657D01*
X18743Y511655D01*
X14822Y510031D01*
X10578Y510031D01*
X6657Y511655D01*
X5581Y512731D01*
X5540Y512762D01*
X5504Y512799D01*
X5433Y512840D01*
X5367Y512889D01*
X5318Y512906D01*
X5274Y512931D01*
X5194Y512949D01*
X5116Y512976D01*
X5064Y512978D01*
X5014Y512989D01*
X4932Y512982D01*
X4850Y512985D01*
X4801Y512972D01*
X4749Y512968D01*
X4673Y512937D01*
X4594Y512915D01*
X4550Y512888D01*
X4502Y512869D01*
X4439Y512817D01*
X4370Y512773D01*
X4336Y512734D01*
X4296Y512701D01*
X4251Y512633D01*
X4198Y512570D01*
X4177Y512523D01*
X4149Y512480D01*
X4137Y512429D01*
X4093Y512326D01*
X4075Y512147D01*
X4065Y512103D01*
X4065Y503897D01*
X4072Y503846D01*
X4071Y503794D01*
X4092Y503715D01*
X4105Y503634D01*
X4127Y503588D01*
X4141Y503538D01*
X4185Y503469D01*
X4220Y503395D01*
X4255Y503357D01*
X4283Y503314D01*
X4346Y503261D01*
X4402Y503201D01*
X4446Y503175D01*
X4486Y503142D01*
X4561Y503109D01*
X4632Y503069D01*
X4683Y503057D01*
X4730Y503037D01*
X4812Y503029D01*
X4892Y503011D01*
X4943Y503015D01*
X4995Y503010D01*
X5075Y503026D01*
X5157Y503032D01*
X5205Y503052D01*
X5255Y503062D01*
X5299Y503089D01*
X5404Y503131D01*
X5543Y503244D01*
X5581Y503269D01*
X6657Y504345D01*
X10578Y505969D01*
X14822Y505969D01*
X18743Y504345D01*
X21745Y501343D01*
X23369Y497422D01*
X23369Y493178D01*
X21745Y489257D01*
X18743Y486255D01*
X14822Y484631D01*
X10578Y484631D01*
X6657Y486255D01*
X5581Y487331D01*
X5540Y487362D01*
X5504Y487399D01*
X5433Y487440D01*
X5367Y487489D01*
X5318Y487506D01*
X5274Y487531D01*
X5194Y487549D01*
X5116Y487576D01*
X5064Y487578D01*
X5014Y487589D01*
X4932Y487582D01*
X4850Y487585D01*
X4801Y487572D01*
X4749Y487568D01*
X4673Y487537D01*
X4594Y487515D01*
X4550Y487488D01*
X4502Y487469D01*
X4439Y487417D01*
X4370Y487373D01*
X4336Y487334D01*
X4296Y487301D01*
X4251Y487233D01*
X4198Y487170D01*
X4177Y487123D01*
X4149Y487080D01*
X4137Y487029D01*
X4093Y486926D01*
X4075Y486747D01*
X4065Y486703D01*
X4065Y478497D01*
X4072Y478446D01*
X4071Y478394D01*
X4092Y478315D01*
X4105Y478234D01*
X4127Y478188D01*
X4141Y478138D01*
X4185Y478069D01*
X4220Y477995D01*
X4255Y477957D01*
X4283Y477914D01*
X4346Y477861D01*
X4402Y477801D01*
X4446Y477775D01*
X4486Y477742D01*
X4561Y477709D01*
X4632Y477669D01*
X4683Y477657D01*
X4730Y477637D01*
X4812Y477629D01*
X4892Y477611D01*
X4943Y477615D01*
X4995Y477610D01*
X5075Y477626D01*
X5157Y477632D01*
X5205Y477652D01*
X5255Y477662D01*
X5299Y477689D01*
X5404Y477731D01*
X5543Y477844D01*
X5581Y477869D01*
X6657Y478945D01*
X10578Y480569D01*
X14822Y480569D01*
X18743Y478945D01*
X21745Y475943D01*
X23369Y472022D01*
X23369Y467778D01*
X22724Y466221D01*
X22709Y466160D01*
X22684Y466103D01*
X22677Y466032D01*
X22660Y465963D01*
X22663Y465901D01*
X22657Y465839D01*
X22671Y465769D01*
X22675Y465697D01*
X22697Y465639D01*
X22709Y465578D01*
X22735Y465538D01*
X22768Y465448D01*
X22899Y465279D01*
X22916Y465253D01*
X24231Y463938D01*
X24248Y463925D01*
X24261Y463909D01*
X24355Y463847D01*
X24445Y463780D01*
X24465Y463773D01*
X24482Y463762D01*
X24527Y463752D01*
X24696Y463693D01*
X24809Y463689D01*
X24859Y463678D01*
X83655Y463678D01*
X83676Y463681D01*
X83697Y463679D01*
X83807Y463701D01*
X83918Y463718D01*
X83937Y463727D01*
X83958Y463731D01*
X83996Y463755D01*
X84157Y463833D01*
X84240Y463910D01*
X84283Y463938D01*
X84608Y464263D01*
X86569Y465075D01*
X88691Y465075D01*
X90652Y464263D01*
X92153Y462762D01*
X92965Y460801D01*
X92965Y458679D01*
X92153Y456718D01*
X90652Y455217D01*
X88691Y454405D01*
X86569Y454405D01*
X84608Y455217D01*
X84283Y455542D01*
X84267Y455555D01*
X84253Y455571D01*
X84160Y455633D01*
X84069Y455700D01*
X84050Y455707D01*
X84032Y455718D01*
X83988Y455728D01*
X83818Y455787D01*
X83706Y455791D01*
X83655Y455802D01*
X69723Y455802D01*
X69621Y455787D01*
X69519Y455779D01*
X69491Y455767D01*
X69460Y455762D01*
X69368Y455718D01*
X69272Y455680D01*
X69249Y455660D01*
X69221Y455647D01*
X69146Y455577D01*
X69066Y455512D01*
X69049Y455486D01*
X69027Y455465D01*
X68976Y455376D01*
X68919Y455291D01*
X68913Y455267D01*
X68895Y455235D01*
X68837Y454975D01*
X68840Y454937D01*
X68835Y454914D01*
X68835Y453599D01*
X68023Y451638D01*
X66522Y450137D01*
X64561Y449325D01*
X62439Y449325D01*
X60478Y450137D01*
X58977Y451638D01*
X58165Y453599D01*
X58165Y454914D01*
X58150Y455016D01*
X58142Y455118D01*
X58130Y455146D01*
X58125Y455177D01*
X58081Y455269D01*
X58043Y455365D01*
X58023Y455388D01*
X58010Y455416D01*
X57940Y455491D01*
X57875Y455571D01*
X57849Y455588D01*
X57828Y455610D01*
X57739Y455661D01*
X57654Y455718D01*
X57630Y455724D01*
X57598Y455742D01*
X57338Y455800D01*
X57300Y455797D01*
X57277Y455802D01*
X21229Y455802D01*
X17347Y459684D01*
X17298Y459721D01*
X17254Y459765D01*
X17191Y459799D01*
X17133Y459842D01*
X17075Y459862D01*
X17020Y459891D01*
X16950Y459905D01*
X16882Y459929D01*
X16820Y459931D01*
X16760Y459943D01*
X16712Y459935D01*
X16617Y459938D01*
X16410Y459882D01*
X16379Y459876D01*
X14822Y459231D01*
X10578Y459231D01*
X6657Y460855D01*
X5581Y461931D01*
X5540Y461962D01*
X5504Y461999D01*
X5433Y462040D01*
X5367Y462089D01*
X5318Y462106D01*
X5274Y462131D01*
X5194Y462149D01*
X5116Y462176D01*
X5064Y462178D01*
X5014Y462189D01*
X4932Y462182D01*
X4850Y462185D01*
X4801Y462172D01*
X4749Y462168D01*
X4673Y462137D01*
X4594Y462115D01*
X4550Y462088D01*
X4502Y462069D01*
X4439Y462017D01*
X4370Y461973D01*
X4336Y461934D01*
X4296Y461901D01*
X4251Y461833D01*
X4198Y461770D01*
X4177Y461723D01*
X4149Y461680D01*
X4137Y461629D01*
X4093Y461526D01*
X4075Y461347D01*
X4065Y461303D01*
X4065Y453097D01*
X4072Y453046D01*
X4071Y452994D01*
X4092Y452915D01*
X4105Y452834D01*
X4127Y452788D01*
X4141Y452738D01*
X4185Y452669D01*
X4220Y452595D01*
X4255Y452557D01*
X4283Y452514D01*
X4346Y452461D01*
X4402Y452401D01*
X4446Y452375D01*
X4486Y452342D01*
X4561Y452309D01*
X4632Y452269D01*
X4683Y452257D01*
X4730Y452237D01*
X4812Y452229D01*
X4892Y452211D01*
X4943Y452215D01*
X4995Y452210D01*
X5075Y452226D01*
X5157Y452232D01*
X5205Y452252D01*
X5255Y452262D01*
X5299Y452289D01*
X5404Y452331D01*
X5543Y452444D01*
X5581Y452469D01*
X6657Y453545D01*
X10578Y455169D01*
X14822Y455169D01*
X18743Y453545D01*
X21745Y450543D01*
X23369Y446622D01*
X23369Y442378D01*
X21745Y438457D01*
X18743Y435455D01*
X14822Y433831D01*
X10578Y433831D01*
X6657Y435455D01*
X5581Y436531D01*
X5540Y436562D01*
X5504Y436599D01*
X5433Y436640D01*
X5367Y436689D01*
X5318Y436706D01*
X5274Y436731D01*
X5194Y436749D01*
X5116Y436776D01*
X5064Y436778D01*
X5014Y436789D01*
X4932Y436782D01*
X4850Y436785D01*
X4801Y436772D01*
X4749Y436768D01*
X4673Y436737D01*
X4594Y436715D01*
X4550Y436688D01*
X4502Y436669D01*
X4439Y436617D01*
X4370Y436573D01*
X4336Y436534D01*
X4296Y436501D01*
X4251Y436433D01*
X4198Y436370D01*
X4177Y436323D01*
X4149Y436280D01*
X4137Y436229D01*
X4093Y436126D01*
X4075Y435947D01*
X4065Y435903D01*
X4065Y427697D01*
X4072Y427646D01*
X4071Y427594D01*
X4092Y427515D01*
X4105Y427434D01*
X4127Y427388D01*
X4141Y427338D01*
X4185Y427269D01*
X4220Y427195D01*
X4255Y427157D01*
X4283Y427114D01*
X4346Y427061D01*
X4402Y427001D01*
X4446Y426975D01*
X4486Y426942D01*
X4561Y426909D01*
X4632Y426869D01*
X4683Y426857D01*
X4730Y426837D01*
X4812Y426829D01*
X4892Y426811D01*
X4943Y426815D01*
X4995Y426810D01*
X5075Y426826D01*
X5157Y426832D01*
X5205Y426852D01*
X5255Y426862D01*
X5299Y426889D01*
X5404Y426931D01*
X5543Y427044D01*
X5581Y427069D01*
X6657Y428145D01*
X10578Y429769D01*
X14822Y429769D01*
X18743Y428145D01*
X21745Y425143D01*
X23369Y421222D01*
X23369Y416978D01*
X21745Y413057D01*
X18743Y410055D01*
X14822Y408431D01*
X10578Y408431D01*
X6657Y410055D01*
X5581Y411131D01*
X5540Y411162D01*
X5504Y411199D01*
X5433Y411240D01*
X5367Y411289D01*
X5318Y411306D01*
X5274Y411331D01*
X5194Y411349D01*
X5116Y411376D01*
X5064Y411378D01*
X5014Y411389D01*
X4932Y411382D01*
X4850Y411385D01*
X4801Y411372D01*
X4749Y411368D01*
X4673Y411337D01*
X4594Y411315D01*
X4550Y411288D01*
X4502Y411269D01*
X4439Y411217D01*
X4370Y411173D01*
X4336Y411134D01*
X4296Y411101D01*
X4251Y411033D01*
X4198Y410970D01*
X4177Y410923D01*
X4149Y410880D01*
X4137Y410829D01*
X4093Y410726D01*
X4075Y410547D01*
X4065Y410503D01*
X4065Y402297D01*
X4072Y402246D01*
X4071Y402194D01*
X4092Y402115D01*
X4105Y402034D01*
X4127Y401988D01*
X4141Y401938D01*
X4185Y401869D01*
X4220Y401795D01*
X4255Y401757D01*
X4283Y401714D01*
X4346Y401661D01*
X4402Y401601D01*
X4446Y401575D01*
X4486Y401542D01*
X4561Y401509D01*
X4632Y401469D01*
X4683Y401457D01*
X4730Y401437D01*
X4812Y401429D01*
X4892Y401411D01*
X4943Y401415D01*
X4995Y401410D01*
X5075Y401426D01*
X5157Y401432D01*
X5205Y401452D01*
X5255Y401462D01*
X5299Y401489D01*
X5404Y401531D01*
X5543Y401644D01*
X5581Y401669D01*
X6657Y402745D01*
X10578Y404369D01*
X14822Y404369D01*
X18743Y402745D01*
X21745Y399743D01*
X23369Y395822D01*
X23369Y391578D01*
X21745Y387657D01*
X18743Y384655D01*
X14822Y383031D01*
X10578Y383031D01*
X6657Y384655D01*
X5581Y385731D01*
X5540Y385762D01*
X5504Y385799D01*
X5433Y385840D01*
X5367Y385889D01*
X5318Y385906D01*
X5274Y385931D01*
X5194Y385949D01*
X5116Y385976D01*
X5064Y385978D01*
X5014Y385989D01*
X4932Y385982D01*
X4850Y385985D01*
X4801Y385972D01*
X4749Y385968D01*
X4673Y385937D01*
X4594Y385915D01*
X4550Y385888D01*
X4502Y385869D01*
X4439Y385817D01*
X4370Y385773D01*
X4336Y385734D01*
X4296Y385701D01*
X4251Y385633D01*
X4198Y385570D01*
X4177Y385523D01*
X4149Y385480D01*
X4137Y385429D01*
X4093Y385326D01*
X4075Y385147D01*
X4065Y385103D01*
X4065Y376897D01*
X4072Y376846D01*
X4071Y376794D01*
X4092Y376715D01*
X4105Y376634D01*
X4127Y376588D01*
X4141Y376538D01*
X4185Y376469D01*
X4220Y376395D01*
X4255Y376357D01*
X4283Y376314D01*
X4346Y376261D01*
X4402Y376201D01*
X4446Y376175D01*
X4486Y376142D01*
X4561Y376109D01*
X4632Y376069D01*
X4683Y376057D01*
X4730Y376037D01*
X4812Y376029D01*
X4892Y376011D01*
X4943Y376015D01*
X4995Y376010D01*
X5075Y376026D01*
X5157Y376032D01*
X5205Y376052D01*
X5255Y376062D01*
X5299Y376089D01*
X5404Y376131D01*
X5543Y376244D01*
X5581Y376269D01*
X6657Y377345D01*
X10578Y378969D01*
X14822Y378969D01*
X18743Y377345D01*
X21745Y374343D01*
X23369Y370422D01*
X23369Y366178D01*
X21745Y362257D01*
X18743Y359255D01*
X14822Y357631D01*
X10578Y357631D01*
X6657Y359255D01*
X5581Y360331D01*
X5540Y360362D01*
X5504Y360399D01*
X5433Y360440D01*
X5367Y360489D01*
X5318Y360506D01*
X5274Y360531D01*
X5194Y360549D01*
X5116Y360576D01*
X5064Y360578D01*
X5014Y360589D01*
X4932Y360582D01*
X4850Y360585D01*
X4801Y360572D01*
X4749Y360568D01*
X4673Y360537D01*
X4594Y360515D01*
X4550Y360488D01*
X4502Y360469D01*
X4439Y360417D01*
X4370Y360373D01*
X4336Y360334D01*
X4296Y360301D01*
X4251Y360233D01*
X4198Y360170D01*
X4177Y360123D01*
X4149Y360080D01*
X4137Y360029D01*
X4093Y359926D01*
X4075Y359747D01*
X4065Y359703D01*
X4065Y351497D01*
X4072Y351446D01*
X4071Y351394D01*
X4092Y351315D01*
X4105Y351234D01*
X4127Y351188D01*
X4141Y351138D01*
X4185Y351069D01*
X4220Y350995D01*
X4255Y350957D01*
X4283Y350914D01*
X4346Y350861D01*
X4402Y350801D01*
X4446Y350775D01*
X4486Y350742D01*
X4561Y350709D01*
X4632Y350669D01*
X4683Y350657D01*
X4730Y350637D01*
X4812Y350629D01*
X4892Y350611D01*
X4943Y350615D01*
X4995Y350610D01*
X5075Y350626D01*
X5157Y350632D01*
X5205Y350652D01*
X5255Y350662D01*
X5299Y350689D01*
X5404Y350731D01*
X5543Y350844D01*
X5581Y350869D01*
X6657Y351945D01*
X10578Y353569D01*
X14822Y353569D01*
X18743Y351945D01*
X21745Y348943D01*
X23369Y345022D01*
X23369Y340778D01*
X21745Y336857D01*
X18743Y333855D01*
X14822Y332231D01*
X10578Y332231D01*
X6657Y333855D01*
X5581Y334931D01*
X5540Y334962D01*
X5504Y334999D01*
X5433Y335040D01*
X5367Y335089D01*
X5318Y335106D01*
X5274Y335131D01*
X5194Y335149D01*
X5116Y335176D01*
X5064Y335178D01*
X5014Y335189D01*
X4932Y335182D01*
X4850Y335185D01*
X4801Y335172D01*
X4749Y335168D01*
X4673Y335137D01*
X4594Y335115D01*
X4550Y335088D01*
X4502Y335069D01*
X4439Y335017D01*
X4370Y334973D01*
X4336Y334934D01*
X4296Y334901D01*
X4251Y334833D01*
X4198Y334770D01*
X4177Y334723D01*
X4149Y334680D01*
X4137Y334629D01*
X4093Y334526D01*
X4075Y334347D01*
X4065Y334303D01*
X4065Y326097D01*
X4072Y326046D01*
X4071Y325994D01*
X4092Y325915D01*
X4105Y325834D01*
X4127Y325788D01*
X4141Y325738D01*
X4185Y325669D01*
X4220Y325595D01*
X4255Y325557D01*
X4283Y325514D01*
X4346Y325461D01*
X4402Y325401D01*
X4446Y325375D01*
X4486Y325342D01*
X4561Y325309D01*
X4632Y325269D01*
X4683Y325257D01*
X4730Y325237D01*
X4812Y325229D01*
X4892Y325211D01*
X4943Y325215D01*
X4995Y325210D01*
X5075Y325226D01*
X5157Y325232D01*
X5205Y325252D01*
X5255Y325262D01*
X5299Y325289D01*
X5404Y325331D01*
X5543Y325444D01*
X5581Y325469D01*
X6657Y326545D01*
X10578Y328169D01*
X14822Y328169D01*
X18743Y326545D01*
X21745Y323543D01*
X23369Y319622D01*
X23369Y315378D01*
X21745Y311457D01*
X18743Y308455D01*
X14822Y306831D01*
X10578Y306831D01*
X6657Y308455D01*
X5581Y309531D01*
X5540Y309562D01*
X5504Y309599D01*
X5433Y309640D01*
X5367Y309689D01*
X5318Y309706D01*
X5274Y309731D01*
X5194Y309749D01*
X5116Y309776D01*
X5064Y309778D01*
X5014Y309789D01*
X4932Y309782D01*
X4850Y309785D01*
X4801Y309772D01*
X4749Y309768D01*
X4673Y309737D01*
X4594Y309715D01*
X4550Y309688D01*
X4502Y309669D01*
X4439Y309617D01*
X4370Y309573D01*
X4336Y309534D01*
X4296Y309501D01*
X4251Y309433D01*
X4198Y309370D01*
X4177Y309323D01*
X4149Y309280D01*
X4137Y309229D01*
X4093Y309126D01*
X4075Y308947D01*
X4065Y308903D01*
X4065Y300697D01*
X4072Y300646D01*
X4071Y300594D01*
X4092Y300515D01*
X4105Y300434D01*
X4127Y300388D01*
X4141Y300338D01*
X4185Y300269D01*
X4220Y300195D01*
X4255Y300157D01*
X4283Y300114D01*
X4346Y300061D01*
X4402Y300001D01*
X4446Y299975D01*
X4486Y299942D01*
X4561Y299909D01*
X4632Y299869D01*
X4683Y299857D01*
X4730Y299837D01*
X4812Y299829D01*
X4892Y299811D01*
X4943Y299815D01*
X4995Y299810D01*
X5075Y299826D01*
X5157Y299832D01*
X5205Y299852D01*
X5255Y299862D01*
X5299Y299889D01*
X5404Y299931D01*
X5495Y300006D01*
X5498Y300008D01*
X5506Y300015D01*
X5543Y300044D01*
X5581Y300069D01*
X6657Y301145D01*
X10578Y302769D01*
X14822Y302769D01*
X18743Y301145D01*
X21745Y298143D01*
X23369Y294222D01*
X23369Y289978D01*
X21745Y286057D01*
X18743Y283055D01*
X14822Y281431D01*
X10578Y281431D01*
X6657Y283055D01*
X5581Y284131D01*
X5540Y284162D01*
X5504Y284199D01*
X5433Y284240D01*
X5367Y284289D01*
X5318Y284306D01*
X5274Y284331D01*
X5194Y284349D01*
X5116Y284376D01*
X5064Y284378D01*
X5014Y284389D01*
X4932Y284382D01*
X4850Y284385D01*
X4801Y284372D01*
X4749Y284368D01*
X4673Y284337D01*
X4594Y284315D01*
X4550Y284288D01*
X4502Y284269D01*
X4439Y284217D01*
X4370Y284173D01*
X4336Y284134D01*
X4296Y284101D01*
X4251Y284033D01*
X4198Y283970D01*
X4177Y283923D01*
X4149Y283880D01*
X4137Y283829D01*
X4093Y283726D01*
X4075Y283547D01*
X4065Y283503D01*
X4065Y275297D01*
X4072Y275246D01*
X4071Y275194D01*
X4092Y275115D01*
X4105Y275034D01*
X4127Y274988D01*
X4141Y274938D01*
X4185Y274869D01*
X4220Y274795D01*
X4255Y274757D01*
X4283Y274714D01*
X4346Y274660D01*
X4402Y274601D01*
X4446Y274575D01*
X4486Y274542D01*
X4561Y274509D01*
X4632Y274469D01*
X4683Y274457D01*
X4730Y274437D01*
X4812Y274429D01*
X4892Y274411D01*
X4943Y274415D01*
X4995Y274410D01*
X5075Y274426D01*
X5157Y274432D01*
X5205Y274452D01*
X5255Y274462D01*
X5299Y274489D01*
X5404Y274531D01*
X5543Y274644D01*
X5581Y274669D01*
X6657Y275745D01*
X10578Y277369D01*
X14822Y277369D01*
X18743Y275745D01*
X21745Y272743D01*
X23369Y268822D01*
X23369Y264578D01*
X21745Y260657D01*
X18743Y257655D01*
X14822Y256031D01*
X10578Y256031D01*
X6657Y257655D01*
X5581Y258731D01*
X5540Y258762D01*
X5504Y258799D01*
X5433Y258840D01*
X5367Y258889D01*
X5318Y258906D01*
X5274Y258931D01*
X5194Y258949D01*
X5116Y258976D01*
X5064Y258978D01*
X5014Y258989D01*
X4932Y258982D01*
X4850Y258985D01*
X4801Y258972D01*
X4749Y258968D01*
X4673Y258937D01*
X4594Y258915D01*
X4550Y258888D01*
X4502Y258869D01*
X4439Y258817D01*
X4370Y258773D01*
X4336Y258734D01*
X4296Y258701D01*
X4251Y258633D01*
X4198Y258570D01*
X4177Y258523D01*
X4149Y258480D01*
X4137Y258429D01*
X4093Y258326D01*
X4075Y258147D01*
X4065Y258103D01*
X4065Y249897D01*
X4072Y249846D01*
X4071Y249794D01*
X4092Y249715D01*
X4105Y249634D01*
X4127Y249588D01*
X4141Y249538D01*
X4185Y249469D01*
X4220Y249395D01*
X4255Y249357D01*
X4283Y249314D01*
X4346Y249261D01*
X4402Y249201D01*
X4446Y249175D01*
X4486Y249142D01*
X4561Y249109D01*
X4632Y249069D01*
X4683Y249057D01*
X4730Y249037D01*
X4812Y249029D01*
X4892Y249011D01*
X4943Y249015D01*
X4995Y249010D01*
X5075Y249026D01*
X5157Y249032D01*
X5205Y249052D01*
X5255Y249062D01*
X5299Y249089D01*
X5404Y249131D01*
X5543Y249244D01*
X5581Y249269D01*
X6657Y250345D01*
X10578Y251969D01*
X14822Y251969D01*
X18743Y250345D01*
X21745Y247343D01*
X23369Y243422D01*
X23369Y239178D01*
X21745Y235257D01*
X18743Y232255D01*
X14822Y230631D01*
X10578Y230631D01*
X6657Y232255D01*
X5581Y233331D01*
X5540Y233362D01*
X5504Y233399D01*
X5433Y233440D01*
X5367Y233489D01*
X5318Y233506D01*
X5274Y233531D01*
X5194Y233549D01*
X5116Y233576D01*
X5064Y233578D01*
X5014Y233589D01*
X4932Y233582D01*
X4850Y233585D01*
X4801Y233572D01*
X4749Y233568D01*
X4673Y233537D01*
X4594Y233515D01*
X4550Y233488D01*
X4502Y233469D01*
X4439Y233417D01*
X4370Y233373D01*
X4336Y233334D01*
X4296Y233301D01*
X4251Y233233D01*
X4198Y233170D01*
X4177Y233123D01*
X4149Y233080D01*
X4137Y233029D01*
X4093Y232926D01*
X4075Y232747D01*
X4065Y232703D01*
X4065Y25400D01*
X4065Y25399D01*
X4069Y25373D01*
X4066Y25356D01*
X4066Y25355D01*
X4088Y25246D01*
X4105Y25137D01*
X4114Y25116D01*
X4119Y25094D01*
X4172Y24997D01*
X4220Y24897D01*
X4236Y24881D01*
X4246Y24861D01*
X4326Y24784D01*
X4402Y24703D01*
X4421Y24692D01*
X4437Y24676D01*
X4536Y24626D01*
X4632Y24571D01*
X4654Y24566D01*
X4674Y24556D01*
X4784Y24537D01*
X4892Y24513D01*
X4914Y24515D01*
X4936Y24511D01*
X5046Y24526D01*
X5157Y24535D01*
X5178Y24543D01*
X5200Y24546D01*
X5300Y24592D01*
X5404Y24634D01*
X5421Y24648D01*
X5441Y24657D01*
X5523Y24731D01*
X5610Y24801D01*
X5622Y24820D01*
X5639Y24835D01*
X5696Y24930D01*
X5757Y25023D01*
X5761Y25040D01*
X5775Y25063D01*
X5804Y25232D01*
X5841Y25399D01*
X5841Y29291D01*
X8819Y36479D01*
X14321Y41981D01*
X21509Y44959D01*
X21552Y44959D01*
X21603Y44966D01*
X21655Y44965D01*
X21734Y44986D01*
X21815Y44999D01*
X21862Y45021D01*
X21911Y45035D01*
X21981Y45079D01*
X22055Y45114D01*
X22092Y45149D01*
X22136Y45177D01*
X22189Y45240D01*
X22249Y45296D01*
X22274Y45340D01*
X22308Y45380D01*
X22340Y45455D01*
X22381Y45526D01*
X22392Y45577D01*
X22412Y45624D01*
X22421Y45706D01*
X22439Y45786D01*
X22434Y45837D01*
X22440Y45889D01*
X22424Y45969D01*
X22417Y46051D01*
X22398Y46099D01*
X22388Y46149D01*
X22360Y46193D01*
X22318Y46298D01*
X22205Y46437D01*
X22180Y46475D01*
X20877Y47778D01*
X20065Y49739D01*
X20065Y51861D01*
X20877Y53822D01*
X22378Y55323D01*
X24339Y56135D01*
X26461Y56135D01*
X28422Y55323D01*
X29923Y53822D01*
X30735Y51861D01*
X30735Y49739D01*
X29923Y47778D01*
X28620Y46475D01*
X28589Y46434D01*
X28551Y46398D01*
X28510Y46327D01*
X28462Y46261D01*
X28445Y46212D01*
X28419Y46168D01*
X28401Y46088D01*
X28374Y46010D01*
X28373Y45958D01*
X28361Y45908D01*
X28368Y45826D01*
X28365Y45744D01*
X28379Y45695D01*
X28383Y45643D01*
X28414Y45567D01*
X28435Y45488D01*
X28463Y45444D01*
X28482Y45396D01*
X28534Y45333D01*
X28578Y45264D01*
X28617Y45230D01*
X28650Y45190D01*
X28718Y45145D01*
X28780Y45092D01*
X28828Y45071D01*
X28871Y45043D01*
X28921Y45031D01*
X29025Y44987D01*
X29203Y44969D01*
X29248Y44959D01*
X29291Y44959D01*
X36479Y41981D01*
X41981Y36479D01*
X44959Y29291D01*
X44959Y21509D01*
X41981Y14321D01*
X36479Y8819D01*
X29291Y5841D01*
X25399Y5841D01*
X25289Y5825D01*
X25177Y5813D01*
X25158Y5805D01*
X25137Y5801D01*
X25036Y5753D01*
X24933Y5709D01*
X24916Y5695D01*
X24897Y5686D01*
X24815Y5609D01*
X24730Y5537D01*
X24718Y5519D01*
X24703Y5504D01*
X24647Y5407D01*
X24587Y5313D01*
X24582Y5292D01*
X24571Y5274D01*
X24547Y5164D01*
X24517Y5056D01*
X24518Y5035D01*
X24513Y5014D01*
X24522Y4902D01*
X24526Y4791D01*
X24533Y4770D01*
X24535Y4749D01*
X24577Y4645D01*
X24613Y4539D01*
X24626Y4522D01*
X24634Y4502D01*
X24705Y4415D01*
X24771Y4325D01*
X24788Y4313D01*
X24801Y4296D01*
X24895Y4234D01*
X24985Y4167D01*
X25001Y4163D01*
X25023Y4149D01*
X25191Y4111D01*
X25357Y4066D01*
X25358Y4066D01*
X25383Y4068D01*
X25399Y4065D01*
X25400Y4065D01*
X65284Y4065D01*
X65386Y4080D01*
G37*
%LPC*%
G36*
X63406Y234441D02*
X63406Y234441D01*
X60885Y235485D01*
X58955Y237415D01*
X57911Y239936D01*
X57911Y242664D01*
X58955Y245185D01*
X60792Y247022D01*
X60853Y247105D01*
X60920Y247183D01*
X60932Y247211D01*
X60950Y247236D01*
X60984Y247333D01*
X61024Y247427D01*
X61027Y247458D01*
X61037Y247487D01*
X61041Y247589D01*
X61051Y247692D01*
X61045Y247722D01*
X61046Y247753D01*
X61019Y247852D01*
X60999Y247952D01*
X60987Y247972D01*
X60977Y248009D01*
X60834Y248233D01*
X60805Y248258D01*
X60792Y248278D01*
X58955Y250115D01*
X57911Y252636D01*
X57911Y255364D01*
X58955Y257885D01*
X60792Y259722D01*
X60853Y259805D01*
X60920Y259883D01*
X60932Y259911D01*
X60950Y259936D01*
X60984Y260033D01*
X61024Y260127D01*
X61027Y260158D01*
X61037Y260187D01*
X61041Y260289D01*
X61051Y260392D01*
X61045Y260422D01*
X61046Y260453D01*
X61019Y260552D01*
X60999Y260652D01*
X60987Y260672D01*
X60977Y260709D01*
X60834Y260933D01*
X60805Y260958D01*
X60792Y260978D01*
X58955Y262815D01*
X57911Y265336D01*
X57911Y268064D01*
X58955Y270585D01*
X60792Y272422D01*
X60853Y272505D01*
X60920Y272583D01*
X60932Y272611D01*
X60950Y272636D01*
X60984Y272733D01*
X61024Y272827D01*
X61027Y272858D01*
X61037Y272887D01*
X61041Y272989D01*
X61051Y273092D01*
X61045Y273122D01*
X61046Y273153D01*
X61019Y273252D01*
X60999Y273352D01*
X60987Y273372D01*
X60977Y273409D01*
X60834Y273633D01*
X60805Y273658D01*
X60792Y273678D01*
X58955Y275515D01*
X57911Y278036D01*
X57911Y280764D01*
X58955Y283285D01*
X60885Y285215D01*
X61053Y285284D01*
X61136Y285334D01*
X61223Y285378D01*
X61249Y285403D01*
X61280Y285421D01*
X61345Y285494D01*
X61416Y285562D01*
X61433Y285593D01*
X61457Y285620D01*
X61497Y285709D01*
X61545Y285794D01*
X61552Y285829D01*
X61567Y285862D01*
X61579Y285958D01*
X61600Y286054D01*
X61596Y286090D01*
X61601Y286126D01*
X61584Y286222D01*
X61575Y286319D01*
X61561Y286352D01*
X61555Y286387D01*
X61510Y286474D01*
X61473Y286564D01*
X61454Y286584D01*
X61434Y286624D01*
X61248Y286814D01*
X61220Y286829D01*
X61206Y286843D01*
X60722Y287167D01*
X59837Y288052D01*
X59142Y289092D01*
X58663Y290247D01*
X58547Y290831D01*
X64389Y290831D01*
X64490Y290846D01*
X64593Y290854D01*
X64621Y290866D01*
X64652Y290870D01*
X64744Y290915D01*
X64839Y290953D01*
X64863Y290973D01*
X64891Y290986D01*
X64966Y291056D01*
X65046Y291121D01*
X65063Y291147D01*
X65085Y291168D01*
X65136Y291257D01*
X65193Y291342D01*
X65198Y291366D01*
X65217Y291398D01*
X65264Y291609D01*
X65355Y291617D01*
X65383Y291628D01*
X65414Y291633D01*
X65506Y291677D01*
X65602Y291716D01*
X65625Y291735D01*
X65653Y291748D01*
X65728Y291819D01*
X65808Y291883D01*
X65825Y291909D01*
X65847Y291930D01*
X65898Y292019D01*
X65955Y292104D01*
X65961Y292128D01*
X65979Y292161D01*
X66037Y292420D01*
X66034Y292458D01*
X66039Y292481D01*
X66039Y298323D01*
X66623Y298207D01*
X67778Y297728D01*
X68818Y297033D01*
X69703Y296148D01*
X70027Y295664D01*
X70093Y295592D01*
X70152Y295515D01*
X70182Y295494D01*
X70206Y295467D01*
X70290Y295418D01*
X70370Y295362D01*
X70404Y295351D01*
X70435Y295333D01*
X70530Y295310D01*
X70623Y295280D01*
X70659Y295280D01*
X70694Y295272D01*
X70791Y295279D01*
X70889Y295278D01*
X70923Y295288D01*
X70959Y295290D01*
X71050Y295326D01*
X71143Y295353D01*
X71173Y295374D01*
X71207Y295386D01*
X71283Y295447D01*
X71364Y295501D01*
X71380Y295524D01*
X71415Y295552D01*
X71565Y295771D01*
X71574Y295801D01*
X71586Y295817D01*
X71655Y295985D01*
X73585Y297915D01*
X76106Y298959D01*
X78834Y298959D01*
X81355Y297915D01*
X83285Y295985D01*
X84329Y293464D01*
X84329Y290736D01*
X83285Y288215D01*
X81448Y286378D01*
X81387Y286295D01*
X81320Y286217D01*
X81308Y286189D01*
X81290Y286164D01*
X81256Y286067D01*
X81216Y285973D01*
X81213Y285942D01*
X81203Y285913D01*
X81199Y285810D01*
X81189Y285708D01*
X81195Y285678D01*
X81194Y285647D01*
X81221Y285548D01*
X81241Y285448D01*
X81253Y285427D01*
X81263Y285391D01*
X81406Y285167D01*
X81435Y285142D01*
X81448Y285122D01*
X83285Y283285D01*
X84329Y280764D01*
X84329Y278036D01*
X83285Y275515D01*
X81448Y273678D01*
X81387Y273595D01*
X81320Y273517D01*
X81308Y273489D01*
X81290Y273464D01*
X81256Y273367D01*
X81216Y273273D01*
X81213Y273242D01*
X81203Y273213D01*
X81199Y273110D01*
X81189Y273008D01*
X81195Y272978D01*
X81194Y272947D01*
X81221Y272848D01*
X81241Y272748D01*
X81253Y272727D01*
X81263Y272691D01*
X81406Y272467D01*
X81435Y272442D01*
X81448Y272422D01*
X83285Y270585D01*
X84329Y268064D01*
X84329Y265336D01*
X83285Y262815D01*
X81448Y260978D01*
X81387Y260895D01*
X81320Y260817D01*
X81308Y260789D01*
X81290Y260764D01*
X81256Y260667D01*
X81216Y260573D01*
X81213Y260542D01*
X81203Y260513D01*
X81199Y260410D01*
X81189Y260308D01*
X81195Y260278D01*
X81194Y260247D01*
X81221Y260148D01*
X81241Y260048D01*
X81253Y260027D01*
X81263Y259991D01*
X81406Y259767D01*
X81435Y259742D01*
X81448Y259722D01*
X83285Y257885D01*
X84329Y255364D01*
X84329Y252636D01*
X83285Y250115D01*
X81448Y248278D01*
X81387Y248195D01*
X81320Y248117D01*
X81308Y248089D01*
X81290Y248064D01*
X81256Y247967D01*
X81216Y247873D01*
X81213Y247842D01*
X81203Y247813D01*
X81199Y247711D01*
X81189Y247608D01*
X81195Y247578D01*
X81194Y247547D01*
X81221Y247448D01*
X81241Y247348D01*
X81253Y247328D01*
X81263Y247291D01*
X81406Y247067D01*
X81435Y247042D01*
X81448Y247022D01*
X83285Y245185D01*
X84329Y242664D01*
X84329Y239936D01*
X83285Y237415D01*
X81355Y235485D01*
X78834Y234441D01*
X76106Y234441D01*
X73585Y235485D01*
X71748Y237322D01*
X71665Y237383D01*
X71587Y237450D01*
X71559Y237462D01*
X71534Y237480D01*
X71437Y237514D01*
X71343Y237554D01*
X71312Y237557D01*
X71283Y237567D01*
X71180Y237571D01*
X71078Y237581D01*
X71048Y237575D01*
X71017Y237576D01*
X70918Y237549D01*
X70818Y237529D01*
X70797Y237517D01*
X70761Y237507D01*
X70537Y237364D01*
X70512Y237335D01*
X70492Y237322D01*
X68655Y235485D01*
X66134Y234441D01*
X63406Y234441D01*
G37*
%LPD*%
%LPC*%
G36*
X167849Y171265D02*
X167849Y171265D01*
X165888Y172077D01*
X164387Y173578D01*
X163575Y175539D01*
X163575Y177661D01*
X164387Y179622D01*
X164712Y179947D01*
X164725Y179963D01*
X164741Y179977D01*
X164803Y180070D01*
X164870Y180161D01*
X164877Y180180D01*
X164888Y180198D01*
X164898Y180242D01*
X164957Y180412D01*
X164961Y180524D01*
X164972Y180575D01*
X164972Y183491D01*
X164969Y183512D01*
X164971Y183533D01*
X164955Y183615D01*
X164948Y183695D01*
X164937Y183723D01*
X164932Y183754D01*
X164923Y183773D01*
X164919Y183793D01*
X164895Y183832D01*
X164887Y183848D01*
X164849Y183942D01*
X164830Y183965D01*
X164817Y183993D01*
X164746Y184068D01*
X164737Y184080D01*
X164712Y184119D01*
X159989Y188842D01*
X159972Y188855D01*
X159959Y188871D01*
X159865Y188933D01*
X159775Y189000D01*
X159755Y189007D01*
X159738Y189018D01*
X159693Y189028D01*
X159524Y189087D01*
X159411Y189091D01*
X159361Y189102D01*
X114465Y189102D01*
X114444Y189099D01*
X114423Y189101D01*
X114313Y189079D01*
X114202Y189062D01*
X114183Y189053D01*
X114162Y189049D01*
X114124Y189025D01*
X113963Y188947D01*
X113880Y188870D01*
X113837Y188842D01*
X113512Y188517D01*
X111551Y187705D01*
X109429Y187705D01*
X107468Y188517D01*
X105967Y190018D01*
X105155Y191979D01*
X105155Y194101D01*
X105967Y196062D01*
X107468Y197563D01*
X109429Y198375D01*
X111551Y198375D01*
X113512Y197563D01*
X113837Y197238D01*
X113853Y197225D01*
X113867Y197209D01*
X113960Y197147D01*
X114051Y197080D01*
X114070Y197073D01*
X114088Y197062D01*
X114132Y197052D01*
X114302Y196993D01*
X114414Y196989D01*
X114465Y196978D01*
X123616Y196978D01*
X123707Y196992D01*
X123800Y196997D01*
X123838Y197011D01*
X123879Y197018D01*
X123962Y197058D01*
X124049Y197090D01*
X124081Y197115D01*
X124118Y197133D01*
X124186Y197196D01*
X124259Y197253D01*
X124282Y197287D01*
X124312Y197315D01*
X124358Y197395D01*
X124411Y197471D01*
X124424Y197510D01*
X124444Y197545D01*
X124464Y197636D01*
X124493Y197724D01*
X124493Y197765D01*
X124502Y197805D01*
X124495Y197897D01*
X124496Y197989D01*
X124484Y198029D01*
X124481Y198070D01*
X124446Y198156D01*
X124420Y198244D01*
X124397Y198278D01*
X124382Y198317D01*
X124323Y198388D01*
X124272Y198465D01*
X124246Y198483D01*
X124214Y198523D01*
X123993Y198670D01*
X123983Y198673D01*
X122477Y200178D01*
X121665Y202139D01*
X121665Y204261D01*
X122477Y206222D01*
X123978Y207723D01*
X125939Y208535D01*
X128061Y208535D01*
X130022Y207723D01*
X131523Y206222D01*
X132335Y204261D01*
X132335Y202139D01*
X131523Y200178D01*
X130011Y198667D01*
X129965Y198639D01*
X129882Y198599D01*
X129852Y198571D01*
X129817Y198549D01*
X129755Y198480D01*
X129688Y198417D01*
X129667Y198382D01*
X129640Y198351D01*
X129601Y198267D01*
X129556Y198187D01*
X129547Y198146D01*
X129530Y198109D01*
X129518Y198017D01*
X129498Y197927D01*
X129501Y197886D01*
X129496Y197845D01*
X129512Y197754D01*
X129519Y197662D01*
X129535Y197624D01*
X129542Y197583D01*
X129584Y197501D01*
X129618Y197415D01*
X129644Y197383D01*
X129663Y197347D01*
X129728Y197281D01*
X129786Y197209D01*
X129820Y197186D01*
X129849Y197157D01*
X129930Y197113D01*
X130007Y197062D01*
X130038Y197055D01*
X130083Y197030D01*
X130344Y196979D01*
X130364Y196982D01*
X130384Y196978D01*
X162991Y196978D01*
X172848Y187121D01*
X172848Y180575D01*
X172851Y180554D01*
X172849Y180533D01*
X172871Y180423D01*
X172888Y180312D01*
X172897Y180293D01*
X172901Y180272D01*
X172925Y180234D01*
X173003Y180073D01*
X173080Y179990D01*
X173108Y179947D01*
X173433Y179622D01*
X174245Y177661D01*
X174245Y175539D01*
X173433Y173578D01*
X171932Y172077D01*
X169971Y171265D01*
X167849Y171265D01*
G37*
%LPD*%
%LPC*%
G36*
X115779Y216915D02*
X115779Y216915D01*
X113818Y217727D01*
X112317Y219228D01*
X111505Y221189D01*
X111505Y223311D01*
X112317Y225272D01*
X113818Y226773D01*
X115779Y227585D01*
X117901Y227585D01*
X118293Y227422D01*
X118383Y227400D01*
X118470Y227370D01*
X118511Y227368D01*
X118551Y227359D01*
X118643Y227364D01*
X118736Y227361D01*
X118775Y227372D01*
X118816Y227374D01*
X118903Y227406D01*
X118992Y227431D01*
X119027Y227453D01*
X119065Y227467D01*
X119138Y227524D01*
X119216Y227573D01*
X119243Y227605D01*
X119276Y227630D01*
X119329Y227706D01*
X119388Y227776D01*
X119405Y227814D01*
X119428Y227847D01*
X119457Y227935D01*
X119493Y228020D01*
X119497Y228061D01*
X119510Y228101D01*
X119511Y228193D01*
X119520Y228285D01*
X119512Y228325D01*
X119513Y228366D01*
X119486Y228455D01*
X119468Y228545D01*
X119451Y228572D01*
X119437Y228621D01*
X119289Y228842D01*
X119272Y228854D01*
X119261Y228871D01*
X117955Y230177D01*
X116331Y234098D01*
X116331Y238342D01*
X117955Y242263D01*
X120957Y245265D01*
X124878Y246889D01*
X129122Y246889D01*
X133043Y245265D01*
X136045Y242263D01*
X137669Y238342D01*
X137669Y234098D01*
X136937Y232331D01*
X136924Y232281D01*
X136903Y232234D01*
X136893Y232153D01*
X136873Y232073D01*
X136876Y232021D01*
X136870Y231970D01*
X136884Y231890D01*
X136888Y231808D01*
X136907Y231759D01*
X136915Y231708D01*
X136953Y231636D01*
X136982Y231559D01*
X137013Y231518D01*
X137037Y231472D01*
X137094Y231413D01*
X137144Y231348D01*
X137187Y231319D01*
X137223Y231282D01*
X137295Y231243D01*
X137362Y231196D01*
X137411Y231180D01*
X137456Y231155D01*
X137537Y231139D01*
X137615Y231114D01*
X137667Y231114D01*
X137717Y231104D01*
X137768Y231113D01*
X137881Y231111D01*
X138053Y231163D01*
X138097Y231170D01*
X138639Y231395D01*
X140761Y231395D01*
X142722Y230583D01*
X144223Y229082D01*
X145035Y227121D01*
X145035Y224999D01*
X144223Y223038D01*
X142722Y221537D01*
X140761Y220725D01*
X138639Y220725D01*
X136678Y221537D01*
X135177Y223038D01*
X134365Y224999D01*
X134365Y226394D01*
X134364Y226404D01*
X134365Y226415D01*
X134344Y226535D01*
X134325Y226657D01*
X134321Y226666D01*
X134319Y226676D01*
X134263Y226785D01*
X134210Y226896D01*
X134202Y226904D01*
X134198Y226913D01*
X134112Y227000D01*
X134028Y227090D01*
X134019Y227095D01*
X134012Y227103D01*
X133904Y227161D01*
X133798Y227222D01*
X133787Y227224D01*
X133778Y227229D01*
X133658Y227253D01*
X133538Y227280D01*
X133528Y227279D01*
X133517Y227281D01*
X133487Y227276D01*
X133273Y227258D01*
X133185Y227223D01*
X133137Y227214D01*
X129122Y225551D01*
X124878Y225551D01*
X122476Y226546D01*
X122426Y226559D01*
X122379Y226580D01*
X122298Y226590D01*
X122218Y226610D01*
X122166Y226607D01*
X122115Y226614D01*
X122035Y226599D01*
X121953Y226595D01*
X121904Y226576D01*
X121853Y226568D01*
X121781Y226530D01*
X121704Y226501D01*
X121663Y226470D01*
X121617Y226446D01*
X121558Y226389D01*
X121493Y226339D01*
X121464Y226296D01*
X121427Y226260D01*
X121388Y226188D01*
X121341Y226121D01*
X121325Y226072D01*
X121300Y226027D01*
X121284Y225946D01*
X121259Y225868D01*
X121259Y225816D01*
X121249Y225766D01*
X121258Y225715D01*
X121256Y225602D01*
X121308Y225430D01*
X121315Y225386D01*
X122175Y223311D01*
X122175Y221189D01*
X121363Y219228D01*
X119862Y217727D01*
X117901Y216915D01*
X115779Y216915D01*
G37*
%LPD*%
%LPC*%
G36*
X186899Y528065D02*
X186899Y528065D01*
X184938Y528877D01*
X183437Y530378D01*
X182625Y532339D01*
X182625Y534461D01*
X183437Y536422D01*
X184938Y537923D01*
X186990Y538772D01*
X187217Y538910D01*
X187252Y538948D01*
X187278Y538965D01*
X189981Y541668D01*
X190042Y541751D01*
X190109Y541829D01*
X190121Y541857D01*
X190139Y541882D01*
X190173Y541979D01*
X190213Y542074D01*
X190216Y542104D01*
X190226Y542133D01*
X190230Y542236D01*
X190241Y542338D01*
X190234Y542368D01*
X190236Y542399D01*
X190209Y542498D01*
X190188Y542599D01*
X190176Y542619D01*
X190166Y542655D01*
X190023Y542880D01*
X189994Y542904D01*
X189981Y542924D01*
X187451Y545454D01*
X187451Y549137D01*
X189691Y551377D01*
X189988Y551674D01*
X192555Y554242D01*
X201238Y554242D01*
X202880Y552600D01*
X204102Y551377D01*
X204700Y550779D01*
X206342Y549137D01*
X206342Y542955D01*
X206312Y542925D01*
X206251Y542842D01*
X206184Y542764D01*
X206172Y542735D01*
X206154Y542711D01*
X206120Y542614D01*
X206080Y542519D01*
X206077Y542489D01*
X206067Y542459D01*
X206063Y542357D01*
X206052Y542255D01*
X206059Y542225D01*
X206057Y542194D01*
X206084Y542095D01*
X206105Y541994D01*
X206117Y541974D01*
X206127Y541937D01*
X206270Y541713D01*
X206299Y541688D01*
X206312Y541668D01*
X206342Y541638D01*
X206342Y535455D01*
X201238Y530351D01*
X192824Y530351D01*
X192803Y530348D01*
X192782Y530350D01*
X192672Y530328D01*
X192561Y530311D01*
X192542Y530302D01*
X192521Y530298D01*
X192483Y530274D01*
X192322Y530196D01*
X192239Y530119D01*
X192196Y530091D01*
X190982Y528877D01*
X189021Y528065D01*
X186899Y528065D01*
G37*
%LPD*%
%LPC*%
G36*
X167849Y40385D02*
X167849Y40385D01*
X165888Y41197D01*
X164387Y42698D01*
X164103Y43385D01*
X164097Y43394D01*
X164095Y43404D01*
X164029Y43508D01*
X163965Y43613D01*
X163958Y43620D01*
X163952Y43629D01*
X163858Y43708D01*
X163767Y43790D01*
X163757Y43794D01*
X163749Y43801D01*
X163637Y43849D01*
X163525Y43900D01*
X163515Y43901D01*
X163505Y43905D01*
X163383Y43918D01*
X163261Y43933D01*
X163251Y43932D01*
X163241Y43933D01*
X163120Y43909D01*
X163000Y43887D01*
X162990Y43883D01*
X162980Y43881D01*
X162953Y43864D01*
X162763Y43766D01*
X162695Y43699D01*
X162654Y43673D01*
X162353Y43372D01*
X152247Y43372D01*
X152172Y43447D01*
X152172Y64553D01*
X152247Y64628D01*
X162353Y64628D01*
X162428Y64553D01*
X162428Y48476D01*
X162442Y48385D01*
X162447Y48293D01*
X162451Y48283D01*
X162451Y48273D01*
X162463Y48245D01*
X162468Y48213D01*
X162508Y48130D01*
X162540Y48044D01*
X162547Y48035D01*
X162550Y48027D01*
X162569Y48004D01*
X162583Y47974D01*
X162646Y47907D01*
X162703Y47834D01*
X162713Y47826D01*
X162718Y47820D01*
X162741Y47805D01*
X162765Y47780D01*
X162845Y47734D01*
X162920Y47681D01*
X162933Y47677D01*
X162939Y47673D01*
X162960Y47668D01*
X162995Y47648D01*
X163085Y47628D01*
X163173Y47600D01*
X163215Y47599D01*
X163255Y47590D01*
X163296Y47593D01*
X163316Y47589D01*
X163372Y47597D01*
X163439Y47597D01*
X163479Y47608D01*
X163520Y47612D01*
X163552Y47625D01*
X163579Y47629D01*
X163631Y47654D01*
X163694Y47673D01*
X163728Y47695D01*
X163767Y47711D01*
X163793Y47732D01*
X163819Y47745D01*
X163861Y47785D01*
X163915Y47820D01*
X163933Y47846D01*
X163973Y47878D01*
X163991Y47905D01*
X164013Y47926D01*
X164062Y48013D01*
X164120Y48099D01*
X164125Y48120D01*
X164137Y48136D01*
X164387Y48742D01*
X165888Y50243D01*
X167849Y51055D01*
X169971Y51055D01*
X171237Y50530D01*
X171247Y50528D01*
X171256Y50523D01*
X171376Y50496D01*
X171495Y50467D01*
X171506Y50467D01*
X171516Y50465D01*
X171638Y50475D01*
X171761Y50482D01*
X171770Y50486D01*
X171781Y50486D01*
X171895Y50532D01*
X172009Y50575D01*
X172018Y50582D01*
X172028Y50585D01*
X172123Y50663D01*
X172220Y50738D01*
X172226Y50746D01*
X172234Y50753D01*
X172302Y50855D01*
X172372Y50955D01*
X172376Y50965D01*
X172381Y50974D01*
X172388Y51005D01*
X172454Y51208D01*
X172455Y51304D01*
X172465Y51351D01*
X172465Y51861D01*
X173277Y53822D01*
X174778Y55323D01*
X176739Y56135D01*
X178861Y56135D01*
X180822Y55323D01*
X182323Y53822D01*
X183135Y51861D01*
X183135Y49739D01*
X182323Y47778D01*
X180822Y46277D01*
X178861Y45465D01*
X176739Y45465D01*
X175473Y45990D01*
X175463Y45992D01*
X175454Y45997D01*
X175334Y46024D01*
X175215Y46053D01*
X175204Y46053D01*
X175194Y46055D01*
X175072Y46045D01*
X174949Y46038D01*
X174940Y46034D01*
X174929Y46034D01*
X174815Y45988D01*
X174701Y45945D01*
X174692Y45938D01*
X174682Y45935D01*
X174587Y45857D01*
X174490Y45782D01*
X174484Y45774D01*
X174476Y45767D01*
X174408Y45665D01*
X174338Y45565D01*
X174334Y45555D01*
X174329Y45546D01*
X174322Y45515D01*
X174256Y45312D01*
X174255Y45216D01*
X174245Y45169D01*
X174245Y44659D01*
X173433Y42698D01*
X171932Y41197D01*
X169971Y40385D01*
X167849Y40385D01*
G37*
%LPD*%
%LPC*%
G36*
X58248Y404875D02*
X58248Y404875D01*
X56287Y405687D01*
X54786Y407188D01*
X53974Y409149D01*
X53974Y411271D01*
X54786Y413232D01*
X56287Y414733D01*
X58034Y415456D01*
X58079Y415483D01*
X58127Y415501D01*
X58192Y415551D01*
X58262Y415594D01*
X58296Y415632D01*
X58337Y415664D01*
X58384Y415731D01*
X58439Y415792D01*
X58460Y415839D01*
X58490Y415881D01*
X58515Y415959D01*
X58549Y416034D01*
X58555Y416085D01*
X58571Y416134D01*
X58572Y416216D01*
X58582Y416298D01*
X58573Y416349D01*
X58574Y416400D01*
X58551Y416479D01*
X58536Y416560D01*
X58513Y416606D01*
X58498Y416655D01*
X58453Y416723D01*
X58415Y416796D01*
X58379Y416833D01*
X58350Y416876D01*
X58308Y416905D01*
X58229Y416986D01*
X58072Y417071D01*
X58034Y417098D01*
X56668Y417663D01*
X55167Y419164D01*
X54355Y421125D01*
X54355Y423247D01*
X55167Y425208D01*
X56668Y426709D01*
X57638Y427110D01*
X57647Y427116D01*
X57657Y427119D01*
X57761Y427184D01*
X57866Y427248D01*
X57873Y427256D01*
X57882Y427261D01*
X57961Y427355D01*
X58043Y427446D01*
X58047Y427456D01*
X58054Y427464D01*
X58102Y427576D01*
X58153Y427688D01*
X58154Y427699D01*
X58158Y427708D01*
X58171Y427830D01*
X58186Y427952D01*
X58185Y427962D01*
X58186Y427973D01*
X58162Y428093D01*
X58140Y428214D01*
X58136Y428223D01*
X58134Y428233D01*
X58117Y428260D01*
X58019Y428450D01*
X57952Y428519D01*
X57926Y428559D01*
X57707Y428778D01*
X56895Y430739D01*
X56895Y432861D01*
X57707Y434822D01*
X58201Y435315D01*
X58207Y435324D01*
X58215Y435330D01*
X58286Y435430D01*
X58359Y435529D01*
X58362Y435539D01*
X58368Y435548D01*
X58406Y435665D01*
X58446Y435780D01*
X58446Y435791D01*
X58450Y435801D01*
X58451Y435924D01*
X58455Y436046D01*
X58452Y436056D01*
X58452Y436067D01*
X58417Y436184D01*
X58385Y436303D01*
X58380Y436311D01*
X58377Y436322D01*
X58308Y436424D01*
X58243Y436527D01*
X58235Y436534D01*
X58229Y436542D01*
X58203Y436560D01*
X58040Y436699D01*
X57952Y436736D01*
X57913Y436764D01*
X56287Y437437D01*
X54786Y438938D01*
X53974Y440899D01*
X53974Y443021D01*
X54786Y444982D01*
X56287Y446483D01*
X58248Y447295D01*
X60370Y447295D01*
X62331Y446483D01*
X63832Y444982D01*
X64644Y443021D01*
X64644Y440899D01*
X63832Y438938D01*
X63338Y438445D01*
X63332Y438436D01*
X63324Y438430D01*
X63253Y438330D01*
X63180Y438231D01*
X63177Y438221D01*
X63171Y438212D01*
X63133Y438095D01*
X63093Y437980D01*
X63093Y437969D01*
X63089Y437959D01*
X63088Y437836D01*
X63084Y437714D01*
X63087Y437704D01*
X63087Y437693D01*
X63122Y437576D01*
X63154Y437457D01*
X63159Y437449D01*
X63162Y437438D01*
X63231Y437336D01*
X63296Y437233D01*
X63304Y437226D01*
X63310Y437218D01*
X63336Y437200D01*
X63499Y437061D01*
X63587Y437024D01*
X63626Y436996D01*
X65252Y436323D01*
X66753Y434822D01*
X67565Y432861D01*
X67565Y430739D01*
X66753Y428778D01*
X65252Y427277D01*
X64282Y426876D01*
X64273Y426870D01*
X64263Y426867D01*
X64159Y426802D01*
X64054Y426738D01*
X64047Y426730D01*
X64038Y426725D01*
X63959Y426631D01*
X63877Y426540D01*
X63873Y426530D01*
X63866Y426522D01*
X63818Y426410D01*
X63767Y426298D01*
X63766Y426287D01*
X63762Y426278D01*
X63749Y426156D01*
X63734Y426034D01*
X63735Y426024D01*
X63734Y426013D01*
X63758Y425893D01*
X63780Y425772D01*
X63784Y425763D01*
X63786Y425753D01*
X63803Y425726D01*
X63901Y425536D01*
X63968Y425467D01*
X63994Y425427D01*
X64213Y425208D01*
X65025Y423247D01*
X65025Y421125D01*
X64213Y419164D01*
X62712Y417663D01*
X60965Y416940D01*
X60920Y416913D01*
X60872Y416895D01*
X60807Y416845D01*
X60737Y416802D01*
X60703Y416764D01*
X60662Y416732D01*
X60615Y416665D01*
X60560Y416604D01*
X60539Y416557D01*
X60509Y416515D01*
X60484Y416437D01*
X60450Y416362D01*
X60444Y416311D01*
X60428Y416262D01*
X60427Y416180D01*
X60417Y416098D01*
X60426Y416047D01*
X60425Y415996D01*
X60448Y415917D01*
X60463Y415836D01*
X60486Y415790D01*
X60501Y415741D01*
X60546Y415673D01*
X60584Y415600D01*
X60620Y415563D01*
X60649Y415520D01*
X60691Y415491D01*
X60770Y415410D01*
X60927Y415325D01*
X60965Y415298D01*
X62331Y414733D01*
X63832Y413232D01*
X64644Y411271D01*
X64644Y409149D01*
X63832Y407188D01*
X62331Y405687D01*
X60370Y404875D01*
X58248Y404875D01*
G37*
%LPD*%
%LPC*%
G36*
X99478Y225551D02*
X99478Y225551D01*
X95557Y227175D01*
X92555Y230177D01*
X90931Y234098D01*
X90931Y238342D01*
X92555Y242263D01*
X95557Y245265D01*
X99478Y246889D01*
X103722Y246889D01*
X107643Y245265D01*
X110645Y242263D01*
X112269Y238342D01*
X112269Y234098D01*
X110645Y230177D01*
X107643Y227175D01*
X103722Y225551D01*
X99478Y225551D01*
G37*
%LPD*%
%LPC*%
G36*
X66247Y43372D02*
X66247Y43372D01*
X66172Y43447D01*
X66172Y64553D01*
X66247Y64628D01*
X76353Y64628D01*
X76428Y64553D01*
X76428Y43447D01*
X76353Y43372D01*
X66247Y43372D01*
G37*
%LPD*%
%LPC*%
G36*
X106889Y369315D02*
X106889Y369315D01*
X104928Y370127D01*
X103427Y371628D01*
X102615Y373589D01*
X102615Y375711D01*
X103427Y377672D01*
X104928Y379173D01*
X106889Y379985D01*
X109011Y379985D01*
X110972Y379173D01*
X112473Y377672D01*
X112581Y377409D01*
X112608Y377365D01*
X112626Y377317D01*
X112676Y377252D01*
X112719Y377182D01*
X112757Y377147D01*
X112789Y377107D01*
X112856Y377059D01*
X112917Y377005D01*
X112964Y376984D01*
X113006Y376954D01*
X113084Y376929D01*
X113159Y376895D01*
X113210Y376888D01*
X113259Y376872D01*
X113342Y376872D01*
X113423Y376861D01*
X113474Y376870D01*
X113525Y376870D01*
X113604Y376893D01*
X113685Y376907D01*
X113731Y376931D01*
X113780Y376945D01*
X113848Y376991D01*
X113921Y377028D01*
X113958Y377065D01*
X114001Y377093D01*
X114031Y377136D01*
X114111Y377214D01*
X114196Y377372D01*
X114223Y377409D01*
X114857Y378942D01*
X116358Y380443D01*
X118319Y381255D01*
X120441Y381255D01*
X122402Y380443D01*
X123903Y378942D01*
X124715Y376981D01*
X124715Y374859D01*
X123903Y372898D01*
X122402Y371397D01*
X120441Y370585D01*
X118319Y370585D01*
X116358Y371397D01*
X114857Y372898D01*
X114749Y373161D01*
X114722Y373205D01*
X114704Y373253D01*
X114654Y373318D01*
X114611Y373388D01*
X114573Y373423D01*
X114541Y373463D01*
X114474Y373511D01*
X114413Y373565D01*
X114366Y373586D01*
X114324Y373616D01*
X114246Y373641D01*
X114171Y373675D01*
X114120Y373682D01*
X114071Y373698D01*
X113988Y373698D01*
X113907Y373709D01*
X113856Y373700D01*
X113805Y373700D01*
X113726Y373677D01*
X113645Y373663D01*
X113599Y373639D01*
X113550Y373625D01*
X113482Y373579D01*
X113409Y373542D01*
X113372Y373505D01*
X113329Y373477D01*
X113299Y373434D01*
X113219Y373356D01*
X113134Y373198D01*
X113107Y373161D01*
X112473Y371628D01*
X110972Y370127D01*
X109011Y369315D01*
X106889Y369315D01*
G37*
%LPD*%
%LPC*%
G36*
X25609Y107695D02*
X25609Y107695D01*
X23648Y108507D01*
X22147Y110008D01*
X21335Y111969D01*
X21335Y114091D01*
X22147Y116052D01*
X23648Y117553D01*
X25609Y118365D01*
X27731Y118365D01*
X29692Y117553D01*
X31193Y116052D01*
X31301Y115789D01*
X31328Y115745D01*
X31346Y115697D01*
X31396Y115632D01*
X31439Y115562D01*
X31477Y115527D01*
X31509Y115487D01*
X31576Y115439D01*
X31637Y115385D01*
X31684Y115364D01*
X31726Y115334D01*
X31804Y115309D01*
X31879Y115275D01*
X31930Y115268D01*
X31979Y115252D01*
X32062Y115252D01*
X32143Y115241D01*
X32194Y115250D01*
X32245Y115250D01*
X32324Y115273D01*
X32405Y115287D01*
X32451Y115311D01*
X32500Y115325D01*
X32568Y115371D01*
X32641Y115408D01*
X32678Y115445D01*
X32721Y115473D01*
X32751Y115516D01*
X32831Y115594D01*
X32916Y115752D01*
X32943Y115789D01*
X33577Y117322D01*
X35078Y118823D01*
X37039Y119635D01*
X39161Y119635D01*
X41122Y118823D01*
X42623Y117322D01*
X43435Y115361D01*
X43435Y113239D01*
X42623Y111278D01*
X41122Y109777D01*
X39161Y108965D01*
X37039Y108965D01*
X35078Y109777D01*
X33577Y111278D01*
X33469Y111541D01*
X33442Y111585D01*
X33424Y111633D01*
X33374Y111698D01*
X33331Y111768D01*
X33293Y111803D01*
X33261Y111843D01*
X33194Y111891D01*
X33133Y111945D01*
X33086Y111966D01*
X33044Y111996D01*
X32966Y112021D01*
X32891Y112055D01*
X32840Y112062D01*
X32791Y112078D01*
X32708Y112078D01*
X32627Y112089D01*
X32576Y112080D01*
X32525Y112080D01*
X32446Y112057D01*
X32365Y112043D01*
X32319Y112019D01*
X32270Y112005D01*
X32202Y111959D01*
X32129Y111922D01*
X32092Y111885D01*
X32049Y111857D01*
X32019Y111814D01*
X31939Y111736D01*
X31854Y111578D01*
X31827Y111541D01*
X31193Y110008D01*
X29692Y108507D01*
X27731Y107695D01*
X25609Y107695D01*
G37*
%LPD*%
%LPC*%
G36*
X44659Y164845D02*
X44659Y164845D01*
X42698Y165657D01*
X41197Y167158D01*
X40385Y169119D01*
X40385Y171241D01*
X40430Y171350D01*
X40443Y171400D01*
X40464Y171447D01*
X40474Y171528D01*
X40494Y171608D01*
X40491Y171659D01*
X40498Y171710D01*
X40483Y171791D01*
X40479Y171873D01*
X40461Y171921D01*
X40452Y171972D01*
X40414Y172045D01*
X40386Y172122D01*
X40354Y172163D01*
X40330Y172209D01*
X40273Y172267D01*
X40223Y172332D01*
X40181Y172362D01*
X40144Y172399D01*
X40072Y172438D01*
X40005Y172485D01*
X39956Y172501D01*
X39911Y172525D01*
X39830Y172541D01*
X39752Y172566D01*
X39701Y172567D01*
X39650Y172577D01*
X39599Y172568D01*
X39486Y172569D01*
X39315Y172518D01*
X39270Y172510D01*
X39161Y172465D01*
X37039Y172465D01*
X35078Y173277D01*
X33577Y174778D01*
X32765Y176739D01*
X32765Y178861D01*
X33577Y180822D01*
X35078Y182323D01*
X37039Y183135D01*
X39161Y183135D01*
X41122Y182323D01*
X42623Y180822D01*
X43435Y178861D01*
X43435Y176739D01*
X43390Y176630D01*
X43377Y176580D01*
X43356Y176533D01*
X43346Y176452D01*
X43326Y176372D01*
X43329Y176321D01*
X43322Y176270D01*
X43337Y176189D01*
X43341Y176107D01*
X43359Y176059D01*
X43368Y176008D01*
X43406Y175935D01*
X43434Y175858D01*
X43466Y175817D01*
X43490Y175771D01*
X43547Y175713D01*
X43597Y175648D01*
X43639Y175618D01*
X43676Y175581D01*
X43748Y175542D01*
X43815Y175495D01*
X43864Y175479D01*
X43909Y175455D01*
X43990Y175439D01*
X44068Y175414D01*
X44119Y175413D01*
X44170Y175403D01*
X44221Y175412D01*
X44334Y175411D01*
X44505Y175462D01*
X44550Y175470D01*
X44659Y175515D01*
X46781Y175515D01*
X48742Y174703D01*
X50243Y173202D01*
X51055Y171241D01*
X51055Y169119D01*
X50243Y167158D01*
X48742Y165657D01*
X46781Y164845D01*
X44659Y164845D01*
G37*
%LPD*%
%LPC*%
G36*
X167849Y456945D02*
X167849Y456945D01*
X165888Y457757D01*
X164387Y459258D01*
X163575Y461219D01*
X163575Y463341D01*
X164387Y465302D01*
X165364Y466279D01*
X165371Y466287D01*
X165379Y466294D01*
X165449Y466394D01*
X165522Y466493D01*
X165526Y466503D01*
X165532Y466511D01*
X165569Y466628D01*
X165610Y466744D01*
X165610Y466754D01*
X165613Y466765D01*
X165614Y466887D01*
X165619Y467010D01*
X165616Y467020D01*
X165616Y467030D01*
X165581Y467148D01*
X165549Y467266D01*
X165543Y467275D01*
X165540Y467285D01*
X165472Y467387D01*
X165406Y467490D01*
X165398Y467497D01*
X165392Y467506D01*
X165367Y467524D01*
X165204Y467662D01*
X165116Y467700D01*
X165076Y467728D01*
X164618Y467917D01*
X163117Y469418D01*
X162305Y471379D01*
X162305Y473501D01*
X163117Y475462D01*
X164618Y476963D01*
X166579Y477775D01*
X168701Y477775D01*
X170662Y476963D01*
X172163Y475462D01*
X172975Y473501D01*
X172975Y471379D01*
X172163Y469418D01*
X171186Y468441D01*
X171179Y468433D01*
X171171Y468426D01*
X171101Y468326D01*
X171028Y468227D01*
X171024Y468217D01*
X171018Y468209D01*
X170981Y468092D01*
X170940Y467976D01*
X170940Y467966D01*
X170937Y467955D01*
X170936Y467833D01*
X170931Y467710D01*
X170934Y467700D01*
X170934Y467690D01*
X170969Y467572D01*
X171001Y467454D01*
X171007Y467445D01*
X171010Y467435D01*
X171078Y467333D01*
X171144Y467230D01*
X171152Y467223D01*
X171158Y467214D01*
X171183Y467196D01*
X171346Y467058D01*
X171434Y467020D01*
X171474Y466992D01*
X171932Y466803D01*
X173433Y465302D01*
X174245Y463341D01*
X174245Y461219D01*
X173433Y459258D01*
X171932Y457757D01*
X169971Y456945D01*
X167849Y456945D01*
G37*
%LPD*%
%LPC*%
G36*
X58629Y477265D02*
X58629Y477265D01*
X56668Y478077D01*
X55167Y479578D01*
X54355Y481539D01*
X54355Y483661D01*
X55167Y485622D01*
X56597Y487052D01*
X56658Y487135D01*
X56725Y487213D01*
X56737Y487241D01*
X56755Y487266D01*
X56789Y487363D01*
X56829Y487457D01*
X56832Y487488D01*
X56843Y487517D01*
X56846Y487620D01*
X56857Y487722D01*
X56851Y487752D01*
X56852Y487783D01*
X56825Y487882D01*
X56805Y487982D01*
X56792Y488003D01*
X56782Y488039D01*
X56639Y488263D01*
X56610Y488288D01*
X56597Y488308D01*
X55167Y489738D01*
X54355Y491699D01*
X54355Y493821D01*
X55167Y495782D01*
X56668Y497283D01*
X58629Y498095D01*
X60751Y498095D01*
X62712Y497283D01*
X64213Y495782D01*
X65025Y493821D01*
X65025Y491699D01*
X64213Y489738D01*
X62783Y488308D01*
X62722Y488225D01*
X62655Y488147D01*
X62643Y488119D01*
X62625Y488094D01*
X62591Y487997D01*
X62551Y487903D01*
X62548Y487872D01*
X62537Y487843D01*
X62534Y487741D01*
X62523Y487638D01*
X62529Y487608D01*
X62528Y487577D01*
X62555Y487478D01*
X62575Y487378D01*
X62588Y487358D01*
X62598Y487321D01*
X62741Y487097D01*
X62770Y487072D01*
X62783Y487052D01*
X64213Y485622D01*
X65025Y483661D01*
X65025Y481539D01*
X64213Y479578D01*
X62712Y478077D01*
X60751Y477265D01*
X58629Y477265D01*
G37*
%LPD*%
%LPC*%
G36*
X99269Y73405D02*
X99269Y73405D01*
X97308Y74217D01*
X95807Y75718D01*
X94995Y77679D01*
X94995Y79801D01*
X95807Y81762D01*
X97237Y83192D01*
X97298Y83275D01*
X97365Y83353D01*
X97377Y83381D01*
X97395Y83406D01*
X97429Y83503D01*
X97469Y83597D01*
X97472Y83628D01*
X97483Y83657D01*
X97486Y83760D01*
X97497Y83862D01*
X97491Y83892D01*
X97492Y83923D01*
X97465Y84022D01*
X97445Y84122D01*
X97432Y84143D01*
X97422Y84179D01*
X97279Y84403D01*
X97250Y84428D01*
X97237Y84448D01*
X95807Y85878D01*
X94995Y87839D01*
X94995Y89961D01*
X95807Y91922D01*
X97308Y93423D01*
X99269Y94235D01*
X101391Y94235D01*
X103352Y93423D01*
X104853Y91922D01*
X105665Y89961D01*
X105665Y87839D01*
X104853Y85878D01*
X103423Y84448D01*
X103362Y84365D01*
X103295Y84287D01*
X103283Y84259D01*
X103265Y84234D01*
X103231Y84137D01*
X103191Y84043D01*
X103188Y84012D01*
X103177Y83983D01*
X103174Y83881D01*
X103163Y83778D01*
X103169Y83748D01*
X103168Y83717D01*
X103195Y83618D01*
X103215Y83518D01*
X103228Y83498D01*
X103238Y83461D01*
X103381Y83237D01*
X103410Y83212D01*
X103423Y83192D01*
X104853Y81762D01*
X105665Y79801D01*
X105665Y77679D01*
X104853Y75718D01*
X103352Y74217D01*
X101391Y73405D01*
X99269Y73405D01*
G37*
%LPD*%
%LPC*%
G36*
X179279Y260705D02*
X179279Y260705D01*
X177318Y261517D01*
X175817Y263018D01*
X175005Y264979D01*
X175005Y267101D01*
X175817Y269062D01*
X176942Y270187D01*
X177003Y270270D01*
X177070Y270348D01*
X177082Y270376D01*
X177100Y270401D01*
X177134Y270498D01*
X177174Y270592D01*
X177177Y270623D01*
X177188Y270652D01*
X177191Y270754D01*
X177202Y270857D01*
X177196Y270887D01*
X177197Y270918D01*
X177170Y271017D01*
X177150Y271117D01*
X177137Y271137D01*
X177127Y271174D01*
X176984Y271398D01*
X176955Y271423D01*
X176942Y271443D01*
X175817Y272568D01*
X175005Y274529D01*
X175005Y276651D01*
X175817Y278612D01*
X177318Y280113D01*
X179279Y280925D01*
X181401Y280925D01*
X183362Y280113D01*
X184863Y278612D01*
X185675Y276651D01*
X185675Y274529D01*
X184863Y272568D01*
X183738Y271443D01*
X183677Y271360D01*
X183610Y271282D01*
X183598Y271254D01*
X183580Y271229D01*
X183546Y271132D01*
X183506Y271038D01*
X183503Y271007D01*
X183492Y270978D01*
X183489Y270875D01*
X183478Y270773D01*
X183484Y270743D01*
X183483Y270712D01*
X183510Y270613D01*
X183530Y270513D01*
X183543Y270492D01*
X183553Y270456D01*
X183696Y270232D01*
X183725Y270207D01*
X183738Y270187D01*
X184863Y269062D01*
X185675Y267101D01*
X185675Y264979D01*
X184863Y263018D01*
X183362Y261517D01*
X181401Y260705D01*
X179279Y260705D01*
G37*
%LPD*%
%LPC*%
G36*
X120859Y45465D02*
X120859Y45465D01*
X118898Y46277D01*
X117680Y47496D01*
X117597Y47557D01*
X117519Y47623D01*
X117490Y47635D01*
X117466Y47654D01*
X117369Y47687D01*
X117274Y47728D01*
X117244Y47731D01*
X117215Y47741D01*
X117112Y47745D01*
X117010Y47755D01*
X116980Y47749D01*
X116949Y47750D01*
X116850Y47723D01*
X116749Y47703D01*
X116729Y47690D01*
X116692Y47680D01*
X116468Y47538D01*
X116443Y47509D01*
X116423Y47496D01*
X115628Y46701D01*
X113668Y45889D01*
X111545Y45889D01*
X109585Y46701D01*
X108084Y48202D01*
X107272Y50162D01*
X107272Y52285D01*
X108084Y54245D01*
X109585Y55746D01*
X111545Y56558D01*
X113668Y56558D01*
X115628Y55746D01*
X116847Y54528D01*
X116930Y54467D01*
X117008Y54400D01*
X117036Y54388D01*
X117061Y54370D01*
X117158Y54336D01*
X117252Y54296D01*
X117283Y54293D01*
X117312Y54282D01*
X117414Y54279D01*
X117517Y54268D01*
X117547Y54274D01*
X117578Y54273D01*
X117677Y54300D01*
X117777Y54320D01*
X117797Y54333D01*
X117834Y54343D01*
X118058Y54486D01*
X118083Y54515D01*
X118103Y54528D01*
X118898Y55323D01*
X120859Y56135D01*
X122981Y56135D01*
X124942Y55323D01*
X126443Y53822D01*
X127255Y51861D01*
X127255Y49739D01*
X126443Y47778D01*
X124942Y46277D01*
X122981Y45465D01*
X120859Y45465D01*
G37*
%LPD*%
%LPC*%
G36*
X188169Y122935D02*
X188169Y122935D01*
X186208Y123747D01*
X184707Y125248D01*
X183895Y127209D01*
X183895Y128397D01*
X183880Y128499D01*
X183872Y128601D01*
X183860Y128629D01*
X183855Y128660D01*
X183811Y128752D01*
X183773Y128848D01*
X183753Y128871D01*
X183740Y128899D01*
X183670Y128974D01*
X183605Y129054D01*
X183579Y129071D01*
X183558Y129093D01*
X183469Y129144D01*
X183384Y129201D01*
X183360Y129207D01*
X183328Y129225D01*
X183068Y129283D01*
X183030Y129280D01*
X183007Y129285D01*
X181819Y129285D01*
X179858Y130097D01*
X178357Y131598D01*
X177545Y133559D01*
X177545Y135681D01*
X178357Y137642D01*
X179858Y139143D01*
X181819Y139955D01*
X183941Y139955D01*
X185902Y139143D01*
X187403Y137642D01*
X188215Y135681D01*
X188215Y134493D01*
X188230Y134391D01*
X188238Y134289D01*
X188250Y134261D01*
X188255Y134230D01*
X188299Y134138D01*
X188337Y134042D01*
X188357Y134019D01*
X188370Y133991D01*
X188440Y133916D01*
X188505Y133836D01*
X188531Y133819D01*
X188552Y133797D01*
X188641Y133746D01*
X188726Y133689D01*
X188750Y133683D01*
X188782Y133665D01*
X189042Y133607D01*
X189080Y133610D01*
X189103Y133605D01*
X190291Y133605D01*
X192252Y132793D01*
X193753Y131292D01*
X194565Y129331D01*
X194565Y127209D01*
X193753Y125248D01*
X192252Y123747D01*
X190291Y122935D01*
X188169Y122935D01*
G37*
%LPD*%
%LPC*%
G36*
X39579Y345185D02*
X39579Y345185D01*
X37618Y345997D01*
X36117Y347498D01*
X35305Y349459D01*
X35305Y351581D01*
X36117Y353542D01*
X37618Y355043D01*
X39579Y355855D01*
X41701Y355855D01*
X43662Y355043D01*
X43822Y354883D01*
X43905Y354822D01*
X43983Y354755D01*
X44011Y354743D01*
X44036Y354725D01*
X44133Y354691D01*
X44227Y354651D01*
X44258Y354648D01*
X44287Y354637D01*
X44390Y354634D01*
X44492Y354623D01*
X44522Y354629D01*
X44553Y354628D01*
X44652Y354655D01*
X44752Y354675D01*
X44772Y354688D01*
X44809Y354698D01*
X45033Y354841D01*
X45058Y354870D01*
X45078Y354883D01*
X45238Y355043D01*
X47199Y355855D01*
X49321Y355855D01*
X51282Y355043D01*
X52783Y353542D01*
X53595Y351581D01*
X53595Y349459D01*
X52783Y347498D01*
X51282Y345997D01*
X49321Y345185D01*
X47199Y345185D01*
X45238Y345997D01*
X45078Y346157D01*
X44996Y346218D01*
X44917Y346285D01*
X44889Y346297D01*
X44864Y346315D01*
X44767Y346349D01*
X44673Y346389D01*
X44642Y346392D01*
X44613Y346403D01*
X44511Y346406D01*
X44408Y346417D01*
X44378Y346411D01*
X44347Y346412D01*
X44248Y346385D01*
X44148Y346365D01*
X44128Y346352D01*
X44091Y346342D01*
X43867Y346199D01*
X43842Y346170D01*
X43822Y346157D01*
X43662Y345997D01*
X41701Y345185D01*
X39579Y345185D01*
G37*
%LPD*%
%LPC*%
G36*
X92919Y390905D02*
X92919Y390905D01*
X90958Y391717D01*
X89457Y393218D01*
X88628Y395220D01*
X88622Y395301D01*
X88610Y395329D01*
X88605Y395360D01*
X88561Y395452D01*
X88523Y395548D01*
X88503Y395571D01*
X88490Y395599D01*
X88420Y395674D01*
X88355Y395754D01*
X88329Y395771D01*
X88308Y395793D01*
X88219Y395844D01*
X88134Y395901D01*
X88110Y395907D01*
X88078Y395925D01*
X87874Y395971D01*
X85878Y396797D01*
X84377Y398298D01*
X83565Y400259D01*
X83565Y402381D01*
X84377Y404342D01*
X85878Y405843D01*
X87839Y406655D01*
X89961Y406655D01*
X91922Y405843D01*
X93423Y404342D01*
X94252Y402340D01*
X94258Y402259D01*
X94270Y402231D01*
X94275Y402200D01*
X94319Y402108D01*
X94357Y402012D01*
X94377Y401989D01*
X94390Y401961D01*
X94460Y401886D01*
X94525Y401806D01*
X94551Y401789D01*
X94572Y401767D01*
X94661Y401716D01*
X94746Y401659D01*
X94770Y401653D01*
X94802Y401635D01*
X95006Y401589D01*
X97002Y400763D01*
X98503Y399262D01*
X99315Y397301D01*
X99315Y395179D01*
X98503Y393218D01*
X97002Y391717D01*
X95041Y390905D01*
X92919Y390905D01*
G37*
%LPD*%
%LPC*%
G36*
X109429Y161035D02*
X109429Y161035D01*
X107468Y161847D01*
X105967Y163348D01*
X105155Y165309D01*
X105155Y167431D01*
X105967Y169392D01*
X107468Y170893D01*
X109470Y171722D01*
X109551Y171728D01*
X109579Y171740D01*
X109610Y171745D01*
X109702Y171789D01*
X109798Y171827D01*
X109821Y171847D01*
X109849Y171860D01*
X109924Y171930D01*
X110004Y171995D01*
X110021Y172021D01*
X110043Y172042D01*
X110094Y172131D01*
X110151Y172216D01*
X110157Y172240D01*
X110175Y172272D01*
X110221Y172476D01*
X111047Y174472D01*
X112548Y175973D01*
X114509Y176785D01*
X116631Y176785D01*
X118592Y175973D01*
X120093Y174472D01*
X120905Y172511D01*
X120905Y170389D01*
X120093Y168428D01*
X118592Y166927D01*
X116590Y166098D01*
X116509Y166092D01*
X116481Y166080D01*
X116450Y166075D01*
X116358Y166031D01*
X116262Y165993D01*
X116239Y165973D01*
X116211Y165960D01*
X116136Y165890D01*
X116056Y165825D01*
X116039Y165799D01*
X116017Y165778D01*
X115966Y165689D01*
X115909Y165604D01*
X115903Y165580D01*
X115885Y165548D01*
X115839Y165344D01*
X115013Y163348D01*
X113512Y161847D01*
X111551Y161035D01*
X109429Y161035D01*
G37*
%LPD*%
%LPC*%
G36*
X114509Y116585D02*
X114509Y116585D01*
X112548Y117397D01*
X111047Y118898D01*
X110419Y120416D01*
X110387Y120469D01*
X110364Y120527D01*
X110318Y120582D01*
X110281Y120644D01*
X110235Y120685D01*
X110196Y120733D01*
X110136Y120773D01*
X110083Y120820D01*
X110027Y120846D01*
X109975Y120880D01*
X109928Y120891D01*
X109841Y120930D01*
X109629Y120957D01*
X109598Y120964D01*
X109429Y120964D01*
X107468Y121776D01*
X105967Y123277D01*
X105155Y125238D01*
X105155Y127360D01*
X105967Y129321D01*
X107468Y130822D01*
X109429Y131634D01*
X111551Y131634D01*
X113512Y130822D01*
X115013Y129321D01*
X115641Y127803D01*
X115673Y127750D01*
X115696Y127692D01*
X115742Y127637D01*
X115779Y127575D01*
X115825Y127534D01*
X115864Y127486D01*
X115924Y127446D01*
X115977Y127399D01*
X116033Y127373D01*
X116085Y127339D01*
X116132Y127328D01*
X116219Y127289D01*
X116431Y127262D01*
X116462Y127255D01*
X116631Y127255D01*
X118592Y126443D01*
X120093Y124942D01*
X120905Y122981D01*
X120905Y120859D01*
X120093Y118898D01*
X118592Y117397D01*
X116631Y116585D01*
X114509Y116585D01*
G37*
%LPD*%
%LPC*%
G36*
X137369Y83565D02*
X137369Y83565D01*
X135408Y84377D01*
X134840Y84945D01*
X134790Y84982D01*
X134747Y85027D01*
X134684Y85061D01*
X134626Y85103D01*
X134568Y85124D01*
X134513Y85153D01*
X134443Y85167D01*
X134375Y85191D01*
X134313Y85193D01*
X134252Y85205D01*
X134205Y85196D01*
X134109Y85200D01*
X133903Y85143D01*
X133872Y85138D01*
X133141Y84835D01*
X131019Y84835D01*
X129058Y85647D01*
X127557Y87148D01*
X126745Y89109D01*
X126745Y91231D01*
X127557Y93192D01*
X129058Y94693D01*
X131019Y95505D01*
X133141Y95505D01*
X135102Y94693D01*
X135670Y94125D01*
X135720Y94088D01*
X135763Y94043D01*
X135826Y94009D01*
X135884Y93967D01*
X135942Y93946D01*
X135997Y93917D01*
X136067Y93903D01*
X136135Y93879D01*
X136197Y93877D01*
X136258Y93865D01*
X136305Y93874D01*
X136401Y93870D01*
X136607Y93927D01*
X136638Y93932D01*
X137369Y94235D01*
X139491Y94235D01*
X141452Y93423D01*
X142953Y91922D01*
X143765Y89961D01*
X143765Y87839D01*
X142953Y85878D01*
X141452Y84377D01*
X139491Y83565D01*
X137369Y83565D01*
G37*
%LPD*%
%LPC*%
G36*
X84147Y42751D02*
X84147Y42751D01*
X81832Y43710D01*
X80060Y45482D01*
X79101Y47797D01*
X79101Y50303D01*
X80060Y52618D01*
X81832Y54390D01*
X84147Y55349D01*
X86653Y55349D01*
X88968Y54390D01*
X90740Y52618D01*
X91699Y50303D01*
X91699Y47797D01*
X90740Y45482D01*
X88968Y43710D01*
X86653Y42751D01*
X84147Y42751D01*
G37*
%LPD*%
%LPC*%
G36*
X141947Y42751D02*
X141947Y42751D01*
X139632Y43710D01*
X137860Y45482D01*
X136901Y47797D01*
X136901Y50303D01*
X137860Y52618D01*
X139632Y54390D01*
X141947Y55349D01*
X144453Y55349D01*
X146768Y54390D01*
X148540Y52618D01*
X149499Y50303D01*
X149499Y47797D01*
X148540Y45482D01*
X146768Y43710D01*
X144453Y42751D01*
X141947Y42751D01*
G37*
%LPD*%
%LPC*%
G36*
X58547Y293369D02*
X58547Y293369D01*
X58663Y293953D01*
X59142Y295108D01*
X59837Y296148D01*
X60368Y296679D01*
X60398Y296720D01*
X60436Y296756D01*
X60477Y296827D01*
X60525Y296893D01*
X60542Y296942D01*
X60568Y296986D01*
X60586Y297066D01*
X60613Y297144D01*
X60615Y297196D01*
X60626Y297246D01*
X60619Y297328D01*
X60622Y297410D01*
X60608Y297459D01*
X60604Y297511D01*
X60574Y297587D01*
X60552Y297666D01*
X60524Y297710D01*
X60505Y297758D01*
X60453Y297821D01*
X60409Y297890D01*
X60370Y297924D01*
X60338Y297964D01*
X60269Y298009D01*
X60207Y298062D01*
X60159Y298083D01*
X60116Y298111D01*
X60066Y298123D01*
X59962Y298167D01*
X59784Y298185D01*
X59740Y298195D01*
X57613Y298195D01*
X55652Y299007D01*
X54151Y300508D01*
X53339Y302469D01*
X53339Y304591D01*
X54151Y306552D01*
X55652Y308053D01*
X57613Y308865D01*
X59735Y308865D01*
X61696Y308053D01*
X63197Y306552D01*
X64009Y304591D01*
X64009Y302469D01*
X63197Y300508D01*
X62464Y299775D01*
X62460Y299771D01*
X62456Y299768D01*
X62381Y299663D01*
X62306Y299561D01*
X62304Y299556D01*
X62301Y299552D01*
X62260Y299431D01*
X62218Y299310D01*
X62218Y299305D01*
X62217Y299300D01*
X62214Y299173D01*
X62209Y299044D01*
X62211Y299039D01*
X62211Y299034D01*
X62246Y298910D01*
X62279Y298788D01*
X62282Y298783D01*
X62283Y298778D01*
X62353Y298671D01*
X62422Y298564D01*
X62426Y298560D01*
X62429Y298556D01*
X62527Y298474D01*
X62624Y298392D01*
X62629Y298389D01*
X62633Y298386D01*
X62751Y298337D01*
X62869Y298287D01*
X62874Y298287D01*
X62879Y298285D01*
X62898Y298284D01*
X63133Y298260D01*
X63219Y298277D01*
X63265Y298276D01*
X63501Y298323D01*
X63501Y293369D01*
X58547Y293369D01*
G37*
%LPD*%
%LPC*%
G36*
X150069Y413765D02*
X150069Y413765D01*
X148108Y414577D01*
X146607Y416078D01*
X145795Y418039D01*
X145795Y420161D01*
X146607Y422122D01*
X148108Y423623D01*
X150069Y424435D01*
X152191Y424435D01*
X154152Y423623D01*
X155653Y422122D01*
X156465Y420161D01*
X156465Y418039D01*
X155653Y416078D01*
X154152Y414577D01*
X152191Y413765D01*
X150069Y413765D01*
G37*
%LPD*%
%LPC*%
G36*
X119589Y408685D02*
X119589Y408685D01*
X117628Y409497D01*
X116127Y410998D01*
X115315Y412959D01*
X115315Y415081D01*
X116127Y417042D01*
X117628Y418543D01*
X119589Y419355D01*
X121711Y419355D01*
X123672Y418543D01*
X125173Y417042D01*
X125985Y415081D01*
X125985Y412959D01*
X125173Y410998D01*
X123672Y409497D01*
X121711Y408685D01*
X119589Y408685D01*
G37*
%LPD*%
%LPC*%
G36*
X165690Y407415D02*
X165690Y407415D01*
X163729Y408227D01*
X162228Y409728D01*
X161416Y411689D01*
X161416Y413811D01*
X162228Y415772D01*
X163729Y417273D01*
X165690Y418085D01*
X167812Y418085D01*
X169773Y417273D01*
X171274Y415772D01*
X172086Y413811D01*
X172086Y411689D01*
X171274Y409728D01*
X169773Y408227D01*
X167812Y407415D01*
X165690Y407415D01*
G37*
%LPD*%
%LPC*%
G36*
X97999Y407415D02*
X97999Y407415D01*
X96038Y408227D01*
X94537Y409728D01*
X93725Y411689D01*
X93725Y413811D01*
X94537Y415772D01*
X96038Y417273D01*
X97999Y418085D01*
X100121Y418085D01*
X102082Y417273D01*
X103583Y415772D01*
X104395Y413811D01*
X104395Y411689D01*
X103583Y409728D01*
X102082Y408227D01*
X100121Y407415D01*
X97999Y407415D01*
G37*
%LPD*%
%LPC*%
G36*
X133559Y403605D02*
X133559Y403605D01*
X131598Y404417D01*
X130097Y405918D01*
X129285Y407879D01*
X129285Y410001D01*
X130097Y411962D01*
X131598Y413463D01*
X133559Y414275D01*
X135681Y414275D01*
X137642Y413463D01*
X139143Y411962D01*
X139955Y410001D01*
X139955Y407879D01*
X139143Y405918D01*
X137642Y404417D01*
X135681Y403605D01*
X133559Y403605D01*
G37*
%LPD*%
%LPC*%
G36*
X33610Y397255D02*
X33610Y397255D01*
X31649Y398067D01*
X30148Y399568D01*
X29336Y401529D01*
X29336Y403651D01*
X30148Y405612D01*
X31649Y407113D01*
X33610Y407925D01*
X35732Y407925D01*
X37693Y407113D01*
X39194Y405612D01*
X40006Y403651D01*
X40006Y401529D01*
X39194Y399568D01*
X37693Y398067D01*
X35732Y397255D01*
X33610Y397255D01*
G37*
%LPD*%
%LPC*%
G36*
X164039Y378205D02*
X164039Y378205D01*
X162078Y379017D01*
X160577Y380518D01*
X159765Y382479D01*
X159765Y384601D01*
X160577Y386562D01*
X162078Y388063D01*
X164039Y388875D01*
X166161Y388875D01*
X168122Y388063D01*
X169623Y386562D01*
X170435Y384601D01*
X170435Y382479D01*
X169623Y380518D01*
X168122Y379017D01*
X166161Y378205D01*
X164039Y378205D01*
G37*
%LPD*%
%LPC*%
G36*
X78949Y378205D02*
X78949Y378205D01*
X76988Y379017D01*
X75487Y380518D01*
X74675Y382479D01*
X74675Y384601D01*
X75487Y386562D01*
X76988Y388063D01*
X78949Y388875D01*
X81071Y388875D01*
X83032Y388063D01*
X84533Y386562D01*
X85345Y384601D01*
X85345Y382479D01*
X84533Y380518D01*
X83032Y379017D01*
X81071Y378205D01*
X78949Y378205D01*
G37*
%LPD*%
%LPC*%
G36*
X53549Y369315D02*
X53549Y369315D01*
X51588Y370127D01*
X50087Y371628D01*
X49275Y373589D01*
X49275Y375711D01*
X50087Y377672D01*
X51588Y379173D01*
X53549Y379985D01*
X55671Y379985D01*
X57632Y379173D01*
X59133Y377672D01*
X59945Y375711D01*
X59945Y373589D01*
X59133Y371628D01*
X57632Y370127D01*
X55671Y369315D01*
X53549Y369315D01*
G37*
%LPD*%
%LPC*%
G36*
X75139Y346263D02*
X75139Y346263D01*
X73178Y347075D01*
X71677Y348576D01*
X70865Y350537D01*
X70865Y352659D01*
X71677Y354620D01*
X73178Y356121D01*
X75139Y356933D01*
X77261Y356933D01*
X79222Y356121D01*
X80723Y354620D01*
X81535Y352659D01*
X81535Y350537D01*
X80723Y348576D01*
X79222Y347075D01*
X77261Y346263D01*
X75139Y346263D01*
G37*
%LPD*%
%LPC*%
G36*
X105619Y342645D02*
X105619Y342645D01*
X103658Y343457D01*
X102157Y344958D01*
X101345Y346919D01*
X101345Y349041D01*
X102157Y351002D01*
X103658Y352503D01*
X105619Y353315D01*
X107741Y353315D01*
X109702Y352503D01*
X111203Y351002D01*
X112015Y349041D01*
X112015Y346919D01*
X111203Y344958D01*
X109702Y343457D01*
X107741Y342645D01*
X105619Y342645D01*
G37*
%LPD*%
%LPC*%
G36*
X167849Y337565D02*
X167849Y337565D01*
X165888Y338377D01*
X164387Y339878D01*
X163575Y341839D01*
X163575Y343961D01*
X164387Y345922D01*
X165888Y347423D01*
X167849Y348235D01*
X169971Y348235D01*
X171932Y347423D01*
X173433Y345922D01*
X174245Y343961D01*
X174245Y341839D01*
X173433Y339878D01*
X171932Y338377D01*
X169971Y337565D01*
X167849Y337565D01*
G37*
%LPD*%
%LPC*%
G36*
X125939Y337565D02*
X125939Y337565D01*
X123978Y338377D01*
X122477Y339878D01*
X121665Y341839D01*
X121665Y343961D01*
X122477Y345922D01*
X123978Y347423D01*
X125939Y348235D01*
X128061Y348235D01*
X130022Y347423D01*
X131523Y345922D01*
X132335Y343961D01*
X132335Y341839D01*
X131523Y339878D01*
X130022Y338377D01*
X128061Y337565D01*
X125939Y337565D01*
G37*
%LPD*%
%LPC*%
G36*
X148620Y336295D02*
X148620Y336295D01*
X146659Y337107D01*
X145158Y338608D01*
X144346Y340569D01*
X144346Y342691D01*
X145158Y344652D01*
X146659Y346153D01*
X148620Y346965D01*
X150742Y346965D01*
X152703Y346153D01*
X154204Y344652D01*
X155016Y342691D01*
X155016Y340569D01*
X154204Y338608D01*
X152703Y337107D01*
X150742Y336295D01*
X148620Y336295D01*
G37*
%LPD*%
%LPC*%
G36*
X52279Y332485D02*
X52279Y332485D01*
X50318Y333297D01*
X48817Y334798D01*
X48005Y336759D01*
X48005Y338881D01*
X48817Y340842D01*
X50318Y342343D01*
X52279Y343155D01*
X54401Y343155D01*
X56362Y342343D01*
X57863Y340842D01*
X58675Y338881D01*
X58675Y336759D01*
X57863Y334798D01*
X56362Y333297D01*
X54401Y332485D01*
X52279Y332485D01*
G37*
%LPD*%
%LPC*%
G36*
X87839Y324865D02*
X87839Y324865D01*
X85878Y325677D01*
X84377Y327178D01*
X83565Y329139D01*
X83565Y331261D01*
X84377Y333222D01*
X85878Y334723D01*
X87839Y335535D01*
X89961Y335535D01*
X91922Y334723D01*
X93423Y333222D01*
X94235Y331261D01*
X94235Y329139D01*
X93423Y327178D01*
X91922Y325677D01*
X89961Y324865D01*
X87839Y324865D01*
G37*
%LPD*%
%LPC*%
G36*
X176739Y312165D02*
X176739Y312165D01*
X174778Y312977D01*
X173277Y314478D01*
X172465Y316439D01*
X172465Y318561D01*
X173277Y320522D01*
X174778Y322023D01*
X176739Y322835D01*
X178861Y322835D01*
X180822Y322023D01*
X182323Y320522D01*
X183135Y318561D01*
X183135Y316439D01*
X182323Y314478D01*
X180822Y312977D01*
X178861Y312165D01*
X176739Y312165D01*
G37*
%LPD*%
%LPC*%
G36*
X125939Y312165D02*
X125939Y312165D01*
X123978Y312977D01*
X122477Y314478D01*
X121665Y316439D01*
X121665Y318561D01*
X122477Y320522D01*
X123978Y322023D01*
X125939Y322835D01*
X128061Y322835D01*
X130022Y322023D01*
X131523Y320522D01*
X132335Y318561D01*
X132335Y316439D01*
X131523Y314478D01*
X130022Y312977D01*
X128061Y312165D01*
X125939Y312165D01*
G37*
%LPD*%
%LPC*%
G36*
X100539Y312165D02*
X100539Y312165D01*
X98578Y312977D01*
X97077Y314478D01*
X96265Y316439D01*
X96265Y318561D01*
X97077Y320522D01*
X98578Y322023D01*
X100539Y322835D01*
X102661Y322835D01*
X104622Y322023D01*
X106123Y320522D01*
X106935Y318561D01*
X106935Y316439D01*
X106123Y314478D01*
X104622Y312977D01*
X102661Y312165D01*
X100539Y312165D01*
G37*
%LPD*%
%LPC*%
G36*
X164039Y299465D02*
X164039Y299465D01*
X162078Y300277D01*
X160577Y301778D01*
X159765Y303739D01*
X159765Y305861D01*
X160577Y307822D01*
X162078Y309323D01*
X164039Y310135D01*
X166161Y310135D01*
X168122Y309323D01*
X169623Y307822D01*
X170435Y305861D01*
X170435Y303739D01*
X169623Y301778D01*
X168122Y300277D01*
X166161Y299465D01*
X164039Y299465D01*
G37*
%LPD*%
%LPC*%
G36*
X104349Y289305D02*
X104349Y289305D01*
X102388Y290117D01*
X100887Y291618D01*
X100075Y293579D01*
X100075Y295701D01*
X100887Y297662D01*
X102388Y299163D01*
X104349Y299975D01*
X106471Y299975D01*
X108432Y299163D01*
X109933Y297662D01*
X110745Y295701D01*
X110745Y293579D01*
X109933Y291618D01*
X108432Y290117D01*
X106471Y289305D01*
X104349Y289305D01*
G37*
%LPD*%
%LPC*%
G36*
X164039Y553465D02*
X164039Y553465D01*
X162078Y554277D01*
X160577Y555778D01*
X159765Y557739D01*
X159765Y559861D01*
X160577Y561822D01*
X162078Y563323D01*
X164039Y564135D01*
X166161Y564135D01*
X168122Y563323D01*
X169623Y561822D01*
X170435Y559861D01*
X170435Y557739D01*
X169623Y555778D01*
X168122Y554277D01*
X166161Y553465D01*
X164039Y553465D01*
G37*
%LPD*%
%LPC*%
G36*
X176739Y286765D02*
X176739Y286765D01*
X174778Y287577D01*
X173277Y289078D01*
X172465Y291039D01*
X172465Y293161D01*
X173277Y295122D01*
X174778Y296623D01*
X176739Y297435D01*
X178861Y297435D01*
X180822Y296623D01*
X182323Y295122D01*
X183135Y293161D01*
X183135Y291039D01*
X182323Y289078D01*
X180822Y287577D01*
X178861Y286765D01*
X176739Y286765D01*
G37*
%LPD*%
%LPC*%
G36*
X11639Y553465D02*
X11639Y553465D01*
X9678Y554277D01*
X8177Y555778D01*
X7365Y557739D01*
X7365Y559861D01*
X8177Y561822D01*
X9678Y563323D01*
X11639Y564135D01*
X13761Y564135D01*
X15722Y563323D01*
X17223Y561822D01*
X18035Y559861D01*
X18035Y557739D01*
X17223Y555778D01*
X15722Y554277D01*
X13761Y553465D01*
X11639Y553465D01*
G37*
%LPD*%
%LPC*%
G36*
X143719Y267715D02*
X143719Y267715D01*
X141758Y268527D01*
X140257Y270028D01*
X139445Y271989D01*
X139445Y274111D01*
X140257Y276072D01*
X141758Y277573D01*
X143719Y278385D01*
X145841Y278385D01*
X147802Y277573D01*
X149303Y276072D01*
X150115Y274111D01*
X150115Y271989D01*
X149303Y270028D01*
X147802Y268527D01*
X145841Y267715D01*
X143719Y267715D01*
G37*
%LPD*%
%LPC*%
G36*
X142449Y249935D02*
X142449Y249935D01*
X140488Y250747D01*
X138987Y252248D01*
X138175Y254209D01*
X138175Y256331D01*
X138987Y258292D01*
X140488Y259793D01*
X142449Y260605D01*
X144571Y260605D01*
X146532Y259793D01*
X148033Y258292D01*
X148845Y256331D01*
X148845Y254209D01*
X148033Y252248D01*
X146532Y250747D01*
X144571Y249935D01*
X142449Y249935D01*
G37*
%LPD*%
%LPC*%
G36*
X176739Y540765D02*
X176739Y540765D01*
X174778Y541577D01*
X173277Y543078D01*
X172465Y545039D01*
X172465Y547161D01*
X173277Y549122D01*
X174778Y550623D01*
X176739Y551435D01*
X178861Y551435D01*
X180822Y550623D01*
X182323Y549122D01*
X183135Y547161D01*
X183135Y545039D01*
X182323Y543078D01*
X180822Y541577D01*
X178861Y540765D01*
X176739Y540765D01*
G37*
%LPD*%
%LPC*%
G36*
X164039Y528065D02*
X164039Y528065D01*
X162078Y528877D01*
X160577Y530378D01*
X159765Y532339D01*
X159765Y534461D01*
X160577Y536422D01*
X162078Y537923D01*
X164039Y538735D01*
X166161Y538735D01*
X168122Y537923D01*
X169623Y536422D01*
X170435Y534461D01*
X170435Y532339D01*
X169623Y530378D01*
X168122Y528877D01*
X166161Y528065D01*
X164039Y528065D01*
G37*
%LPD*%
%LPC*%
G36*
X172929Y234695D02*
X172929Y234695D01*
X170968Y235507D01*
X169467Y237008D01*
X168655Y238969D01*
X168655Y241091D01*
X169467Y243052D01*
X170968Y244553D01*
X172929Y245365D01*
X175051Y245365D01*
X177012Y244553D01*
X178513Y243052D01*
X179325Y241091D01*
X179325Y238969D01*
X178513Y237008D01*
X177012Y235507D01*
X175051Y234695D01*
X172929Y234695D01*
G37*
%LPD*%
%LPC*%
G36*
X179533Y217456D02*
X179533Y217456D01*
X177572Y218268D01*
X176071Y219769D01*
X175259Y221730D01*
X175259Y223852D01*
X176071Y225813D01*
X177572Y227314D01*
X179533Y228126D01*
X181655Y228126D01*
X183616Y227314D01*
X185117Y225813D01*
X185929Y223852D01*
X185929Y221730D01*
X185117Y219769D01*
X183616Y218268D01*
X181655Y217456D01*
X179533Y217456D01*
G37*
%LPD*%
%LPC*%
G36*
X189439Y502665D02*
X189439Y502665D01*
X187478Y503477D01*
X185977Y504978D01*
X185165Y506939D01*
X185165Y509061D01*
X185977Y511022D01*
X187478Y512523D01*
X189439Y513335D01*
X191561Y513335D01*
X193522Y512523D01*
X195023Y511022D01*
X195835Y509061D01*
X195835Y506939D01*
X195023Y504978D01*
X193522Y503477D01*
X191561Y502665D01*
X189439Y502665D01*
G37*
%LPD*%
%LPC*%
G36*
X11639Y196595D02*
X11639Y196595D01*
X9678Y197407D01*
X8177Y198908D01*
X7365Y200869D01*
X7365Y202991D01*
X8177Y204952D01*
X9678Y206453D01*
X11639Y207265D01*
X13761Y207265D01*
X15722Y206453D01*
X17223Y204952D01*
X18035Y202991D01*
X18035Y200869D01*
X17223Y198908D01*
X15722Y197407D01*
X13761Y196595D01*
X11639Y196595D01*
G37*
%LPD*%
%LPC*%
G36*
X24339Y185165D02*
X24339Y185165D01*
X22378Y185977D01*
X20877Y187478D01*
X20065Y189439D01*
X20065Y191561D01*
X20877Y193522D01*
X22378Y195023D01*
X24339Y195835D01*
X26461Y195835D01*
X28422Y195023D01*
X29923Y193522D01*
X30735Y191561D01*
X30735Y189439D01*
X29923Y187478D01*
X28422Y185977D01*
X26461Y185165D01*
X24339Y185165D01*
G37*
%LPD*%
%LPC*%
G36*
X100539Y489965D02*
X100539Y489965D01*
X98578Y490777D01*
X97077Y492278D01*
X96265Y494239D01*
X96265Y496361D01*
X97077Y498322D01*
X98578Y499823D01*
X100539Y500635D01*
X102661Y500635D01*
X104622Y499823D01*
X106123Y498322D01*
X106935Y496361D01*
X106935Y494239D01*
X106123Y492278D01*
X104622Y490777D01*
X102661Y489965D01*
X100539Y489965D01*
G37*
%LPD*%
%LPC*%
G36*
X11639Y172465D02*
X11639Y172465D01*
X9678Y173277D01*
X8177Y174778D01*
X7365Y176739D01*
X7365Y178861D01*
X8177Y180822D01*
X9678Y182323D01*
X11639Y183135D01*
X13761Y183135D01*
X15722Y182323D01*
X17223Y180822D01*
X18035Y178861D01*
X18035Y176739D01*
X17223Y174778D01*
X15722Y173277D01*
X13761Y172465D01*
X11639Y172465D01*
G37*
%LPD*%
%LPC*%
G36*
X75139Y489965D02*
X75139Y489965D01*
X73178Y490777D01*
X71677Y492278D01*
X70865Y494239D01*
X70865Y496361D01*
X71677Y498322D01*
X73178Y499823D01*
X75139Y500635D01*
X77261Y500635D01*
X79222Y499823D01*
X80723Y498322D01*
X81535Y496361D01*
X81535Y494239D01*
X80723Y492278D01*
X79222Y490777D01*
X77261Y489965D01*
X75139Y489965D01*
G37*
%LPD*%
%LPC*%
G36*
X24339Y159765D02*
X24339Y159765D01*
X22378Y160577D01*
X20877Y162078D01*
X20065Y164039D01*
X20065Y166161D01*
X20877Y168122D01*
X22378Y169623D01*
X24339Y170435D01*
X26461Y170435D01*
X28422Y169623D01*
X29923Y168122D01*
X30735Y166161D01*
X30735Y164039D01*
X29923Y162078D01*
X28422Y160577D01*
X26461Y159765D01*
X24339Y159765D01*
G37*
%LPD*%
%LPC*%
G36*
X77679Y149605D02*
X77679Y149605D01*
X75718Y150417D01*
X74217Y151918D01*
X73405Y153879D01*
X73405Y156001D01*
X74217Y157962D01*
X75718Y159463D01*
X77679Y160275D01*
X79801Y160275D01*
X81762Y159463D01*
X83263Y157962D01*
X84075Y156001D01*
X84075Y153879D01*
X83263Y151918D01*
X81762Y150417D01*
X79801Y149605D01*
X77679Y149605D01*
G37*
%LPD*%
%LPC*%
G36*
X125939Y134365D02*
X125939Y134365D01*
X123978Y135177D01*
X122477Y136678D01*
X121665Y138639D01*
X121665Y140761D01*
X122477Y142722D01*
X123978Y144223D01*
X125939Y145035D01*
X128061Y145035D01*
X130022Y144223D01*
X131523Y142722D01*
X132335Y140761D01*
X132335Y138639D01*
X131523Y136678D01*
X130022Y135177D01*
X128061Y134365D01*
X125939Y134365D01*
G37*
%LPD*%
%LPC*%
G36*
X100539Y134365D02*
X100539Y134365D01*
X98578Y135177D01*
X97077Y136678D01*
X96265Y138639D01*
X96265Y140761D01*
X97077Y142722D01*
X98578Y144223D01*
X100539Y145035D01*
X102661Y145035D01*
X104622Y144223D01*
X106123Y142722D01*
X106935Y140761D01*
X106935Y138639D01*
X106123Y136678D01*
X104622Y135177D01*
X102661Y134365D01*
X100539Y134365D01*
G37*
%LPD*%
%LPC*%
G36*
X75139Y134365D02*
X75139Y134365D01*
X73178Y135177D01*
X71677Y136678D01*
X70865Y138639D01*
X70865Y140761D01*
X71677Y142722D01*
X73178Y144223D01*
X75139Y145035D01*
X77261Y145035D01*
X79222Y144223D01*
X80723Y142722D01*
X81535Y140761D01*
X81535Y138639D01*
X80723Y136678D01*
X79222Y135177D01*
X77261Y134365D01*
X75139Y134365D01*
G37*
%LPD*%
%LPC*%
G36*
X151339Y489965D02*
X151339Y489965D01*
X149378Y490777D01*
X147877Y492278D01*
X147065Y494239D01*
X147065Y496361D01*
X147877Y498322D01*
X149378Y499823D01*
X151339Y500635D01*
X153461Y500635D01*
X155422Y499823D01*
X156923Y498322D01*
X157735Y496361D01*
X157735Y494239D01*
X156923Y492278D01*
X155422Y490777D01*
X153461Y489965D01*
X151339Y489965D01*
G37*
%LPD*%
%LPC*%
G36*
X37039Y121665D02*
X37039Y121665D01*
X35078Y122477D01*
X33577Y123978D01*
X32765Y125939D01*
X32765Y128061D01*
X33577Y130022D01*
X35078Y131523D01*
X37039Y132335D01*
X39161Y132335D01*
X41122Y131523D01*
X42623Y130022D01*
X43435Y128061D01*
X43435Y125939D01*
X42623Y123978D01*
X41122Y122477D01*
X39161Y121665D01*
X37039Y121665D01*
G37*
%LPD*%
%LPC*%
G36*
X125939Y489965D02*
X125939Y489965D01*
X123978Y490777D01*
X122477Y492278D01*
X121665Y494239D01*
X121665Y496361D01*
X122477Y498322D01*
X123978Y499823D01*
X125939Y500635D01*
X128061Y500635D01*
X130022Y499823D01*
X131523Y498322D01*
X132335Y496361D01*
X132335Y494239D01*
X131523Y492278D01*
X130022Y490777D01*
X128061Y489965D01*
X125939Y489965D01*
G37*
%LPD*%
%LPC*%
G36*
X189439Y108965D02*
X189439Y108965D01*
X187478Y109777D01*
X185977Y111278D01*
X185165Y113239D01*
X185165Y115361D01*
X185977Y117322D01*
X187478Y118823D01*
X189439Y119635D01*
X191561Y119635D01*
X193522Y118823D01*
X195023Y117322D01*
X195835Y115361D01*
X195835Y113239D01*
X195023Y111278D01*
X193522Y109777D01*
X191561Y108965D01*
X189439Y108965D01*
G37*
%LPD*%
%LPC*%
G36*
X75139Y108965D02*
X75139Y108965D01*
X73178Y109777D01*
X71677Y111278D01*
X70865Y113239D01*
X70865Y115361D01*
X71677Y117322D01*
X73178Y118823D01*
X75139Y119635D01*
X77261Y119635D01*
X79222Y118823D01*
X80723Y117322D01*
X81535Y115361D01*
X81535Y113239D01*
X80723Y111278D01*
X79222Y109777D01*
X77261Y108965D01*
X75139Y108965D01*
G37*
%LPD*%
%LPC*%
G36*
X125939Y477265D02*
X125939Y477265D01*
X123978Y478077D01*
X122477Y479578D01*
X121665Y481539D01*
X121665Y483661D01*
X122477Y485622D01*
X123978Y487123D01*
X125939Y487935D01*
X128061Y487935D01*
X130022Y487123D01*
X131523Y485622D01*
X132335Y483661D01*
X132335Y481539D01*
X131523Y479578D01*
X130022Y478077D01*
X128061Y477265D01*
X125939Y477265D01*
G37*
%LPD*%
%LPC*%
G36*
X202139Y96265D02*
X202139Y96265D01*
X200178Y97077D01*
X198677Y98578D01*
X197865Y100539D01*
X197865Y102661D01*
X198677Y104622D01*
X200178Y106123D01*
X202139Y106935D01*
X204261Y106935D01*
X206222Y106123D01*
X207723Y104622D01*
X208535Y102661D01*
X208535Y100539D01*
X207723Y98578D01*
X206222Y97077D01*
X204261Y96265D01*
X202139Y96265D01*
G37*
%LPD*%
%LPC*%
G36*
X87839Y96265D02*
X87839Y96265D01*
X85878Y97077D01*
X84377Y98578D01*
X83565Y100539D01*
X83565Y102661D01*
X84377Y104622D01*
X85878Y106123D01*
X87839Y106935D01*
X89961Y106935D01*
X91922Y106123D01*
X93423Y104622D01*
X94235Y102661D01*
X94235Y100539D01*
X93423Y98578D01*
X91922Y97077D01*
X89961Y96265D01*
X87839Y96265D01*
G37*
%LPD*%
%LPC*%
G36*
X100539Y477265D02*
X100539Y477265D01*
X98578Y478077D01*
X97077Y479578D01*
X96265Y481539D01*
X96265Y483661D01*
X97077Y485622D01*
X98578Y487123D01*
X100539Y487935D01*
X102661Y487935D01*
X104622Y487123D01*
X106123Y485622D01*
X106935Y483661D01*
X106935Y481539D01*
X106123Y479578D01*
X104622Y478077D01*
X102661Y477265D01*
X100539Y477265D01*
G37*
%LPD*%
%LPC*%
G36*
X33229Y467486D02*
X33229Y467486D01*
X31268Y468298D01*
X29767Y469799D01*
X28955Y471760D01*
X28955Y473882D01*
X29767Y475843D01*
X31268Y477344D01*
X33229Y478156D01*
X35351Y478156D01*
X37312Y477344D01*
X38813Y475843D01*
X39625Y473882D01*
X39625Y471760D01*
X38813Y469799D01*
X37312Y468298D01*
X35351Y467486D01*
X33229Y467486D01*
G37*
%LPD*%
%LPC*%
G36*
X29419Y69595D02*
X29419Y69595D01*
X27458Y70407D01*
X25957Y71908D01*
X25145Y73869D01*
X25145Y75991D01*
X25957Y77952D01*
X27458Y79453D01*
X29419Y80265D01*
X31541Y80265D01*
X33502Y79453D01*
X35003Y77952D01*
X35815Y75991D01*
X35815Y73869D01*
X35003Y71908D01*
X33502Y70407D01*
X31541Y69595D01*
X29419Y69595D01*
G37*
%LPD*%
%LPC*%
G36*
X156419Y67055D02*
X156419Y67055D01*
X154458Y67867D01*
X152957Y69368D01*
X152145Y71329D01*
X152145Y73451D01*
X152957Y75412D01*
X154458Y76913D01*
X156419Y77725D01*
X158541Y77725D01*
X160502Y76913D01*
X162003Y75412D01*
X162815Y73451D01*
X162815Y71329D01*
X162003Y69368D01*
X160502Y67867D01*
X158541Y67055D01*
X156419Y67055D01*
G37*
%LPD*%
%LPC*%
G36*
X113239Y65785D02*
X113239Y65785D01*
X111278Y66597D01*
X109777Y68098D01*
X108965Y70059D01*
X108965Y72181D01*
X109777Y74142D01*
X111278Y75643D01*
X113239Y76455D01*
X115361Y76455D01*
X117322Y75643D01*
X118823Y74142D01*
X119635Y72181D01*
X119635Y70059D01*
X118823Y68098D01*
X117322Y66597D01*
X115361Y65785D01*
X113239Y65785D01*
G37*
%LPD*%
%LPC*%
G36*
X81489Y64515D02*
X81489Y64515D01*
X79528Y65327D01*
X78027Y66828D01*
X77215Y68789D01*
X77215Y70911D01*
X78027Y72872D01*
X79528Y74373D01*
X81489Y75185D01*
X83611Y75185D01*
X85572Y74373D01*
X87073Y72872D01*
X87885Y70911D01*
X87885Y68789D01*
X87073Y66828D01*
X85572Y65327D01*
X83611Y64515D01*
X81489Y64515D01*
G37*
%LPD*%
%LPC*%
G36*
X170389Y58165D02*
X170389Y58165D01*
X168428Y58977D01*
X166927Y60478D01*
X166115Y62439D01*
X166115Y64561D01*
X166927Y66522D01*
X168428Y68023D01*
X170389Y68835D01*
X172511Y68835D01*
X174472Y68023D01*
X175973Y66522D01*
X176785Y64561D01*
X176785Y62439D01*
X175973Y60478D01*
X174472Y58977D01*
X172511Y58165D01*
X170389Y58165D01*
G37*
%LPD*%
%LPC*%
G36*
X37039Y58165D02*
X37039Y58165D01*
X35078Y58977D01*
X33577Y60478D01*
X32765Y62439D01*
X32765Y64561D01*
X33577Y66522D01*
X35078Y68023D01*
X37039Y68835D01*
X39161Y68835D01*
X41122Y68023D01*
X42623Y66522D01*
X43435Y64561D01*
X43435Y62439D01*
X42623Y60478D01*
X41122Y58977D01*
X39161Y58165D01*
X37039Y58165D01*
G37*
%LPD*%
%LPC*%
G36*
X113239Y464565D02*
X113239Y464565D01*
X111278Y465377D01*
X109777Y466878D01*
X108965Y468839D01*
X108965Y470961D01*
X109777Y472922D01*
X111278Y474423D01*
X113239Y475235D01*
X115361Y475235D01*
X117322Y474423D01*
X118823Y472922D01*
X119635Y470961D01*
X119635Y468839D01*
X118823Y466878D01*
X117322Y465377D01*
X115361Y464565D01*
X113239Y464565D01*
G37*
%LPD*%
%LPC*%
G36*
X125939Y451865D02*
X125939Y451865D01*
X123978Y452677D01*
X122477Y454178D01*
X121665Y456139D01*
X121665Y458261D01*
X122477Y460222D01*
X123978Y461723D01*
X125939Y462535D01*
X128061Y462535D01*
X130022Y461723D01*
X131523Y460222D01*
X132335Y458261D01*
X132335Y456139D01*
X131523Y454178D01*
X130022Y452677D01*
X128061Y451865D01*
X125939Y451865D01*
G37*
%LPD*%
%LPC*%
G36*
X100539Y451865D02*
X100539Y451865D01*
X98578Y452677D01*
X97077Y454178D01*
X96265Y456139D01*
X96265Y458261D01*
X97077Y460222D01*
X98578Y461723D01*
X100539Y462535D01*
X102661Y462535D01*
X104622Y461723D01*
X106123Y460222D01*
X106935Y458261D01*
X106935Y456139D01*
X106123Y454178D01*
X104622Y452677D01*
X102661Y451865D01*
X100539Y451865D01*
G37*
%LPD*%
%LPC*%
G36*
X49739Y45465D02*
X49739Y45465D01*
X47778Y46277D01*
X46277Y47778D01*
X45465Y49739D01*
X45465Y51861D01*
X46277Y53822D01*
X47778Y55323D01*
X49739Y56135D01*
X51861Y56135D01*
X53822Y55323D01*
X55323Y53822D01*
X56135Y51861D01*
X56135Y49739D01*
X55323Y47778D01*
X53822Y46277D01*
X51861Y45465D01*
X49739Y45465D01*
G37*
%LPD*%
%LPC*%
G36*
X75139Y432815D02*
X75139Y432815D01*
X73178Y433627D01*
X71677Y435128D01*
X70865Y437089D01*
X70865Y439211D01*
X71677Y441172D01*
X73178Y442673D01*
X75139Y443485D01*
X77261Y443485D01*
X79222Y442673D01*
X80723Y441172D01*
X81535Y439211D01*
X81535Y437089D01*
X80723Y435128D01*
X79222Y433627D01*
X77261Y432815D01*
X75139Y432815D01*
G37*
%LPD*%
%LPC*%
G36*
X138639Y426465D02*
X138639Y426465D01*
X136678Y427277D01*
X135177Y428778D01*
X134365Y430739D01*
X134365Y432861D01*
X135177Y434822D01*
X136678Y436323D01*
X138639Y437135D01*
X140761Y437135D01*
X142722Y436323D01*
X144223Y434822D01*
X145035Y432861D01*
X145035Y430739D01*
X144223Y428778D01*
X142722Y427277D01*
X140761Y426465D01*
X138639Y426465D01*
G37*
%LPD*%
%LPC*%
G36*
X53549Y25145D02*
X53549Y25145D01*
X51588Y25957D01*
X50087Y27458D01*
X49275Y29419D01*
X49275Y31541D01*
X50087Y33502D01*
X51588Y35003D01*
X53549Y35815D01*
X55671Y35815D01*
X57632Y35003D01*
X59133Y33502D01*
X59945Y31541D01*
X59945Y29419D01*
X59133Y27458D01*
X57632Y25957D01*
X55671Y25145D01*
X53549Y25145D01*
G37*
%LPD*%
%LPC*%
G36*
X205894Y166877D02*
X205894Y166877D01*
X205989Y167479D01*
X206484Y169000D01*
X207210Y170425D01*
X208150Y171719D01*
X209281Y172850D01*
X210575Y173790D01*
X212000Y174516D01*
X213521Y175011D01*
X214123Y175106D01*
X214123Y166877D01*
X205894Y166877D01*
G37*
%LPD*%
%LPC*%
G36*
X213521Y155189D02*
X213521Y155189D01*
X212000Y155684D01*
X210575Y156410D01*
X209281Y157350D01*
X208150Y158481D01*
X207210Y159775D01*
X206484Y161200D01*
X205989Y162721D01*
X205894Y163323D01*
X214123Y163323D01*
X214123Y155094D01*
X213521Y155189D01*
G37*
%LPD*%
D10*
X191897Y547296D02*
X194397Y549796D01*
X199396Y549796D01*
X201896Y547296D01*
X201896Y544796D01*
X199396Y542296D01*
X196897Y542296D01*
X199396Y542296D02*
X201896Y539797D01*
X201896Y537297D01*
X199396Y534797D01*
X194397Y534797D01*
X191897Y537297D01*
D11*
X215900Y520700D03*
X215900Y495300D03*
X215900Y469900D03*
X215900Y444500D03*
X215900Y419100D03*
X215900Y393700D03*
X215900Y368300D03*
X215900Y342900D03*
X215900Y317500D03*
X215900Y292100D03*
X215900Y266700D03*
X215900Y241300D03*
X215900Y215900D03*
X215900Y190500D03*
X215900Y165100D03*
X215900Y139700D03*
X12700Y241300D03*
X12700Y266700D03*
X12700Y292100D03*
X12700Y317500D03*
X12700Y342900D03*
X12700Y368300D03*
X12700Y393700D03*
X12700Y419100D03*
X12700Y444500D03*
X12700Y469900D03*
X12700Y495300D03*
X12700Y520700D03*
D12*
X77470Y254000D03*
X77470Y266700D03*
X77470Y279400D03*
X77470Y292100D03*
X77470Y241300D03*
X64770Y254000D03*
X64770Y266700D03*
X64770Y279400D03*
X64770Y292100D03*
X64770Y241300D03*
D11*
X101600Y236220D03*
X127000Y236220D03*
D13*
X146050Y504190D03*
X193040Y491490D03*
X147320Y441960D03*
X68580Y466090D03*
X73660Y424180D03*
X80010Y374650D03*
X175260Y213360D03*
X96520Y151130D03*
X120650Y166370D03*
X68580Y138430D03*
X39370Y99060D03*
X190500Y88900D03*
X87630Y490220D03*
X177800Y330200D03*
X59690Y492760D03*
X101600Y482600D03*
X114300Y469900D03*
X127000Y482600D03*
X127000Y457200D03*
X101600Y457200D03*
X80010Y383540D03*
X93980Y396240D03*
X88900Y330200D03*
X106680Y347980D03*
X105410Y294640D03*
X144780Y273050D03*
X180340Y275590D03*
X78740Y154940D03*
X45720Y170180D03*
X116840Y222250D03*
X139700Y226060D03*
X38100Y114300D03*
X127000Y203200D03*
X82550Y69850D03*
X138430Y88900D03*
X114300Y71120D03*
X115570Y121920D03*
X182880Y134620D03*
X168910Y45720D03*
X54610Y30480D03*
X157480Y72390D03*
X30480Y577850D03*
X30480Y570230D03*
X30480Y562610D03*
X30480Y554990D03*
X30480Y547370D03*
X30480Y539750D03*
X30480Y532130D03*
X33020Y524510D03*
X40640Y524510D03*
X48260Y524510D03*
X55880Y524510D03*
X63500Y524510D03*
X71120Y524510D03*
X78740Y524510D03*
X86360Y524510D03*
X93980Y524510D03*
X101600Y524510D03*
X109220Y524510D03*
X116840Y524510D03*
X124460Y524510D03*
X132080Y524510D03*
X139700Y524510D03*
X143510Y532130D03*
X143510Y539750D03*
X143510Y547370D03*
X143510Y554990D03*
X143510Y562610D03*
X143510Y570230D03*
X143510Y577850D03*
X12700Y558800D03*
X12700Y533400D03*
X152400Y571500D03*
X165100Y558800D03*
X152400Y546100D03*
X177800Y546100D03*
X165100Y533400D03*
X187960Y533400D03*
X190500Y508000D03*
X152400Y495300D03*
X127000Y495300D03*
X101600Y495300D03*
X76200Y495300D03*
X63500Y454660D03*
X76200Y438150D03*
X139700Y431800D03*
X151130Y419100D03*
X54610Y374650D03*
X101600Y317500D03*
X127000Y342900D03*
X177800Y317500D03*
X165100Y304800D03*
X177800Y292100D03*
X173990Y240030D03*
X12700Y201930D03*
X25400Y190500D03*
X38100Y177800D03*
X12700Y177800D03*
X25400Y165100D03*
X38100Y127000D03*
X26670Y113030D03*
X30480Y74930D03*
X38100Y63500D03*
X25400Y50800D03*
X50800Y50800D03*
X177800Y25400D03*
X177800Y50800D03*
X203200Y50800D03*
X218440Y92710D03*
X203200Y101600D03*
X190500Y114300D03*
X88900Y101600D03*
X76200Y114300D03*
X127000Y139700D03*
X101600Y139700D03*
X76200Y139700D03*
X143510Y255270D03*
X180594Y222791D03*
X180340Y266040D03*
X189230Y128270D03*
X34671Y402590D03*
X110490Y193040D03*
D14*
X161360Y193040D01*
X168910Y185490D02*
X168910Y176600D01*
X168910Y185490D02*
X161360Y193040D01*
D13*
X168910Y176600D03*
X167640Y472440D03*
X100330Y88900D03*
X168910Y462280D03*
X100330Y78740D03*
X194310Y382270D03*
X200630Y392400D03*
X187960Y373380D03*
X166751Y412750D03*
X87630Y459740D03*
D14*
X22860Y459740D01*
X12700Y469900D01*
D13*
X149681Y341630D03*
X59309Y410210D03*
X58674Y303530D03*
X59690Y422186D03*
X48260Y350520D03*
X115570Y171450D03*
X40640Y350520D03*
X110490Y166370D03*
X59309Y441960D03*
X76200Y351598D03*
X62230Y431800D03*
X59690Y482600D03*
X34290Y472821D03*
X53340Y337820D03*
X171450Y63500D03*
X112607Y51224D03*
X121920Y50800D03*
X132080Y90170D03*
X110490Y126299D03*
X82550Y12700D03*
X168910Y342900D03*
X165100Y383540D03*
X134620Y408940D03*
X88900Y401320D03*
X119380Y375920D03*
X99060Y412750D03*
X107950Y374650D03*
X120650Y414020D03*
X127000Y317500D03*
M02*
