G04 EAGLE Gerber RS-274X export*
G75*
%MOMM*%
%FSLAX34Y34*%
%LPD*%
%INSoldermask Bottom*%
%IPPOS*%
%AMOC8*
5,1,8,0,0,1.08239X$1,22.5*%
G01*
%ADD10C,0.838200*%
%ADD11R,0.863600X1.473200*%
%ADD12C,3.505200*%
%ADD13C,0.853200*%
%ADD14R,1.603200X2.003200*%
%ADD15R,2.103200X1.603200*%
%ADD16R,1.703200X1.003200*%
%ADD17R,0.803200X0.803200*%
%ADD18C,2.082800*%
%ADD19C,1.203200*%
%ADD20R,1.473200X0.863600*%
%ADD21R,0.803200X1.403200*%
%ADD22R,1.473200X0.838200*%
%ADD23C,0.965200*%

G36*
X130875Y264172D02*
X130875Y264172D01*
X130941Y264174D01*
X130984Y264192D01*
X131031Y264200D01*
X131088Y264234D01*
X131148Y264259D01*
X131183Y264290D01*
X131224Y264315D01*
X131266Y264366D01*
X131314Y264410D01*
X131336Y264452D01*
X131365Y264489D01*
X131386Y264551D01*
X131417Y264610D01*
X131425Y264664D01*
X131437Y264701D01*
X131436Y264741D01*
X131444Y264795D01*
X131444Y268605D01*
X131433Y268670D01*
X131431Y268736D01*
X131413Y268779D01*
X131405Y268826D01*
X131371Y268883D01*
X131346Y268943D01*
X131315Y268978D01*
X131290Y269019D01*
X131239Y269061D01*
X131195Y269109D01*
X131153Y269131D01*
X131116Y269160D01*
X131054Y269181D01*
X130995Y269212D01*
X130941Y269220D01*
X130904Y269232D01*
X130864Y269231D01*
X130810Y269239D01*
X128270Y269239D01*
X128205Y269228D01*
X128139Y269226D01*
X128096Y269208D01*
X128049Y269200D01*
X127992Y269166D01*
X127932Y269141D01*
X127897Y269110D01*
X127856Y269085D01*
X127815Y269034D01*
X127766Y268990D01*
X127744Y268948D01*
X127715Y268911D01*
X127694Y268849D01*
X127663Y268790D01*
X127655Y268736D01*
X127643Y268699D01*
X127643Y268695D01*
X127643Y268694D01*
X127644Y268659D01*
X127636Y268605D01*
X127636Y264795D01*
X127647Y264730D01*
X127649Y264664D01*
X127667Y264621D01*
X127675Y264574D01*
X127709Y264517D01*
X127734Y264457D01*
X127765Y264422D01*
X127790Y264381D01*
X127841Y264340D01*
X127885Y264291D01*
X127927Y264269D01*
X127964Y264240D01*
X128026Y264219D01*
X128085Y264188D01*
X128139Y264180D01*
X128176Y264168D01*
X128216Y264169D01*
X128270Y264161D01*
X130810Y264161D01*
X130875Y264172D01*
G37*
G36*
X153100Y512457D02*
X153100Y512457D01*
X153166Y512459D01*
X153209Y512477D01*
X153256Y512485D01*
X153313Y512519D01*
X153373Y512544D01*
X153408Y512575D01*
X153449Y512600D01*
X153491Y512651D01*
X153539Y512695D01*
X153561Y512737D01*
X153590Y512774D01*
X153611Y512836D01*
X153642Y512895D01*
X153650Y512949D01*
X153662Y512986D01*
X153661Y513026D01*
X153669Y513080D01*
X153669Y515620D01*
X153658Y515685D01*
X153656Y515751D01*
X153638Y515794D01*
X153630Y515841D01*
X153596Y515898D01*
X153571Y515958D01*
X153540Y515993D01*
X153515Y516034D01*
X153464Y516076D01*
X153420Y516124D01*
X153378Y516146D01*
X153341Y516175D01*
X153279Y516196D01*
X153220Y516227D01*
X153166Y516235D01*
X153129Y516247D01*
X153089Y516246D01*
X153035Y516254D01*
X149225Y516254D01*
X149160Y516243D01*
X149094Y516241D01*
X149051Y516223D01*
X149004Y516215D01*
X148947Y516181D01*
X148887Y516156D01*
X148852Y516125D01*
X148811Y516100D01*
X148770Y516049D01*
X148721Y516005D01*
X148699Y515963D01*
X148670Y515926D01*
X148649Y515864D01*
X148618Y515805D01*
X148610Y515751D01*
X148598Y515714D01*
X148598Y515711D01*
X148599Y515674D01*
X148591Y515620D01*
X148591Y513080D01*
X148602Y513015D01*
X148604Y512949D01*
X148622Y512906D01*
X148630Y512859D01*
X148664Y512802D01*
X148689Y512742D01*
X148720Y512707D01*
X148745Y512666D01*
X148796Y512625D01*
X148840Y512576D01*
X148882Y512554D01*
X148919Y512525D01*
X148981Y512504D01*
X149040Y512473D01*
X149094Y512465D01*
X149131Y512453D01*
X149171Y512454D01*
X149225Y512446D01*
X153035Y512446D01*
X153100Y512457D01*
G37*
G36*
X142940Y512457D02*
X142940Y512457D01*
X143006Y512459D01*
X143049Y512477D01*
X143096Y512485D01*
X143153Y512519D01*
X143213Y512544D01*
X143248Y512575D01*
X143289Y512600D01*
X143331Y512651D01*
X143379Y512695D01*
X143401Y512737D01*
X143430Y512774D01*
X143451Y512836D01*
X143482Y512895D01*
X143490Y512949D01*
X143502Y512986D01*
X143501Y513026D01*
X143509Y513080D01*
X143509Y515620D01*
X143498Y515685D01*
X143496Y515751D01*
X143478Y515794D01*
X143470Y515841D01*
X143436Y515898D01*
X143411Y515958D01*
X143380Y515993D01*
X143355Y516034D01*
X143304Y516076D01*
X143260Y516124D01*
X143218Y516146D01*
X143181Y516175D01*
X143119Y516196D01*
X143060Y516227D01*
X143006Y516235D01*
X142969Y516247D01*
X142929Y516246D01*
X142875Y516254D01*
X139065Y516254D01*
X139000Y516243D01*
X138934Y516241D01*
X138891Y516223D01*
X138844Y516215D01*
X138787Y516181D01*
X138727Y516156D01*
X138692Y516125D01*
X138651Y516100D01*
X138610Y516049D01*
X138561Y516005D01*
X138539Y515963D01*
X138510Y515926D01*
X138489Y515864D01*
X138458Y515805D01*
X138450Y515751D01*
X138438Y515714D01*
X138438Y515711D01*
X138439Y515674D01*
X138431Y515620D01*
X138431Y513080D01*
X138442Y513015D01*
X138444Y512949D01*
X138462Y512906D01*
X138470Y512859D01*
X138504Y512802D01*
X138529Y512742D01*
X138560Y512707D01*
X138585Y512666D01*
X138636Y512625D01*
X138680Y512576D01*
X138722Y512554D01*
X138759Y512525D01*
X138821Y512504D01*
X138880Y512473D01*
X138934Y512465D01*
X138971Y512453D01*
X139011Y512454D01*
X139065Y512446D01*
X142875Y512446D01*
X142940Y512457D01*
G37*
G36*
X193740Y70497D02*
X193740Y70497D01*
X193806Y70499D01*
X193849Y70517D01*
X193896Y70525D01*
X193953Y70559D01*
X194013Y70584D01*
X194048Y70615D01*
X194089Y70640D01*
X194131Y70691D01*
X194179Y70735D01*
X194201Y70777D01*
X194230Y70814D01*
X194251Y70876D01*
X194282Y70935D01*
X194290Y70989D01*
X194302Y71026D01*
X194301Y71066D01*
X194309Y71120D01*
X194309Y73660D01*
X194298Y73725D01*
X194296Y73791D01*
X194278Y73834D01*
X194270Y73881D01*
X194236Y73938D01*
X194211Y73998D01*
X194180Y74033D01*
X194155Y74074D01*
X194104Y74116D01*
X194060Y74164D01*
X194018Y74186D01*
X193981Y74215D01*
X193919Y74236D01*
X193860Y74267D01*
X193806Y74275D01*
X193769Y74287D01*
X193729Y74286D01*
X193675Y74294D01*
X189865Y74294D01*
X189800Y74283D01*
X189734Y74281D01*
X189691Y74263D01*
X189644Y74255D01*
X189587Y74221D01*
X189527Y74196D01*
X189492Y74165D01*
X189451Y74140D01*
X189410Y74089D01*
X189361Y74045D01*
X189339Y74003D01*
X189310Y73966D01*
X189289Y73904D01*
X189258Y73845D01*
X189250Y73791D01*
X189238Y73754D01*
X189238Y73751D01*
X189239Y73714D01*
X189231Y73660D01*
X189231Y71120D01*
X189242Y71055D01*
X189244Y70989D01*
X189262Y70946D01*
X189270Y70899D01*
X189304Y70842D01*
X189329Y70782D01*
X189360Y70747D01*
X189385Y70706D01*
X189436Y70665D01*
X189480Y70616D01*
X189522Y70594D01*
X189559Y70565D01*
X189621Y70544D01*
X189680Y70513D01*
X189734Y70505D01*
X189771Y70493D01*
X189811Y70494D01*
X189865Y70486D01*
X193675Y70486D01*
X193740Y70497D01*
G37*
G36*
X73090Y28587D02*
X73090Y28587D01*
X73156Y28589D01*
X73199Y28607D01*
X73246Y28615D01*
X73303Y28649D01*
X73363Y28674D01*
X73398Y28705D01*
X73439Y28730D01*
X73481Y28781D01*
X73529Y28825D01*
X73551Y28867D01*
X73580Y28904D01*
X73601Y28966D01*
X73632Y29025D01*
X73640Y29079D01*
X73652Y29116D01*
X73651Y29156D01*
X73659Y29210D01*
X73659Y31750D01*
X73648Y31815D01*
X73646Y31881D01*
X73628Y31924D01*
X73620Y31971D01*
X73586Y32028D01*
X73561Y32088D01*
X73530Y32123D01*
X73505Y32164D01*
X73454Y32206D01*
X73410Y32254D01*
X73368Y32276D01*
X73331Y32305D01*
X73269Y32326D01*
X73210Y32357D01*
X73156Y32365D01*
X73119Y32377D01*
X73079Y32376D01*
X73025Y32384D01*
X69215Y32384D01*
X69150Y32373D01*
X69084Y32371D01*
X69041Y32353D01*
X68994Y32345D01*
X68937Y32311D01*
X68877Y32286D01*
X68842Y32255D01*
X68801Y32230D01*
X68760Y32179D01*
X68711Y32135D01*
X68689Y32093D01*
X68660Y32056D01*
X68639Y31994D01*
X68608Y31935D01*
X68600Y31881D01*
X68588Y31844D01*
X68588Y31841D01*
X68589Y31804D01*
X68581Y31750D01*
X68581Y29210D01*
X68592Y29145D01*
X68594Y29079D01*
X68612Y29036D01*
X68620Y28989D01*
X68654Y28932D01*
X68679Y28872D01*
X68710Y28837D01*
X68735Y28796D01*
X68786Y28755D01*
X68830Y28706D01*
X68872Y28684D01*
X68909Y28655D01*
X68971Y28634D01*
X69030Y28603D01*
X69084Y28595D01*
X69121Y28583D01*
X69161Y28584D01*
X69215Y28576D01*
X73025Y28576D01*
X73090Y28587D01*
G37*
D10*
X49530Y8890D03*
X177800Y571500D03*
D11*
X156464Y514350D03*
X146050Y514350D03*
X135636Y514350D03*
D12*
X203200Y25400D03*
X25400Y25400D03*
D13*
X85400Y49050D03*
X143200Y49050D03*
D14*
X161100Y160050D03*
X161100Y103050D03*
D15*
X29600Y87050D03*
X19600Y218550D03*
D16*
X58100Y171950D03*
X62100Y160950D03*
X58100Y149950D03*
X56100Y138950D03*
X58100Y127950D03*
X56100Y116950D03*
X58100Y105950D03*
X58100Y94950D03*
D17*
X175641Y88980D03*
X175641Y98980D03*
X158670Y458470D03*
X148670Y458470D03*
X158670Y472440D03*
X148670Y472440D03*
X102950Y261620D03*
X112950Y261620D03*
D18*
X215900Y520700D03*
X215900Y495300D03*
X215900Y469900D03*
X215900Y444500D03*
X215900Y419100D03*
X215900Y393700D03*
X215900Y368300D03*
X215900Y342900D03*
X215900Y317500D03*
X215900Y292100D03*
X215900Y266700D03*
X215900Y241300D03*
X215900Y215900D03*
X215900Y190500D03*
X215900Y165100D03*
X215900Y139700D03*
X12700Y241300D03*
X12700Y266700D03*
X12700Y292100D03*
X12700Y317500D03*
X12700Y342900D03*
X12700Y368300D03*
X12700Y393700D03*
X12700Y419100D03*
X12700Y444500D03*
X12700Y469900D03*
X12700Y495300D03*
X12700Y520700D03*
D19*
X77470Y254000D03*
X77470Y266700D03*
X77470Y279400D03*
X77470Y292100D03*
X77470Y241300D03*
X64770Y254000D03*
X64770Y266700D03*
X64770Y279400D03*
X64770Y292100D03*
X64770Y241300D03*
D17*
X68580Y472520D03*
X68580Y482520D03*
X78740Y482520D03*
X78740Y472520D03*
D11*
X186563Y72390D03*
X196977Y72390D03*
D20*
X129540Y282194D03*
X129540Y271780D03*
X129540Y261366D03*
D17*
X103030Y281940D03*
X113030Y281940D03*
D11*
X65913Y30480D03*
X76327Y30480D03*
D21*
X133350Y386020D03*
X120650Y386020D03*
X107950Y386020D03*
X95250Y386020D03*
X95250Y442020D03*
X107950Y442020D03*
X120650Y442020D03*
X133350Y442020D03*
D17*
X73660Y382350D03*
X73660Y392350D03*
D22*
X73660Y406146D03*
X73660Y414274D03*
D18*
X101600Y236220D03*
X127000Y236220D03*
D17*
X88900Y472520D03*
X88900Y482520D03*
X160100Y330200D03*
X170100Y330200D03*
D23*
X76200Y342900D03*
X76200Y317500D03*
M02*
