G04 EAGLE Gerber RS-274X export*
G75*
%MOMM*%
%FSLAX34Y34*%
%LPD*%
%INSoldermask Top*%
%IPPOS*%
%AMOC8*
5,1,8,0,0,1.08239X$1,22.5*%
G01*
%ADD10R,1.033200X0.833200*%
%ADD11C,0.505344*%
%ADD12R,1.103200X1.003200*%
%ADD13C,0.838200*%
%ADD14R,2.203200X1.403200*%
%ADD15R,1.553200X0.803200*%
%ADD16R,4.803200X1.203200*%
%ADD17R,3.603200X1.803200*%
%ADD18C,3.505200*%
%ADD19R,0.503200X1.203200*%
%ADD20R,0.803200X1.203200*%
%ADD21C,0.853200*%
%ADD22R,1.727200X0.965200*%
%ADD23R,1.403200X0.753200*%
%ADD24R,0.803200X0.803200*%
%ADD25C,2.082800*%
%ADD26R,1.703200X0.703200*%
%ADD27R,0.703200X1.703200*%
%ADD28R,4.803200X4.803200*%
%ADD29R,0.400000X1.100000*%
%ADD30C,1.203200*%
%ADD31R,0.453200X0.813200*%
%ADD32R,0.453200X0.763200*%
%ADD33R,0.838200X1.473200*%

G36*
X158784Y42883D02*
X158784Y42883D01*
X158790Y42889D01*
X158795Y42885D01*
X160025Y43250D01*
X160030Y43257D01*
X160035Y43255D01*
X161154Y43885D01*
X161157Y43892D01*
X161163Y43891D01*
X162113Y44754D01*
X162114Y44762D01*
X162120Y44762D01*
X162854Y45815D01*
X162854Y45823D01*
X162859Y45825D01*
X163341Y47015D01*
X163339Y47020D01*
X163343Y47023D01*
X163342Y47024D01*
X163344Y47025D01*
X163549Y48292D01*
X163546Y48297D01*
X163549Y48300D01*
X163549Y60300D01*
X163546Y60304D01*
X163549Y60307D01*
X163394Y61429D01*
X163389Y61434D01*
X163392Y61438D01*
X163021Y62509D01*
X163015Y62513D01*
X163017Y62518D01*
X162444Y63495D01*
X162438Y63498D01*
X162439Y63503D01*
X161686Y64350D01*
X161679Y64352D01*
X161679Y64357D01*
X160776Y65041D01*
X160769Y65041D01*
X160768Y65046D01*
X159749Y65541D01*
X159742Y65539D01*
X159740Y65544D01*
X158643Y65831D01*
X158637Y65828D01*
X158634Y65832D01*
X157503Y65899D01*
X157497Y65899D01*
X156366Y65832D01*
X156361Y65827D01*
X156357Y65831D01*
X155260Y65544D01*
X155256Y65538D01*
X155251Y65541D01*
X154232Y65046D01*
X154229Y65040D01*
X154224Y65041D01*
X153321Y64357D01*
X153319Y64350D01*
X153314Y64350D01*
X152561Y63503D01*
X152561Y63496D01*
X152556Y63495D01*
X151983Y62518D01*
X151984Y62515D01*
X151983Y62514D01*
X151984Y62513D01*
X151984Y62511D01*
X151979Y62509D01*
X151608Y61438D01*
X151610Y61433D01*
X151607Y61431D01*
X151607Y61430D01*
X151606Y61429D01*
X151451Y60307D01*
X151454Y60302D01*
X151451Y60300D01*
X151451Y48300D01*
X151454Y48295D01*
X151451Y48292D01*
X151656Y47025D01*
X151662Y47019D01*
X151659Y47015D01*
X152141Y45825D01*
X152148Y45821D01*
X152146Y45815D01*
X152880Y44762D01*
X152888Y44760D01*
X152887Y44754D01*
X153837Y43891D01*
X153846Y43890D01*
X153846Y43885D01*
X154965Y43255D01*
X154973Y43256D01*
X154975Y43250D01*
X156205Y42885D01*
X156213Y42888D01*
X156216Y42883D01*
X157497Y42801D01*
X157501Y42804D01*
X157503Y42801D01*
X158784Y42883D01*
G37*
G36*
X72384Y42883D02*
X72384Y42883D01*
X72390Y42889D01*
X72395Y42885D01*
X73625Y43250D01*
X73630Y43257D01*
X73635Y43255D01*
X74754Y43885D01*
X74757Y43892D01*
X74763Y43891D01*
X75713Y44754D01*
X75714Y44762D01*
X75720Y44762D01*
X76454Y45815D01*
X76454Y45823D01*
X76459Y45825D01*
X76941Y47015D01*
X76939Y47020D01*
X76943Y47023D01*
X76942Y47024D01*
X76944Y47025D01*
X77149Y48292D01*
X77146Y48297D01*
X77149Y48300D01*
X77149Y60300D01*
X77146Y60304D01*
X77149Y60307D01*
X76994Y61429D01*
X76989Y61434D01*
X76992Y61438D01*
X76621Y62509D01*
X76615Y62513D01*
X76617Y62518D01*
X76044Y63495D01*
X76038Y63498D01*
X76039Y63503D01*
X75286Y64350D01*
X75279Y64352D01*
X75279Y64357D01*
X74376Y65041D01*
X74369Y65041D01*
X74368Y65046D01*
X73349Y65541D01*
X73342Y65539D01*
X73340Y65544D01*
X72243Y65831D01*
X72237Y65828D01*
X72234Y65832D01*
X71103Y65899D01*
X71097Y65899D01*
X69966Y65832D01*
X69961Y65827D01*
X69957Y65831D01*
X68860Y65544D01*
X68856Y65538D01*
X68851Y65541D01*
X67832Y65046D01*
X67829Y65040D01*
X67824Y65041D01*
X66921Y64357D01*
X66919Y64350D01*
X66914Y64350D01*
X66161Y63503D01*
X66161Y63496D01*
X66156Y63495D01*
X65583Y62518D01*
X65584Y62515D01*
X65583Y62514D01*
X65584Y62513D01*
X65584Y62511D01*
X65579Y62509D01*
X65208Y61438D01*
X65210Y61433D01*
X65207Y61431D01*
X65207Y61430D01*
X65206Y61429D01*
X65051Y60307D01*
X65054Y60302D01*
X65051Y60300D01*
X65051Y48300D01*
X65054Y48295D01*
X65051Y48292D01*
X65256Y47025D01*
X65262Y47019D01*
X65259Y47015D01*
X65741Y45825D01*
X65748Y45821D01*
X65746Y45815D01*
X66480Y44762D01*
X66488Y44760D01*
X66487Y44754D01*
X67437Y43891D01*
X67446Y43890D01*
X67446Y43885D01*
X68565Y43255D01*
X68573Y43256D01*
X68575Y43250D01*
X69805Y42885D01*
X69813Y42888D01*
X69816Y42883D01*
X71097Y42801D01*
X71101Y42804D01*
X71103Y42801D01*
X72384Y42883D01*
G37*
G36*
X72271Y3611D02*
X72271Y3611D01*
X72276Y3616D01*
X72280Y3613D01*
X73403Y3948D01*
X73407Y3954D01*
X73411Y3952D01*
X74447Y4500D01*
X74450Y4506D01*
X74455Y4505D01*
X75363Y5244D01*
X75365Y5251D01*
X75370Y5251D01*
X76117Y6153D01*
X76117Y6161D01*
X76123Y6161D01*
X76679Y7192D01*
X76678Y7199D01*
X76683Y7201D01*
X77027Y8320D01*
X77025Y8327D01*
X77029Y8330D01*
X77149Y9495D01*
X77147Y9498D01*
X77149Y9500D01*
X77149Y15500D01*
X77147Y15503D01*
X77149Y15505D01*
X77038Y16681D01*
X77033Y16686D01*
X77036Y16690D01*
X76698Y17822D01*
X76692Y17826D01*
X76694Y17831D01*
X76142Y18875D01*
X76135Y18878D01*
X76137Y18883D01*
X75391Y19799D01*
X75384Y19800D01*
X75384Y19806D01*
X74475Y20559D01*
X74467Y20559D01*
X74467Y20564D01*
X73427Y21125D01*
X73420Y21124D01*
X73418Y21129D01*
X72289Y21476D01*
X72283Y21474D01*
X72280Y21478D01*
X71105Y21599D01*
X71098Y21595D01*
X71094Y21599D01*
X69754Y21442D01*
X69748Y21437D01*
X69743Y21440D01*
X68472Y20989D01*
X68467Y20982D01*
X68462Y20984D01*
X67323Y20262D01*
X67320Y20254D01*
X67314Y20255D01*
X66364Y19297D01*
X66363Y19289D01*
X66357Y19288D01*
X65644Y18143D01*
X65645Y18135D01*
X65639Y18133D01*
X65199Y16857D01*
X65201Y16850D01*
X65197Y16847D01*
X65051Y15505D01*
X65053Y15502D01*
X65051Y15500D01*
X65051Y9500D01*
X65053Y9497D01*
X65051Y9494D01*
X65206Y8165D01*
X65212Y8159D01*
X65209Y8155D01*
X65656Y6894D01*
X65663Y6889D01*
X65661Y6884D01*
X66378Y5754D01*
X66385Y5751D01*
X66384Y5745D01*
X67335Y4803D01*
X67343Y4802D01*
X67343Y4796D01*
X68479Y4089D01*
X68487Y4090D01*
X68489Y4084D01*
X69754Y3648D01*
X69759Y3649D01*
X69760Y3649D01*
X69763Y3649D01*
X69765Y3645D01*
X71095Y3501D01*
X71101Y3505D01*
X71105Y3501D01*
X72271Y3611D01*
G37*
G36*
X158671Y3611D02*
X158671Y3611D01*
X158676Y3616D01*
X158680Y3613D01*
X159803Y3948D01*
X159807Y3954D01*
X159811Y3952D01*
X160847Y4500D01*
X160850Y4506D01*
X160855Y4505D01*
X161763Y5244D01*
X161765Y5251D01*
X161770Y5251D01*
X162517Y6153D01*
X162517Y6161D01*
X162523Y6161D01*
X163079Y7192D01*
X163078Y7199D01*
X163083Y7201D01*
X163427Y8320D01*
X163425Y8327D01*
X163429Y8330D01*
X163549Y9495D01*
X163547Y9498D01*
X163549Y9500D01*
X163549Y15500D01*
X163547Y15503D01*
X163549Y15505D01*
X163438Y16681D01*
X163433Y16686D01*
X163436Y16690D01*
X163098Y17822D01*
X163092Y17826D01*
X163094Y17831D01*
X162542Y18875D01*
X162535Y18878D01*
X162537Y18883D01*
X161791Y19799D01*
X161784Y19800D01*
X161784Y19806D01*
X160875Y20559D01*
X160867Y20559D01*
X160867Y20564D01*
X159827Y21125D01*
X159820Y21124D01*
X159818Y21129D01*
X158689Y21476D01*
X158683Y21474D01*
X158680Y21478D01*
X157505Y21599D01*
X157498Y21595D01*
X157494Y21599D01*
X156154Y21442D01*
X156148Y21437D01*
X156143Y21440D01*
X154872Y20989D01*
X154867Y20982D01*
X154862Y20984D01*
X153723Y20262D01*
X153720Y20254D01*
X153714Y20255D01*
X152764Y19297D01*
X152763Y19289D01*
X152757Y19288D01*
X152044Y18143D01*
X152045Y18135D01*
X152039Y18133D01*
X151599Y16857D01*
X151601Y16850D01*
X151597Y16847D01*
X151451Y15505D01*
X151453Y15502D01*
X151451Y15500D01*
X151451Y9500D01*
X151453Y9497D01*
X151451Y9494D01*
X151606Y8165D01*
X151612Y8159D01*
X151609Y8155D01*
X152056Y6894D01*
X152063Y6889D01*
X152061Y6884D01*
X152778Y5754D01*
X152785Y5751D01*
X152784Y5745D01*
X153735Y4803D01*
X153743Y4802D01*
X153743Y4796D01*
X154879Y4089D01*
X154887Y4090D01*
X154889Y4084D01*
X156154Y3648D01*
X156159Y3649D01*
X156160Y3649D01*
X156163Y3649D01*
X156165Y3645D01*
X157495Y3501D01*
X157501Y3505D01*
X157505Y3501D01*
X158671Y3611D01*
G37*
G36*
X116270Y228993D02*
X116270Y228993D01*
X116336Y228995D01*
X116379Y229013D01*
X116426Y229021D01*
X116483Y229055D01*
X116543Y229080D01*
X116578Y229111D01*
X116619Y229136D01*
X116661Y229187D01*
X116709Y229231D01*
X116731Y229273D01*
X116760Y229310D01*
X116781Y229372D01*
X116812Y229431D01*
X116820Y229485D01*
X116832Y229522D01*
X116831Y229562D01*
X116839Y229616D01*
X116839Y242824D01*
X116828Y242889D01*
X116826Y242955D01*
X116808Y242998D01*
X116800Y243045D01*
X116766Y243102D01*
X116741Y243162D01*
X116710Y243197D01*
X116685Y243238D01*
X116634Y243280D01*
X116590Y243328D01*
X116548Y243350D01*
X116511Y243379D01*
X116449Y243400D01*
X116390Y243431D01*
X116336Y243439D01*
X116299Y243451D01*
X116259Y243450D01*
X116205Y243458D01*
X112395Y243458D01*
X112330Y243447D01*
X112264Y243445D01*
X112221Y243427D01*
X112174Y243419D01*
X112117Y243385D01*
X112057Y243360D01*
X112022Y243329D01*
X111981Y243304D01*
X111940Y243253D01*
X111891Y243209D01*
X111869Y243167D01*
X111840Y243130D01*
X111819Y243068D01*
X111788Y243009D01*
X111780Y242955D01*
X111768Y242918D01*
X111769Y242878D01*
X111761Y242824D01*
X111761Y229616D01*
X111772Y229551D01*
X111774Y229485D01*
X111792Y229442D01*
X111800Y229395D01*
X111834Y229338D01*
X111859Y229278D01*
X111890Y229243D01*
X111915Y229202D01*
X111966Y229161D01*
X112010Y229112D01*
X112052Y229090D01*
X112089Y229061D01*
X112151Y229040D01*
X112210Y229009D01*
X112264Y229001D01*
X112301Y228989D01*
X112341Y228990D01*
X112395Y228982D01*
X116205Y228982D01*
X116270Y228993D01*
G37*
D10*
X177800Y176600D03*
X177800Y153600D03*
D11*
X133550Y301310D02*
X133550Y308290D01*
X140530Y308290D01*
X140530Y301310D01*
X133550Y301310D01*
X133550Y306110D02*
X140530Y306110D01*
X116010Y308290D02*
X116010Y301310D01*
X116010Y308290D02*
X122990Y308290D01*
X122990Y301310D01*
X116010Y301310D01*
X116010Y306110D02*
X122990Y306110D01*
D12*
X158590Y155600D03*
X158590Y174600D03*
X137590Y165100D03*
D11*
X122990Y326710D02*
X122990Y333690D01*
X122990Y326710D02*
X116010Y326710D01*
X116010Y333690D01*
X122990Y333690D01*
X122990Y331510D02*
X116010Y331510D01*
X140530Y333690D02*
X140530Y326710D01*
X133550Y326710D01*
X133550Y333690D01*
X140530Y333690D01*
X140530Y331510D02*
X133550Y331510D01*
D13*
X12700Y50800D03*
X177800Y571500D03*
D14*
X14050Y121980D03*
X14050Y65980D03*
D15*
X50800Y108980D03*
X50800Y98980D03*
X50800Y88980D03*
X50800Y78980D03*
D16*
X72560Y170340D03*
X72560Y190340D03*
D17*
X20560Y146340D03*
X20560Y214340D03*
D18*
X203200Y25400D03*
X25400Y25400D03*
D19*
X121800Y60100D03*
X116800Y60100D03*
D20*
X146550Y60100D03*
X138800Y60100D03*
D19*
X131800Y60100D03*
X126800Y60100D03*
X106800Y60100D03*
X111800Y60100D03*
D20*
X82050Y60100D03*
X89800Y60100D03*
D19*
X96800Y60100D03*
X101800Y60100D03*
D21*
X85400Y49050D03*
X143200Y49050D03*
D22*
X218440Y82550D03*
X162560Y82550D03*
X218440Y120650D03*
X162560Y120650D03*
D23*
X139399Y212700D03*
X139399Y203200D03*
X139399Y193700D03*
X165401Y193700D03*
X165401Y212700D03*
X170481Y247040D03*
X170481Y256540D03*
X170481Y266040D03*
X144479Y266040D03*
X144479Y247040D03*
D24*
X101520Y71120D03*
X91520Y71120D03*
X132080Y71200D03*
X132080Y81200D03*
X184070Y142240D03*
X174070Y142240D03*
X126920Y193040D03*
X116920Y193040D03*
X116840Y204550D03*
X116840Y214550D03*
X157400Y226060D03*
X147400Y226060D03*
X141050Y289814D03*
X151050Y289814D03*
X106680Y340280D03*
X106680Y330280D03*
X151050Y280670D03*
X141050Y280670D03*
X186690Y266620D03*
X186690Y256620D03*
X215900Y68500D03*
X215900Y58500D03*
D11*
X195780Y60010D02*
X195780Y66990D01*
X202760Y66990D01*
X202760Y60010D01*
X195780Y60010D01*
X195780Y64810D02*
X202760Y64810D01*
X178240Y66990D02*
X178240Y60010D01*
X178240Y66990D02*
X185220Y66990D01*
X185220Y60010D01*
X178240Y60010D01*
X178240Y64810D02*
X185220Y64810D01*
D25*
X215900Y520700D03*
X215900Y495300D03*
X215900Y469900D03*
X215900Y444500D03*
X215900Y419100D03*
X215900Y393700D03*
X215900Y368300D03*
X215900Y342900D03*
X215900Y317500D03*
X215900Y292100D03*
X215900Y266700D03*
X215900Y241300D03*
X215900Y215900D03*
X215900Y190500D03*
X215900Y165100D03*
X215900Y139700D03*
X12700Y241300D03*
X12700Y266700D03*
X12700Y292100D03*
X12700Y317500D03*
X12700Y342900D03*
X12700Y368300D03*
X12700Y393700D03*
X12700Y419100D03*
X12700Y444500D03*
X12700Y469900D03*
X12700Y495300D03*
X12700Y520700D03*
D26*
X48300Y382400D03*
X48300Y392400D03*
X48300Y502400D03*
X48300Y492400D03*
X48300Y482400D03*
X48300Y472400D03*
X48300Y462400D03*
X48300Y452400D03*
X48300Y442400D03*
X48300Y432400D03*
X48300Y422400D03*
X48300Y412400D03*
X48300Y402400D03*
D27*
X69300Y362400D03*
X79300Y362400D03*
X99300Y362400D03*
X89300Y362400D03*
X109300Y362400D03*
X119300Y362400D03*
X129300Y362400D03*
X139300Y362400D03*
X149300Y362400D03*
X159300Y362400D03*
D26*
X180300Y382400D03*
X180300Y392400D03*
X180300Y402400D03*
X180300Y412400D03*
X180300Y422400D03*
X180300Y432400D03*
X180300Y442400D03*
X180300Y452400D03*
X180300Y462400D03*
X180300Y472400D03*
X180300Y482400D03*
X180300Y492400D03*
X180300Y512400D03*
X180300Y522400D03*
D28*
X120400Y465400D03*
D29*
X105570Y112120D03*
X110570Y112120D03*
X115570Y112120D03*
X120570Y112120D03*
X125570Y112120D03*
X125570Y157120D03*
X120570Y157120D03*
X115570Y157120D03*
X110570Y157120D03*
X105570Y157120D03*
D24*
X96440Y157480D03*
X86440Y157480D03*
D30*
X77470Y254000D03*
X77470Y266700D03*
X77470Y279400D03*
X77470Y292100D03*
X77470Y241300D03*
X64770Y254000D03*
X64770Y266700D03*
X64770Y279400D03*
X64770Y292100D03*
X64770Y241300D03*
D24*
X58420Y318850D03*
X58420Y328850D03*
X68580Y318850D03*
X68580Y328850D03*
D31*
X109300Y78500D03*
D32*
X114300Y78250D03*
X119300Y78250D03*
X119300Y86850D03*
X114300Y86850D03*
X109300Y86850D03*
D24*
X107790Y96520D03*
X97790Y96520D03*
X122080Y96520D03*
X132080Y96520D03*
X196850Y132240D03*
X196850Y142240D03*
X148750Y142240D03*
X158750Y142240D03*
D33*
X109220Y236220D03*
X119380Y236220D03*
D25*
X101600Y236220D03*
X127000Y236220D03*
M02*
