G04 EAGLE Gerber RS-274X export*
G75*
%MOMM*%
%FSLAX34Y34*%
%LPD*%
%INSolderpaste Top*%
%IPPOS*%
%AMOC8*
5,1,8,0,0,1.08239X$1,22.5*%
G01*
%ADD10R,0.830000X0.630000*%
%ADD11C,0.300000*%
%ADD12R,0.900000X0.800000*%
%ADD13R,2.000000X1.200000*%
%ADD14R,1.350000X0.600000*%
%ADD15R,4.600000X1.000000*%
%ADD16R,3.400000X1.600000*%
%ADD17R,0.300000X1.000000*%
%ADD18R,0.600000X1.000000*%
%ADD19R,1.524000X0.762000*%
%ADD20R,1.200000X0.550000*%
%ADD21R,0.600000X0.600000*%
%ADD22R,2.909200X2.909200*%
%ADD23R,1.500000X0.500000*%
%ADD24R,0.500000X1.500000*%
%ADD25R,0.250000X0.875000*%
%ADD26R,0.250000X0.610000*%
%ADD27R,0.250000X0.560000*%

G36*
X157300Y43951D02*
X157300Y43951D01*
X157301Y43951D01*
X158369Y43970D01*
X158376Y43975D01*
X158380Y43971D01*
X159417Y44227D01*
X159422Y44234D01*
X159428Y44231D01*
X160382Y44712D01*
X160386Y44719D01*
X160391Y44718D01*
X161215Y45399D01*
X161216Y45407D01*
X161222Y45407D01*
X161873Y46254D01*
X161873Y46262D01*
X161879Y46263D01*
X162326Y47234D01*
X162324Y47242D01*
X162329Y47244D01*
X162548Y48290D01*
X162545Y48297D01*
X162549Y48300D01*
X162549Y60300D01*
X162546Y60305D01*
X162549Y60308D01*
X162369Y61403D01*
X162363Y61409D01*
X162366Y61414D01*
X161947Y62442D01*
X161940Y62446D01*
X161942Y62451D01*
X161305Y63360D01*
X161297Y63363D01*
X161297Y63368D01*
X160474Y64112D01*
X160466Y64113D01*
X160465Y64119D01*
X159497Y64661D01*
X159488Y64660D01*
X159486Y64666D01*
X158422Y64979D01*
X158417Y64977D01*
X158413Y64977D01*
X158411Y64981D01*
X157303Y65049D01*
X157297Y65045D01*
X157293Y65049D01*
X156185Y64879D01*
X156179Y64873D01*
X156174Y64876D01*
X155132Y64464D01*
X155128Y64457D01*
X155123Y64459D01*
X154198Y63825D01*
X154196Y63817D01*
X154190Y63818D01*
X153430Y62995D01*
X153429Y62986D01*
X153423Y62986D01*
X152866Y62014D01*
X152867Y62006D01*
X152861Y62004D01*
X152534Y60932D01*
X152537Y60924D01*
X152532Y60921D01*
X152451Y59804D01*
X152452Y59801D01*
X152451Y59800D01*
X152451Y47800D01*
X152456Y47793D01*
X152452Y47789D01*
X152671Y46845D01*
X152677Y46839D01*
X152675Y46834D01*
X153099Y45962D01*
X153106Y45959D01*
X153104Y45953D01*
X153711Y45197D01*
X153719Y45195D01*
X153719Y45189D01*
X154479Y44588D01*
X154488Y44588D01*
X154489Y44582D01*
X155364Y44164D01*
X155372Y44166D01*
X155374Y44161D01*
X156320Y43949D01*
X156327Y43952D01*
X156331Y43947D01*
X157300Y43951D01*
G37*
G36*
X71881Y43960D02*
X71881Y43960D01*
X71888Y43965D01*
X71892Y43961D01*
X72944Y44211D01*
X72949Y44217D01*
X72954Y44214D01*
X73924Y44691D01*
X73927Y44699D01*
X73933Y44697D01*
X74772Y45378D01*
X74774Y45386D01*
X74780Y45386D01*
X75446Y46237D01*
X75447Y46245D01*
X75452Y46246D01*
X75913Y47223D01*
X75911Y47231D01*
X75917Y47234D01*
X76148Y48289D01*
X76145Y48297D01*
X76149Y48300D01*
X76149Y60300D01*
X76145Y60305D01*
X76149Y60308D01*
X75956Y61414D01*
X75950Y61419D01*
X75953Y61424D01*
X75520Y62459D01*
X75513Y62463D01*
X75515Y62468D01*
X74862Y63381D01*
X74854Y63383D01*
X74855Y63389D01*
X74016Y64133D01*
X74007Y64134D01*
X74007Y64139D01*
X73023Y64678D01*
X73015Y64677D01*
X73013Y64682D01*
X71934Y64989D01*
X71926Y64986D01*
X71923Y64991D01*
X70803Y65049D01*
X70798Y65046D01*
X70795Y65049D01*
X69749Y64931D01*
X69743Y64925D01*
X69738Y64929D01*
X68744Y64581D01*
X68740Y64574D01*
X68735Y64576D01*
X67843Y64016D01*
X67841Y64009D01*
X67835Y64009D01*
X67091Y63265D01*
X67089Y63257D01*
X67084Y63257D01*
X66524Y62365D01*
X66524Y62357D01*
X66519Y62356D01*
X66171Y61362D01*
X66174Y61354D01*
X66169Y61351D01*
X66051Y60306D01*
X66053Y60302D01*
X66051Y60300D01*
X66051Y48300D01*
X66054Y48295D01*
X66051Y48292D01*
X66209Y47296D01*
X66215Y47290D01*
X66212Y47285D01*
X66587Y46349D01*
X66594Y46345D01*
X66592Y46339D01*
X67166Y45510D01*
X67174Y45507D01*
X67173Y45502D01*
X67917Y44821D01*
X67926Y44820D01*
X67926Y44814D01*
X68803Y44316D01*
X68812Y44317D01*
X68814Y44312D01*
X69779Y44021D01*
X69787Y44024D01*
X69790Y44019D01*
X70797Y43951D01*
X70799Y43952D01*
X70800Y43951D01*
X71881Y43960D01*
G37*
G36*
X157804Y4455D02*
X157804Y4455D01*
X157807Y4451D01*
X158883Y4606D01*
X158888Y4612D01*
X158893Y4609D01*
X159907Y4999D01*
X159911Y5006D01*
X159917Y5005D01*
X160819Y5611D01*
X160821Y5619D01*
X160827Y5618D01*
X161571Y6410D01*
X161572Y6418D01*
X161578Y6418D01*
X162127Y7356D01*
X162126Y7364D01*
X162132Y7366D01*
X162459Y8402D01*
X162456Y8410D01*
X162461Y8413D01*
X162549Y9496D01*
X162547Y9499D01*
X162549Y9500D01*
X162549Y15500D01*
X162546Y15504D01*
X162549Y15506D01*
X162399Y16639D01*
X162393Y16645D01*
X162396Y16650D01*
X161998Y17720D01*
X161991Y17724D01*
X161993Y17730D01*
X161366Y18685D01*
X161358Y18688D01*
X161359Y18693D01*
X160536Y19485D01*
X160528Y19486D01*
X160527Y19492D01*
X159548Y20081D01*
X159540Y20080D01*
X159538Y20085D01*
X158453Y20441D01*
X158445Y20439D01*
X158442Y20443D01*
X157305Y20549D01*
X157296Y20544D01*
X157291Y20548D01*
X156154Y20341D01*
X156148Y20335D01*
X156143Y20338D01*
X155081Y19883D01*
X155077Y19876D01*
X155071Y19878D01*
X154136Y19198D01*
X154134Y19190D01*
X154128Y19191D01*
X153368Y18320D01*
X153368Y18312D01*
X153362Y18311D01*
X152815Y17292D01*
X152816Y17284D01*
X152811Y17282D01*
X152807Y17269D01*
X152794Y17220D01*
X152793Y17220D01*
X152794Y17220D01*
X152780Y17171D01*
X152766Y17121D01*
X152753Y17072D01*
X152739Y17023D01*
X152726Y16974D01*
X152712Y16924D01*
X152699Y16875D01*
X152685Y16826D01*
X152671Y16777D01*
X152658Y16727D01*
X152644Y16678D01*
X152631Y16629D01*
X152617Y16580D01*
X152604Y16530D01*
X152590Y16481D01*
X152577Y16432D01*
X152576Y16432D01*
X152563Y16383D01*
X152549Y16333D01*
X152504Y16168D01*
X152507Y16160D01*
X152502Y16157D01*
X152451Y15002D01*
X152452Y15001D01*
X152451Y15000D01*
X152451Y9000D01*
X152455Y8994D01*
X152452Y8991D01*
X152664Y7910D01*
X152670Y7905D01*
X152667Y7900D01*
X153114Y6894D01*
X153121Y6890D01*
X153119Y6884D01*
X153779Y6003D01*
X153787Y6000D01*
X153787Y5995D01*
X154626Y5282D01*
X154634Y5282D01*
X154635Y5276D01*
X155612Y4768D01*
X155620Y4769D01*
X155622Y4764D01*
X156687Y4486D01*
X156695Y4489D01*
X156698Y4485D01*
X157799Y4451D01*
X157804Y4455D01*
G37*
G36*
X71302Y4455D02*
X71302Y4455D01*
X71307Y4451D01*
X72394Y4596D01*
X72400Y4602D01*
X72405Y4599D01*
X73433Y4983D01*
X73438Y4989D01*
X73443Y4988D01*
X74360Y5590D01*
X74363Y5598D01*
X74369Y5597D01*
X75129Y6389D01*
X75130Y6397D01*
X75136Y6398D01*
X75700Y7339D01*
X75700Y7342D01*
X75701Y7343D01*
X75700Y7345D01*
X75699Y7347D01*
X75705Y7349D01*
X76046Y8392D01*
X76044Y8400D01*
X76048Y8403D01*
X76149Y9496D01*
X76147Y9498D01*
X76149Y9500D01*
X76149Y15500D01*
X76147Y15503D01*
X76149Y15505D01*
X76048Y16597D01*
X76043Y16603D01*
X76046Y16608D01*
X75705Y17651D01*
X75698Y17656D01*
X75700Y17661D01*
X75136Y18602D01*
X75128Y18605D01*
X75129Y18611D01*
X74369Y19403D01*
X74361Y19404D01*
X74360Y19410D01*
X73443Y20013D01*
X73435Y20012D01*
X73433Y20018D01*
X72405Y20401D01*
X72397Y20399D01*
X72394Y20404D01*
X71307Y20549D01*
X71299Y20545D01*
X71295Y20549D01*
X70158Y20443D01*
X70152Y20438D01*
X70147Y20441D01*
X69062Y20085D01*
X69057Y20078D01*
X69052Y20081D01*
X68073Y19492D01*
X68070Y19484D01*
X68064Y19485D01*
X67241Y18693D01*
X67240Y18685D01*
X67234Y18685D01*
X66607Y17730D01*
X66608Y17722D01*
X66602Y17720D01*
X66204Y16650D01*
X66206Y16642D01*
X66201Y16639D01*
X66051Y15506D01*
X66054Y15502D01*
X66051Y15500D01*
X66051Y9500D01*
X66054Y9496D01*
X66051Y9494D01*
X66201Y8361D01*
X66207Y8355D01*
X66204Y8350D01*
X66602Y7280D01*
X66609Y7276D01*
X66607Y7270D01*
X67234Y6315D01*
X67242Y6312D01*
X67241Y6307D01*
X68064Y5515D01*
X68072Y5514D01*
X68073Y5508D01*
X69052Y4919D01*
X69060Y4920D01*
X69062Y4915D01*
X70147Y4559D01*
X70155Y4562D01*
X70158Y4557D01*
X71295Y4451D01*
X71302Y4455D01*
G37*
D10*
X177800Y176600D03*
X177800Y153600D03*
D11*
X133540Y301300D02*
X133540Y308300D01*
X140540Y308300D01*
X140540Y301300D01*
X133540Y301300D01*
X133540Y304150D02*
X140540Y304150D01*
X140540Y307000D02*
X133540Y307000D01*
X116000Y308300D02*
X116000Y301300D01*
X116000Y308300D02*
X123000Y308300D01*
X123000Y301300D01*
X116000Y301300D01*
X116000Y304150D02*
X123000Y304150D01*
X123000Y307000D02*
X116000Y307000D01*
D12*
X158590Y155600D03*
X158590Y174600D03*
X137590Y165100D03*
D11*
X123000Y326700D02*
X123000Y333700D01*
X123000Y326700D02*
X116000Y326700D01*
X116000Y333700D01*
X123000Y333700D01*
X123000Y329550D02*
X116000Y329550D01*
X116000Y332400D02*
X123000Y332400D01*
X140540Y333700D02*
X140540Y326700D01*
X133540Y326700D01*
X133540Y333700D01*
X140540Y333700D01*
X140540Y329550D02*
X133540Y329550D01*
X133540Y332400D02*
X140540Y332400D01*
D13*
X14050Y121980D03*
X14050Y65980D03*
D14*
X50800Y108980D03*
X50800Y98980D03*
X50800Y88980D03*
X50800Y78980D03*
D15*
X72560Y170340D03*
X72560Y190340D03*
D16*
X20560Y146340D03*
X20560Y214340D03*
D17*
X121800Y60100D03*
X116800Y60100D03*
D18*
X146550Y60100D03*
X138800Y60100D03*
D17*
X131800Y60100D03*
X126800Y60100D03*
X106800Y60100D03*
X111800Y60100D03*
D18*
X82050Y60100D03*
X89800Y60100D03*
D17*
X96800Y60100D03*
X101800Y60100D03*
D19*
X218440Y82550D03*
X162560Y82550D03*
X218440Y120650D03*
X162560Y120650D03*
D20*
X139399Y212700D03*
X139399Y203200D03*
X139399Y193700D03*
X165401Y193700D03*
X165401Y212700D03*
X170481Y247040D03*
X170481Y256540D03*
X170481Y266040D03*
X144479Y266040D03*
X144479Y247040D03*
D21*
X101520Y71120D03*
X91520Y71120D03*
X132080Y71200D03*
X132080Y81200D03*
X184070Y142240D03*
X174070Y142240D03*
X126920Y193040D03*
X116920Y193040D03*
X116840Y204550D03*
X116840Y214550D03*
X157400Y226060D03*
X147400Y226060D03*
X141050Y289814D03*
X151050Y289814D03*
X106680Y340280D03*
X106680Y330280D03*
X151050Y280670D03*
X141050Y280670D03*
X186690Y266620D03*
X186690Y256620D03*
X215900Y68500D03*
X215900Y58500D03*
D11*
X195770Y60000D02*
X195770Y67000D01*
X202770Y67000D01*
X202770Y60000D01*
X195770Y60000D01*
X195770Y62850D02*
X202770Y62850D01*
X202770Y65700D02*
X195770Y65700D01*
X178230Y67000D02*
X178230Y60000D01*
X178230Y67000D02*
X185230Y67000D01*
X185230Y60000D01*
X178230Y60000D01*
X178230Y62850D02*
X185230Y62850D01*
X185230Y65700D02*
X178230Y65700D01*
D22*
X120400Y465400D03*
D23*
X48300Y382400D03*
X48300Y392400D03*
X48300Y502400D03*
X48300Y492400D03*
X48300Y482400D03*
X48300Y472400D03*
X48300Y462400D03*
X48300Y452400D03*
X48300Y442400D03*
X48300Y432400D03*
X48300Y422400D03*
X48300Y412400D03*
X48300Y402400D03*
D24*
X69300Y362400D03*
X79300Y362400D03*
X99300Y362400D03*
X89300Y362400D03*
X109300Y362400D03*
X119300Y362400D03*
X129300Y362400D03*
X139300Y362400D03*
X149300Y362400D03*
X159300Y362400D03*
D23*
X180300Y382400D03*
X180300Y392400D03*
X180300Y402400D03*
X180300Y412400D03*
X180300Y422400D03*
X180300Y432400D03*
X180300Y442400D03*
X180300Y452400D03*
X180300Y462400D03*
X180300Y472400D03*
X180300Y482400D03*
X180300Y492400D03*
X180300Y512400D03*
X180300Y522400D03*
D25*
X105570Y111995D03*
X110570Y111995D03*
X115570Y111995D03*
X120570Y111995D03*
X125570Y111995D03*
X125570Y157245D03*
X120570Y157245D03*
X115570Y157245D03*
X110570Y157245D03*
X105570Y157245D03*
D21*
X96440Y157480D03*
X86440Y157480D03*
X58420Y318850D03*
X58420Y328850D03*
X68580Y318850D03*
X68580Y328850D03*
D26*
X109300Y78500D03*
D27*
X114300Y78250D03*
X119300Y78250D03*
X119300Y86850D03*
X114300Y86850D03*
X109300Y86850D03*
D21*
X107790Y96520D03*
X97790Y96520D03*
X122080Y96520D03*
X132080Y96520D03*
X196850Y132240D03*
X196850Y142240D03*
X148750Y142240D03*
X158750Y142240D03*
M02*
