M48
;GenerationSoftware,Autodesk,EAGLE,9.6.2*%
;CreationDate,2022-06-10T20:40:58Z*%
FMAT,2
ICI,OFF
METRIC,TZ,000.000
T6C0.305
T5C0.508
T4C0.650
T3C0.850
T2C1.016
T1C3.302
%
G90
M71
T1
X72644Y128016
X49276Y65278
X20320Y2540
X2540Y2540
X43688Y128016
X20320Y65278
X2540Y65278
X20320Y128016
X43688Y2540
X25908Y2540
X2540Y128016
X25908Y128016
X90424Y65278
X43688Y65278
X67056Y2540
X49276Y2540
X25908Y65278
X72644Y65278
X90424Y128016
X67056Y128016
X90424Y2540
X72644Y2540
X49276Y128016
X67056Y65278
T2
X83312Y149098
X1270Y162306
X1270Y164846
X1270Y167386
X1270Y169926
X1270Y172466
X1270Y175006
X1270Y177546
X10668Y149098
X13208Y149098
X44958Y177546
X44958Y175006
X44958Y172466
X44958Y169926
X44958Y167386
X44958Y164846
X44958Y162306
X44958Y159766
X44958Y157226
X44958Y154686
X44958Y152146
X44958Y149606
X44958Y147066
X44958Y144526
X44958Y141986
X44958Y139446
X24638Y149606
X24638Y152146
X24638Y154686
X24638Y157226
X24638Y159766
X24638Y162306
X24638Y164846
X24638Y167386
X24638Y169926
X24638Y172466
X24638Y175006
X24638Y177546
X34036Y149098
X36576Y149098
X68326Y177546
X68326Y175006
X68326Y172466
X68326Y169926
X68326Y167386
X24638Y44450
X68326Y164846
X68326Y162306
X68326Y159766
X68326Y157226
X21590Y52070
X21590Y49530
X21590Y46990
X21590Y44450
X21590Y41910
X21590Y39370
X21590Y36830
X21590Y34290
X21590Y31750
X21590Y29210
X21590Y26670
X21590Y24130
X21590Y21590
X21590Y19050
X21590Y16510
X21590Y13970
X1270Y24130
X1270Y26670
X1270Y29210
X1270Y31750
X1270Y34290
X1270Y36830
X1270Y39370
X1270Y41910
X1270Y44450
X1270Y46990
X1270Y49530
X1270Y52070
X68326Y154686
X68326Y152146
X68326Y149606
X68326Y147066
X68326Y144526
X68326Y141986
X68326Y139446
X48006Y149606
X48006Y152146
X48006Y154686
X10668Y23622
X13208Y23622
X44958Y52070
X44958Y49530
X44958Y46990
X44958Y44450
X44958Y41910
X44958Y39370
X44958Y36830
X44958Y34290
X44958Y31750
X44958Y29210
X44958Y26670
X44958Y24130
X44958Y21590
X44958Y19050
X44958Y16510
X44958Y13970
X24638Y24130
X24638Y26670
X24638Y29210
X24638Y31750
X24638Y34290
X24638Y36830
X24638Y39370
X24638Y41910
X48006Y157226
X24638Y46990
X24638Y49530
X24638Y52070
X48006Y159766
X48006Y162306
X48006Y164846
X48006Y167386
X48006Y169926
X48006Y172466
X48006Y175006
X48006Y177546
X57404Y149098
X59944Y149098
X34036Y23622
X36576Y23622
X68326Y52070
X68326Y49530
X68326Y46990
X68326Y44450
X68326Y41910
X68326Y39370
X68326Y36830
X68326Y34290
X68326Y31750
X68326Y29210
X68326Y26670
X68326Y24130
X68326Y21590
X68326Y19050
X68326Y16510
X68326Y13970
X48006Y24130
X48006Y26670
X48006Y29210
X48006Y31750
X48006Y34290
X48006Y36830
X48006Y39370
X48006Y41910
X48006Y44450
X48006Y46990
X48006Y49530
X48006Y52070
X91694Y177546
X91694Y175006
X91694Y172466
X91694Y169926
X91694Y167386
X91694Y164846
X91694Y162306
X91694Y159766
X91694Y157226
X91694Y154686
X57404Y23622
X59944Y23622
X91694Y52070
X91694Y49530
X91694Y46990
X91694Y44450
X91694Y41910
X91694Y39370
X91694Y36830
X91694Y34290
X91694Y31750
X91694Y29210
X91694Y26670
X91694Y24130
X91694Y21590
X91694Y19050
X91694Y16510
X91694Y13970
X71374Y24130
X71374Y26670
X71374Y29210
X71374Y31750
X71374Y34290
X71374Y36830
X71374Y39370
X71374Y41910
X71374Y44450
X71374Y46990
X71374Y49530
X71374Y52070
X91694Y152146
X91694Y149606
X91694Y147066
X91694Y144526
X91694Y141986
X91694Y139446
X71374Y149606
X71374Y152146
X71374Y154686
X80772Y23622
X83312Y23622
X21590Y114808
X21590Y112268
X21590Y109728
X21590Y107188
X21590Y104648
X21590Y102108
X21590Y99568
X21590Y97028
X21590Y94488
X21590Y91948
X21590Y89408
X21590Y86868
X21590Y84328
X21590Y81788
X21590Y79248
X21590Y76708
X1270Y86868
X1270Y89408
X1270Y91948
X1270Y94488
X1270Y97028
X1270Y99568
X1270Y102108
X1270Y104648
X1270Y107188
X1270Y109728
X1270Y112268
X1270Y114808
X71374Y157226
X71374Y159766
X71374Y162306
X71374Y164846
X71374Y167386
X71374Y169926
X71374Y172466
X71374Y175006
X71374Y177546
X80772Y149098
X10668Y86360
X13208Y86360
X44958Y114808
X44958Y112268
X44958Y109728
X44958Y107188
X44958Y104648
X44958Y102108
X44958Y99568
X44958Y97028
X44958Y94488
X44958Y91948
X44958Y89408
X44958Y86868
X44958Y84328
X44958Y81788
X44958Y79248
X44958Y76708
X24638Y86868
X24638Y89408
X24638Y91948
X24638Y94488
X24638Y97028
X24638Y99568
X24638Y102108
X24638Y104648
X24638Y107188
X24638Y109728
X24638Y112268
X24638Y114808
X34036Y86360
X36576Y86360
X68326Y114808
X68326Y112268
X68326Y109728
X68326Y107188
X68326Y104648
X68326Y102108
X68326Y99568
X68326Y97028
X68326Y94488
X68326Y91948
X68326Y89408
X68326Y86868
X68326Y84328
X68326Y81788
X68326Y79248
X68326Y76708
X48006Y86868
X48006Y89408
X48006Y91948
X48006Y94488
X48006Y97028
X48006Y99568
X48006Y102108
X48006Y104648
X48006Y107188
X48006Y109728
X48006Y112268
X48006Y114808
X57404Y86360
X59944Y86360
X91694Y114808
X91694Y112268
X91694Y109728
X91694Y107188
X91694Y104648
X91694Y102108
X91694Y99568
X91694Y97028
X91694Y94488
X91694Y91948
X91694Y89408
X91694Y86868
X91694Y84328
X91694Y81788
X91694Y79248
X91694Y76708
X71374Y86868
X71374Y89408
X71374Y91948
X71374Y94488
X71374Y97028
X71374Y99568
X71374Y102108
X71374Y104648
X71374Y107188
X71374Y109728
X71374Y112268
X71374Y114808
X80772Y86360
X83312Y86360
X21590Y177546
X21590Y175006
X21590Y172466
X21590Y169926
X21590Y167386
X21590Y164846
X21590Y162306
X21590Y159766
X21590Y157226
X21590Y154686
X21590Y152146
X21590Y149606
X21590Y147066
X21590Y144526
X21590Y141986
X21590Y139446
X1270Y149606
X1270Y152146
X1270Y154686
X1270Y157226
X1270Y159766
T3
X63500Y158980
X86868Y96242
X16764Y33504
X16764Y30504
X63500Y96242
X63500Y93242
X40132Y33504
X40132Y30504
X86868Y93242
X16764Y158980
X63500Y33504
X63500Y30504
X16764Y155980
X40132Y158980
X86868Y33504
X86868Y30504
X40132Y155980
X86868Y155980
X16764Y96242
X16764Y93242
X63500Y155980
X86868Y158980
X40132Y96242
X40132Y93242
T4
X14320Y4905
X31908Y4905
X37688Y4905
X55276Y4905
X61056Y4905
X78644Y4905
X84424Y4905
X8540Y67643
X14320Y67643
X31908Y67643
X8540Y4905
X84424Y67643
X31908Y130381
X37688Y130381
X55276Y67643
X61056Y67643
X55276Y130381
X8540Y130381
X37688Y67643
X14320Y130381
X78644Y130381
X84424Y130381
X78644Y67643
X61056Y130381
T5
X6731Y26797
X6731Y28067
X6731Y29337
X6731Y30607
X6731Y25527
X5461Y26797
X5461Y28067
X5461Y29337
X5461Y30607
X5461Y25527
X76835Y26797
X30099Y26797
X30099Y28067
X30099Y29337
X30099Y30607
X30099Y25527
X28829Y26797
X28829Y28067
X28829Y29337
X28829Y30607
X28829Y25527
X53467Y26797
X53467Y28067
X53467Y29337
X53467Y30607
X53467Y25527
X52197Y26797
X52197Y28067
X52197Y29337
X52197Y30607
X52197Y25527
X76835Y28067
X76835Y29337
X76835Y30607
X76835Y25527
X75565Y26797
X75565Y28067
X75565Y29337
X75565Y30607
X75565Y25527
X6731Y89535
X6731Y90805
X6731Y92075
X6731Y93345
X6731Y88265
X5461Y89535
X5461Y90805
X5461Y92075
X5461Y93345
X5461Y88265
X53467Y90805
X53467Y92075
X53467Y93345
X53467Y88265
X52197Y89535
X52197Y90805
X52197Y92075
X52197Y93345
X52197Y88265
X30099Y89535
X30099Y90805
X30099Y92075
X30099Y93345
X30099Y88265
X28829Y89535
X28829Y90805
X28829Y92075
X28829Y93345
X28829Y88265
X53467Y152273
X53467Y153543
X53467Y154813
X53467Y156083
X53467Y151003
X52197Y152273
X52197Y153543
X52197Y154813
X52197Y156083
X52197Y151003
X76835Y89535
X76835Y90805
X76835Y92075
X76835Y93345
X76835Y88265
X75565Y89535
X75565Y90805
X75565Y92075
X75565Y93345
X75565Y88265
X30099Y152273
X30099Y153543
X30099Y154813
X30099Y156083
X30099Y151003
X28829Y152273
X28829Y153543
X28829Y154813
X28829Y156083
X28829Y151003
X6731Y152273
X6731Y153543
X6731Y154813
X6731Y156083
X6731Y151003
X5461Y152273
X5461Y153543
X5461Y154813
X5461Y156083
X5461Y151003
X76835Y152273
X76835Y153543
X76835Y154813
X76835Y156083
X76835Y151003
X75565Y152273
X75565Y153543
X75565Y154813
X75565Y156083
X75565Y151003
X53467Y89535
T6
X81534Y7112
X81788Y12192
X88392Y13462
X86995Y4572
X85852Y7239
X73152Y57785
X73152Y57023
X73152Y56261
X73152Y55499
X73152Y54737
X73152Y53975
X73152Y58674
X73406Y53467
X74168Y53467
X74930Y53467
X75692Y53467
X76454Y53467
X77216Y53467
X77978Y53467
X78740Y53467
X79502Y53467
X80264Y53467
X81026Y53467
X81788Y53467
X82550Y53467
X83312Y53467
X84074Y53467
X84455Y58547
X84455Y53975
X84455Y54737
X84455Y55499
X84455Y56261
X84455Y57023
X84455Y57785
X71374Y55880
X71374Y53467
X85344Y57150
X86614Y55880
X85344Y54610
X87884Y54610
X86614Y53340
X89408Y52832
X90424Y50800
X82804Y49530
X80264Y49530
X77724Y49530
X77724Y45466
X77724Y43180
X84074Y43180
X85217Y41910
X75565Y37465
X81788Y31750
X82804Y34290
X87884Y31750
X86614Y31750
X87884Y29210
X87503Y24003
X71374Y19939
X72644Y19050
X73914Y17780
X71374Y17780
X72644Y16510
X73914Y12700
X72771Y11303
X73152Y7493
X73914Y6350
X72644Y5080
X75184Y5080
X87884Y2540
X87884Y5080
X90424Y5080
X91948Y9271
X90424Y10160
X82804Y13970
X80645Y14351
X75184Y13970
X81534Y43180
X82804Y44450
X80264Y44450
X72644Y33020
X76454Y46990
X80264Y27432
X75565Y3048
X72898Y51562
X72009Y48260
X72009Y45720
X72009Y43180
X82804Y51562
X90424Y48260
X90805Y45720
X90932Y40640
X74422Y36068
X72517Y25400
X72390Y22733
X78613Y19939
X78486Y8382
X88265Y38227
X78550Y26860
X84455Y25527
X88163Y22279
X88900Y26604
X78994Y12065
X77724Y12065
X73698Y41529
X80899Y19558
X86995Y17533
X85979Y48514
X80137Y8890
X86868Y47498
X79375Y7874
X78994Y9385
X89408Y39497
X89913Y40510
X86906Y42545
X78994Y45974
X76162Y42545
X75590Y32131
X76200Y43489
X74930Y35052
X81661Y17145
X74168Y35052
X81153Y16637
X76924Y45466
X77724Y35160
X76454Y44450
X76327Y49530
X84074Y33147
X84074Y39967
X72606Y40005
X73533Y48552
X75438Y33782
X87249Y6350
X81365Y4995
X82423Y4953
X83312Y8890
X81153Y12630
X78994Y25019
X78486Y25654
X78359Y1270
X87122Y35560
X86614Y39370
X82804Y30480
X81026Y27178
X77978Y38735
X86487Y49530
X77978Y41148
X89713Y11430
X82296Y16764
X17653Y84074
X9652Y77724
X3937Y72644
X19050Y71628
X13970Y93218
X10160Y102108
X22098Y72771
X8509Y77597
X20574Y106045
X6350Y113157
X10541Y110998
X11430Y109728
X12700Y110998
X12700Y108585
X10160Y108585
X8255Y96520
X10668Y97536
X11684Y91313
X18034Y90297
X6477Y78486
X4445Y79756
X11684Y84963
X14097Y85217
X3810Y74168
X12700Y83058
X8255Y69723
X13843Y72390
X11430Y69850
X11684Y74930
X18288Y76200
X16891Y67310
X15748Y69977
X3048Y120523
X3048Y119761
X3048Y118999
X3048Y118237
X3048Y117475
X3048Y116713
X3048Y121412
X3302Y116205
X4064Y116205
X4826Y116205
X5588Y116205
X6350Y116205
X7112Y116205
X7874Y116205
X8636Y116205
X9398Y116205
X10160Y116205
X10922Y116205
X11684Y116205
X12446Y116205
X13208Y116205
X13970Y116205
X14351Y121285
X14351Y116713
X14351Y117475
X14351Y118237
X14351Y118999
X14351Y119761
X14351Y120523
X1270Y118618
X1270Y116205
X15240Y119888
X16510Y118618
X15240Y117348
X17780Y117348
X16510Y116078
X19304Y115570
X20320Y113538
X12700Y112268
X10160Y112268
X7620Y112268
X7620Y108204
X7620Y105918
X13970Y105918
X15113Y104648
X5461Y100203
X11684Y94488
X12700Y97028
X17780Y94488
X16510Y94488
X17780Y91948
X17399Y86741
X1270Y82677
X2540Y81788
X3810Y80518
X1270Y80518
X2540Y79248
X3810Y75438
X2667Y74041
X3048Y70231
X3810Y69088
X2540Y67818
X5080Y67818
X17780Y65278
X17780Y67818
X20320Y67818
X21844Y72009
X20320Y72898
X12700Y76708
X10541Y77089
X5080Y76708
X11430Y105918
X12700Y107188
X10160Y107188
X2540Y95758
X6350Y109728
X10160Y90170
X5461Y65786
X2794Y114300
X1905Y110998
X1905Y108458
X1905Y105918
X12700Y114300
X20320Y110998
X20701Y108458
X20828Y103378
X4318Y98806
X2413Y88138
X2286Y85471
X8509Y82677
X8382Y71120
X18161Y100965
X8446Y89598
X14351Y88265
X18059Y85017
X18796Y89342
X8890Y74803
X7620Y74803
X3594Y104267
X10795Y82296
X16891Y80271
X15875Y111252
X10033Y71628
X16764Y110236
X9271Y70612
X8890Y72123
X19304Y102235
X19809Y103248
X16802Y105283
X8890Y108712
X6058Y105283
X5486Y94869
X6096Y106227
X4826Y97790
X11557Y79883
X4064Y97790
X11049Y79375
X6820Y108204
X7620Y97898
X6350Y107188
X6223Y112268
X13970Y95885
X13970Y102705
X2502Y102743
X3429Y111290
X5334Y96520
X17145Y69088
X11261Y67733
X12319Y67691
X13208Y71628
X11049Y75368
X8890Y87757
X8382Y88392
X8255Y64008
X17018Y98298
X16510Y102108
X12700Y93218
X10922Y89916
X7874Y101473
X16383Y112268
X7874Y103886
X19609Y74168
X12192Y79502
X41021Y84074
X33020Y77724
X27305Y72644
X42418Y71628
X37338Y93218
X33528Y102108
X45466Y72771
X31877Y77597
X43942Y106045
X29718Y113157
X33909Y110998
X34798Y109728
X36068Y110998
X36068Y108585
X33528Y108585
X31623Y96520
X34036Y97536
X35052Y91313
X41402Y90297
X29845Y78486
X27813Y79756
X35052Y84963
X37465Y85217
X27178Y74168
X36068Y83058
X31623Y69723
X37211Y72390
X34798Y69850
X35052Y74930
X41656Y76200
X40259Y67310
X39116Y69977
X26416Y120523
X26416Y119761
X26416Y118999
X26416Y118237
X26416Y117475
X26416Y116713
X26416Y121412
X26670Y116205
X27432Y116205
X28194Y116205
X28956Y116205
X29718Y116205
X30480Y116205
X31242Y116205
X32004Y116205
X32766Y116205
X33528Y116205
X34290Y116205
X35052Y116205
X35814Y116205
X36576Y116205
X37338Y116205
X37719Y121285
X37719Y116713
X37719Y117475
X37719Y118237
X37719Y118999
X37719Y119761
X37719Y120523
X24638Y118618
X24638Y116205
X38608Y119888
X39878Y118618
X38608Y117348
X41148Y117348
X39878Y116078
X42672Y115570
X43688Y113538
X36068Y112268
X33528Y112268
X30988Y112268
X30988Y108204
X30988Y105918
X37338Y105918
X38481Y104648
X28829Y100203
X35052Y94488
X36068Y97028
X41148Y94488
X39878Y94488
X41148Y91948
X40767Y86741
X24638Y82677
X25908Y81788
X27178Y80518
X24638Y80518
X25908Y79248
X27178Y75438
X26035Y74041
X26416Y70231
X27178Y69088
X25908Y67818
X28448Y67818
X41148Y65278
X41148Y67818
X43688Y67818
X45212Y72009
X43688Y72898
X36068Y76708
X33909Y77089
X28448Y76708
X34798Y105918
X36068Y107188
X33528Y107188
X25908Y95758
X29718Y109728
X33528Y90170
X28829Y65786
X26162Y114300
X25273Y110998
X25273Y108458
X25273Y105918
X36068Y114300
X43688Y110998
X44069Y108458
X44196Y103378
X27686Y98806
X25781Y88138
X25654Y85471
X31877Y82677
X31750Y71120
X41529Y100965
X31813Y89598
X37719Y88265
X41427Y85017
X42164Y89342
X32258Y74803
X30988Y74803
X26962Y104267
X34163Y82296
X40259Y80271
X39243Y111252
X33401Y71628
X40132Y110236
X32639Y70612
X32258Y72123
X42672Y102235
X43177Y103248
X40170Y105283
X32258Y108712
X29426Y105283
X28854Y94869
X29464Y106227
X28194Y97790
X34925Y79883
X27432Y97790
X34417Y79375
X30188Y108204
X30988Y97898
X29718Y107188
X29591Y112268
X37338Y95885
X37338Y102705
X25870Y102743
X26797Y111290
X28702Y96520
X40513Y69088
X34629Y67733
X35687Y67691
X36576Y71628
X34417Y75368
X32258Y87757
X31750Y88392
X31623Y64008
X40386Y98298
X39878Y102108
X36068Y93218
X34290Y89916
X31242Y101473
X39751Y112268
X31242Y103886
X42977Y74168
X35560Y79502
X64389Y84074
X56388Y77724
X50673Y72644
X65786Y71628
X60706Y93218
X56896Y102108
X68834Y72771
X55245Y77597
X67310Y106045
X53086Y113157
X57277Y110998
X58166Y109728
X59436Y110998
X59436Y108585
X56896Y108585
X54991Y96520
X57404Y97536
X58420Y91313
X64770Y90297
X53213Y78486
X51181Y79756
X58420Y84963
X60833Y85217
X50546Y74168
X59436Y83058
X54991Y69723
X60579Y72390
X58166Y69850
X58420Y74930
X65024Y76200
X63627Y67310
X62484Y69977
X49784Y120523
X49784Y119761
X49784Y118999
X49784Y118237
X49784Y117475
X49784Y116713
X49784Y121412
X50038Y116205
X50800Y116205
X51562Y116205
X52324Y116205
X53086Y116205
X53848Y116205
X54610Y116205
X55372Y116205
X56134Y116205
X56896Y116205
X57658Y116205
X58420Y116205
X59182Y116205
X59944Y116205
X60706Y116205
X61087Y121285
X61087Y116713
X61087Y117475
X61087Y118237
X61087Y118999
X61087Y119761
X61087Y120523
X48006Y118618
X48006Y116205
X61976Y119888
X63246Y118618
X61976Y117348
X64516Y117348
X63246Y116078
X66040Y115570
X67056Y113538
X59436Y112268
X56896Y112268
X54356Y112268
X54356Y108204
X54356Y105918
X60706Y105918
X61849Y104648
X52197Y100203
X58420Y94488
X59436Y97028
X64516Y94488
X63246Y94488
X64516Y91948
X64135Y86741
X48006Y82677
X49276Y81788
X50546Y80518
X48006Y80518
X49276Y79248
X50546Y75438
X49403Y74041
X49784Y70231
X50546Y69088
X49276Y67818
X51816Y67818
X64516Y65278
X64516Y67818
X67056Y67818
X68580Y72009
X67056Y72898
X59436Y76708
X57277Y77089
X51816Y76708
X58166Y105918
X59436Y107188
X56896Y107188
X49276Y95758
X53086Y109728
X56896Y90170
X52197Y65786
X49530Y114300
X48641Y110998
X48641Y108458
X48641Y105918
X59436Y114300
X67056Y110998
X67437Y108458
X67564Y103378
X51054Y98806
X49149Y88138
X49022Y85471
X55245Y82677
X55118Y71120
X64897Y100965
X55181Y89598
X61087Y88265
X64795Y85017
X65532Y89342
X55626Y74803
X54356Y74803
X50330Y104267
X57531Y82296
X63627Y80271
X62611Y111252
X56769Y71628
X63500Y110236
X56007Y70612
X55626Y72123
X66040Y102235
X66545Y103248
X63538Y105283
X55626Y108712
X52794Y105283
X52222Y94869
X52832Y106227
X51562Y97790
X58293Y79883
X50800Y97790
X57785Y79375
X53556Y108204
X54356Y97898
X53086Y107188
X52959Y112268
X60706Y95885
X60706Y102705
X49238Y102743
X50165Y111290
X52070Y96520
X63881Y69088
X57997Y67733
X59055Y67691
X59944Y71628
X57785Y75368
X55626Y87757
X55118Y88392
X54991Y64008
X63754Y98298
X63246Y102108
X59436Y93218
X57658Y89916
X54610Y101473
X63119Y112268
X54610Y103886
X66345Y74168
X58928Y79502
X87757Y84074
X79756Y77724
X74041Y72644
X89154Y71628
X84074Y93218
X80264Y102108
X92202Y72771
X78613Y77597
X90678Y106045
X76454Y113157
X80645Y110998
X81534Y109728
X82804Y110998
X82804Y108585
X80264Y108585
X78359Y96520
X80772Y97536
X81788Y91313
X88138Y90297
X76581Y78486
X74549Y79756
X81788Y84963
X84201Y85217
X73914Y74168
X82804Y83058
X78359Y69723
X83947Y72390
X81534Y69850
X81788Y74930
X88392Y76200
X86995Y67310
X85852Y69977
X73152Y120523
X73152Y119761
X73152Y118999
X73152Y118237
X73152Y117475
X73152Y116713
X73152Y121412
X73406Y116205
X74168Y116205
X74930Y116205
X75692Y116205
X76454Y116205
X77216Y116205
X77978Y116205
X78740Y116205
X79502Y116205
X80264Y116205
X81026Y116205
X81788Y116205
X82550Y116205
X83312Y116205
X84074Y116205
X84455Y121285
X84455Y116713
X84455Y117475
X84455Y118237
X84455Y118999
X84455Y119761
X84455Y120523
X71374Y118618
X71374Y116205
X85344Y119888
X86614Y118618
X85344Y117348
X87884Y117348
X86614Y116078
X89408Y115570
X90424Y113538
X82804Y112268
X80264Y112268
X77724Y112268
X77724Y108204
X77724Y105918
X84074Y105918
X85217Y104648
X75565Y100203
X81788Y94488
X82804Y97028
X87884Y94488
X86614Y94488
X87884Y91948
X87503Y86741
X71374Y82677
X72644Y81788
X73914Y80518
X71374Y80518
X72644Y79248
X73914Y75438
X72771Y74041
X73152Y70231
X73914Y69088
X72644Y67818
X75184Y67818
X87884Y65278
X87884Y67818
X90424Y67818
X91948Y72009
X90424Y72898
X82804Y76708
X26797Y48552
X75184Y76708
X81534Y105918
X82804Y107188
X80264Y107188
X72644Y95758
X76454Y109728
X80264Y90170
X75565Y65786
X72898Y114300
X72009Y110998
X72009Y108458
X72009Y105918
X82804Y114300
X90424Y110998
X90805Y108458
X90932Y103378
X74422Y98806
X72517Y88138
X72390Y85471
X78613Y82677
X78486Y71120
X88265Y100965
X78550Y89598
X84455Y88265
X88163Y85017
X88900Y89342
X78994Y74803
X77724Y74803
X73698Y104267
X80899Y82296
X86995Y80271
X85979Y111252
X80137Y71628
X86868Y110236
X79375Y70612
X78994Y72123
X89408Y102235
X89913Y103248
X86906Y105283
X78994Y108712
X76162Y105283
X75590Y94869
X76200Y106227
X74930Y97790
X81661Y79883
X74168Y97790
X81153Y79375
X76924Y108204
X77724Y97898
X76454Y107188
X76327Y112268
X84074Y95885
X84074Y102705
X72606Y102743
X73533Y111290
X75438Y96520
X87249Y69088
X81365Y67733
X82423Y67691
X83312Y71628
X81153Y75368
X78994Y87757
X78486Y88392
X78359Y64008
X87122Y98298
X86614Y102108
X82804Y93218
X81026Y89916
X77978Y101473
X86487Y112268
X77978Y103886
X89713Y74168
X82296Y79502
X17653Y146812
X9652Y140462
X3937Y135382
X19050Y134366
X13970Y155956
X10160Y164846
X22098Y135509
X8509Y140335
X20574Y168783
X6350Y175895
X10541Y173736
X11430Y172466
X12700Y173736
X12700Y171323
X10160Y171323
X8255Y159258
X10668Y160274
X11684Y154051
X18034Y153035
X6477Y141224
X4445Y142494
X11684Y147701
X14097Y147955
X3810Y136906
X12700Y145796
X8255Y132461
X13843Y135128
X11430Y132588
X11684Y137668
X18288Y138938
X16891Y130048
X15748Y132715
X3048Y183261
X3048Y182499
X3048Y181737
X3048Y180975
X3048Y180213
X3048Y179451
X3048Y184150
X3302Y178943
X4064Y178943
X4826Y178943
X5588Y178943
X6350Y178943
X7112Y178943
X7874Y178943
X8636Y178943
X9398Y178943
X10160Y178943
X10922Y178943
X11684Y178943
X12446Y178943
X13208Y178943
X13970Y178943
X14351Y184023
X14351Y179451
X14351Y180213
X14351Y180975
X14351Y181737
X14351Y182499
X14351Y183261
X1270Y181356
X1270Y178943
X15240Y182626
X16510Y181356
X15240Y180086
X17780Y180086
X16510Y178816
X19304Y178308
X20320Y176276
X12700Y175006
X10160Y175006
X7620Y175006
X7620Y170942
X7620Y168656
X13970Y168656
X15113Y167386
X5461Y162941
X11684Y157226
X12700Y159766
X17780Y157226
X16510Y157226
X17780Y154686
X17399Y149479
X1270Y145415
X2540Y144526
X3810Y143256
X1270Y143256
X2540Y141986
X3810Y138176
X2667Y136779
X3048Y132969
X3810Y131826
X2540Y130556
X5080Y130556
X17780Y128016
X17780Y130556
X20320Y130556
X21844Y134747
X20320Y135636
X12700Y139446
X10541Y139827
X5080Y139446
X11430Y168656
X12700Y169926
X10160Y169926
X2540Y158496
X6350Y172466
X10160Y152908
X5461Y128524
X2794Y177038
X1905Y173736
X1905Y171196
X1905Y168656
X12700Y177038
X20320Y173736
X20701Y171196
X20828Y166116
X4318Y161544
X2413Y150876
X2286Y148209
X8509Y145415
X8382Y133858
X18161Y163703
X8446Y152337
X14351Y151003
X18059Y147755
X18796Y152080
X8890Y137541
X7620Y137541
X3594Y167005
X10795Y145034
X16891Y143009
X15875Y173990
X10033Y134366
X16764Y172974
X9271Y133350
X8890Y134861
X19304Y164973
X19809Y165986
X16802Y168021
X8890Y171450
X6058Y168021
X5486Y157607
X6096Y168965
X4826Y160528
X11557Y142621
X4064Y160528
X11049Y142113
X6820Y170942
X7620Y160636
X6350Y169926
X6223Y175006
X13970Y158623
X13970Y165443
X2502Y165481
X3429Y174028
X5334Y159258
X17145Y131826
X11261Y130471
X12319Y130429
X13208Y134366
X11049Y138106
X8890Y150495
X8382Y151130
X8255Y126746
X17018Y161036
X16510Y164846
X12700Y155956
X10922Y152654
X7874Y164211
X16383Y175006
X7874Y166624
X19609Y136906
X12192Y142240
X41021Y146812
X33020Y140462
X27305Y135382
X42418Y134366
X37338Y155956
X33528Y164846
X45466Y135509
X31877Y140335
X43942Y168783
X29718Y175895
X33909Y173736
X34798Y172466
X36068Y173736
X36068Y171323
X33528Y171323
X31623Y159258
X34036Y160274
X35052Y154051
X41402Y153035
X29845Y141224
X27813Y142494
X35052Y147701
X37465Y147955
X27178Y136906
X36068Y145796
X31623Y132461
X37211Y135128
X34798Y132588
X35052Y137668
X41656Y138938
X40259Y130048
X39116Y132715
X26416Y183261
X26416Y182499
X26416Y181737
X26416Y180975
X26416Y180213
X26416Y179451
X26416Y184150
X26670Y178943
X27432Y178943
X28194Y178943
X28956Y178943
X29718Y178943
X30480Y178943
X31242Y178943
X32004Y178943
X32766Y178943
X33528Y178943
X34290Y178943
X35052Y178943
X35814Y178943
X36576Y178943
X37338Y178943
X37719Y184023
X37719Y179451
X37719Y180213
X37719Y180975
X37719Y181737
X37719Y182499
X37719Y183261
X24638Y181356
X24638Y178943
X38608Y182626
X39878Y181356
X38608Y180086
X41148Y180086
X39878Y178816
X42672Y178308
X43688Y176276
X36068Y175006
X33528Y175006
X30988Y175006
X30988Y170942
X30988Y168656
X37338Y168656
X38481Y167386
X28829Y162941
X35052Y157226
X36068Y159766
X41148Y157226
X39878Y157226
X41148Y154686
X40767Y149479
X24638Y145415
X25908Y144526
X27178Y143256
X24638Y143256
X25908Y141986
X27178Y138176
X26035Y136779
X26416Y132969
X27178Y131826
X25908Y130556
X28448Y130556
X41148Y128016
X41148Y130556
X43688Y130556
X45212Y134747
X43688Y135636
X36068Y139446
X33909Y139827
X28448Y139446
X34798Y168656
X36068Y169926
X33528Y169926
X25908Y158496
X29718Y172466
X33528Y152908
X28829Y128524
X26162Y177038
X25273Y173736
X25273Y171196
X25273Y168656
X36068Y177038
X43688Y173736
X44069Y171196
X44196Y166116
X27686Y161544
X25781Y150876
X25654Y148209
X31877Y145415
X31750Y133858
X41529Y163703
X31813Y152337
X37719Y151003
X41427Y147755
X42164Y152080
X32258Y137541
X30988Y137541
X26962Y167005
X34163Y145034
X40259Y143009
X39243Y173990
X33401Y134366
X40132Y172974
X32639Y133350
X32258Y134861
X42672Y164973
X43177Y165986
X40170Y168021
X32258Y171450
X29426Y168021
X28854Y157607
X29464Y168965
X28194Y160528
X34925Y142621
X27432Y160528
X34417Y142113
X30188Y170942
X30988Y160636
X29718Y169926
X29591Y175006
X37338Y158623
X37338Y165443
X25870Y165481
X26797Y174028
X28702Y159258
X40513Y131826
X34629Y130471
X35687Y130429
X36576Y134366
X34417Y138106
X32258Y150495
X31750Y151130
X31623Y126746
X40386Y161036
X39878Y164846
X36068Y155956
X34290Y152654
X31242Y164211
X39751Y175006
X31242Y166624
X42977Y136906
X35560Y142240
X64389Y146812
X56388Y140462
X50673Y135382
X65786Y134366
X60706Y155956
X56896Y164846
X68834Y135509
X55245Y140335
X67310Y168783
X53086Y175895
X57277Y173736
X58166Y172466
X59436Y173736
X59436Y171323
X56896Y171323
X54991Y159258
X57404Y160274
X58420Y154051
X64770Y153035
X53213Y141224
X51181Y142494
X58420Y147701
X60833Y147955
X50546Y136906
X59436Y145796
X54991Y132461
X60579Y135128
X58166Y132588
X58420Y137668
X65024Y138938
X63627Y130048
X62484Y132715
X49784Y183261
X49784Y182499
X49784Y181737
X49784Y180975
X49784Y180213
X49784Y179451
X49784Y184150
X50038Y178943
X50800Y178943
X51562Y178943
X52324Y178943
X53086Y178943
X53848Y178943
X54610Y178943
X55372Y178943
X56134Y178943
X56896Y178943
X57658Y178943
X58420Y178943
X59182Y178943
X59944Y178943
X60706Y178943
X61087Y184023
X61087Y179451
X61087Y180213
X61087Y180975
X61087Y181737
X61087Y182499
X61087Y183261
X48006Y181356
X48006Y178943
X61976Y182626
X63246Y181356
X61976Y180086
X64516Y180086
X63246Y178816
X66040Y178308
X67056Y176276
X59436Y175006
X56896Y175006
X54356Y175006
X54356Y170942
X54356Y168656
X60706Y168656
X61849Y167386
X52197Y162941
X58420Y157226
X59436Y159766
X64516Y157226
X63246Y157226
X64516Y154686
X64135Y149479
X48006Y145415
X49276Y144526
X50546Y143256
X48006Y143256
X49276Y141986
X50546Y138176
X49403Y136779
X49784Y132969
X50546Y131826
X49276Y130556
X51816Y130556
X64516Y128016
X64516Y130556
X67056Y130556
X68580Y134747
X67056Y135636
X59436Y139446
X57277Y139827
X51816Y139446
X58166Y168656
X59436Y169926
X56896Y169926
X49276Y158496
X53086Y172466
X56896Y152908
X52197Y128524
X49530Y177038
X48641Y173736
X48641Y171196
X48641Y168656
X59436Y177038
X67056Y173736
X67437Y171196
X67564Y166116
X51054Y161544
X49149Y150876
X49022Y148209
X55245Y145415
X55118Y133858
X64897Y163703
X55181Y152337
X61087Y151003
X64795Y147755
X65532Y152080
X55626Y137541
X54356Y137541
X50330Y167005
X57531Y145034
X63627Y143009
X62611Y173990
X56769Y134366
X63500Y172974
X56007Y133350
X55626Y134861
X66040Y164973
X66545Y165986
X63538Y168021
X55626Y171450
X52794Y168021
X52222Y157607
X52832Y168965
X51562Y160528
X58293Y142621
X50800Y160528
X57785Y142113
X53556Y170942
X54356Y160636
X53086Y169926
X52959Y175006
X60706Y158623
X60706Y165443
X49238Y165481
X50165Y174028
X52070Y159258
X63881Y131826
X57997Y130471
X59055Y130429
X59944Y134366
X57785Y138106
X55626Y150495
X55118Y151130
X54991Y126746
X63754Y161036
X63246Y164846
X59436Y155956
X57658Y152654
X54610Y164211
X63119Y175006
X54610Y166624
X66345Y136906
X58928Y142240
X87757Y146812
X79756Y140462
X74041Y135382
X89154Y134366
X84074Y155956
X80264Y164846
X92202Y135509
X78613Y140335
X90678Y168783
X76454Y175895
X80645Y173736
X81534Y172466
X82804Y173736
X82804Y171323
X80264Y171323
X78359Y159258
X80772Y160274
X81788Y154051
X88138Y153035
X76581Y141224
X74549Y142494
X81788Y147701
X84201Y147955
X73914Y136906
X82804Y145796
X78359Y132461
X83947Y135128
X81534Y132588
X81788Y137668
X88392Y138938
X86995Y130048
X85852Y132715
X73152Y183261
X73152Y182499
X73152Y181737
X73152Y180975
X73152Y180213
X73152Y179451
X73152Y184150
X73406Y178943
X74168Y178943
X74930Y178943
X75692Y178943
X76454Y178943
X77216Y178943
X77978Y178943
X78740Y178943
X79502Y178943
X80264Y178943
X81026Y178943
X81788Y178943
X82550Y178943
X83312Y178943
X84074Y178943
X84455Y184023
X84455Y179451
X84455Y180213
X84455Y180975
X84455Y181737
X84455Y182499
X84455Y183261
X71374Y181356
X71374Y178943
X85344Y182626
X17653Y21336
X85344Y180086
X87884Y180086
X86614Y178816
X89408Y178308
X90424Y176276
X82804Y175006
X80264Y175006
X77724Y175006
X77724Y170942
X77724Y168656
X84074Y168656
X85217Y167386
X75565Y162941
X81788Y157226
X82804Y159766
X87884Y157226
X86614Y157226
X87884Y154686
X87503Y149479
X71374Y145415
X72644Y144526
X73914Y143256
X71374Y143256
X72644Y141986
X73914Y138176
X72771Y136779
X73152Y132969
X73914Y131826
X72644Y130556
X75184Y130556
X87884Y128016
X87884Y130556
X90424Y130556
X91948Y134747
X90424Y135636
X82804Y139446
X80645Y139827
X75184Y139446
X81534Y168656
X82804Y169926
X80264Y169926
X72644Y158496
X76454Y172466
X80264Y152908
X75565Y128524
X72898Y177038
X72009Y173736
X72009Y171196
X72009Y168656
X82804Y177038
X90424Y173736
X90805Y171196
X90932Y166116
X74422Y161544
X72517Y150876
X72390Y148209
X78613Y145415
X78486Y133858
X88265Y163703
X78550Y152337
X84455Y151003
X88163Y147755
X88900Y152080
X78994Y137541
X77724Y137541
X73698Y167005
X80899Y145034
X86995Y143009
X85979Y173990
X80137Y134366
X86868Y172974
X79375Y133350
X78994Y134861
X89408Y164973
X89913Y165986
X86906Y168021
X78994Y171450
X76162Y168021
X75590Y157607
X76200Y168965
X74930Y160528
X81661Y142621
X74168Y160528
X81153Y142113
X76924Y170942
X77724Y160636
X76454Y169926
X76327Y175006
X84074Y158623
X84074Y165443
X72606Y165481
X73533Y174028
X75438Y159258
X87249Y131826
X81365Y130471
X82423Y130429
X83312Y134366
X81153Y138106
X78994Y150495
X78486Y151130
X78359Y126746
X87122Y161036
X86614Y164846
X82804Y155956
X81026Y152654
X77978Y164211
X86487Y175006
X77978Y166624
X89713Y136906
X82296Y142240
X9652Y14986
X3937Y9906
X19050Y8890
X13970Y30480
X10160Y39370
X22098Y10033
X8509Y14859
X20574Y43307
X6350Y50419
X10541Y48260
X11430Y46990
X12700Y48260
X12700Y45847
X10160Y45847
X8255Y33782
X10668Y34798
X11684Y28575
X18034Y27559
X6477Y15748
X4445Y17018
X11684Y22225
X14097Y22479
X3810Y11430
X12700Y20320
X8255Y6985
X13843Y9652
X11430Y7112
X11684Y12192
X18288Y13462
X16891Y4572
X15748Y7239
X3048Y57785
X3048Y57023
X3048Y56261
X3048Y55499
X3048Y54737
X3048Y53975
X3048Y58674
X3302Y53467
X4064Y53467
X4826Y53467
X5588Y53467
X6350Y53467
X7112Y53467
X7874Y53467
X8636Y53467
X9398Y53467
X10160Y53467
X10922Y53467
X11684Y53467
X12446Y53467
X13208Y53467
X13970Y53467
X14351Y58547
X14351Y53975
X14351Y54737
X14351Y55499
X14351Y56261
X14351Y57023
X14351Y57785
X1270Y55880
X1270Y53467
X15240Y57150
X16510Y55880
X15240Y54610
X17780Y54610
X16510Y53340
X19304Y52832
X20320Y50800
X12700Y49530
X10160Y49530
X7620Y49530
X7620Y45466
X7620Y43180
X13970Y43180
X15113Y41910
X5461Y37465
X11684Y31750
X12700Y34290
X17780Y31750
X16510Y31750
X17780Y29210
X17399Y24003
X1270Y19939
X2540Y19050
X3810Y17780
X1270Y17780
X2540Y16510
X3810Y12700
X2667Y11303
X3048Y7493
X3810Y6350
X2540Y5080
X5080Y5080
X17780Y2540
X17780Y5080
X20320Y5080
X21844Y9271
X20320Y10160
X12700Y13970
X10541Y14351
X5080Y13970
X11430Y43180
X12700Y44450
X10160Y44450
X2540Y33020
X6350Y46990
X10160Y27432
X5461Y3048
X2794Y51562
X1905Y48260
X1905Y45720
X1905Y43180
X12700Y51562
X20320Y48260
X20701Y45720
X20828Y40640
X4318Y36068
X2413Y25400
X2286Y22733
X8509Y19939
X8382Y8382
X18161Y38227
X8446Y26860
X14351Y25527
X18059Y22279
X18796Y26604
X8890Y12065
X7620Y12065
X3594Y41529
X10795Y19558
X16891Y17533
X15875Y48514
X10033Y8890
X16764Y47498
X9271Y7874
X8890Y9385
X19304Y39497
X19809Y40510
X16802Y42545
X8890Y45974
X6058Y42545
X5486Y32131
X6096Y43489
X4826Y35052
X11557Y17145
X4064Y35052
X11049Y16637
X6820Y45466
X7620Y35160
X6350Y44450
X6223Y49530
X13970Y33147
X13970Y39967
X2502Y40005
X3429Y48552
X5334Y33782
X17145Y6350
X11261Y4995
X12319Y4953
X13208Y8890
X11049Y12630
X8890Y25019
X8382Y25654
X8255Y1270
X17018Y35560
X16510Y39370
X12700Y30480
X10922Y27178
X7874Y38735
X16383Y49530
X7874Y41148
X19609Y11430
X12192Y16764
X41021Y21336
X33020Y14986
X27305Y9906
X42418Y8890
X37338Y30480
X33528Y39370
X45466Y10033
X31877Y14859
X43942Y43307
X29718Y50419
X33909Y48260
X34798Y46990
X36068Y48260
X36068Y45847
X33528Y45847
X31623Y33782
X34036Y34798
X35052Y28575
X41402Y27559
X29845Y15748
X27813Y17018
X35052Y22225
X37465Y22479
X27178Y11430
X36068Y20320
X31623Y6985
X37211Y9652
X34798Y7112
X35052Y12192
X41656Y13462
X40259Y4572
X39116Y7239
X26416Y57785
X26416Y57023
X26416Y56261
X26416Y55499
X26416Y54737
X26416Y53975
X26416Y58674
X26670Y53467
X27432Y53467
X28194Y53467
X28956Y53467
X29718Y53467
X30480Y53467
X31242Y53467
X80645Y77089
X32004Y53467
X32766Y53467
X33528Y53467
X34290Y53467
X35052Y53467
X35814Y53467
X36576Y53467
X37338Y53467
X37719Y58547
X37719Y53975
X37719Y54737
X37719Y55499
X37719Y56261
X37719Y57023
X37719Y57785
X24638Y55880
X24638Y53467
X38608Y57150
X39878Y55880
X38608Y54610
X41148Y54610
X39878Y53340
X42672Y52832
X43688Y50800
X36068Y49530
X33528Y49530
X30988Y49530
X30988Y45466
X30988Y43180
X37338Y43180
X38481Y41910
X28829Y37465
X35052Y31750
X36068Y34290
X41148Y31750
X39878Y31750
X41148Y29210
X40767Y24003
X24638Y19939
X25908Y19050
X27178Y17780
X24638Y17780
X25908Y16510
X27178Y12700
X26035Y11303
X26416Y7493
X27178Y6350
X25908Y5080
X28448Y5080
X41148Y2540
X41148Y5080
X43688Y5080
X45212Y9271
X43688Y10160
X36068Y13970
X33909Y14351
X28448Y13970
X34798Y43180
X36068Y44450
X33528Y44450
X25908Y33020
X29718Y46990
X33528Y27432
X28829Y3048
X26162Y51562
X25273Y48260
X25273Y45720
X25273Y43180
X36068Y51562
X43688Y48260
X44069Y45720
X44196Y40640
X27686Y36068
X25781Y25400
X25654Y22733
X31877Y19939
X31750Y8382
X41529Y38227
X31813Y26860
X37719Y25527
X41427Y22279
X42164Y26604
X32258Y12065
X30988Y12065
X26962Y41529
X34163Y19558
X40259Y17533
X39243Y48514
X33401Y8890
X40132Y47498
X32639Y7874
X32258Y9385
X42672Y39497
X43177Y40510
X40170Y42545
X32258Y45974
X29426Y42545
X28854Y32131
X29464Y43489
X28194Y35052
X34925Y17145
X27432Y35052
X34417Y16637
X30188Y45466
X30988Y35160
X29718Y44450
X29591Y49530
X37338Y33147
X37338Y39967
X25870Y40005
X28702Y33782
X40513Y6350
X34629Y4995
X35687Y4953
X36576Y8890
X34417Y12630
X32258Y25019
X31750Y25654
X31623Y1270
X40386Y35560
X39878Y39370
X36068Y30480
X34290Y27178
X31242Y38735
X39751Y49530
X31242Y41148
X42977Y11430
X35560Y16764
X64389Y21336
X56388Y14986
X50673Y9906
X65786Y8890
X60706Y30480
X56896Y39370
X68834Y10033
X55245Y14859
X67310Y43307
X53086Y50419
X57277Y48260
X58166Y46990
X59436Y48260
X59436Y45847
X56896Y45847
X54991Y33782
X57404Y34798
X58420Y28575
X64770Y27559
X53213Y15748
X51181Y17018
X58420Y22225
X60833Y22479
X50546Y11430
X59436Y20320
X54991Y6985
X60579Y9652
X58166Y7112
X58420Y12192
X65024Y13462
X63627Y4572
X62484Y7239
X49784Y57785
X49784Y57023
X49784Y56261
X49784Y55499
X49784Y54737
X49784Y53975
X49784Y58674
X50038Y53467
X50800Y53467
X51562Y53467
X52324Y53467
X53086Y53467
X53848Y53467
X54610Y53467
X55372Y53467
X56134Y53467
X56896Y53467
X57658Y53467
X58420Y53467
X59182Y53467
X59944Y53467
X60706Y53467
X61087Y58547
X61087Y53975
X61087Y54737
X61087Y55499
X61087Y56261
X61087Y57023
X61087Y57785
X48006Y55880
X48006Y53467
X61976Y57150
X63246Y55880
X61976Y54610
X64516Y54610
X63246Y53340
X66040Y52832
X67056Y50800
X59436Y49530
X56896Y49530
X54356Y49530
X54356Y45466
X54356Y43180
X60706Y43180
X61849Y41910
X52197Y37465
X58420Y31750
X59436Y34290
X64516Y31750
X63246Y31750
X64516Y29210
X64135Y24003
X48006Y19939
X49276Y19050
X50546Y17780
X48006Y17780
X49276Y16510
X50546Y12700
X49403Y11303
X49784Y7493
X50546Y6350
X49276Y5080
X51816Y5080
X64516Y2540
X64516Y5080
X67056Y5080
X68580Y9271
X67056Y10160
X59436Y13970
X57277Y14351
X51816Y13970
X58166Y43180
X59436Y44450
X56896Y44450
X49276Y33020
X53086Y46990
X56896Y27432
X52197Y3048
X49530Y51562
X48641Y48260
X48641Y45720
X48641Y43180
X59436Y51562
X67056Y48260
X67437Y45720
X67564Y40640
X51054Y36068
X49149Y25400
X49022Y22733
X55245Y19939
X55118Y8382
X64897Y38227
X55181Y26860
X61087Y25527
X64795Y22279
X65532Y26604
X55626Y12065
X54356Y12065
X50330Y41529
X57531Y19558
X63627Y17533
X62611Y48514
X56769Y8890
X63500Y47498
X56007Y7874
X55626Y9385
X66040Y39497
X66545Y40510
X63538Y42545
X55626Y45974
X52794Y42545
X52222Y32131
X52832Y43489
X51562Y35052
X58293Y17145
X50800Y35052
X57785Y16637
X53556Y45466
X54356Y35160
X53086Y44450
X52959Y49530
X60706Y33147
X60706Y39967
X49238Y40005
X50165Y48552
X52070Y33782
X63881Y6350
X57997Y4995
X59055Y4953
X59944Y8890
X57785Y12630
X55626Y25019
X55118Y25654
X54991Y1270
X63754Y35560
X63246Y39370
X59436Y30480
X57658Y27178
X54610Y38735
X63119Y49530
X54610Y41148
X66345Y11430
X58928Y16764
X87757Y21336
X79756Y14986
X74041Y9906
X89154Y8890
X84074Y30480
X80264Y39370
X92202Y10033
X78613Y14859
X90678Y43307
X76454Y50419
X80645Y48260
X81534Y46990
X82804Y48260
X82804Y45847
X80264Y45847
X78359Y33782
X80772Y34798
X81788Y28575
X88138Y27559
X76581Y15748
X74549Y17018
X81788Y22225
X84201Y22479
X73914Y11430
X82804Y20320
X78359Y6985
X83947Y9652
X86614Y181356
M30