M48
;GenerationSoftware,Autodesk,EAGLE,9.6.2*%
;CreationDate,2022-06-10T17:24:08Z*%
FMAT,2
ICI,OFF
METRIC,TZ,000.000
T6C0.305
T5C0.508
T4C0.650
T3C0.850
T2C1.016
T1C3.302
%
G90
M71
T1
X183896Y65278
X137160Y2540
X20320Y2540
X2540Y2540
X119380Y2540
X96012Y65278
X119380Y65278
X90424Y65278
X43688Y2540
X25908Y2540
X43688Y65278
X160528Y2540
X142748Y2540
X25908Y65278
X67056Y2540
X49276Y2540
X72644Y65278
X166116Y65278
X160528Y65278
X183896Y2540
X90424Y2540
X72644Y2540
X166116Y2540
X142748Y65278
X67056Y65278
X49276Y65278
X113792Y2540
X96012Y2540
X137160Y65278
X20320Y65278
X2540Y65278
X113792Y65278
T2
X176784Y86360
X71374Y102108
X71374Y104648
X71374Y107188
X71374Y109728
X71374Y112268
X71374Y114808
X80772Y86360
X83312Y86360
X115062Y114808
X115062Y112268
X115062Y109728
X115062Y107188
X115062Y104648
X115062Y102108
X115062Y99568
X115062Y97028
X115062Y94488
X115062Y91948
X115062Y89408
X115062Y86868
X115062Y84328
X115062Y81788
X115062Y79248
X115062Y76708
X94742Y86868
X94742Y89408
X94742Y91948
X94742Y94488
X94742Y97028
X94742Y99568
X94742Y102108
X94742Y104648
X94742Y107188
X94742Y109728
X94742Y112268
X94742Y114808
X104140Y86360
X106680Y86360
X138430Y114808
X138430Y112268
X138430Y109728
X138430Y107188
X138430Y104648
X138430Y102108
X138430Y99568
X138430Y97028
X138430Y94488
X138430Y91948
X138430Y89408
X138430Y86868
X138430Y84328
X138430Y81788
X138430Y79248
X138430Y76708
X118110Y86868
X118110Y89408
X118110Y91948
X118110Y94488
X118110Y97028
X118110Y99568
X68326Y36830
X118110Y102108
X118110Y104648
X118110Y107188
X118110Y109728
X21590Y52070
X21590Y49530
X21590Y46990
X21590Y44450
X21590Y41910
X21590Y39370
X21590Y36830
X21590Y34290
X21590Y31750
X21590Y29210
X21590Y26670
X21590Y24130
X21590Y21590
X21590Y19050
X21590Y16510
X21590Y13970
X1270Y24130
X1270Y26670
X1270Y29210
X1270Y31750
X1270Y34290
X1270Y36830
X1270Y39370
X1270Y41910
X1270Y44450
X1270Y46990
X1270Y49530
X1270Y52070
X118110Y112268
X118110Y114808
X127508Y86360
X130048Y86360
X161798Y114808
X161798Y112268
X161798Y109728
X161798Y107188
X161798Y104648
X161798Y102108
X10668Y23622
X13208Y23622
X44958Y52070
X44958Y49530
X44958Y46990
X44958Y44450
X44958Y41910
X44958Y39370
X44958Y36830
X44958Y34290
X44958Y31750
X44958Y29210
X44958Y26670
X44958Y24130
X44958Y21590
X44958Y19050
X44958Y16510
X44958Y13970
X24638Y24130
X24638Y26670
X24638Y29210
X24638Y31750
X24638Y34290
X24638Y36830
X24638Y39370
X24638Y41910
X24638Y44450
X24638Y46990
X24638Y49530
X24638Y52070
X161798Y99568
X161798Y97028
X161798Y94488
X161798Y91948
X161798Y89408
X161798Y86868
X161798Y84328
X161798Y81788
X161798Y79248
X161798Y76708
X34036Y23622
X36576Y23622
X68326Y52070
X68326Y49530
X68326Y46990
X68326Y44450
X68326Y41910
X68326Y39370
X141478Y86868
X68326Y34290
X68326Y31750
X68326Y29210
X68326Y26670
X68326Y24130
X68326Y21590
X68326Y19050
X68326Y16510
X68326Y13970
X48006Y24130
X48006Y26670
X48006Y29210
X48006Y31750
X48006Y34290
X48006Y36830
X48006Y39370
X48006Y41910
X48006Y44450
X48006Y46990
X48006Y49530
X48006Y52070
X141478Y89408
X141478Y91948
X141478Y94488
X141478Y97028
X141478Y99568
X141478Y102108
X141478Y104648
X141478Y107188
X141478Y109728
X141478Y112268
X57404Y23622
X59944Y23622
X91694Y52070
X91694Y49530
X91694Y46990
X91694Y44450
X91694Y41910
X91694Y39370
X91694Y36830
X91694Y34290
X91694Y31750
X91694Y29210
X91694Y26670
X91694Y24130
X91694Y21590
X91694Y19050
X91694Y16510
X91694Y13970
X71374Y24130
X71374Y26670
X71374Y29210
X71374Y31750
X71374Y34290
X71374Y36830
X71374Y39370
X71374Y41910
X71374Y44450
X71374Y46990
X71374Y49530
X71374Y52070
X141478Y114808
X150876Y86360
X153416Y86360
X185166Y114808
X185166Y112268
X185166Y109728
X185166Y107188
X185166Y104648
X185166Y102108
X185166Y99568
X80772Y23622
X83312Y23622
X115062Y52070
X115062Y49530
X115062Y46990
X115062Y44450
X115062Y41910
X115062Y39370
X115062Y36830
X115062Y34290
X115062Y31750
X115062Y29210
X115062Y26670
X115062Y24130
X115062Y21590
X115062Y19050
X115062Y16510
X115062Y13970
X94742Y24130
X94742Y26670
X94742Y29210
X94742Y31750
X94742Y34290
X94742Y36830
X94742Y39370
X94742Y41910
X94742Y44450
X94742Y46990
X94742Y49530
X94742Y52070
X185166Y97028
X185166Y94488
X185166Y91948
X185166Y89408
X185166Y86868
X185166Y84328
X185166Y81788
X185166Y79248
X185166Y76708
X104140Y23622
X106680Y23622
X138430Y52070
X138430Y49530
X138430Y46990
X138430Y44450
X138430Y41910
X138430Y39370
X138430Y36830
X138430Y34290
X138430Y31750
X138430Y29210
X138430Y26670
X138430Y24130
X138430Y21590
X138430Y19050
X138430Y16510
X138430Y13970
X118110Y24130
X118110Y26670
X118110Y29210
X118110Y31750
X118110Y34290
X118110Y36830
X118110Y39370
X118110Y41910
X118110Y44450
X118110Y46990
X118110Y49530
X118110Y52070
X164846Y86868
X164846Y89408
X164846Y91948
X164846Y94488
X164846Y97028
X164846Y99568
X164846Y102108
X164846Y104648
X164846Y107188
X164846Y109728
X127508Y23622
X130048Y23622
X161798Y52070
X161798Y49530
X161798Y46990
X161798Y44450
X161798Y41910
X161798Y39370
X161798Y36830
X161798Y34290
X161798Y31750
X161798Y29210
X161798Y26670
X161798Y24130
X161798Y21590
X161798Y19050
X161798Y16510
X161798Y13970
X141478Y24130
X141478Y26670
X141478Y29210
X141478Y31750
X141478Y34290
X141478Y36830
X141478Y39370
X141478Y41910
X141478Y44450
X141478Y46990
X141478Y49530
X141478Y52070
X164846Y112268
X164846Y114808
X174244Y86360
X44958Y107188
X150876Y23622
X153416Y23622
X185166Y52070
X185166Y49530
X185166Y46990
X185166Y44450
X185166Y41910
X185166Y39370
X185166Y36830
X185166Y34290
X185166Y31750
X185166Y29210
X185166Y26670
X185166Y24130
X185166Y21590
X185166Y19050
X185166Y16510
X185166Y13970
X164846Y24130
X164846Y26670
X164846Y29210
X164846Y31750
X164846Y34290
X164846Y36830
X164846Y39370
X164846Y41910
X164846Y44450
X164846Y46990
X164846Y49530
X164846Y52070
X174244Y23622
X176784Y23622
X21590Y114808
X21590Y112268
X21590Y109728
X21590Y107188
X21590Y104648
X21590Y102108
X21590Y99568
X21590Y97028
X21590Y94488
X21590Y91948
X21590Y89408
X21590Y86868
X21590Y84328
X21590Y81788
X21590Y79248
X21590Y76708
X1270Y86868
X1270Y89408
X1270Y91948
X1270Y94488
X1270Y97028
X1270Y99568
X1270Y102108
X1270Y104648
X1270Y107188
X1270Y109728
X1270Y112268
X1270Y114808
X10668Y86360
X13208Y86360
X44958Y114808
X44958Y112268
X44958Y109728
X44958Y104648
X44958Y102108
X44958Y99568
X44958Y97028
X44958Y94488
X44958Y91948
X44958Y89408
X44958Y86868
X44958Y84328
X44958Y81788
X44958Y79248
X44958Y76708
X24638Y86868
X24638Y89408
X24638Y91948
X24638Y94488
X24638Y97028
X24638Y99568
X24638Y102108
X24638Y104648
X24638Y107188
X24638Y109728
X24638Y112268
X24638Y114808
X34036Y86360
X36576Y86360
X68326Y114808
X68326Y112268
X68326Y109728
X68326Y107188
X68326Y104648
X68326Y102108
X68326Y99568
X68326Y97028
X68326Y94488
X68326Y91948
X68326Y89408
X68326Y86868
X68326Y84328
X68326Y81788
X68326Y79248
X68326Y76708
X48006Y86868
X48006Y89408
X48006Y91948
X48006Y94488
X48006Y97028
X48006Y99568
X48006Y102108
X48006Y104648
X48006Y107188
X48006Y109728
X48006Y112268
X48006Y114808
X57404Y86360
X59944Y86360
X91694Y114808
X91694Y112268
X91694Y109728
X91694Y107188
X91694Y104648
X91694Y102108
X91694Y99568
X91694Y97028
X91694Y94488
X91694Y91948
X91694Y89408
X91694Y86868
X91694Y84328
X91694Y81788
X91694Y79248
X91694Y76708
X71374Y86868
X71374Y89408
X71374Y91948
X71374Y94488
X71374Y97028
X71374Y99568
T3
X180340Y30504
X110236Y33504
X16764Y33504
X16764Y30504
X110236Y30504
X156972Y33504
X40132Y33504
X40132Y30504
X133604Y93242
X156972Y30504
X63500Y33504
X63500Y30504
X133604Y33504
X133604Y30504
X86868Y33504
X86868Y30504
X180340Y33504
X16764Y96242
X16764Y93242
X40132Y96242
X40132Y93242
X63500Y96242
X63500Y93242
X86868Y96242
X86868Y93242
X110236Y96242
X110236Y93242
X133604Y96242
X156972Y96242
X156972Y93242
X180340Y96242
X180340Y93242
T4
X55276Y4905
X14320Y67643
X8540Y4905
X14320Y4905
X31908Y67643
X37688Y67643
X31908Y4905
X37688Y4905
X55276Y67643
X61056Y67643
X61056Y4905
X78644Y4905
X78644Y67643
X84424Y67643
X84424Y4905
X102012Y4905
X102012Y67643
X107792Y67643
X107792Y4905
X125380Y4905
X125380Y67643
X131160Y67643
X131160Y4905
X8540Y67643
X148748Y67643
X154528Y67643
X148748Y4905
X154528Y4905
X172116Y67643
X177896Y67643
X172116Y4905
X177896Y4905
T5
X6731Y26797
X6731Y28067
X6731Y29337
X6731Y30607
X6731Y25527
X5461Y26797
X5461Y28067
X5461Y29337
X5461Y30607
X5461Y25527
X30099Y26797
X30099Y28067
X30099Y29337
X30099Y30607
X30099Y25527
X28829Y26797
X28829Y28067
X28829Y29337
X28829Y30607
X28829Y25527
X98933Y25527
X53467Y26797
X53467Y28067
X53467Y29337
X53467Y30607
X53467Y25527
X52197Y26797
X52197Y28067
X52197Y29337
X52197Y30607
X52197Y25527
X76835Y26797
X76835Y28067
X76835Y29337
X76835Y30607
X76835Y25527
X75565Y26797
X75565Y28067
X75565Y29337
X75565Y30607
X75565Y25527
X100203Y26797
X100203Y28067
X100203Y29337
X100203Y30607
X100203Y25527
X98933Y26797
X98933Y28067
X98933Y29337
X98933Y30607
X123571Y26797
X123571Y28067
X123571Y29337
X123571Y30607
X123571Y25527
X122301Y26797
X122301Y28067
X122301Y29337
X122301Y30607
X122301Y25527
X146939Y26797
X146939Y28067
X146939Y29337
X75565Y92075
X75565Y93345
X75565Y88265
X5461Y88265
X169037Y30607
X169037Y25527
X123571Y89535
X123571Y90805
X123571Y92075
X123571Y93345
X123571Y88265
X122301Y89535
X122301Y90805
X122301Y92075
X122301Y93345
X122301Y88265
X146939Y25527
X30099Y89535
X30099Y90805
X30099Y92075
X53467Y89535
X53467Y90805
X53467Y92075
X53467Y93345
X53467Y88265
X52197Y89535
X52197Y90805
X52197Y92075
X52197Y93345
X52197Y88265
X30099Y93345
X30099Y88265
X28829Y89535
X28829Y90805
X28829Y92075
X28829Y93345
X28829Y88265
X145669Y26797
X145669Y28067
X146939Y30607
X145669Y29337
X145669Y30607
X145669Y25527
X100203Y89535
X100203Y90805
X100203Y92075
X146939Y89535
X146939Y90805
X146939Y92075
X146939Y93345
X146939Y88265
X145669Y89535
X145669Y90805
X145669Y92075
X145669Y93345
X145669Y88265
X100203Y93345
X100203Y88265
X98933Y89535
X98933Y90805
X98933Y92075
X98933Y93345
X98933Y88265
X170307Y26797
X170307Y28067
X170307Y29337
X170307Y30607
X170307Y25527
X169037Y26797
X169037Y28067
X169037Y29337
X6731Y89535
X6731Y90805
X6731Y92075
X6731Y93345
X6731Y88265
X5461Y89535
X5461Y90805
X5461Y92075
X5461Y93345
X76835Y89535
X76835Y90805
X76835Y92075
X76835Y93345
X76835Y88265
X75565Y89535
X170307Y89535
X170307Y90805
X170307Y92075
X170307Y93345
X170307Y88265
X169037Y89535
X169037Y90805
X169037Y92075
X169037Y93345
X169037Y88265
X75565Y90805
T6
X96520Y54737
X96520Y53975
X96520Y58674
X96774Y53467
X97536Y53467
X98298Y53467
X99060Y53467
X99822Y53467
X100584Y53467
X101346Y53467
X102108Y53467
X102870Y53467
X103632Y53467
X104394Y53467
X105156Y53467
X105918Y53467
X106680Y53467
X107442Y53467
X107823Y58547
X107823Y53975
X107823Y54737
X107823Y55499
X107823Y56261
X107823Y57023
X107823Y57785
X94742Y55880
X94742Y53467
X108712Y57150
X109982Y55880
X108712Y54610
X111252Y54610
X109982Y53340
X112776Y52832
X113792Y50800
X106172Y49530
X103632Y49530
X101092Y49530
X101092Y45466
X101092Y43180
X107442Y43180
X108585Y41910
X98933Y37465
X105156Y31750
X106172Y34290
X111252Y31750
X109982Y31750
X111252Y29210
X110871Y24003
X94742Y19939
X96012Y19050
X97282Y17780
X94742Y17780
X96012Y16510
X97282Y12700
X96139Y11303
X96520Y7493
X97282Y6350
X96012Y5080
X98552Y5080
X111252Y2540
X111252Y5080
X113792Y5080
X115316Y9271
X113792Y10160
X106172Y13970
X104013Y14351
X98552Y13970
X104902Y43180
X106172Y44450
X103632Y44450
X96012Y33020
X99822Y46990
X103632Y27432
X98933Y3048
X96266Y51562
X95377Y48260
X95377Y45720
X95377Y43180
X106172Y51562
X113792Y48260
X114173Y45720
X114300Y40640
X97790Y36068
X95885Y25400
X95758Y22733
X101981Y19939
X101854Y8382
X111633Y38227
X101917Y26860
X107823Y25527
X111531Y22279
X112268Y26604
X102362Y12065
X101092Y12065
X97066Y41529
X104267Y19558
X110363Y17533
X109347Y48514
X103505Y8890
X110236Y47498
X102743Y7874
X102362Y9385
X112776Y39497
X113281Y40510
X110274Y42545
X102362Y45974
X99530Y42545
X98958Y32131
X99568Y43489
X98298Y35052
X105029Y17145
X97536Y35052
X104521Y16637
X100292Y45466
X101092Y35160
X99822Y44450
X99695Y49530
X107442Y33147
X107442Y39967
X95974Y40005
X96901Y48552
X98806Y33782
X110617Y6350
X104733Y4995
X105791Y4953
X106680Y8890
X104521Y12630
X102362Y25019
X101854Y25654
X101727Y1270
X110490Y35560
X109982Y39370
X106172Y30480
X104394Y27178
X101346Y38735
X109855Y49530
X101346Y41148
X113081Y11430
X105664Y16764
X134493Y21336
X126492Y14986
X120777Y9906
X135890Y8890
X130810Y30480
X127000Y39370
X138938Y10033
X125349Y14859
X137414Y43307
X123190Y50419
X127381Y48260
X128270Y46990
X129540Y48260
X129540Y45847
X127000Y45847
X125095Y33782
X127508Y34798
X128524Y28575
X134874Y27559
X123317Y15748
X121285Y17018
X128524Y22225
X130937Y22479
X120650Y11430
X129540Y20320
X125095Y6985
X130683Y9652
X128270Y7112
X128524Y12192
X135128Y13462
X133731Y4572
X132588Y7239
X119888Y57785
X119888Y57023
X119888Y56261
X119888Y55499
X119888Y54737
X119888Y53975
X119888Y58674
X120142Y53467
X120904Y53467
X121666Y53467
X122428Y53467
X123190Y53467
X123952Y53467
X124714Y53467
X125476Y53467
X126238Y53467
X127000Y53467
X127762Y53467
X128524Y53467
X129286Y53467
X130048Y53467
X130810Y53467
X131191Y58547
X131191Y53975
X131191Y54737
X131191Y55499
X131191Y56261
X131191Y57023
X131191Y57785
X118110Y55880
X118110Y53467
X132080Y57150
X133350Y55880
X132080Y54610
X134620Y54610
X133350Y53340
X136144Y52832
X137160Y50800
X129540Y49530
X127000Y49530
X124460Y49530
X124460Y45466
X124460Y43180
X130810Y43180
X131953Y41910
X122301Y37465
X128524Y31750
X129540Y34290
X134620Y31750
X133350Y31750
X134620Y29210
X134239Y24003
X118110Y19939
X119380Y19050
X120650Y17780
X118110Y17780
X119380Y16510
X120650Y12700
X119507Y11303
X119888Y7493
X120650Y6350
X119380Y5080
X121920Y5080
X134620Y2540
X134620Y5080
X137160Y5080
X138684Y9271
X137160Y10160
X129540Y13970
X127381Y14351
X121920Y13970
X128270Y43180
X129540Y44450
X127000Y44450
X119380Y33020
X123190Y46990
X127000Y27432
X122301Y3048
X119634Y51562
X118745Y48260
X118745Y45720
X118745Y43180
X129540Y51562
X137160Y48260
X137541Y45720
X137668Y40640
X121158Y36068
X119253Y25400
X119126Y22733
X125349Y19939
X125222Y8382
X135001Y38227
X125285Y26860
X131191Y25527
X134899Y22279
X135636Y26604
X125730Y12065
X124460Y12065
X120434Y41529
X127635Y19558
X133731Y17533
X132715Y48514
X126873Y8890
X133604Y47498
X126111Y7874
X125730Y9385
X136144Y39497
X136649Y40510
X133642Y42545
X125730Y45974
X122898Y42545
X122326Y32131
X122936Y43489
X121666Y35052
X128397Y17145
X120904Y35052
X127889Y16637
X123660Y45466
X124460Y35160
X123190Y44450
X123063Y49530
X130810Y33147
X130810Y39967
X119342Y40005
X120269Y48552
X122174Y33782
X133985Y6350
X128101Y4995
X129159Y4953
X130048Y8890
X127889Y12630
X125730Y25019
X125222Y25654
X125095Y1270
X133858Y35560
X133350Y39370
X129540Y30480
X127762Y27178
X124714Y38735
X133223Y49530
X124714Y41148
X136449Y11430
X129032Y16764
X157861Y21336
X149860Y14986
X144145Y9906
X159258Y8890
X154178Y30480
X150368Y39370
X162306Y10033
X148717Y14859
X160782Y43307
X146558Y50419
X150749Y48260
X151638Y46990
X152908Y48260
X152908Y45847
X150368Y45847
X148463Y33782
X150876Y34798
X151892Y28575
X158242Y27559
X146685Y15748
X144653Y17018
X151892Y22225
X154305Y22479
X144018Y11430
X152908Y20320
X148463Y6985
X154051Y9652
X151638Y7112
X151892Y12192
X158496Y13462
X157099Y4572
X155956Y7239
X143256Y57785
X143256Y57023
X143256Y56261
X143256Y55499
X143256Y54737
X143256Y53975
X143256Y58674
X143510Y53467
X144272Y53467
X145034Y53467
X145796Y53467
X146558Y53467
X147320Y53467
X148082Y53467
X148844Y53467
X149606Y53467
X150368Y53467
X151130Y53467
X151892Y53467
X152654Y53467
X153416Y53467
X154178Y53467
X154559Y58547
X154559Y53975
X154559Y54737
X154559Y55499
X154559Y56261
X154559Y57023
X154559Y57785
X141478Y55880
X141478Y53467
X155448Y57150
X156718Y55880
X155448Y54610
X157988Y54610
X156718Y53340
X159512Y52832
X160528Y50800
X152908Y49530
X150368Y49530
X147828Y49530
X147828Y45466
X147828Y43180
X154178Y43180
X155321Y41910
X145669Y37465
X151892Y31750
X152908Y34290
X157988Y31750
X156718Y31750
X157988Y29210
X157607Y24003
X141478Y19939
X142748Y19050
X144018Y17780
X141478Y17780
X142748Y16510
X144018Y12700
X142875Y11303
X143256Y7493
X144018Y6350
X142748Y5080
X145288Y5080
X157988Y2540
X157988Y5080
X160528Y5080
X162052Y9271
X160528Y10160
X152908Y13970
X150749Y14351
X145288Y13970
X151638Y43180
X152908Y44450
X150368Y44450
X142748Y33020
X146558Y46990
X150368Y27432
X145669Y3048
X143002Y51562
X142113Y48260
X142113Y45720
X142113Y43180
X152908Y51562
X160528Y48260
X160909Y45720
X161036Y40640
X144526Y36068
X142621Y25400
X142494Y22733
X148717Y19939
X148590Y8382
X158369Y38227
X148654Y26860
X154559Y25527
X158267Y22279
X159004Y26604
X149098Y12065
X147828Y12065
X143802Y41529
X151003Y19558
X157099Y17533
X156083Y48514
X150241Y8890
X156972Y47498
X149479Y7874
X149098Y9385
X159512Y39497
X160017Y40510
X157010Y42545
X149098Y45974
X146266Y42545
X145694Y32131
X146304Y43489
X145034Y35052
X151765Y17145
X144272Y35052
X151257Y16637
X147028Y45466
X147828Y35160
X146558Y44450
X146431Y49530
X154178Y33147
X154178Y39967
X142710Y40005
X143637Y48552
X145542Y33782
X157353Y6350
X151469Y4995
X152527Y4953
X153416Y8890
X151257Y12630
X149098Y25019
X148590Y25654
X148463Y1270
X157226Y35560
X156718Y39370
X152908Y30480
X151130Y27178
X148082Y38735
X156591Y49530
X148082Y41148
X159817Y11430
X152400Y16764
X181229Y21336
X173228Y14986
X167513Y9906
X182626Y8890
X177546Y30480
X173736Y39370
X185674Y10033
X172085Y14859
X184150Y43307
X169926Y50419
X174117Y48260
X175006Y46990
X176276Y48260
X176276Y45847
X173736Y45847
X171831Y33782
X174244Y34798
X175260Y28575
X181610Y27559
X170053Y15748
X168021Y17018
X175260Y22225
X177673Y22479
X167386Y11430
X176276Y20320
X171831Y6985
X177419Y9652
X175006Y7112
X175260Y12192
X181864Y13462
X180467Y4572
X179324Y7239
X166624Y57785
X166624Y57023
X166624Y56261
X166624Y55499
X166624Y54737
X166624Y53975
X166624Y58674
X166878Y53467
X167640Y53467
X168402Y53467
X169164Y53467
X169926Y53467
X170688Y53467
X171450Y53467
X172212Y53467
X172974Y53467
X173736Y53467
X174498Y53467
X175260Y53467
X176022Y53467
X176784Y53467
X177546Y53467
X177927Y58547
X177927Y53975
X177927Y54737
X177927Y55499
X177927Y56261
X177927Y57023
X177927Y57785
X164846Y55880
X164846Y53467
X178816Y57150
X180086Y55880
X178816Y54610
X181356Y54610
X180086Y53340
X182880Y52832
X183896Y50800
X176276Y49530
X173736Y49530
X171196Y49530
X171196Y45466
X171196Y43180
X177546Y43180
X178689Y41910
X169037Y37465
X175260Y31750
X176276Y34290
X181356Y31750
X180086Y31750
X181356Y29210
X180975Y24003
X164846Y19939
X166116Y19050
X167386Y17780
X164846Y17780
X166116Y16510
X167386Y12700
X166243Y11303
X166624Y7493
X167386Y6350
X166116Y5080
X168656Y5080
X181356Y2540
X181356Y5080
X183896Y5080
X185420Y9271
X183896Y10160
X176276Y13970
X174117Y14351
X168656Y13970
X175006Y43180
X176276Y44450
X173736Y44450
X166116Y33020
X169926Y46990
X173736Y27432
X169037Y3048
X166370Y51562
X165481Y48260
X165481Y45720
X165481Y43180
X176276Y51562
X183896Y48260
X184277Y45720
X184404Y40640
X167894Y36068
X165989Y25400
X165862Y22733
X172085Y19939
X171958Y8382
X181737Y38227
X172022Y26860
X177927Y25527
X181635Y22279
X182372Y26604
X172466Y12065
X171196Y12065
X167170Y41529
X174371Y19558
X180467Y17533
X179451Y48514
X173609Y8890
X180340Y47498
X172847Y7874
X172466Y9385
X182880Y39497
X183385Y40510
X180378Y42545
X172466Y45974
X169634Y42545
X169062Y32131
X169672Y43489
X168402Y35052
X175133Y17145
X167640Y35052
X174625Y16637
X170396Y45466
X171196Y35160
X169926Y44450
X169799Y49530
X177546Y33147
X177546Y39967
X166078Y40005
X167005Y48552
X168910Y33782
X180721Y6350
X174837Y4995
X175895Y4953
X176784Y8890
X174625Y12630
X172466Y25019
X171958Y25654
X171831Y1270
X180594Y35560
X180086Y39370
X176276Y30480
X174498Y27178
X171450Y38735
X179959Y49530
X171450Y41148
X183185Y11430
X175768Y16764
X17653Y84074
X9652Y77724
X3937Y72644
X19050Y71628
X13970Y93218
X10160Y102108
X22098Y72771
X8509Y77597
X20574Y106045
X6350Y113157
X10541Y110998
X11430Y109728
X12700Y110998
X12700Y108585
X10160Y108585
X8255Y96520
X10668Y97536
X11684Y91313
X18034Y90297
X6477Y78486
X4445Y79756
X11684Y84963
X14097Y85217
X3810Y74168
X12700Y83058
X8255Y69723
X13843Y72390
X11430Y69850
X11684Y74930
X18288Y76200
X16891Y67310
X15748Y69977
X3048Y120523
X3048Y119761
X3048Y118999
X3048Y118237
X3048Y117475
X3048Y116713
X3048Y121412
X3302Y116205
X4064Y116205
X4826Y116205
X5588Y116205
X6350Y116205
X7112Y116205
X7874Y116205
X8636Y116205
X9398Y116205
X10160Y116205
X10922Y116205
X11684Y116205
X12446Y116205
X13208Y116205
X13970Y116205
X14351Y121285
X14351Y116713
X14351Y117475
X14351Y118237
X14351Y118999
X14351Y119761
X14351Y120523
X1270Y118618
X1270Y116205
X15240Y119888
X16510Y118618
X15240Y117348
X17780Y117348
X16510Y116078
X19304Y115570
X20320Y113538
X12700Y112268
X10160Y112268
X7620Y112268
X7620Y108204
X7620Y105918
X13970Y105918
X15113Y104648
X5461Y100203
X11684Y94488
X12700Y97028
X17780Y94488
X16510Y94488
X17780Y91948
X17399Y86741
X1270Y82677
X2540Y81788
X3810Y80518
X1270Y80518
X2540Y79248
X3810Y75438
X2667Y74041
X3048Y70231
X3810Y69088
X2540Y67818
X5080Y67818
X17780Y65278
X17780Y67818
X20320Y67818
X21844Y72009
X20320Y72898
X12700Y76708
X10541Y77089
X5080Y76708
X11430Y105918
X12700Y107188
X10160Y107188
X2540Y95758
X6350Y109728
X10160Y90170
X5461Y65786
X2794Y114300
X1905Y110998
X1905Y108458
X1905Y105918
X12700Y114300
X20320Y110998
X20701Y108458
X20828Y103378
X4318Y98806
X2413Y88138
X2286Y85471
X8509Y82677
X8382Y71120
X18161Y100965
X8446Y89598
X14351Y88265
X18059Y85017
X18796Y89342
X8890Y74803
X7620Y74803
X3594Y104267
X10795Y82296
X16891Y80271
X15875Y111252
X10033Y71628
X16764Y110236
X9271Y70612
X8890Y72123
X19304Y102235
X19809Y103248
X16802Y105283
X8890Y108712
X6058Y105283
X5486Y94869
X6096Y106227
X4826Y97790
X11557Y79883
X4064Y97790
X11049Y79375
X6820Y108204
X7620Y97898
X6350Y107188
X6223Y112268
X13970Y95885
X13970Y102705
X2502Y102743
X3429Y111290
X5334Y96520
X17145Y69088
X11261Y67733
X12319Y67691
X13208Y71628
X11049Y75368
X8890Y87757
X8382Y88392
X8255Y64008
X17018Y98298
X16510Y102108
X12700Y93218
X10922Y89916
X7874Y101473
X16383Y112268
X7874Y103886
X19609Y74168
X12192Y79502
X41021Y84074
X33020Y77724
X27305Y72644
X42418Y71628
X37338Y93218
X33528Y102108
X45466Y72771
X31877Y77597
X43942Y106045
X29718Y113157
X33909Y110998
X34798Y109728
X36068Y110998
X36068Y108585
X33528Y108585
X31623Y96520
X34036Y97536
X35052Y91313
X41402Y90297
X29845Y78486
X27813Y79756
X35052Y84963
X37465Y85217
X27178Y74168
X36068Y83058
X31623Y69723
X37211Y72390
X34798Y69850
X35052Y74930
X41656Y76200
X40259Y67310
X39116Y69977
X26416Y120523
X26416Y119761
X26416Y118999
X26416Y118237
X26416Y117475
X26416Y116713
X26416Y121412
X26670Y116205
X27432Y116205
X28194Y116205
X28956Y116205
X29718Y116205
X30480Y116205
X31242Y116205
X32004Y116205
X32766Y116205
X33528Y116205
X34290Y116205
X35052Y116205
X35814Y116205
X36576Y116205
X37338Y116205
X37719Y121285
X37719Y116713
X37719Y117475
X37719Y118237
X37719Y118999
X37719Y119761
X37719Y120523
X24638Y118618
X24638Y116205
X38608Y119888
X39878Y118618
X38608Y117348
X41148Y117348
X39878Y116078
X42672Y115570
X43688Y113538
X36068Y112268
X33528Y112268
X30988Y112268
X30988Y108204
X30988Y105918
X37338Y105918
X38481Y104648
X28829Y100203
X35052Y94488
X36068Y97028
X41148Y94488
X39878Y94488
X41148Y91948
X40767Y86741
X24638Y82677
X25908Y81788
X27178Y80518
X24638Y80518
X25908Y79248
X27178Y75438
X26035Y74041
X26416Y70231
X27178Y69088
X25908Y67818
X28448Y67818
X41148Y65278
X41148Y67818
X43688Y67818
X45212Y72009
X43688Y72898
X36068Y76708
X33909Y77089
X28448Y76708
X34798Y105918
X36068Y107188
X33528Y107188
X25908Y95758
X29718Y109728
X33528Y90170
X28829Y65786
X26162Y114300
X25273Y110998
X25273Y108458
X25273Y105918
X36068Y114300
X43688Y110998
X44069Y108458
X44196Y103378
X27686Y98806
X25781Y88138
X25654Y85471
X31877Y82677
X31750Y71120
X41529Y100965
X31813Y89598
X37719Y88265
X41427Y85017
X42164Y89342
X32258Y74803
X30988Y74803
X26962Y104267
X34163Y82296
X40259Y80271
X39243Y111252
X33401Y71628
X40132Y110236
X32639Y70612
X32258Y72123
X42672Y102235
X43177Y103248
X40170Y105283
X32258Y108712
X29426Y105283
X28854Y94869
X29464Y106227
X28194Y97790
X34925Y79883
X27432Y97790
X34417Y79375
X30188Y108204
X30988Y97898
X29718Y107188
X29591Y112268
X37338Y95885
X37338Y102705
X25870Y102743
X26797Y111290
X28702Y96520
X40513Y69088
X34629Y67733
X35687Y67691
X36576Y71628
X34417Y75368
X32258Y87757
X31750Y88392
X31623Y64008
X40386Y98298
X39878Y102108
X36068Y93218
X34290Y89916
X31242Y101473
X39751Y112268
X31242Y103886
X42977Y74168
X35560Y79502
X64389Y84074
X56388Y77724
X50673Y72644
X65786Y71628
X60706Y93218
X56896Y102108
X68834Y72771
X55245Y77597
X67310Y106045
X53086Y113157
X57277Y110998
X58166Y109728
X59436Y110998
X59436Y108585
X56896Y108585
X54991Y96520
X57404Y97536
X58420Y91313
X50546Y6350
X53213Y78486
X51181Y79756
X58420Y84963
X60833Y85217
X50546Y74168
X59436Y83058
X54991Y69723
X60579Y72390
X58166Y69850
X58420Y74930
X65024Y76200
X63627Y67310
X62484Y69977
X49784Y120523
X49784Y119761
X49784Y118999
X49784Y118237
X49784Y117475
X49784Y116713
X49784Y121412
X50038Y116205
X50800Y116205
X51562Y116205
X52324Y116205
X53086Y116205
X53848Y116205
X54610Y116205
X55372Y116205
X56134Y116205
X56896Y116205
X57658Y116205
X58420Y116205
X59182Y116205
X59944Y116205
X60706Y116205
X61087Y121285
X61087Y116713
X61087Y117475
X61087Y118237
X61087Y118999
X61087Y119761
X61087Y120523
X48006Y118618
X48006Y116205
X61976Y119888
X63246Y118618
X61976Y117348
X64516Y117348
X63246Y116078
X66040Y115570
X67056Y113538
X59436Y112268
X56896Y112268
X54356Y112268
X54356Y108204
X54356Y105918
X60706Y105918
X61849Y104648
X52197Y100203
X58420Y94488
X59436Y97028
X64516Y94488
X63246Y94488
X64516Y91948
X64135Y86741
X48006Y82677
X49276Y81788
X50546Y80518
X48006Y80518
X49276Y79248
X50546Y75438
X49403Y74041
X49784Y70231
X50546Y69088
X49276Y67818
X51816Y67818
X64516Y65278
X64516Y67818
X67056Y67818
X68580Y72009
X67056Y72898
X59436Y76708
X57277Y77089
X51816Y76708
X58166Y105918
X59436Y107188
X56896Y107188
X49276Y95758
X53086Y109728
X56896Y90170
X52197Y65786
X49530Y114300
X48641Y110998
X48641Y108458
X48641Y105918
X59436Y114300
X67056Y110998
X67437Y108458
X67564Y103378
X51054Y98806
X49149Y88138
X49022Y85471
X55245Y82677
X55118Y71120
X64897Y100965
X55181Y89598
X61087Y88265
X64795Y85017
X65532Y89342
X55626Y74803
X54356Y74803
X50330Y104267
X57531Y82296
X63627Y80271
X62611Y111252
X56769Y71628
X63500Y110236
X56007Y70612
X55626Y72123
X66040Y102235
X66545Y103248
X63538Y105283
X55626Y108712
X52794Y105283
X52222Y94869
X52832Y106227
X51562Y97790
X58293Y79883
X50800Y97790
X57785Y79375
X53556Y108204
X54356Y97898
X53086Y107188
X52959Y112268
X60706Y95885
X60706Y102705
X49238Y102743
X50165Y111290
X52070Y96520
X63881Y69088
X57997Y67733
X59055Y67691
X59944Y71628
X57785Y75368
X55626Y87757
X55118Y88392
X54991Y64008
X63754Y98298
X63246Y102108
X59436Y93218
X57658Y89916
X54610Y101473
X63119Y112268
X54610Y103886
X66345Y74168
X58928Y79502
X87757Y84074
X79756Y77724
X74041Y72644
X89154Y71628
X84074Y93218
X80264Y102108
X92202Y72771
X78613Y77597
X90678Y106045
X76454Y113157
X80645Y110998
X81534Y109728
X82804Y110998
X82804Y108585
X80264Y108585
X78359Y96520
X80772Y97536
X81788Y91313
X88138Y90297
X76581Y78486
X74549Y79756
X81788Y84963
X84201Y85217
X73914Y74168
X82804Y83058
X78359Y69723
X83947Y72390
X81534Y69850
X81788Y74930
X88392Y76200
X86995Y67310
X85852Y69977
X73152Y120523
X73152Y119761
X73152Y118999
X73152Y118237
X73152Y117475
X73152Y116713
X73152Y121412
X73406Y116205
X74168Y116205
X74930Y116205
X75692Y116205
X76454Y116205
X77216Y116205
X77978Y116205
X78740Y116205
X79502Y116205
X80264Y116205
X81026Y116205
X81788Y116205
X82550Y116205
X83312Y116205
X84074Y116205
X84455Y121285
X84455Y116713
X84455Y117475
X84455Y118237
X84455Y118999
X84455Y119761
X84455Y120523
X71374Y118618
X71374Y116205
X85344Y119888
X86614Y118618
X85344Y117348
X87884Y117348
X86614Y116078
X89408Y115570
X90424Y113538
X82804Y112268
X80264Y112268
X77724Y112268
X77724Y108204
X77724Y105918
X84074Y105918
X85217Y104648
X75565Y100203
X81788Y94488
X82804Y97028
X87884Y94488
X86614Y94488
X87884Y91948
X87503Y86741
X71374Y82677
X72644Y81788
X73914Y80518
X71374Y80518
X72644Y79248
X73914Y75438
X72771Y74041
X73152Y70231
X73914Y69088
X72644Y67818
X75184Y67818
X87884Y65278
X87884Y67818
X90424Y67818
X91948Y72009
X90424Y72898
X82804Y76708
X80645Y77089
X75184Y76708
X81534Y105918
X82804Y107188
X80264Y107188
X72644Y95758
X76454Y109728
X80264Y90170
X75565Y65786
X72898Y114300
X72009Y110998
X72009Y108458
X72009Y105918
X82804Y114300
X90424Y110998
X90805Y108458
X90932Y103378
X74422Y98806
X72517Y88138
X72390Y85471
X78613Y82677
X78486Y71120
X88265Y100965
X78550Y89598
X84455Y88265
X88163Y85017
X88900Y89342
X78994Y74803
X77724Y74803
X73698Y104267
X80899Y82296
X86995Y80271
X85979Y111252
X80137Y71628
X86868Y110236
X79375Y70612
X78994Y72123
X89408Y102235
X89913Y103248
X86906Y105283
X78994Y108712
X76162Y105283
X75590Y94869
X76200Y106227
X74930Y97790
X81661Y79883
X74168Y97790
X81153Y79375
X76924Y108204
X77724Y97898
X76454Y107188
X76327Y112268
X84074Y95885
X84074Y102705
X72606Y102743
X73533Y111290
X75438Y96520
X87249Y69088
X81365Y67733
X82423Y67691
X83312Y71628
X81153Y75368
X78994Y87757
X78486Y88392
X78359Y64008
X87122Y98298
X86614Y102108
X82804Y93218
X81026Y89916
X77978Y101473
X86487Y112268
X77978Y103886
X89713Y74168
X82296Y79502
X111125Y84074
X103124Y77724
X97409Y72644
X112522Y71628
X107442Y93218
X103632Y102108
X115570Y72771
X101981Y77597
X114046Y106045
X99822Y113157
X104013Y110998
X104902Y109728
X106172Y110998
X106172Y108585
X103632Y108585
X101727Y96520
X104140Y97536
X105156Y91313
X111506Y90297
X99949Y78486
X97917Y79756
X105156Y84963
X107569Y85217
X97282Y74168
X106172Y83058
X101727Y69723
X107315Y72390
X104902Y69850
X105156Y74930
X111760Y76200
X110363Y67310
X109220Y69977
X96520Y120523
X96520Y119761
X96520Y118999
X96520Y118237
X96520Y117475
X96520Y116713
X96520Y121412
X96774Y116205
X97536Y116205
X98298Y116205
X99060Y116205
X99822Y116205
X100584Y116205
X101346Y116205
X102108Y116205
X102870Y116205
X103632Y116205
X104394Y116205
X105156Y116205
X105918Y116205
X106680Y116205
X107442Y116205
X107823Y121285
X107823Y116713
X107823Y117475
X107823Y118237
X107823Y118999
X107823Y119761
X107823Y120523
X94742Y118618
X94742Y116205
X108712Y119888
X109982Y118618
X108712Y117348
X111252Y117348
X109982Y116078
X112776Y115570
X113792Y113538
X106172Y112268
X103632Y112268
X101092Y112268
X101092Y108204
X101092Y105918
X107442Y105918
X108585Y104648
X98933Y100203
X105156Y94488
X106172Y97028
X111252Y94488
X109982Y94488
X111252Y91948
X110871Y86741
X94742Y82677
X96012Y81788
X97282Y80518
X94742Y80518
X96012Y79248
X97282Y75438
X96139Y74041
X96520Y70231
X97282Y69088
X96012Y67818
X98552Y67818
X111252Y65278
X111252Y67818
X113792Y67818
X115316Y72009
X113792Y72898
X106172Y76708
X104013Y77089
X98552Y76708
X104902Y105918
X106172Y107188
X103632Y107188
X96012Y95758
X99822Y109728
X103632Y90170
X98933Y65786
X96266Y114300
X95377Y110998
X95377Y108458
X95377Y105918
X106172Y114300
X113792Y110998
X114173Y108458
X114300Y103378
X97790Y98806
X95885Y88138
X95758Y85471
X101981Y82677
X101854Y71120
X111633Y100965
X101917Y89598
X107823Y88265
X111531Y85017
X112268Y89342
X102362Y74803
X101092Y74803
X97066Y104267
X104267Y82296
X110363Y80271
X109347Y111252
X103505Y71628
X110236Y110236
X102743Y70612
X102362Y72123
X112776Y102235
X113281Y103248
X110274Y105283
X102362Y108712
X99530Y105283
X98958Y94869
X99568Y106227
X98298Y97790
X105029Y79883
X97536Y97790
X104521Y79375
X100292Y108204
X101092Y97898
X99822Y107188
X99695Y112268
X107442Y95885
X107442Y102705
X95974Y102743
X96901Y111290
X98806Y96520
X110617Y69088
X104733Y67733
X105791Y67691
X106680Y71628
X104521Y75368
X102362Y87757
X101854Y88392
X101727Y64008
X110490Y98298
X109982Y102108
X106172Y93218
X104394Y89916
X101346Y101473
X109855Y112268
X101346Y103886
X113081Y74168
X105664Y79502
X134493Y84074
X126492Y77724
X120777Y72644
X135890Y71628
X130810Y93218
X127000Y102108
X138938Y72771
X125349Y77597
X137414Y106045
X123190Y113157
X127381Y110998
X128270Y109728
X129540Y110998
X129540Y108585
X127000Y108585
X125095Y96520
X127508Y97536
X128524Y91313
X134874Y90297
X123317Y78486
X121285Y79756
X128524Y84963
X130937Y85217
X120650Y74168
X129540Y83058
X125095Y69723
X130683Y72390
X128270Y69850
X128524Y74930
X135128Y76200
X133731Y67310
X132588Y69977
X119888Y120523
X119888Y119761
X119888Y118999
X119888Y118237
X119888Y117475
X119888Y116713
X119888Y121412
X120142Y116205
X120904Y116205
X121666Y116205
X122428Y116205
X123190Y116205
X123952Y116205
X124714Y116205
X125476Y116205
X126238Y116205
X127000Y116205
X127762Y116205
X128524Y116205
X129286Y116205
X130048Y116205
X130810Y116205
X131191Y121285
X131191Y116713
X131191Y117475
X131191Y118237
X131191Y118999
X131191Y119761
X131191Y120523
X118110Y118618
X118110Y116205
X132080Y119888
X133350Y118618
X132080Y117348
X134620Y117348
X133350Y116078
X136144Y115570
X137160Y113538
X129540Y112268
X127000Y112268
X124460Y112268
X124460Y108204
X124460Y105918
X130810Y105918
X131953Y104648
X122301Y100203
X128524Y94488
X129540Y97028
X134620Y94488
X133350Y94488
X134620Y91948
X134239Y86741
X118110Y82677
X119380Y81788
X120650Y80518
X118110Y80518
X119380Y79248
X120650Y75438
X119507Y74041
X119888Y70231
X120650Y69088
X119380Y67818
X121920Y67818
X134620Y65278
X134620Y67818
X137160Y67818
X138684Y72009
X137160Y72898
X129540Y76708
X127381Y77089
X121920Y76708
X128270Y105918
X129540Y107188
X127000Y107188
X119380Y95758
X123190Y109728
X127000Y90170
X122301Y65786
X119634Y114300
X118745Y110998
X118745Y108458
X118745Y105918
X129540Y114300
X137160Y110998
X137541Y108458
X137668Y103378
X121158Y98806
X119253Y88138
X119126Y85471
X125349Y82677
X125222Y71120
X135001Y100965
X125285Y89598
X131191Y88265
X134899Y85017
X135636Y89342
X125730Y74803
X124460Y74803
X120434Y104267
X127635Y82296
X133731Y80271
X132715Y111252
X126873Y71628
X133604Y110236
X126111Y70612
X125730Y72123
X136144Y102235
X136649Y103248
X133642Y105283
X125730Y108712
X122898Y105283
X122326Y94869
X122936Y106227
X121666Y97790
X128397Y79883
X120904Y97790
X127889Y79375
X123660Y108204
X124460Y97898
X123190Y107188
X123063Y112268
X130810Y95885
X130810Y102705
X119342Y102743
X120269Y111290
X122174Y96520
X133985Y69088
X128101Y67733
X129159Y67691
X130048Y71628
X127889Y75368
X125730Y87757
X125222Y88392
X125095Y64008
X133858Y98298
X133350Y102108
X129540Y93218
X127762Y89916
X124714Y101473
X133223Y112268
X124714Y103886
X136449Y74168
X129032Y79502
X157861Y84074
X149860Y77724
X144145Y72644
X159258Y71628
X154178Y93218
X150368Y102108
X162306Y72771
X148717Y77597
X160782Y106045
X146558Y113157
X150749Y110998
X151638Y109728
X152908Y110998
X152908Y108585
X150368Y108585
X148463Y96520
X150876Y97536
X151892Y91313
X158242Y90297
X146685Y78486
X144653Y79756
X151892Y84963
X154305Y85217
X144018Y74168
X152908Y83058
X148463Y69723
X154051Y72390
X151638Y69850
X151892Y74930
X158496Y76200
X157099Y67310
X155956Y69977
X143256Y120523
X143256Y119761
X143256Y118999
X143256Y118237
X143256Y117475
X143256Y116713
X143256Y121412
X143510Y116205
X144272Y116205
X145034Y116205
X145796Y116205
X146558Y116205
X147320Y116205
X148082Y116205
X148844Y116205
X149606Y116205
X150368Y116205
X151130Y116205
X151892Y116205
X152654Y116205
X153416Y116205
X154178Y116205
X154559Y121285
X154559Y116713
X154559Y117475
X154559Y118237
X154559Y118999
X154559Y119761
X154559Y120523
X141478Y118618
X141478Y116205
X155448Y119888
X156718Y118618
X155448Y117348
X157988Y117348
X156718Y116078
X159512Y115570
X160528Y113538
X152908Y112268
X150368Y112268
X147828Y112268
X147828Y108204
X147828Y105918
X154178Y105918
X155321Y104648
X145669Y100203
X151892Y94488
X152908Y97028
X157988Y94488
X156718Y94488
X157988Y91948
X157607Y86741
X141478Y82677
X142748Y81788
X144018Y80518
X141478Y80518
X142748Y79248
X144018Y75438
X142875Y74041
X143256Y70231
X144018Y69088
X142748Y67818
X145288Y67818
X157988Y65278
X157988Y67818
X160528Y67818
X162052Y72009
X160528Y72898
X152908Y76708
X150749Y77089
X145288Y76708
X151638Y105918
X152908Y107188
X150368Y107188
X142748Y95758
X146558Y109728
X150368Y90170
X145669Y65786
X143002Y114300
X142113Y110998
X142113Y108458
X142113Y105918
X152908Y114300
X160528Y110998
X160909Y108458
X161036Y103378
X144526Y98806
X142621Y88138
X142494Y85471
X148717Y82677
X148590Y71120
X158369Y100965
X148654Y89598
X154559Y88265
X158267Y85017
X159004Y89342
X149098Y74803
X147828Y74803
X143802Y104267
X151003Y82296
X157099Y80271
X156083Y111252
X150241Y71628
X156972Y110236
X149479Y70612
X149098Y72123
X159512Y102235
X160017Y103248
X157010Y105283
X149098Y108712
X146266Y105283
X145694Y94869
X146304Y106227
X145034Y97790
X151765Y79883
X144272Y97790
X151257Y79375
X147028Y108204
X147828Y97898
X146558Y107188
X146431Y112268
X154178Y95885
X154178Y102705
X142710Y102743
X143637Y111290
X145542Y96520
X157353Y69088
X151469Y67733
X152527Y67691
X153416Y71628
X151257Y75368
X149098Y87757
X148590Y88392
X148463Y64008
X157226Y98298
X156718Y102108
X152908Y93218
X151130Y89916
X148082Y101473
X156591Y112268
X148082Y103886
X159817Y74168
X152400Y79502
X181229Y84074
X173228Y77724
X167513Y72644
X182626Y71628
X177546Y93218
X173736Y102108
X185674Y72771
X172085Y77597
X184150Y106045
X169926Y113157
X174117Y110998
X175006Y109728
X176276Y110998
X176276Y108585
X173736Y108585
X171831Y96520
X174244Y97536
X175260Y91313
X181610Y90297
X170053Y78486
X168021Y79756
X175260Y84963
X177673Y85217
X167386Y74168
X176276Y83058
X171831Y69723
X17653Y21336
X175006Y69850
X175260Y74930
X181864Y76200
X180467Y67310
X179324Y69977
X166624Y120523
X166624Y119761
X166624Y118999
X166624Y118237
X166624Y117475
X166624Y116713
X166624Y121412
X166878Y116205
X167640Y116205
X168402Y116205
X169164Y116205
X169926Y116205
X170688Y116205
X171450Y116205
X172212Y116205
X172974Y116205
X173736Y116205
X174498Y116205
X175260Y116205
X176022Y116205
X176784Y116205
X177546Y116205
X177927Y121285
X177927Y116713
X177927Y117475
X177927Y118237
X177927Y118999
X177927Y119761
X177927Y120523
X164846Y118618
X164846Y116205
X178816Y119888
X180086Y118618
X178816Y117348
X181356Y117348
X180086Y116078
X182880Y115570
X183896Y113538
X176276Y112268
X173736Y112268
X171196Y112268
X171196Y108204
X171196Y105918
X177546Y105918
X178689Y104648
X169037Y100203
X175260Y94488
X176276Y97028
X181356Y94488
X180086Y94488
X181356Y91948
X180975Y86741
X164846Y82677
X166116Y81788
X167386Y80518
X164846Y80518
X166116Y79248
X167386Y75438
X166243Y74041
X166624Y70231
X167386Y69088
X166116Y67818
X168656Y67818
X181356Y65278
X181356Y67818
X183896Y67818
X185420Y72009
X183896Y72898
X176276Y76708
X174117Y77089
X168656Y76708
X175006Y105918
X176276Y107188
X173736Y107188
X166116Y95758
X169926Y109728
X173736Y90170
X169037Y65786
X166370Y114300
X165481Y110998
X165481Y108458
X165481Y105918
X176276Y114300
X183896Y110998
X184277Y108458
X184404Y103378
X167894Y98806
X165989Y88138
X165862Y85471
X172085Y82677
X171958Y71120
X181737Y100965
X172022Y89598
X177927Y88265
X181635Y85017
X182372Y89342
X172466Y74803
X171196Y74803
X167170Y104267
X174371Y82296
X180467Y80271
X179451Y111252
X173609Y71628
X180340Y110236
X172847Y70612
X172466Y72123
X182880Y102235
X183385Y103248
X180378Y105283
X172466Y108712
X169634Y105283
X169062Y94869
X169672Y106227
X168402Y97790
X175133Y79883
X167640Y97790
X174625Y79375
X170396Y108204
X171196Y97898
X169926Y107188
X169799Y112268
X177546Y95885
X177546Y102705
X166078Y102743
X167005Y111290
X168910Y96520
X180721Y69088
X174837Y67733
X175895Y67691
X176784Y71628
X174625Y75368
X172466Y87757
X171958Y88392
X171831Y64008
X180594Y98298
X180086Y102108
X176276Y93218
X174498Y89916
X171450Y101473
X179959Y112268
X171450Y103886
X183185Y74168
X175768Y79502
X9652Y14986
X3937Y9906
X19050Y8890
X13970Y30480
X10160Y39370
X22098Y10033
X8509Y14859
X20574Y43307
X6350Y50419
X10541Y48260
X11430Y46990
X12700Y48260
X12700Y45847
X10160Y45847
X8255Y33782
X10668Y34798
X11684Y28575
X18034Y27559
X6477Y15748
X4445Y17018
X11684Y22225
X14097Y22479
X3810Y11430
X12700Y20320
X8255Y6985
X13843Y9652
X11430Y7112
X11684Y12192
X18288Y13462
X16891Y4572
X15748Y7239
X3048Y57785
X3048Y57023
X3048Y56261
X3048Y55499
X3048Y54737
X3048Y53975
X3048Y58674
X3302Y53467
X4064Y53467
X4826Y53467
X5588Y53467
X6350Y53467
X7112Y53467
X7874Y53467
X8636Y53467
X9398Y53467
X10160Y53467
X10922Y53467
X11684Y53467
X12446Y53467
X13208Y53467
X13970Y53467
X14351Y58547
X14351Y53975
X14351Y54737
X14351Y55499
X14351Y56261
X14351Y57023
X14351Y57785
X1270Y55880
X1270Y53467
X15240Y57150
X16510Y55880
X15240Y54610
X17780Y54610
X16510Y53340
X19304Y52832
X20320Y50800
X12700Y49530
X10160Y49530
X7620Y49530
X7620Y45466
X7620Y43180
X13970Y43180
X15113Y41910
X5461Y37465
X11684Y31750
X12700Y34290
X17780Y31750
X16510Y31750
X17780Y29210
X17399Y24003
X1270Y19939
X2540Y19050
X3810Y17780
X1270Y17780
X2540Y16510
X3810Y12700
X2667Y11303
X3048Y7493
X3810Y6350
X2540Y5080
X5080Y5080
X17780Y2540
X17780Y5080
X20320Y5080
X21844Y9271
X20320Y10160
X12700Y13970
X10541Y14351
X5080Y13970
X11430Y43180
X12700Y44450
X10160Y44450
X2540Y33020
X6350Y46990
X10160Y27432
X5461Y3048
X2794Y51562
X1905Y48260
X1905Y45720
X1905Y43180
X12700Y51562
X20320Y48260
X20701Y45720
X20828Y40640
X4318Y36068
X2413Y25400
X2286Y22733
X8509Y19939
X8382Y8382
X18161Y38227
X8446Y26860
X14351Y25527
X18059Y22279
X18796Y26604
X8890Y12065
X7620Y12065
X3594Y41529
X10795Y19558
X16891Y17533
X15875Y48514
X10033Y8890
X16764Y47498
X9271Y7874
X8890Y9385
X19304Y39497
X19809Y40510
X16802Y42545
X8890Y45974
X6058Y42545
X5486Y32131
X6096Y43489
X4826Y35052
X11557Y17145
X4064Y35052
X11049Y16637
X6820Y45466
X7620Y35160
X6350Y44450
X6223Y49530
X13970Y33147
X13970Y39967
X2502Y40005
X3429Y48552
X5334Y33782
X17145Y6350
X11261Y4995
X12319Y4953
X13208Y8890
X11049Y12630
X8890Y25019
X8382Y25654
X8255Y1270
X17018Y35560
X16510Y39370
X12700Y30480
X10922Y27178
X7874Y38735
X16383Y49530
X7874Y41148
X19609Y11430
X12192Y16764
X41021Y21336
X33020Y14986
X27305Y9906
X42418Y8890
X37338Y30480
X33528Y39370
X45466Y10033
X31877Y14859
X43942Y43307
X29718Y50419
X33909Y48260
X34798Y46990
X36068Y48260
X36068Y45847
X33528Y45847
X31623Y33782
X34036Y34798
X35052Y28575
X41402Y27559
X29845Y15748
X27813Y17018
X35052Y22225
X37465Y22479
X27178Y11430
X36068Y20320
X31623Y6985
X37211Y9652
X34798Y7112
X35052Y12192
X41656Y13462
X40259Y4572
X39116Y7239
X26416Y57785
X26416Y57023
X26416Y56261
X26416Y55499
X26416Y54737
X26416Y53975
X26416Y58674
X26670Y53467
X27432Y53467
X28194Y53467
X28956Y53467
X29718Y53467
X30480Y53467
X31242Y53467
X32004Y53467
X32766Y53467
X33528Y53467
X34290Y53467
X35052Y53467
X35814Y53467
X36576Y53467
X37338Y53467
X37719Y58547
X37719Y53975
X37719Y54737
X37719Y55499
X37719Y56261
X37719Y57023
X37719Y57785
X24638Y55880
X24638Y53467
X38608Y57150
X39878Y55880
X38608Y54610
X41148Y54610
X39878Y53340
X42672Y52832
X43688Y50800
X36068Y49530
X33528Y49530
X30988Y49530
X30988Y45466
X30988Y43180
X37338Y43180
X38481Y41910
X28829Y37465
X35052Y31750
X36068Y34290
X41148Y31750
X39878Y31750
X41148Y29210
X40767Y24003
X24638Y19939
X25908Y19050
X27178Y17780
X24638Y17780
X25908Y16510
X27178Y12700
X26035Y11303
X26416Y7493
X27178Y6350
X25908Y5080
X28448Y5080
X41148Y2540
X41148Y5080
X43688Y5080
X45212Y9271
X43688Y10160
X36068Y13970
X33909Y14351
X28448Y13970
X34798Y43180
X36068Y44450
X33528Y44450
X25908Y33020
X29718Y46990
X33528Y27432
X28829Y3048
X26162Y51562
X25273Y48260
X25273Y45720
X25273Y43180
X36068Y51562
X43688Y48260
X44069Y45720
X44196Y40640
X27686Y36068
X64770Y90297
X25781Y25400
X25654Y22733
X31877Y19939
X31750Y8382
X41529Y38227
X31813Y26860
X37719Y25527
X41427Y22279
X42164Y26604
X32258Y12065
X30988Y12065
X26962Y41529
X34163Y19558
X40259Y17533
X39243Y48514
X33401Y8890
X40132Y47498
X32639Y7874
X32258Y9385
X42672Y39497
X43177Y40510
X40170Y42545
X32258Y45974
X29426Y42545
X28854Y32131
X29464Y43489
X28194Y35052
X34925Y17145
X27432Y35052
X34417Y16637
X30188Y45466
X30988Y35160
X29718Y44450
X29591Y49530
X37338Y33147
X37338Y39967
X25870Y40005
X26797Y48552
X28702Y33782
X40513Y6350
X34629Y4995
X35687Y4953
X36576Y8890
X34417Y12630
X32258Y25019
X31750Y25654
X31623Y1270
X40386Y35560
X39878Y39370
X36068Y30480
X34290Y27178
X31242Y38735
X39751Y49530
X31242Y41148
X42977Y11430
X35560Y16764
X64389Y21336
X56388Y14986
X50673Y9906
X65786Y8890
X60706Y30480
X56896Y39370
X68834Y10033
X55245Y14859
X67310Y43307
X53086Y50419
X57277Y48260
X58166Y46990
X59436Y48260
X59436Y45847
X56896Y45847
X54991Y33782
X57404Y34798
X58420Y28575
X64770Y27559
X53213Y15748
X51181Y17018
X58420Y22225
X60833Y22479
X50546Y11430
X59436Y20320
X54991Y6985
X60579Y9652
X58166Y7112
X58420Y12192
X65024Y13462
X63627Y4572
X62484Y7239
X49784Y57785
X49784Y57023
X49784Y56261
X49784Y55499
X49784Y54737
X49784Y53975
X49784Y58674
X50038Y53467
X50800Y53467
X51562Y53467
X52324Y53467
X53086Y53467
X53848Y53467
X54610Y53467
X55372Y53467
X56134Y53467
X56896Y53467
X57658Y53467
X58420Y53467
X59182Y53467
X59944Y53467
X60706Y53467
X61087Y58547
X61087Y53975
X61087Y54737
X61087Y55499
X61087Y56261
X61087Y57023
X61087Y57785
X48006Y55880
X48006Y53467
X61976Y57150
X63246Y55880
X61976Y54610
X64516Y54610
X63246Y53340
X66040Y52832
X67056Y50800
X59436Y49530
X56896Y49530
X54356Y49530
X54356Y45466
X54356Y43180
X60706Y43180
X61849Y41910
X52197Y37465
X58420Y31750
X59436Y34290
X64516Y31750
X63246Y31750
X64516Y29210
X64135Y24003
X48006Y19939
X49276Y19050
X50546Y17780
X48006Y17780
X49276Y16510
X50546Y12700
X49403Y11303
X49784Y7493
X49276Y5080
X51816Y5080
X64516Y2540
X64516Y5080
X67056Y5080
X68580Y9271
X67056Y10160
X59436Y13970
X57277Y14351
X51816Y13970
X58166Y43180
X59436Y44450
X56896Y44450
X49276Y33020
X53086Y46990
X56896Y27432
X52197Y3048
X49530Y51562
X48641Y48260
X48641Y45720
X48641Y43180
X59436Y51562
X67056Y48260
X67437Y45720
X67564Y40640
X51054Y36068
X49149Y25400
X49022Y22733
X55245Y19939
X55118Y8382
X64897Y38227
X55181Y26860
X61087Y25527
X64795Y22279
X65532Y26604
X55626Y12065
X54356Y12065
X50330Y41529
X57531Y19558
X63627Y17533
X62611Y48514
X56769Y8890
X63500Y47498
X56007Y7874
X55626Y9385
X66040Y39497
X66545Y40510
X63538Y42545
X55626Y45974
X52794Y42545
X52222Y32131
X52832Y43489
X51562Y35052
X58293Y17145
X50800Y35052
X57785Y16637
X53556Y45466
X54356Y35160
X53086Y44450
X52959Y49530
X60706Y33147
X60706Y39967
X49238Y40005
X50165Y48552
X52070Y33782
X63881Y6350
X57997Y4995
X59055Y4953
X59944Y8890
X57785Y12630
X55626Y25019
X55118Y25654
X54991Y1270
X63754Y35560
X63246Y39370
X59436Y30480
X57658Y27178
X54610Y38735
X63119Y49530
X54610Y41148
X66345Y11430
X58928Y16764
X87757Y21336
X79756Y14986
X74041Y9906
X89154Y8890
X84074Y30480
X80264Y39370
X92202Y10033
X78613Y14859
X90678Y43307
X76454Y50419
X80645Y48260
X81534Y46990
X82804Y48260
X82804Y45847
X80264Y45847
X78359Y33782
X80772Y34798
X81788Y28575
X88138Y27559
X76581Y15748
X74549Y17018
X81788Y22225
X84201Y22479
X73914Y11430
X82804Y20320
X78359Y6985
X83947Y9652
X81534Y7112
X81788Y12192
X88392Y13462
X86995Y4572
X85852Y7239
X73152Y57785
X73152Y57023
X73152Y56261
X73152Y55499
X73152Y54737
X73152Y53975
X73152Y58674
X73406Y53467
X74168Y53467
X74930Y53467
X75692Y53467
X76454Y53467
X77216Y53467
X77978Y53467
X78740Y53467
X79502Y53467
X80264Y53467
X81026Y53467
X81788Y53467
X82550Y53467
X83312Y53467
X84074Y53467
X84455Y58547
X84455Y53975
X84455Y54737
X84455Y55499
X84455Y56261
X84455Y57023
X84455Y57785
X71374Y55880
X71374Y53467
X85344Y57150
X86614Y55880
X85344Y54610
X87884Y54610
X86614Y53340
X89408Y52832
X90424Y50800
X82804Y49530
X80264Y49530
X77724Y49530
X77724Y45466
X77724Y43180
X84074Y43180
X85217Y41910
X75565Y37465
X81788Y31750
X82804Y34290
X87884Y31750
X86614Y31750
X87884Y29210
X87503Y24003
X71374Y19939
X72644Y19050
X73914Y17780
X71374Y17780
X72644Y16510
X73914Y12700
X72771Y11303
X73152Y7493
X73914Y6350
X72644Y5080
X75184Y5080
X87884Y2540
X87884Y5080
X90424Y5080
X91948Y9271
X90424Y10160
X82804Y13970
X80645Y14351
X75184Y13970
X81534Y43180
X82804Y44450
X80264Y44450
X72644Y33020
X76454Y46990
X80264Y27432
X75565Y3048
X72898Y51562
X72009Y48260
X72009Y45720
X72009Y43180
X82804Y51562
X90424Y48260
X90805Y45720
X90932Y40640
X74422Y36068
X72517Y25400
X72390Y22733
X78613Y19939
X78486Y8382
X88265Y38227
X78550Y26860
X84455Y25527
X88163Y22279
X88900Y26604
X78994Y12065
X77724Y12065
X73698Y41529
X80899Y19558
X86995Y17533
X85979Y48514
X80137Y8890
X86868Y47498
X79375Y7874
X78994Y9385
X89408Y39497
X89913Y40510
X86906Y42545
X78994Y45974
X76162Y42545
X75590Y32131
X76200Y43489
X74930Y35052
X81661Y17145
X74168Y35052
X81153Y16637
X76924Y45466
X77724Y35160
X76454Y44450
X76327Y49530
X84074Y33147
X84074Y39967
X72606Y40005
X73533Y48552
X75438Y33782
X87249Y6350
X81365Y4995
X82423Y4953
X83312Y8890
X81153Y12630
X78994Y25019
X78486Y25654
X78359Y1270
X87122Y35560
X86614Y39370
X82804Y30480
X81026Y27178
X77978Y38735
X86487Y49530
X77978Y41148
X89713Y11430
X82296Y16764
X111125Y21336
X103124Y14986
X97409Y9906
X112522Y8890
X107442Y30480
X103632Y39370
X115570Y10033
X101981Y14859
X114046Y43307
X99822Y50419
X104013Y48260
X104902Y46990
X106172Y48260
X106172Y45847
X103632Y45847
X101727Y33782
X104140Y34798
X105156Y28575
X111506Y27559
X99949Y15748
X97917Y17018
X105156Y22225
X107569Y22479
X97282Y11430
X106172Y20320
X101727Y6985
X107315Y9652
X104902Y7112
X105156Y12192
X111760Y13462
X110363Y4572
X109220Y7239
X96520Y57785
X96520Y57023
X96520Y56261
X96520Y55499
X177419Y72390
M30